<svg width="428" height="382" viewBox="0 0 428 382" fill="none" xmlns="http://www.w3.org/2000/svg">
<mask id="path-1-inside-1_141_26" fill="white">
<path d="M0 0H60V239H0V0Z"/>
</mask>
<path d="M0 0H60V239H0V0Z" fill="url(#paint0_linear_141_26)"/>
<path d="M59 0V239H61V0H59ZM1 239V0H-1V239H1Z" fill="url(#paint1_linear_141_26)" fill-opacity="0.5" mask="url(#path-1-inside-1_141_26)"/>
<mask id="path-3-inside-2_141_26" fill="white">
<path d="M92 0H152V319H92V0Z"/>
</mask>
<path d="M92 0H152V319H92V0Z" fill="url(#paint2_linear_141_26)"/>
<path d="M151 0V319H153V0H151ZM93 319V0H91V319H93Z" fill="url(#paint3_linear_141_26)" fill-opacity="0.5" mask="url(#path-3-inside-2_141_26)"/>
<mask id="path-5-inside-3_141_26" fill="white">
<path d="M184 0H244V382H184V0Z"/>
</mask>
<path d="M184 0H244V382H184V0Z" fill="url(#paint4_linear_141_26)"/>
<path d="M243 0V382H245V0H243ZM185 382V0H183V382H185Z" fill="url(#paint5_linear_141_26)" fill-opacity="0.5" mask="url(#path-5-inside-3_141_26)"/>
<mask id="path-7-inside-4_141_26" fill="white">
<path d="M276 0H336V319H276V0Z"/>
</mask>
<path d="M276 0H336V319H276V0Z" fill="url(#paint6_linear_141_26)"/>
<path d="M335 0V319H337V0H335ZM277 319V0H275V319H277Z" fill="url(#paint7_linear_141_26)" fill-opacity="0.5" mask="url(#path-7-inside-4_141_26)"/>
<mask id="path-9-inside-5_141_26" fill="white">
<path d="M368 0H428V239H368V0Z"/>
</mask>
<path d="M368 0H428V239H368V0Z" fill="url(#paint8_linear_141_26)"/>
<path d="M427 0V239H429V0H427ZM369 239V0H367V239H369Z" fill="url(#paint9_linear_141_26)" fill-opacity="0.5" mask="url(#path-9-inside-5_141_26)"/>
<defs>
<linearGradient id="paint0_linear_141_26" x1="30" y1="0" x2="30" y2="239" gradientUnits="userSpaceOnUse">
<stop stop-color="white" stop-opacity="0.04"/>
<stop offset="0.687845" stop-color="white" stop-opacity="0"/>
</linearGradient>
<linearGradient id="paint1_linear_141_26" x1="30" y1="0" x2="30" y2="239" gradientUnits="userSpaceOnUse">
<stop stop-color="white" stop-opacity="0.1"/>
<stop offset="0.690172" stop-color="white" stop-opacity="0"/>
</linearGradient>
<linearGradient id="paint2_linear_141_26" x1="122" y1="0" x2="122" y2="319" gradientUnits="userSpaceOnUse">
<stop stop-color="white" stop-opacity="0.04"/>
<stop offset="0.787164" stop-color="white" stop-opacity="0"/>
</linearGradient>
<linearGradient id="paint3_linear_141_26" x1="122" y1="0" x2="122" y2="319" gradientUnits="userSpaceOnUse">
<stop stop-color="white" stop-opacity="0.1"/>
<stop offset="0.76354" stop-color="white" stop-opacity="0"/>
</linearGradient>
<linearGradient id="paint4_linear_141_26" x1="214" y1="0" x2="214" y2="410.65" gradientUnits="userSpaceOnUse">
<stop stop-color="white" stop-opacity="0.04"/>
<stop offset="0.834236" stop-color="white" stop-opacity="0"/>
</linearGradient>
<linearGradient id="paint5_linear_141_26" x1="214" y1="0" x2="214" y2="382" gradientUnits="userSpaceOnUse">
<stop stop-color="white" stop-opacity="0.1"/>
<stop offset="0.907109" stop-color="white" stop-opacity="0"/>
</linearGradient>
<linearGradient id="paint6_linear_141_26" x1="306" y1="0" x2="306" y2="319" gradientUnits="userSpaceOnUse">
<stop stop-color="white" stop-opacity="0.04"/>
<stop offset="0.787164" stop-color="white" stop-opacity="0"/>
</linearGradient>
<linearGradient id="paint7_linear_141_26" x1="306" y1="0" x2="306" y2="319" gradientUnits="userSpaceOnUse">
<stop stop-color="white" stop-opacity="0.1"/>
<stop offset="0.76354" stop-color="white" stop-opacity="0"/>
</linearGradient>
<linearGradient id="paint8_linear_141_26" x1="398" y1="0" x2="398" y2="239" gradientUnits="userSpaceOnUse">
<stop stop-color="white" stop-opacity="0.04"/>
<stop offset="0.687845" stop-color="white" stop-opacity="0"/>
</linearGradient>
<linearGradient id="paint9_linear_141_26" x1="398" y1="0" x2="398" y2="239" gradientUnits="userSpaceOnUse">
<stop stop-color="white" stop-opacity="0.1"/>
<stop offset="0.690172" stop-color="white" stop-opacity="0"/>
</linearGradient>
</defs>
</svg>
