<svg width="591" height="431" viewBox="0 0 591 431" fill="none" xmlns="http://www.w3.org/2000/svg">
<line x1="38.4852" y1="370.976" x2="322.485" y2="66.9762" stroke="url(#paint0_linear_282_1940)" stroke-width="0.853596" stroke-dasharray="1.71 1.71"/>
<line x1="551.486" y1="371.56" x2="258.486" y2="59.5598" stroke="url(#paint1_linear_282_1940)" stroke-width="0.853596" stroke-dasharray="1.71 1.71"/>
<line x1="404.465" y1="363.535" x2="259.465" y2="183.535" stroke="url(#paint2_linear_282_1940)" stroke-width="0.853596" stroke-dasharray="1.71 1.71"/>
<line x1="295.224" y1="60.2676" x2="295.224" y2="251.268" stroke="url(#paint3_linear_282_1940)" stroke-width="0.853596" stroke-dasharray="1.71 1.71"/>
<line x1="257.437" y1="371.496" x2="135.437" y2="179.496" stroke="url(#paint4_linear_282_1940)" stroke-width="0.853596" stroke-dasharray="1.71 1.71"/>
<line x1="185.453" y1="371.015" x2="326.453" y2="179.015" stroke="url(#paint5_linear_282_1940)" stroke-width="0.853596" stroke-dasharray="1.71 1.71"/>
<line x1="456.156" y1="179.498" x2="333.156" y2="371.498" stroke="url(#paint6_linear_282_1940)" stroke-width="0.853596" stroke-dasharray="1.71 1.71"/>
<g filter="url(#filter0_b_282_1940)">
<g clip-path="url(#clip0_282_1940)">
<rect x="259.297" y="59.2676" width="72" height="72" rx="36" fill="white"/>
<path d="M295.297 76.6009C297.772 76.6009 300.146 77.5842 301.897 79.3346C303.647 81.0849 304.63 83.4589 304.63 85.9342C304.63 88.4096 303.647 90.7835 301.897 92.5339C300.146 94.2842 297.772 95.2676 295.297 95.2676C292.822 95.2676 290.448 94.2842 288.697 92.5339C286.947 90.7835 285.964 88.4096 285.964 85.9342C285.964 83.4589 286.947 81.0849 288.697 79.3346C290.448 77.5842 292.822 76.6009 295.297 76.6009ZM295.297 99.9342C305.61 99.9342 313.964 104.111 313.964 109.268V113.934H276.63V109.268C276.63 104.111 284.984 99.9342 295.297 99.9342Z" fill="#2962FF" fill-opacity="0.4"/>
<g opacity="0.1" filter="url(#filter1_f_282_1940)">
<rect x="266.288" y="113.116" width="50.364" height="20.8856" rx="10.4428" transform="rotate(19.3511 266.288 113.116)" fill="#2962FF"/>
</g>
</g>
<rect x="259.797" y="59.7676" width="71" height="71" rx="35.5" stroke="#2D7AFE" stroke-opacity="0.4"/>
</g>
<g filter="url(#filter2_b_282_1940)">
<g clip-path="url(#clip1_282_1940)">
<rect x="135.297" y="179.268" width="72" height="72" rx="36" fill="white"/>
<path d="M171.297 196.601C173.772 196.601 176.146 197.584 177.897 199.335C179.647 201.085 180.63 203.459 180.63 205.934C180.63 208.41 179.647 210.784 177.897 212.534C176.146 214.284 173.772 215.268 171.297 215.268C168.822 215.268 166.448 214.284 164.697 212.534C162.947 210.784 161.964 208.41 161.964 205.934C161.964 203.459 162.947 201.085 164.697 199.335C166.448 197.584 168.822 196.601 171.297 196.601ZM171.297 219.934C181.61 219.934 189.964 224.111 189.964 229.268V233.934H152.63V229.268C152.63 224.111 160.984 219.934 171.297 219.934Z" fill="#2962FF" fill-opacity="0.4"/>
<g opacity="0.1" filter="url(#filter3_f_282_1940)">
<rect x="142.288" y="233.116" width="50.364" height="20.8856" rx="10.4428" transform="rotate(19.3511 142.288 233.116)" fill="#2962FF"/>
</g>
</g>
<rect x="135.797" y="179.768" width="71" height="71" rx="35.5" stroke="#2D7AFE" stroke-opacity="0.4"/>
</g>
<g filter="url(#filter4_b_282_1940)">
<g clip-path="url(#clip2_282_1940)">
<rect x="259.297" y="179.268" width="72" height="72" rx="36" fill="white"/>
<path d="M295.297 196.601C297.772 196.601 300.146 197.584 301.897 199.335C303.647 201.085 304.63 203.459 304.63 205.934C304.63 208.41 303.647 210.784 301.897 212.534C300.146 214.284 297.772 215.268 295.297 215.268C292.822 215.268 290.448 214.284 288.697 212.534C286.947 210.784 285.964 208.41 285.964 205.934C285.964 203.459 286.947 201.085 288.697 199.335C290.448 197.584 292.822 196.601 295.297 196.601ZM295.297 219.934C305.61 219.934 313.964 224.111 313.964 229.268V233.934H276.63V229.268C276.63 224.111 284.984 219.934 295.297 219.934Z" fill="#2962FF" fill-opacity="0.4"/>
<g opacity="0.1" filter="url(#filter5_f_282_1940)">
<rect x="266.288" y="233.116" width="50.364" height="20.8856" rx="10.4428" transform="rotate(19.3511 266.288 233.116)" fill="#2962FF"/>
</g>
</g>
<rect x="259.797" y="179.768" width="71" height="71" rx="35.5" stroke="#2D7AFE" stroke-opacity="0.4"/>
</g>
<g filter="url(#filter6_b_282_1940)">
<g clip-path="url(#clip3_282_1940)">
<rect x="383.297" y="179.268" width="72" height="72" rx="36" fill="white"/>
<path d="M419.297 196.601C421.772 196.601 424.146 197.584 425.897 199.335C427.647 201.085 428.63 203.459 428.63 205.934C428.63 208.41 427.647 210.784 425.897 212.534C424.146 214.284 421.772 215.268 419.297 215.268C416.822 215.268 414.448 214.284 412.697 212.534C410.947 210.784 409.964 208.41 409.964 205.934C409.964 203.459 410.947 201.085 412.697 199.335C414.448 197.584 416.822 196.601 419.297 196.601ZM419.297 219.934C429.61 219.934 437.964 224.111 437.964 229.268V233.934H400.63V229.268C400.63 224.111 408.984 219.934 419.297 219.934Z" fill="#2962FF" fill-opacity="0.4"/>
<g opacity="0.1" filter="url(#filter7_f_282_1940)">
<rect x="390.288" y="233.116" width="50.364" height="20.8856" rx="10.4428" transform="rotate(19.3511 390.288 233.116)" fill="#2962FF"/>
</g>
</g>
<rect x="383.797" y="179.768" width="71" height="71" rx="35.5" stroke="#2D7AFE" stroke-opacity="0.4"/>
</g>
<g filter="url(#filter8_b_282_1940)">
<g clip-path="url(#clip4_282_1940)">
<rect x="38.7971" y="299.268" width="72" height="72" rx="36" fill="white"/>
<path d="M74.797 316.601C77.2724 316.601 79.6464 317.584 81.3967 319.335C83.147 321.085 84.1304 323.459 84.1304 325.934C84.1304 328.41 83.147 330.784 81.3967 332.534C79.6464 334.284 77.2724 335.268 74.797 335.268C72.3217 335.268 69.9477 334.284 68.1974 332.534C66.447 330.784 65.4637 328.41 65.4637 325.934C65.4637 323.459 66.447 321.085 68.1974 319.335C69.9477 317.584 72.3217 316.601 74.797 316.601ZM74.797 339.934C85.1104 339.934 93.4637 344.111 93.4637 349.268V353.934H56.1304V349.268C56.1304 344.111 64.4837 339.934 74.797 339.934Z" fill="#2962FF" fill-opacity="0.4"/>
<g opacity="0.1" filter="url(#filter9_f_282_1940)">
<rect x="45.7883" y="353.116" width="50.364" height="20.8856" rx="10.4428" transform="rotate(19.3511 45.7883 353.116)" fill="#2962FF"/>
</g>
</g>
<rect x="39.2971" y="299.768" width="71" height="71" rx="35.5" stroke="#2D7AFE" stroke-opacity="0.4"/>
</g>
<g filter="url(#filter10_b_282_1940)">
<g clip-path="url(#clip5_282_1940)">
<rect x="185.797" y="299.268" width="72" height="72" rx="36" fill="white"/>
<path d="M221.797 316.601C224.272 316.601 226.646 317.584 228.397 319.335C230.147 321.085 231.13 323.459 231.13 325.934C231.13 328.41 230.147 330.784 228.397 332.534C226.646 334.284 224.272 335.268 221.797 335.268C219.322 335.268 216.948 334.284 215.197 332.534C213.447 330.784 212.464 328.41 212.464 325.934C212.464 323.459 213.447 321.085 215.197 319.335C216.948 317.584 219.322 316.601 221.797 316.601ZM221.797 339.934C232.11 339.934 240.464 344.111 240.464 349.268V353.934H203.13V349.268C203.13 344.111 211.484 339.934 221.797 339.934Z" fill="#2962FF" fill-opacity="0.4"/>
<g opacity="0.1" filter="url(#filter11_f_282_1940)">
<rect x="192.788" y="353.116" width="50.364" height="20.8856" rx="10.4428" transform="rotate(19.3511 192.788 353.116)" fill="#2962FF"/>
</g>
</g>
<rect x="186.297" y="299.768" width="71" height="71" rx="35.5" stroke="#2D7AFE" stroke-opacity="0.4"/>
</g>
<g filter="url(#filter12_b_282_1940)">
<g clip-path="url(#clip6_282_1940)">
<rect x="332.797" y="299.268" width="72" height="72" rx="36" fill="white"/>
<path d="M368.797 316.601C371.272 316.601 373.646 317.584 375.397 319.335C377.147 321.085 378.13 323.459 378.13 325.934C378.13 328.41 377.147 330.784 375.397 332.534C373.646 334.284 371.272 335.268 368.797 335.268C366.322 335.268 363.948 334.284 362.197 332.534C360.447 330.784 359.464 328.41 359.464 325.934C359.464 323.459 360.447 321.085 362.197 319.335C363.948 317.584 366.322 316.601 368.797 316.601ZM368.797 339.934C379.11 339.934 387.464 344.111 387.464 349.268V353.934H350.13V349.268C350.13 344.111 358.484 339.934 368.797 339.934Z" fill="#2962FF" fill-opacity="0.4"/>
<g opacity="0.1" filter="url(#filter13_f_282_1940)">
<rect x="339.788" y="353.116" width="50.364" height="20.8856" rx="10.4428" transform="rotate(19.3511 339.788 353.116)" fill="#2962FF"/>
</g>
</g>
<rect x="333.297" y="299.768" width="71" height="71" rx="35.5" stroke="#2D7AFE" stroke-opacity="0.4"/>
</g>
<g filter="url(#filter14_b_282_1940)">
<g clip-path="url(#clip7_282_1940)">
<rect x="479.797" y="299.268" width="72" height="72" rx="36" fill="white"/>
<path d="M515.797 316.601C518.272 316.601 520.646 317.584 522.397 319.335C524.147 321.085 525.13 323.459 525.13 325.934C525.13 328.41 524.147 330.784 522.397 332.534C520.646 334.284 518.272 335.268 515.797 335.268C513.322 335.268 510.948 334.284 509.197 332.534C507.447 330.784 506.464 328.41 506.464 325.934C506.464 323.459 507.447 321.085 509.197 319.335C510.948 317.584 513.322 316.601 515.797 316.601ZM515.797 339.934C526.11 339.934 534.464 344.111 534.464 349.268V353.934H497.13V349.268C497.13 344.111 505.484 339.934 515.797 339.934Z" fill="#2962FF" fill-opacity="0.4"/>
<g opacity="0.1" filter="url(#filter15_f_282_1940)">
<rect x="486.788" y="353.116" width="50.364" height="20.8856" rx="10.4428" transform="rotate(19.3511 486.788 353.116)" fill="#2962FF"/>
</g>
</g>
<rect x="480.297" y="299.768" width="71" height="71" rx="35.5" stroke="#2D7AFE" stroke-opacity="0.4"/>
</g>
<defs>
<filter id="filter0_b_282_1940" x="-240.703" y="-440.732" width="1072" height="1072" filterUnits="userSpaceOnUse" color-interpolation-filters="sRGB">
<feFlood flood-opacity="0" result="BackgroundImageFix"/>
<feGaussianBlur in="BackgroundImageFix" stdDeviation="250"/>
<feComposite in2="SourceAlpha" operator="in" result="effect1_backgroundBlur_282_1940"/>
<feBlend mode="normal" in="SourceGraphic" in2="effect1_backgroundBlur_282_1940" result="shape"/>
</filter>
<filter id="filter1_f_282_1940" x="239.368" y="93.1158" width="94.4395" height="76.394" filterUnits="userSpaceOnUse" color-interpolation-filters="sRGB">
<feFlood flood-opacity="0" result="BackgroundImageFix"/>
<feBlend mode="normal" in="SourceGraphic" in2="BackgroundImageFix" result="shape"/>
<feGaussianBlur stdDeviation="10" result="effect1_foregroundBlur_282_1940"/>
</filter>
<filter id="filter2_b_282_1940" x="-364.703" y="-320.732" width="1072" height="1072" filterUnits="userSpaceOnUse" color-interpolation-filters="sRGB">
<feFlood flood-opacity="0" result="BackgroundImageFix"/>
<feGaussianBlur in="BackgroundImageFix" stdDeviation="250"/>
<feComposite in2="SourceAlpha" operator="in" result="effect1_backgroundBlur_282_1940"/>
<feBlend mode="normal" in="SourceGraphic" in2="effect1_backgroundBlur_282_1940" result="shape"/>
</filter>
<filter id="filter3_f_282_1940" x="115.368" y="213.116" width="94.4395" height="76.394" filterUnits="userSpaceOnUse" color-interpolation-filters="sRGB">
<feFlood flood-opacity="0" result="BackgroundImageFix"/>
<feBlend mode="normal" in="SourceGraphic" in2="BackgroundImageFix" result="shape"/>
<feGaussianBlur stdDeviation="10" result="effect1_foregroundBlur_282_1940"/>
</filter>
<filter id="filter4_b_282_1940" x="-240.703" y="-320.732" width="1072" height="1072" filterUnits="userSpaceOnUse" color-interpolation-filters="sRGB">
<feFlood flood-opacity="0" result="BackgroundImageFix"/>
<feGaussianBlur in="BackgroundImageFix" stdDeviation="250"/>
<feComposite in2="SourceAlpha" operator="in" result="effect1_backgroundBlur_282_1940"/>
<feBlend mode="normal" in="SourceGraphic" in2="effect1_backgroundBlur_282_1940" result="shape"/>
</filter>
<filter id="filter5_f_282_1940" x="239.368" y="213.116" width="94.4395" height="76.394" filterUnits="userSpaceOnUse" color-interpolation-filters="sRGB">
<feFlood flood-opacity="0" result="BackgroundImageFix"/>
<feBlend mode="normal" in="SourceGraphic" in2="BackgroundImageFix" result="shape"/>
<feGaussianBlur stdDeviation="10" result="effect1_foregroundBlur_282_1940"/>
</filter>
<filter id="filter6_b_282_1940" x="-116.703" y="-320.732" width="1072" height="1072" filterUnits="userSpaceOnUse" color-interpolation-filters="sRGB">
<feFlood flood-opacity="0" result="BackgroundImageFix"/>
<feGaussianBlur in="BackgroundImageFix" stdDeviation="250"/>
<feComposite in2="SourceAlpha" operator="in" result="effect1_backgroundBlur_282_1940"/>
<feBlend mode="normal" in="SourceGraphic" in2="effect1_backgroundBlur_282_1940" result="shape"/>
</filter>
<filter id="filter7_f_282_1940" x="363.368" y="213.116" width="94.4395" height="76.394" filterUnits="userSpaceOnUse" color-interpolation-filters="sRGB">
<feFlood flood-opacity="0" result="BackgroundImageFix"/>
<feBlend mode="normal" in="SourceGraphic" in2="BackgroundImageFix" result="shape"/>
<feGaussianBlur stdDeviation="10" result="effect1_foregroundBlur_282_1940"/>
</filter>
<filter id="filter8_b_282_1940" x="-461.203" y="-200.732" width="1072" height="1072" filterUnits="userSpaceOnUse" color-interpolation-filters="sRGB">
<feFlood flood-opacity="0" result="BackgroundImageFix"/>
<feGaussianBlur in="BackgroundImageFix" stdDeviation="250"/>
<feComposite in2="SourceAlpha" operator="in" result="effect1_backgroundBlur_282_1940"/>
<feBlend mode="normal" in="SourceGraphic" in2="effect1_backgroundBlur_282_1940" result="shape"/>
</filter>
<filter id="filter9_f_282_1940" x="18.8677" y="333.116" width="94.4395" height="76.394" filterUnits="userSpaceOnUse" color-interpolation-filters="sRGB">
<feFlood flood-opacity="0" result="BackgroundImageFix"/>
<feBlend mode="normal" in="SourceGraphic" in2="BackgroundImageFix" result="shape"/>
<feGaussianBlur stdDeviation="10" result="effect1_foregroundBlur_282_1940"/>
</filter>
<filter id="filter10_b_282_1940" x="-314.203" y="-200.732" width="1072" height="1072" filterUnits="userSpaceOnUse" color-interpolation-filters="sRGB">
<feFlood flood-opacity="0" result="BackgroundImageFix"/>
<feGaussianBlur in="BackgroundImageFix" stdDeviation="250"/>
<feComposite in2="SourceAlpha" operator="in" result="effect1_backgroundBlur_282_1940"/>
<feBlend mode="normal" in="SourceGraphic" in2="effect1_backgroundBlur_282_1940" result="shape"/>
</filter>
<filter id="filter11_f_282_1940" x="165.868" y="333.116" width="94.4395" height="76.394" filterUnits="userSpaceOnUse" color-interpolation-filters="sRGB">
<feFlood flood-opacity="0" result="BackgroundImageFix"/>
<feBlend mode="normal" in="SourceGraphic" in2="BackgroundImageFix" result="shape"/>
<feGaussianBlur stdDeviation="10" result="effect1_foregroundBlur_282_1940"/>
</filter>
<filter id="filter12_b_282_1940" x="-167.203" y="-200.732" width="1072" height="1072" filterUnits="userSpaceOnUse" color-interpolation-filters="sRGB">
<feFlood flood-opacity="0" result="BackgroundImageFix"/>
<feGaussianBlur in="BackgroundImageFix" stdDeviation="250"/>
<feComposite in2="SourceAlpha" operator="in" result="effect1_backgroundBlur_282_1940"/>
<feBlend mode="normal" in="SourceGraphic" in2="effect1_backgroundBlur_282_1940" result="shape"/>
</filter>
<filter id="filter13_f_282_1940" x="312.868" y="333.116" width="94.4395" height="76.394" filterUnits="userSpaceOnUse" color-interpolation-filters="sRGB">
<feFlood flood-opacity="0" result="BackgroundImageFix"/>
<feBlend mode="normal" in="SourceGraphic" in2="BackgroundImageFix" result="shape"/>
<feGaussianBlur stdDeviation="10" result="effect1_foregroundBlur_282_1940"/>
</filter>
<filter id="filter14_b_282_1940" x="-20.2029" y="-200.732" width="1072" height="1072" filterUnits="userSpaceOnUse" color-interpolation-filters="sRGB">
<feFlood flood-opacity="0" result="BackgroundImageFix"/>
<feGaussianBlur in="BackgroundImageFix" stdDeviation="250"/>
<feComposite in2="SourceAlpha" operator="in" result="effect1_backgroundBlur_282_1940"/>
<feBlend mode="normal" in="SourceGraphic" in2="effect1_backgroundBlur_282_1940" result="shape"/>
</filter>
<filter id="filter15_f_282_1940" x="459.868" y="333.116" width="94.4395" height="76.394" filterUnits="userSpaceOnUse" color-interpolation-filters="sRGB">
<feFlood flood-opacity="0" result="BackgroundImageFix"/>
<feBlend mode="normal" in="SourceGraphic" in2="BackgroundImageFix" result="shape"/>
<feGaussianBlur stdDeviation="10" result="effect1_foregroundBlur_282_1940"/>
</filter>
<linearGradient id="paint0_linear_282_1940" x1="39.1625" y1="371.609" x2="323.162" y2="67.6089" gradientUnits="userSpaceOnUse">
<stop stop-color="#2962FF" stop-opacity="0"/>
<stop offset="0.5" stop-color="#2962FF" stop-opacity="0.6"/>
<stop offset="1" stop-color="#2962FF" stop-opacity="0"/>
</linearGradient>
<linearGradient id="paint1_linear_282_1940" x1="552.162" y1="370.925" x2="259.162" y2="58.9253" gradientUnits="userSpaceOnUse">
<stop stop-color="#2962FF" stop-opacity="0"/>
<stop offset="0.5" stop-color="#2962FF" stop-opacity="0.6"/>
<stop offset="1" stop-color="#2962FF" stop-opacity="0"/>
</linearGradient>
<linearGradient id="paint2_linear_282_1940" x1="405.186" y1="362.954" x2="260.186" y2="182.954" gradientUnits="userSpaceOnUse">
<stop stop-color="#2962FF" stop-opacity="0"/>
<stop offset="0.5" stop-color="#2962FF" stop-opacity="0.6"/>
<stop offset="1" stop-color="#2962FF" stop-opacity="0"/>
</linearGradient>
<linearGradient id="paint3_linear_282_1940" x1="294.297" y1="60.2676" x2="294.297" y2="251.268" gradientUnits="userSpaceOnUse">
<stop stop-color="#2962FF" stop-opacity="0"/>
<stop offset="0.5" stop-color="#2962FF" stop-opacity="0.6"/>
<stop offset="1" stop-color="#2962FF" stop-opacity="0"/>
</linearGradient>
<linearGradient id="paint4_linear_282_1940" x1="258.219" y1="370.999" x2="136.219" y2="178.999" gradientUnits="userSpaceOnUse">
<stop stop-color="#2962FF" stop-opacity="0"/>
<stop offset="0.5" stop-color="#2962FF" stop-opacity="0.6"/>
<stop offset="1" stop-color="#2962FF" stop-opacity="0"/>
</linearGradient>
<linearGradient id="paint5_linear_282_1940" x1="186.2" y1="371.564" x2="327.2" y2="179.564" gradientUnits="userSpaceOnUse">
<stop stop-color="#2962FF" stop-opacity="0"/>
<stop offset="0.5" stop-color="#2962FF" stop-opacity="0.6"/>
<stop offset="1" stop-color="#2962FF" stop-opacity="0"/>
</linearGradient>
<linearGradient id="paint6_linear_282_1940" x1="455.376" y1="178.998" x2="332.376" y2="370.998" gradientUnits="userSpaceOnUse">
<stop stop-color="#2962FF" stop-opacity="0"/>
<stop offset="0.5" stop-color="#2962FF" stop-opacity="0.6"/>
<stop offset="1" stop-color="#2962FF" stop-opacity="0"/>
</linearGradient>
<clipPath id="clip0_282_1940">
<rect x="259.297" y="59.2676" width="72" height="72" rx="36" fill="white"/>
</clipPath>
<clipPath id="clip1_282_1940">
<rect x="135.297" y="179.268" width="72" height="72" rx="36" fill="white"/>
</clipPath>
<clipPath id="clip2_282_1940">
<rect x="259.297" y="179.268" width="72" height="72" rx="36" fill="white"/>
</clipPath>
<clipPath id="clip3_282_1940">
<rect x="383.297" y="179.268" width="72" height="72" rx="36" fill="white"/>
</clipPath>
<clipPath id="clip4_282_1940">
<rect x="38.7971" y="299.268" width="72" height="72" rx="36" fill="white"/>
</clipPath>
<clipPath id="clip5_282_1940">
<rect x="185.797" y="299.268" width="72" height="72" rx="36" fill="white"/>
</clipPath>
<clipPath id="clip6_282_1940">
<rect x="332.797" y="299.268" width="72" height="72" rx="36" fill="white"/>
</clipPath>
<clipPath id="clip7_282_1940">
<rect x="479.797" y="299.268" width="72" height="72" rx="36" fill="white"/>
</clipPath>
</defs>
</svg>
