<svg width="514" height="313" viewBox="0 0 514 313" fill="none" xmlns="http://www.w3.org/2000/svg">
<line x1="0.688124" y1="311.709" x2="284.688" y2="7.70866" stroke="url(#paint0_linear_218_25)" stroke-width="0.853596" stroke-dasharray="1.71 1.71"/>
<line x1="513.689" y1="312.292" x2="220.689" y2="0.292176" stroke="url(#paint1_linear_218_25)" stroke-width="0.853596" stroke-dasharray="1.71 1.71"/>
<line x1="366.668" y1="304.268" x2="221.668" y2="124.268" stroke="url(#paint2_linear_218_25)" stroke-width="0.853596" stroke-dasharray="1.71 1.71"/>
<line x1="257.427" y1="1" x2="257.427" y2="192" stroke="url(#paint3_linear_218_25)" stroke-width="0.853596" stroke-dasharray="1.71 1.71"/>
<line x1="219.64" y1="312.229" x2="97.6398" y2="120.229" stroke="url(#paint4_linear_218_25)" stroke-width="0.853596" stroke-dasharray="1.71 1.71"/>
<line x1="147.656" y1="311.747" x2="288.656" y2="119.747" stroke="url(#paint5_linear_218_25)" stroke-width="0.853596" stroke-dasharray="1.71 1.71"/>
<line x1="418.359" y1="120.23" x2="295.359" y2="312.23" stroke="url(#paint6_linear_218_25)" stroke-width="0.853596" stroke-dasharray="1.71 1.71"/>
<g filter="url(#filter0_b_218_25)">
<g clip-path="url(#clip0_218_25)">
<rect x="221.5" width="72" height="72" rx="36" fill="white"/>
<path d="M257.5 17.333C259.975 17.333 262.349 18.3163 264.099 20.0667C265.85 21.817 266.833 24.191 266.833 26.6663C266.833 29.1417 265.85 31.5157 264.099 33.266C262.349 35.0163 259.975 35.9997 257.5 35.9997C255.024 35.9997 252.65 35.0163 250.9 33.266C249.15 31.5157 248.166 29.1417 248.166 26.6663C248.166 24.191 249.15 21.817 250.9 20.0667C252.65 18.3163 255.024 17.333 257.5 17.333ZM257.5 40.6663C267.813 40.6663 276.166 44.843 276.166 49.9997V54.6663H238.833V49.9997C238.833 44.843 247.186 40.6663 257.5 40.6663Z" fill="#2962FF"/>
<g opacity="0.1" filter="url(#filter1_f_218_25)">
<rect x="228.491" y="53.8486" width="50.364" height="20.8856" rx="10.4428" transform="rotate(19.3511 228.491 53.8486)" fill="#2962FF"/>
</g>
</g>
<rect x="222" y="0.5" width="71" height="71" rx="35.5" stroke="#2D7AFE"/>
</g>
<g filter="url(#filter2_b_218_25)">
<g clip-path="url(#clip1_218_25)">
<rect x="97.5" y="120" width="72" height="72" rx="36" fill="white"/>
<path d="M133.5 137.333C135.975 137.333 138.349 138.316 140.099 140.067C141.85 141.817 142.833 144.191 142.833 146.666C142.833 149.142 141.85 151.516 140.099 153.266C138.349 155.016 135.975 156 133.5 156C131.024 156 128.65 155.016 126.9 153.266C125.15 151.516 124.166 149.142 124.166 146.666C124.166 144.191 125.15 141.817 126.9 140.067C128.65 138.316 131.024 137.333 133.5 137.333ZM133.5 160.666C143.813 160.666 152.166 164.843 152.166 170V174.666H114.833V170C114.833 164.843 123.186 160.666 133.5 160.666Z" fill="#2962FF"/>
<g opacity="0.1" filter="url(#filter3_f_218_25)">
<rect x="104.491" y="173.849" width="50.364" height="20.8856" rx="10.4428" transform="rotate(19.3511 104.491 173.849)" fill="#2962FF"/>
</g>
</g>
<rect x="98" y="120.5" width="71" height="71" rx="35.5" stroke="#2D7AFE"/>
</g>
<g filter="url(#filter4_b_218_25)">
<g clip-path="url(#clip2_218_25)">
<rect x="221.5" y="120" width="72" height="72" rx="36" fill="white"/>
<path d="M257.5 137.333C259.975 137.333 262.349 138.316 264.099 140.067C265.85 141.817 266.833 144.191 266.833 146.666C266.833 149.142 265.85 151.516 264.099 153.266C262.349 155.016 259.975 156 257.5 156C255.024 156 252.65 155.016 250.9 153.266C249.15 151.516 248.166 149.142 248.166 146.666C248.166 144.191 249.15 141.817 250.9 140.067C252.65 138.316 255.024 137.333 257.5 137.333ZM257.5 160.666C267.813 160.666 276.166 164.843 276.166 170V174.666H238.833V170C238.833 164.843 247.186 160.666 257.5 160.666Z" fill="#2962FF"/>
<g opacity="0.1" filter="url(#filter5_f_218_25)">
<rect x="228.491" y="173.849" width="50.364" height="20.8856" rx="10.4428" transform="rotate(19.3511 228.491 173.849)" fill="#2962FF"/>
</g>
</g>
<rect x="222" y="120.5" width="71" height="71" rx="35.5" stroke="#2D7AFE"/>
</g>
<g filter="url(#filter6_b_218_25)">
<g clip-path="url(#clip3_218_25)">
<rect x="345.5" y="120" width="72" height="72" rx="36" fill="white"/>
<path d="M381.5 137.333C383.975 137.333 386.349 138.316 388.099 140.067C389.85 141.817 390.833 144.191 390.833 146.666C390.833 149.142 389.85 151.516 388.099 153.266C386.349 155.016 383.975 156 381.5 156C379.024 156 376.65 155.016 374.9 153.266C373.15 151.516 372.166 149.142 372.166 146.666C372.166 144.191 373.15 141.817 374.9 140.067C376.65 138.316 379.024 137.333 381.5 137.333ZM381.5 160.666C391.813 160.666 400.166 164.843 400.166 170V174.666H362.833V170C362.833 164.843 371.186 160.666 381.5 160.666Z" fill="#2962FF"/>
<g opacity="0.1" filter="url(#filter7_f_218_25)">
<rect x="352.491" y="173.849" width="50.364" height="20.8856" rx="10.4428" transform="rotate(19.3511 352.491 173.849)" fill="#2962FF"/>
</g>
</g>
<rect x="346" y="120.5" width="71" height="71" rx="35.5" stroke="#2D7AFE"/>
</g>
<g filter="url(#filter8_b_218_25)">
<g clip-path="url(#clip4_218_25)">
<rect x="1" y="240" width="72" height="72" rx="36" fill="white"/>
<path d="M36.9997 257.333C39.475 257.333 41.849 258.316 43.5993 260.067C45.3497 261.817 46.333 264.191 46.333 266.666C46.333 269.142 45.3497 271.516 43.5993 273.266C41.849 275.016 39.475 276 36.9997 276C34.5243 276 32.1504 275.016 30.4 273.266C28.6497 271.516 27.6663 269.142 27.6663 266.666C27.6663 264.191 28.6497 261.817 30.4 260.067C32.1504 258.316 34.5243 257.333 36.9997 257.333ZM36.9997 280.666C47.313 280.666 55.6663 284.843 55.6663 290V294.666H18.333V290C18.333 284.843 26.6863 280.666 36.9997 280.666Z" fill="#2962FF"/>
<g opacity="0.1" filter="url(#filter9_f_218_25)">
<rect x="7.99121" y="293.849" width="50.364" height="20.8856" rx="10.4428" transform="rotate(19.3511 7.99121 293.849)" fill="#2962FF"/>
</g>
</g>
<rect x="1.5" y="240.5" width="71" height="71" rx="35.5" stroke="#2D7AFE"/>
</g>
<g filter="url(#filter10_b_218_25)">
<g clip-path="url(#clip5_218_25)">
<rect x="148" y="240" width="72" height="72" rx="36" fill="white"/>
<path d="M184 257.333C186.475 257.333 188.849 258.316 190.599 260.067C192.35 261.817 193.333 264.191 193.333 266.666C193.333 269.142 192.35 271.516 190.599 273.266C188.849 275.016 186.475 276 184 276C181.524 276 179.15 275.016 177.4 273.266C175.65 271.516 174.666 269.142 174.666 266.666C174.666 264.191 175.65 261.817 177.4 260.067C179.15 258.316 181.524 257.333 184 257.333ZM184 280.666C194.313 280.666 202.666 284.843 202.666 290V294.666H165.333V290C165.333 284.843 173.686 280.666 184 280.666Z" fill="#2962FF"/>
<g opacity="0.1" filter="url(#filter11_f_218_25)">
<rect x="154.991" y="293.849" width="50.364" height="20.8856" rx="10.4428" transform="rotate(19.3511 154.991 293.849)" fill="#2962FF"/>
</g>
</g>
<rect x="148.5" y="240.5" width="71" height="71" rx="35.5" stroke="#2D7AFE"/>
</g>
<g filter="url(#filter12_b_218_25)">
<g clip-path="url(#clip6_218_25)">
<rect x="295" y="240" width="72" height="72" rx="36" fill="white"/>
<path d="M331 257.333C333.475 257.333 335.849 258.316 337.599 260.067C339.35 261.817 340.333 264.191 340.333 266.666C340.333 269.142 339.35 271.516 337.599 273.266C335.849 275.016 333.475 276 331 276C328.524 276 326.15 275.016 324.4 273.266C322.65 271.516 321.666 269.142 321.666 266.666C321.666 264.191 322.65 261.817 324.4 260.067C326.15 258.316 328.524 257.333 331 257.333ZM331 280.666C341.313 280.666 349.666 284.843 349.666 290V294.666H312.333V290C312.333 284.843 320.686 280.666 331 280.666Z" fill="#2962FF"/>
<g opacity="0.1" filter="url(#filter13_f_218_25)">
<rect x="301.991" y="293.849" width="50.364" height="20.8856" rx="10.4428" transform="rotate(19.3511 301.991 293.849)" fill="#2962FF"/>
</g>
</g>
<rect x="295.5" y="240.5" width="71" height="71" rx="35.5" stroke="#2D7AFE"/>
</g>
<g filter="url(#filter14_b_218_25)">
<g clip-path="url(#clip7_218_25)">
<rect x="442" y="240" width="72" height="72" rx="36" fill="white"/>
<path d="M478 257.333C480.475 257.333 482.849 258.316 484.599 260.067C486.35 261.817 487.333 264.191 487.333 266.666C487.333 269.142 486.35 271.516 484.599 273.266C482.849 275.016 480.475 276 478 276C475.524 276 473.15 275.016 471.4 273.266C469.65 271.516 468.666 269.142 468.666 266.666C468.666 264.191 469.65 261.817 471.4 260.067C473.15 258.316 475.524 257.333 478 257.333ZM478 280.666C488.313 280.666 496.666 284.843 496.666 290V294.666H459.333V290C459.333 284.843 467.686 280.666 478 280.666Z" fill="#2962FF"/>
<g opacity="0.1" filter="url(#filter15_f_218_25)">
<rect x="448.991" y="293.849" width="50.364" height="20.8856" rx="10.4428" transform="rotate(19.3511 448.991 293.849)" fill="#2962FF"/>
</g>
</g>
<rect x="442.5" y="240.5" width="71" height="71" rx="35.5" stroke="#2D7AFE"/>
</g>
<defs>
<filter id="filter0_b_218_25" x="-278.5" y="-500" width="1072" height="1072" filterUnits="userSpaceOnUse" color-interpolation-filters="sRGB">
<feFlood flood-opacity="0" result="BackgroundImageFix"/>
<feGaussianBlur in="BackgroundImageFix" stdDeviation="250"/>
<feComposite in2="SourceAlpha" operator="in" result="effect1_backgroundBlur_218_25"/>
<feBlend mode="normal" in="SourceGraphic" in2="effect1_backgroundBlur_218_25" result="shape"/>
</filter>
<filter id="filter1_f_218_25" x="201.57" y="33.8486" width="94.4395" height="76.3945" filterUnits="userSpaceOnUse" color-interpolation-filters="sRGB">
<feFlood flood-opacity="0" result="BackgroundImageFix"/>
<feBlend mode="normal" in="SourceGraphic" in2="BackgroundImageFix" result="shape"/>
<feGaussianBlur stdDeviation="10" result="effect1_foregroundBlur_218_25"/>
</filter>
<filter id="filter2_b_218_25" x="-402.5" y="-380" width="1072" height="1072" filterUnits="userSpaceOnUse" color-interpolation-filters="sRGB">
<feFlood flood-opacity="0" result="BackgroundImageFix"/>
<feGaussianBlur in="BackgroundImageFix" stdDeviation="250"/>
<feComposite in2="SourceAlpha" operator="in" result="effect1_backgroundBlur_218_25"/>
<feBlend mode="normal" in="SourceGraphic" in2="effect1_backgroundBlur_218_25" result="shape"/>
</filter>
<filter id="filter3_f_218_25" x="77.5703" y="153.849" width="94.4395" height="76.3945" filterUnits="userSpaceOnUse" color-interpolation-filters="sRGB">
<feFlood flood-opacity="0" result="BackgroundImageFix"/>
<feBlend mode="normal" in="SourceGraphic" in2="BackgroundImageFix" result="shape"/>
<feGaussianBlur stdDeviation="10" result="effect1_foregroundBlur_218_25"/>
</filter>
<filter id="filter4_b_218_25" x="-278.5" y="-380" width="1072" height="1072" filterUnits="userSpaceOnUse" color-interpolation-filters="sRGB">
<feFlood flood-opacity="0" result="BackgroundImageFix"/>
<feGaussianBlur in="BackgroundImageFix" stdDeviation="250"/>
<feComposite in2="SourceAlpha" operator="in" result="effect1_backgroundBlur_218_25"/>
<feBlend mode="normal" in="SourceGraphic" in2="effect1_backgroundBlur_218_25" result="shape"/>
</filter>
<filter id="filter5_f_218_25" x="201.57" y="153.849" width="94.4395" height="76.3945" filterUnits="userSpaceOnUse" color-interpolation-filters="sRGB">
<feFlood flood-opacity="0" result="BackgroundImageFix"/>
<feBlend mode="normal" in="SourceGraphic" in2="BackgroundImageFix" result="shape"/>
<feGaussianBlur stdDeviation="10" result="effect1_foregroundBlur_218_25"/>
</filter>
<filter id="filter6_b_218_25" x="-154.5" y="-380" width="1072" height="1072" filterUnits="userSpaceOnUse" color-interpolation-filters="sRGB">
<feFlood flood-opacity="0" result="BackgroundImageFix"/>
<feGaussianBlur in="BackgroundImageFix" stdDeviation="250"/>
<feComposite in2="SourceAlpha" operator="in" result="effect1_backgroundBlur_218_25"/>
<feBlend mode="normal" in="SourceGraphic" in2="effect1_backgroundBlur_218_25" result="shape"/>
</filter>
<filter id="filter7_f_218_25" x="325.57" y="153.849" width="94.4395" height="76.3945" filterUnits="userSpaceOnUse" color-interpolation-filters="sRGB">
<feFlood flood-opacity="0" result="BackgroundImageFix"/>
<feBlend mode="normal" in="SourceGraphic" in2="BackgroundImageFix" result="shape"/>
<feGaussianBlur stdDeviation="10" result="effect1_foregroundBlur_218_25"/>
</filter>
<filter id="filter8_b_218_25" x="-499" y="-260" width="1072" height="1072" filterUnits="userSpaceOnUse" color-interpolation-filters="sRGB">
<feFlood flood-opacity="0" result="BackgroundImageFix"/>
<feGaussianBlur in="BackgroundImageFix" stdDeviation="250"/>
<feComposite in2="SourceAlpha" operator="in" result="effect1_backgroundBlur_218_25"/>
<feBlend mode="normal" in="SourceGraphic" in2="effect1_backgroundBlur_218_25" result="shape"/>
</filter>
<filter id="filter9_f_218_25" x="-18.9297" y="273.849" width="94.4395" height="76.3945" filterUnits="userSpaceOnUse" color-interpolation-filters="sRGB">
<feFlood flood-opacity="0" result="BackgroundImageFix"/>
<feBlend mode="normal" in="SourceGraphic" in2="BackgroundImageFix" result="shape"/>
<feGaussianBlur stdDeviation="10" result="effect1_foregroundBlur_218_25"/>
</filter>
<filter id="filter10_b_218_25" x="-352" y="-260" width="1072" height="1072" filterUnits="userSpaceOnUse" color-interpolation-filters="sRGB">
<feFlood flood-opacity="0" result="BackgroundImageFix"/>
<feGaussianBlur in="BackgroundImageFix" stdDeviation="250"/>
<feComposite in2="SourceAlpha" operator="in" result="effect1_backgroundBlur_218_25"/>
<feBlend mode="normal" in="SourceGraphic" in2="effect1_backgroundBlur_218_25" result="shape"/>
</filter>
<filter id="filter11_f_218_25" x="128.07" y="273.849" width="94.4395" height="76.3945" filterUnits="userSpaceOnUse" color-interpolation-filters="sRGB">
<feFlood flood-opacity="0" result="BackgroundImageFix"/>
<feBlend mode="normal" in="SourceGraphic" in2="BackgroundImageFix" result="shape"/>
<feGaussianBlur stdDeviation="10" result="effect1_foregroundBlur_218_25"/>
</filter>
<filter id="filter12_b_218_25" x="-205" y="-260" width="1072" height="1072" filterUnits="userSpaceOnUse" color-interpolation-filters="sRGB">
<feFlood flood-opacity="0" result="BackgroundImageFix"/>
<feGaussianBlur in="BackgroundImageFix" stdDeviation="250"/>
<feComposite in2="SourceAlpha" operator="in" result="effect1_backgroundBlur_218_25"/>
<feBlend mode="normal" in="SourceGraphic" in2="effect1_backgroundBlur_218_25" result="shape"/>
</filter>
<filter id="filter13_f_218_25" x="275.07" y="273.849" width="94.4395" height="76.3945" filterUnits="userSpaceOnUse" color-interpolation-filters="sRGB">
<feFlood flood-opacity="0" result="BackgroundImageFix"/>
<feBlend mode="normal" in="SourceGraphic" in2="BackgroundImageFix" result="shape"/>
<feGaussianBlur stdDeviation="10" result="effect1_foregroundBlur_218_25"/>
</filter>
<filter id="filter14_b_218_25" x="-58" y="-260" width="1072" height="1072" filterUnits="userSpaceOnUse" color-interpolation-filters="sRGB">
<feFlood flood-opacity="0" result="BackgroundImageFix"/>
<feGaussianBlur in="BackgroundImageFix" stdDeviation="250"/>
<feComposite in2="SourceAlpha" operator="in" result="effect1_backgroundBlur_218_25"/>
<feBlend mode="normal" in="SourceGraphic" in2="effect1_backgroundBlur_218_25" result="shape"/>
</filter>
<filter id="filter15_f_218_25" x="422.07" y="273.849" width="94.4395" height="76.3945" filterUnits="userSpaceOnUse" color-interpolation-filters="sRGB">
<feFlood flood-opacity="0" result="BackgroundImageFix"/>
<feBlend mode="normal" in="SourceGraphic" in2="BackgroundImageFix" result="shape"/>
<feGaussianBlur stdDeviation="10" result="effect1_foregroundBlur_218_25"/>
</filter>
<linearGradient id="paint0_linear_218_25" x1="1.36537" y1="312.341" x2="285.365" y2="8.34135" gradientUnits="userSpaceOnUse">
<stop stop-color="#2962FF" stop-opacity="0"/>
<stop offset="0.5" stop-color="#2962FF" stop-opacity="0.6"/>
<stop offset="1" stop-color="#2962FF" stop-opacity="0"/>
</linearGradient>
<linearGradient id="paint1_linear_218_25" x1="514.364" y1="311.658" x2="221.364" y2="-0.342275" gradientUnits="userSpaceOnUse">
<stop stop-color="#2962FF" stop-opacity="0"/>
<stop offset="0.5" stop-color="#2962FF" stop-opacity="0.6"/>
<stop offset="1" stop-color="#2962FF" stop-opacity="0"/>
</linearGradient>
<linearGradient id="paint2_linear_218_25" x1="367.389" y1="303.686" x2="222.389" y2="123.686" gradientUnits="userSpaceOnUse">
<stop stop-color="#2962FF" stop-opacity="0"/>
<stop offset="0.5" stop-color="#2962FF" stop-opacity="0.6"/>
<stop offset="1" stop-color="#2962FF" stop-opacity="0"/>
</linearGradient>
<linearGradient id="paint3_linear_218_25" x1="256.5" y1="1" x2="256.5" y2="192" gradientUnits="userSpaceOnUse">
<stop stop-color="#2962FF" stop-opacity="0"/>
<stop offset="0.5" stop-color="#2962FF" stop-opacity="0.6"/>
<stop offset="1" stop-color="#2962FF" stop-opacity="0"/>
</linearGradient>
<linearGradient id="paint4_linear_218_25" x1="220.422" y1="311.732" x2="98.422" y2="119.732" gradientUnits="userSpaceOnUse">
<stop stop-color="#2962FF" stop-opacity="0"/>
<stop offset="0.5" stop-color="#2962FF" stop-opacity="0.6"/>
<stop offset="1" stop-color="#2962FF" stop-opacity="0"/>
</linearGradient>
<linearGradient id="paint5_linear_218_25" x1="148.403" y1="312.296" x2="289.403" y2="120.296" gradientUnits="userSpaceOnUse">
<stop stop-color="#2962FF" stop-opacity="0"/>
<stop offset="0.5" stop-color="#2962FF" stop-opacity="0.6"/>
<stop offset="1" stop-color="#2962FF" stop-opacity="0"/>
</linearGradient>
<linearGradient id="paint6_linear_218_25" x1="417.579" y1="119.73" x2="294.579" y2="311.73" gradientUnits="userSpaceOnUse">
<stop stop-color="#2962FF" stop-opacity="0"/>
<stop offset="0.5" stop-color="#2962FF" stop-opacity="0.6"/>
<stop offset="1" stop-color="#2962FF" stop-opacity="0"/>
</linearGradient>
<clipPath id="clip0_218_25">
<rect x="221.5" width="72" height="72" rx="36" fill="white"/>
</clipPath>
<clipPath id="clip1_218_25">
<rect x="97.5" y="120" width="72" height="72" rx="36" fill="white"/>
</clipPath>
<clipPath id="clip2_218_25">
<rect x="221.5" y="120" width="72" height="72" rx="36" fill="white"/>
</clipPath>
<clipPath id="clip3_218_25">
<rect x="345.5" y="120" width="72" height="72" rx="36" fill="white"/>
</clipPath>
<clipPath id="clip4_218_25">
<rect x="1" y="240" width="72" height="72" rx="36" fill="white"/>
</clipPath>
<clipPath id="clip5_218_25">
<rect x="148" y="240" width="72" height="72" rx="36" fill="white"/>
</clipPath>
<clipPath id="clip6_218_25">
<rect x="295" y="240" width="72" height="72" rx="36" fill="white"/>
</clipPath>
<clipPath id="clip7_218_25">
<rect x="442" y="240" width="72" height="72" rx="36" fill="white"/>
</clipPath>
</defs>
</svg>
