<svg width="590" height="431" viewBox="0 0 590 431" fill="none" xmlns="http://www.w3.org/2000/svg">
<g clip-path="url(#clip0_289_110)">
<rect x="-0.0078125" y="3.21045" width="521" height="424" rx="12" fill="white"/>
<g opacity="0.6" filter="url(#filter0_f_289_110)">
<rect x="469.153" y="181.932" width="1.33797" height="1.33797" rx="0.668985" transform="rotate(138.383 469.153 181.932)" fill="white"/>
</g>
<g opacity="0.6" filter="url(#filter1_f_289_110)">
<rect x="473.201" y="152.207" width="1.33797" height="1.33797" rx="0.668985" transform="rotate(138.383 473.201 152.207)" fill="white"/>
</g>
<g opacity="0.6" filter="url(#filter2_f_289_110)">
<rect x="477.857" y="142.333" width="1.33797" height="1.33797" rx="0.668985" transform="rotate(-159.61 477.857 142.333)" fill="white"/>
</g>
<g opacity="0.6" filter="url(#filter3_f_289_110)">
<rect width="1.33797" height="1.33797" rx="0.668985" transform="matrix(0.231267 -0.97289 -0.97289 -0.231267 436.804 156.667)" fill="white"/>
</g>
<g opacity="0.3" filter="url(#filter4_f_289_110)">
<rect x="451.181" y="175.109" width="1.33797" height="1.33797" rx="0.668985" transform="rotate(138.383 451.181 175.109)" fill="white"/>
</g>
<g opacity="0.3" filter="url(#filter5_f_289_110)">
<rect x="453.879" y="155.292" width="1.33797" height="1.33797" rx="0.668985" transform="rotate(138.383 453.879 155.292)" fill="white"/>
</g>
<g opacity="0.3" filter="url(#filter6_f_289_110)">
<rect x="456.682" y="130.179" width="1.33797" height="1.33797" rx="0.668985" transform="rotate(-159.61 456.682 130.179)" fill="white"/>
</g>
<g opacity="0.3" filter="url(#filter7_f_289_110)">
<rect width="1.33797" height="1.33797" rx="0.668985" transform="matrix(0.231267 -0.97289 -0.97289 -0.231267 438.42 132.666)" fill="white"/>
</g>
<g opacity="0.3" filter="url(#filter8_f_289_110)">
<rect width="1.33797" height="1.33797" rx="0.668985" transform="matrix(0.231267 -0.97289 -0.97289 -0.231267 449.509 140.172)" fill="white"/>
</g>
<g opacity="0.3" filter="url(#filter9_f_289_110)">
<rect width="1.33797" height="1.33797" rx="0.668985" transform="matrix(0.231267 -0.97289 -0.97289 -0.231267 428.166 163.506)" fill="white"/>
</g>
<g opacity="0.3" filter="url(#filter10_f_289_110)">
<rect width="1.33797" height="1.33797" rx="0.668985" transform="matrix(0.231267 -0.97289 -0.97289 -0.231267 440.596 161.161)" fill="white"/>
</g>
<g opacity="0.3" filter="url(#filter11_f_289_110)">
<rect width="1.33797" height="1.33797" rx="0.668985" transform="matrix(0.231267 -0.97289 -0.97289 -0.231267 462.934 160.166)" fill="white"/>
</g>
<g opacity="0.3" filter="url(#filter12_f_289_110)">
<rect width="1.33797" height="1.33797" rx="0.668985" transform="matrix(0.231267 -0.97289 -0.97289 -0.231267 462.757 176.289)" fill="white"/>
</g>
<g opacity="0.3" filter="url(#filter13_f_289_110)">
<rect width="1.33797" height="1.33797" rx="0.668985" transform="matrix(0.231267 -0.97289 -0.97289 -0.231267 458.245 135.306)" fill="white"/>
</g>
<g opacity="0.6" filter="url(#filter14_f_289_110)">
<rect width="1.33797" height="1.33797" rx="0.668985" transform="matrix(0.231267 -0.97289 -0.97289 -0.231267 506.804 266.667)" fill="white"/>
</g>
<g opacity="0.3" filter="url(#filter15_f_289_110)">
<rect x="521.181" y="285.109" width="1.33797" height="1.33797" rx="0.668985" transform="rotate(138.383 521.181 285.109)" fill="white"/>
</g>
<g opacity="0.3" filter="url(#filter16_f_289_110)">
<rect x="523.879" y="265.292" width="1.33797" height="1.33797" rx="0.668985" transform="rotate(138.383 523.879 265.292)" fill="white"/>
</g>
<g opacity="0.3" filter="url(#filter17_f_289_110)">
<rect width="1.33797" height="1.33797" rx="0.668985" transform="matrix(0.231267 -0.97289 -0.97289 -0.231267 508.42 242.666)" fill="white"/>
</g>
<g opacity="0.3" filter="url(#filter18_f_289_110)">
<rect width="1.33797" height="1.33797" rx="0.668985" transform="matrix(0.231267 -0.97289 -0.97289 -0.231267 519.509 250.172)" fill="white"/>
</g>
<g opacity="0.3" filter="url(#filter19_f_289_110)">
<rect width="1.33797" height="1.33797" rx="0.668985" transform="matrix(0.231267 -0.97289 -0.97289 -0.231267 498.166 273.506)" fill="white"/>
</g>
<g opacity="0.3" filter="url(#filter20_f_289_110)">
<rect width="1.33797" height="1.33797" rx="0.668985" transform="matrix(0.231267 -0.97289 -0.97289 -0.231267 510.596 271.161)" fill="white"/>
</g>
<g opacity="0.6" filter="url(#filter21_f_289_110)">
<rect x="386.153" y="71.9324" width="1.33797" height="1.33797" rx="0.668985" transform="rotate(138.383 386.153 71.9324)" fill="white"/>
</g>
<g opacity="0.6" filter="url(#filter22_f_289_110)">
<rect x="390.201" y="42.2067" width="1.33797" height="1.33797" rx="0.668985" transform="rotate(138.383 390.201 42.2067)" fill="white"/>
</g>
<g opacity="0.6" filter="url(#filter23_f_289_110)">
<rect x="394.857" y="32.3326" width="1.33797" height="1.33797" rx="0.668985" transform="rotate(-159.61 394.857 32.3326)" fill="white"/>
</g>
<g opacity="0.6" filter="url(#filter24_f_289_110)">
<rect width="1.33797" height="1.33797" rx="0.668985" transform="matrix(0.231267 -0.97289 -0.97289 -0.231267 353.804 46.6673)" fill="white"/>
</g>
<g opacity="0.3" filter="url(#filter25_f_289_110)">
<rect x="368.181" y="65.1095" width="1.33797" height="1.33797" rx="0.668985" transform="rotate(138.383 368.181 65.1095)" fill="white"/>
</g>
<g opacity="0.3" filter="url(#filter26_f_289_110)">
<rect x="370.879" y="45.2923" width="1.33797" height="1.33797" rx="0.668985" transform="rotate(138.383 370.879 45.2923)" fill="white"/>
</g>
<g opacity="0.3" filter="url(#filter27_f_289_110)">
<rect x="373.682" y="20.1791" width="1.33797" height="1.33797" rx="0.668985" transform="rotate(-159.61 373.682 20.1791)" fill="white"/>
</g>
<g opacity="0.3" filter="url(#filter28_f_289_110)">
<rect width="1.33797" height="1.33797" rx="0.668985" transform="matrix(0.231267 -0.97289 -0.97289 -0.231267 355.42 22.6659)" fill="white"/>
</g>
<g opacity="0.3" filter="url(#filter29_f_289_110)">
<rect width="1.33797" height="1.33797" rx="0.668985" transform="matrix(0.231267 -0.97289 -0.97289 -0.231267 366.509 30.1719)" fill="white"/>
</g>
<g opacity="0.3" filter="url(#filter30_f_289_110)">
<rect width="1.33797" height="1.33797" rx="0.668985" transform="matrix(0.231267 -0.97289 -0.97289 -0.231267 345.166 53.5058)" fill="white"/>
</g>
<g opacity="0.3" filter="url(#filter31_f_289_110)">
<rect width="1.33797" height="1.33797" rx="0.668985" transform="matrix(0.231267 -0.97289 -0.97289 -0.231267 357.596 51.1613)" fill="white"/>
</g>
<g opacity="0.3" filter="url(#filter32_f_289_110)">
<rect width="1.33797" height="1.33797" rx="0.668985" transform="matrix(0.231267 -0.97289 -0.97289 -0.231267 379.934 50.1659)" fill="white"/>
</g>
<g opacity="0.3" filter="url(#filter33_f_289_110)">
<rect width="1.33797" height="1.33797" rx="0.668985" transform="matrix(0.231267 -0.97289 -0.97289 -0.231267 379.757 66.2895)" fill="white"/>
</g>
<g opacity="0.3" filter="url(#filter34_f_289_110)">
<rect width="1.33797" height="1.33797" rx="0.668985" transform="matrix(0.231267 -0.97289 -0.97289 -0.231267 375.245 25.306)" fill="white"/>
</g>
<g opacity="0.6" filter="url(#filter35_f_289_110)">
<rect x="386.225" y="308.932" width="1.33797" height="1.33797" rx="0.668985" transform="rotate(138.383 386.225 308.932)" fill="white"/>
</g>
<g opacity="0.6" filter="url(#filter36_f_289_110)">
<rect x="390.272" y="279.207" width="1.33797" height="1.33797" rx="0.668985" transform="rotate(138.383 390.272 279.207)" fill="white"/>
</g>
<g opacity="0.6" filter="url(#filter37_f_289_110)">
<rect x="394.929" y="269.333" width="1.33797" height="1.33797" rx="0.668985" transform="rotate(-159.61 394.929 269.333)" fill="white"/>
</g>
<g opacity="0.6" filter="url(#filter38_f_289_110)">
<rect width="1.33797" height="1.33797" rx="0.668985" transform="matrix(0.231267 -0.97289 -0.97289 -0.231267 353.875 283.667)" fill="white"/>
</g>
<g opacity="0.3" filter="url(#filter39_f_289_110)">
<rect x="368.252" y="302.109" width="1.33797" height="1.33797" rx="0.668985" transform="rotate(138.383 368.252 302.109)" fill="white"/>
</g>
<g opacity="0.3" filter="url(#filter40_f_289_110)">
<rect x="370.95" y="282.292" width="1.33797" height="1.33797" rx="0.668985" transform="rotate(138.383 370.95 282.292)" fill="white"/>
</g>
<g opacity="0.3" filter="url(#filter41_f_289_110)">
<rect x="373.753" y="257.179" width="1.33797" height="1.33797" rx="0.668985" transform="rotate(-159.61 373.753 257.179)" fill="white"/>
</g>
<g opacity="0.3" filter="url(#filter42_f_289_110)">
<rect width="1.33797" height="1.33797" rx="0.668985" transform="matrix(0.231267 -0.97289 -0.97289 -0.231267 355.492 259.666)" fill="white"/>
</g>
<g opacity="0.3" filter="url(#filter43_f_289_110)">
<rect width="1.33797" height="1.33797" rx="0.668985" transform="matrix(0.231267 -0.97289 -0.97289 -0.231267 366.58 267.172)" fill="white"/>
</g>
<g opacity="0.3" filter="url(#filter44_f_289_110)">
<rect width="1.33797" height="1.33797" rx="0.668985" transform="matrix(0.231267 -0.97289 -0.97289 -0.231267 345.237 290.506)" fill="white"/>
</g>
<g opacity="0.3" filter="url(#filter45_f_289_110)">
<rect width="1.33797" height="1.33797" rx="0.668985" transform="matrix(0.231267 -0.97289 -0.97289 -0.231267 357.667 288.161)" fill="white"/>
</g>
<g opacity="0.3" filter="url(#filter46_f_289_110)">
<rect width="1.33797" height="1.33797" rx="0.668985" transform="matrix(0.231267 -0.97289 -0.97289 -0.231267 380.005 287.166)" fill="white"/>
</g>
<g opacity="0.3" filter="url(#filter47_f_289_110)">
<rect width="1.33797" height="1.33797" rx="0.668985" transform="matrix(0.231267 -0.97289 -0.97289 -0.231267 379.829 303.289)" fill="white"/>
</g>
<g opacity="0.3" filter="url(#filter48_f_289_110)">
<rect width="1.33797" height="1.33797" rx="0.668985" transform="matrix(0.231267 -0.97289 -0.97289 -0.231267 375.316 262.306)" fill="white"/>
</g>
<path d="M488.992 35.2104L472.992 51.2104M472.992 35.2104L488.992 51.2104" stroke="#1E1E1E" stroke-width="2.66667" stroke-linecap="round" stroke-linejoin="round"/>
<g clip-path="url(#clip1_289_110)">
<rect x="-139.008" y="3.21045" width="529" height="557" rx="6" fill="url(#paint0_linear_289_110)"/>
<path d="M-473.008 438.454C-473.008 438.454 -386.837 442.681 -334.029 429.689C-292.061 419.365 -273.517 397.897 -231.361 388.372C-173.175 375.224 -137.13 399.94 -78.6097 388.372C-41.7495 381.085 -24.6704 361.23 12.7905 358.322C24.9778 357.376 32.1306 360.842 44.092 358.322C67.7307 353.342 71.8393 331.218 94.1743 322.012C106.346 316.995 114.539 318.224 126.728 313.248C165.461 297.435 161.533 248.042 201.851 236.873C228.776 229.413 273.218 241.881 273.218 241.881" stroke="url(#paint1_linear_289_110)" stroke-width="2.50412"/>
<g filter="url(#filter49_b_289_110)">
<rect x="263.202" y="234.367" width="20.0329" height="20.0329" rx="10.0165" fill="#2962FF"/>
</g>
<g filter="url(#filter50_f_289_110)">
<rect x="263.202" y="234.367" width="20.0329" height="20.0329" rx="10.0165" fill="#2962FF"/>
</g>
<path d="M-441.707 443.46C-441.707 443.46 -334.135 341.102 -247.638 309.49C-176.65 283.547 -128.052 304.995 -56.0728 281.945C17.4506 258.4 47.2392 218.464 119.215 190.545C172.005 170.068 258.194 149.227 258.194 149.227" stroke="url(#paint2_linear_289_110)" stroke-width="2.50412"/>
<g filter="url(#filter51_b_289_110)">
<rect x="253.186" y="139.21" width="20.0329" height="20.0329" rx="10.0165" fill="#11A008"/>
</g>
<g filter="url(#filter52_f_289_110)">
<rect x="253.186" y="139.21" width="20.0329" height="20.0329" rx="10.0165" fill="#11A008"/>
</g>
<path d="M-413.757 506.263L-354.964 444.814L-322.441 416.58L-297.422 394.99L-266.15 371.739L-228.622 355.131L-204.855 348.488L-183.59 345.166L-128.55 343.506L-101.03 340.184L-74.7605 333.541L-47.2405 321.915L-18.4696 306.968L0.293976 293.682V258.71L32.4922 236.71L76.4922 210.21L129.992 185.71L196.492 165.21L272.992 144.21V521.21H-415.008L-413.757 506.263Z" fill="url(#paint3_linear_289_110)"/>
</g>
<path d="M475.601 45.0304C476.572 44.2704 477.992 44.9634 477.992 46.1964V71.1204C477.992 72.6584 476.026 73.3004 475.118 72.0584L468.893 63.5354C468.707 63.2813 468.464 63.0746 468.184 62.9321C467.903 62.7897 467.593 62.7154 467.278 62.7154H457.588C456.076 62.7154 455.418 60.8034 456.61 59.8714L475.601 45.0304Z" fill="#0D0E11"/>
<path d="M475.909 45.4242L475.909 45.4244L456.918 60.2653C456.1 60.9051 456.553 62.2154 457.588 62.2154H467.278C467.278 62.2154 467.278 62.2154 467.278 62.2154C467.672 62.2154 468.059 62.3082 468.41 62.4863C468.761 62.6644 469.065 62.9228 469.297 63.2404L469.297 63.2405L475.522 71.7634C476.145 72.6151 477.492 72.1746 477.492 71.1204V46.1964C477.492 45.3795 476.552 44.9215 475.909 45.4242ZM475.118 72.0584L468.893 63.5354L475.118 72.0584Z" stroke="white" stroke-opacity="0.8"/>
<path d="M482.833 322.693C483.355 321.576 482.36 320.348 481.159 320.626L456.873 326.232C455.375 326.578 455.192 328.638 456.606 329.244L466.311 333.392C466.6 333.516 466.856 333.706 467.058 333.947C467.26 334.189 467.402 334.474 467.473 334.781L469.653 344.223C469.993 345.696 472.004 345.907 472.644 344.536L482.833 322.693Z" fill="#0D0E11"/>
<path d="M482.38 322.481L482.379 322.482L472.191 344.324C471.752 345.266 470.373 345.119 470.14 344.11L467.96 334.669C467.96 334.669 467.96 334.669 467.96 334.669C467.872 334.285 467.694 333.928 467.442 333.626C467.189 333.325 466.869 333.087 466.507 332.932L466.507 332.932L456.803 328.784C455.833 328.369 455.959 326.957 456.986 326.72L481.271 321.113C482.067 320.929 482.725 321.743 482.38 322.481ZM456.606 329.244L466.311 333.392L456.606 329.244Z" stroke="white" stroke-opacity="0.8"/>
</g>
<rect x="0.992188" y="4.21045" width="519" height="422" rx="11" stroke="#D5DEE8" stroke-width="2"/>
<rect x="-0.0078125" y="4.76709" width="522.052" height="422.443" fill="url(#paint4_linear_289_110)"/>
<defs>
<filter id="filter0_f_289_110" x="465.927" y="179.594" width="4.56461" height="4.56482" filterUnits="userSpaceOnUse" color-interpolation-filters="sRGB">
<feFlood flood-opacity="0" result="BackgroundImageFix"/>
<feBlend mode="normal" in="SourceGraphic" in2="BackgroundImageFix" result="shape"/>
<feGaussianBlur stdDeviation="0.668985" result="effect1_foregroundBlur_289_110"/>
</filter>
<filter id="filter1_f_289_110" x="469.974" y="149.868" width="4.56461" height="4.56482" filterUnits="userSpaceOnUse" color-interpolation-filters="sRGB">
<feFlood flood-opacity="0" result="BackgroundImageFix"/>
<feBlend mode="normal" in="SourceGraphic" in2="BackgroundImageFix" result="shape"/>
<feGaussianBlur stdDeviation="0.668985" result="effect1_foregroundBlur_289_110"/>
</filter>
<filter id="filter2_f_289_110" x="475.266" y="139.274" width="4.39615" height="4.39623" filterUnits="userSpaceOnUse" color-interpolation-filters="sRGB">
<feFlood flood-opacity="0" result="BackgroundImageFix"/>
<feBlend mode="normal" in="SourceGraphic" in2="BackgroundImageFix" result="shape"/>
<feGaussianBlur stdDeviation="0.668985" result="effect1_foregroundBlur_289_110"/>
</filter>
<filter id="filter3_f_289_110" x="434.164" y="153.718" width="4.28727" height="4.28707" filterUnits="userSpaceOnUse" color-interpolation-filters="sRGB">
<feFlood flood-opacity="0" result="BackgroundImageFix"/>
<feBlend mode="normal" in="SourceGraphic" in2="BackgroundImageFix" result="shape"/>
<feGaussianBlur stdDeviation="0.668985" result="effect1_foregroundBlur_289_110"/>
</filter>
<filter id="filter4_f_289_110" x="447.954" y="172.771" width="4.56461" height="4.56482" filterUnits="userSpaceOnUse" color-interpolation-filters="sRGB">
<feFlood flood-opacity="0" result="BackgroundImageFix"/>
<feBlend mode="normal" in="SourceGraphic" in2="BackgroundImageFix" result="shape"/>
<feGaussianBlur stdDeviation="0.668985" result="effect1_foregroundBlur_289_110"/>
</filter>
<filter id="filter5_f_289_110" x="450.652" y="152.954" width="4.56461" height="4.56482" filterUnits="userSpaceOnUse" color-interpolation-filters="sRGB">
<feFlood flood-opacity="0" result="BackgroundImageFix"/>
<feBlend mode="normal" in="SourceGraphic" in2="BackgroundImageFix" result="shape"/>
<feGaussianBlur stdDeviation="0.668985" result="effect1_foregroundBlur_289_110"/>
</filter>
<filter id="filter6_f_289_110" x="454.09" y="127.121" width="4.39615" height="4.39623" filterUnits="userSpaceOnUse" color-interpolation-filters="sRGB">
<feFlood flood-opacity="0" result="BackgroundImageFix"/>
<feBlend mode="normal" in="SourceGraphic" in2="BackgroundImageFix" result="shape"/>
<feGaussianBlur stdDeviation="0.668985" result="effect1_foregroundBlur_289_110"/>
</filter>
<filter id="filter7_f_289_110" x="435.781" y="129.717" width="4.28727" height="4.28707" filterUnits="userSpaceOnUse" color-interpolation-filters="sRGB">
<feFlood flood-opacity="0" result="BackgroundImageFix"/>
<feBlend mode="normal" in="SourceGraphic" in2="BackgroundImageFix" result="shape"/>
<feGaussianBlur stdDeviation="0.668985" result="effect1_foregroundBlur_289_110"/>
</filter>
<filter id="filter8_f_289_110" x="446.869" y="137.223" width="4.28727" height="4.28707" filterUnits="userSpaceOnUse" color-interpolation-filters="sRGB">
<feFlood flood-opacity="0" result="BackgroundImageFix"/>
<feBlend mode="normal" in="SourceGraphic" in2="BackgroundImageFix" result="shape"/>
<feGaussianBlur stdDeviation="0.668985" result="effect1_foregroundBlur_289_110"/>
</filter>
<filter id="filter9_f_289_110" x="425.526" y="160.557" width="4.28727" height="4.28707" filterUnits="userSpaceOnUse" color-interpolation-filters="sRGB">
<feFlood flood-opacity="0" result="BackgroundImageFix"/>
<feBlend mode="normal" in="SourceGraphic" in2="BackgroundImageFix" result="shape"/>
<feGaussianBlur stdDeviation="0.668985" result="effect1_foregroundBlur_289_110"/>
</filter>
<filter id="filter10_f_289_110" x="437.956" y="158.212" width="4.28727" height="4.28707" filterUnits="userSpaceOnUse" color-interpolation-filters="sRGB">
<feFlood flood-opacity="0" result="BackgroundImageFix"/>
<feBlend mode="normal" in="SourceGraphic" in2="BackgroundImageFix" result="shape"/>
<feGaussianBlur stdDeviation="0.668985" result="effect1_foregroundBlur_289_110"/>
</filter>
<filter id="filter11_f_289_110" x="460.294" y="157.217" width="4.28727" height="4.28707" filterUnits="userSpaceOnUse" color-interpolation-filters="sRGB">
<feFlood flood-opacity="0" result="BackgroundImageFix"/>
<feBlend mode="normal" in="SourceGraphic" in2="BackgroundImageFix" result="shape"/>
<feGaussianBlur stdDeviation="0.668985" result="effect1_foregroundBlur_289_110"/>
</filter>
<filter id="filter12_f_289_110" x="460.118" y="173.34" width="4.28727" height="4.28707" filterUnits="userSpaceOnUse" color-interpolation-filters="sRGB">
<feFlood flood-opacity="0" result="BackgroundImageFix"/>
<feBlend mode="normal" in="SourceGraphic" in2="BackgroundImageFix" result="shape"/>
<feGaussianBlur stdDeviation="0.668985" result="effect1_foregroundBlur_289_110"/>
</filter>
<filter id="filter13_f_289_110" x="455.605" y="132.357" width="4.28727" height="4.28707" filterUnits="userSpaceOnUse" color-interpolation-filters="sRGB">
<feFlood flood-opacity="0" result="BackgroundImageFix"/>
<feBlend mode="normal" in="SourceGraphic" in2="BackgroundImageFix" result="shape"/>
<feGaussianBlur stdDeviation="0.668985" result="effect1_foregroundBlur_289_110"/>
</filter>
<filter id="filter14_f_289_110" x="504.164" y="263.718" width="4.28727" height="4.28707" filterUnits="userSpaceOnUse" color-interpolation-filters="sRGB">
<feFlood flood-opacity="0" result="BackgroundImageFix"/>
<feBlend mode="normal" in="SourceGraphic" in2="BackgroundImageFix" result="shape"/>
<feGaussianBlur stdDeviation="0.668985" result="effect1_foregroundBlur_289_110"/>
</filter>
<filter id="filter15_f_289_110" x="517.954" y="282.771" width="4.56461" height="4.56482" filterUnits="userSpaceOnUse" color-interpolation-filters="sRGB">
<feFlood flood-opacity="0" result="BackgroundImageFix"/>
<feBlend mode="normal" in="SourceGraphic" in2="BackgroundImageFix" result="shape"/>
<feGaussianBlur stdDeviation="0.668985" result="effect1_foregroundBlur_289_110"/>
</filter>
<filter id="filter16_f_289_110" x="520.652" y="262.954" width="4.56461" height="4.56482" filterUnits="userSpaceOnUse" color-interpolation-filters="sRGB">
<feFlood flood-opacity="0" result="BackgroundImageFix"/>
<feBlend mode="normal" in="SourceGraphic" in2="BackgroundImageFix" result="shape"/>
<feGaussianBlur stdDeviation="0.668985" result="effect1_foregroundBlur_289_110"/>
</filter>
<filter id="filter17_f_289_110" x="505.781" y="239.717" width="4.28727" height="4.28707" filterUnits="userSpaceOnUse" color-interpolation-filters="sRGB">
<feFlood flood-opacity="0" result="BackgroundImageFix"/>
<feBlend mode="normal" in="SourceGraphic" in2="BackgroundImageFix" result="shape"/>
<feGaussianBlur stdDeviation="0.668985" result="effect1_foregroundBlur_289_110"/>
</filter>
<filter id="filter18_f_289_110" x="516.869" y="247.223" width="4.28727" height="4.28707" filterUnits="userSpaceOnUse" color-interpolation-filters="sRGB">
<feFlood flood-opacity="0" result="BackgroundImageFix"/>
<feBlend mode="normal" in="SourceGraphic" in2="BackgroundImageFix" result="shape"/>
<feGaussianBlur stdDeviation="0.668985" result="effect1_foregroundBlur_289_110"/>
</filter>
<filter id="filter19_f_289_110" x="495.526" y="270.557" width="4.28727" height="4.28707" filterUnits="userSpaceOnUse" color-interpolation-filters="sRGB">
<feFlood flood-opacity="0" result="BackgroundImageFix"/>
<feBlend mode="normal" in="SourceGraphic" in2="BackgroundImageFix" result="shape"/>
<feGaussianBlur stdDeviation="0.668985" result="effect1_foregroundBlur_289_110"/>
</filter>
<filter id="filter20_f_289_110" x="507.956" y="268.212" width="4.28727" height="4.28707" filterUnits="userSpaceOnUse" color-interpolation-filters="sRGB">
<feFlood flood-opacity="0" result="BackgroundImageFix"/>
<feBlend mode="normal" in="SourceGraphic" in2="BackgroundImageFix" result="shape"/>
<feGaussianBlur stdDeviation="0.668985" result="effect1_foregroundBlur_289_110"/>
</filter>
<filter id="filter21_f_289_110" x="382.927" y="69.5942" width="4.56461" height="4.56481" filterUnits="userSpaceOnUse" color-interpolation-filters="sRGB">
<feFlood flood-opacity="0" result="BackgroundImageFix"/>
<feBlend mode="normal" in="SourceGraphic" in2="BackgroundImageFix" result="shape"/>
<feGaussianBlur stdDeviation="0.668985" result="effect1_foregroundBlur_289_110"/>
</filter>
<filter id="filter22_f_289_110" x="386.974" y="39.8685" width="4.56461" height="4.56481" filterUnits="userSpaceOnUse" color-interpolation-filters="sRGB">
<feFlood flood-opacity="0" result="BackgroundImageFix"/>
<feBlend mode="normal" in="SourceGraphic" in2="BackgroundImageFix" result="shape"/>
<feGaussianBlur stdDeviation="0.668985" result="effect1_foregroundBlur_289_110"/>
</filter>
<filter id="filter23_f_289_110" x="392.266" y="29.2743" width="4.39615" height="4.39623" filterUnits="userSpaceOnUse" color-interpolation-filters="sRGB">
<feFlood flood-opacity="0" result="BackgroundImageFix"/>
<feBlend mode="normal" in="SourceGraphic" in2="BackgroundImageFix" result="shape"/>
<feGaussianBlur stdDeviation="0.668985" result="effect1_foregroundBlur_289_110"/>
</filter>
<filter id="filter24_f_289_110" x="351.164" y="43.7182" width="4.28727" height="4.28707" filterUnits="userSpaceOnUse" color-interpolation-filters="sRGB">
<feFlood flood-opacity="0" result="BackgroundImageFix"/>
<feBlend mode="normal" in="SourceGraphic" in2="BackgroundImageFix" result="shape"/>
<feGaussianBlur stdDeviation="0.668985" result="effect1_foregroundBlur_289_110"/>
</filter>
<filter id="filter25_f_289_110" x="364.954" y="62.7712" width="4.56461" height="4.56481" filterUnits="userSpaceOnUse" color-interpolation-filters="sRGB">
<feFlood flood-opacity="0" result="BackgroundImageFix"/>
<feBlend mode="normal" in="SourceGraphic" in2="BackgroundImageFix" result="shape"/>
<feGaussianBlur stdDeviation="0.668985" result="effect1_foregroundBlur_289_110"/>
</filter>
<filter id="filter26_f_289_110" x="367.652" y="42.9541" width="4.56461" height="4.56481" filterUnits="userSpaceOnUse" color-interpolation-filters="sRGB">
<feFlood flood-opacity="0" result="BackgroundImageFix"/>
<feBlend mode="normal" in="SourceGraphic" in2="BackgroundImageFix" result="shape"/>
<feGaussianBlur stdDeviation="0.668985" result="effect1_foregroundBlur_289_110"/>
</filter>
<filter id="filter27_f_289_110" x="371.09" y="17.1209" width="4.39615" height="4.39623" filterUnits="userSpaceOnUse" color-interpolation-filters="sRGB">
<feFlood flood-opacity="0" result="BackgroundImageFix"/>
<feBlend mode="normal" in="SourceGraphic" in2="BackgroundImageFix" result="shape"/>
<feGaussianBlur stdDeviation="0.668985" result="effect1_foregroundBlur_289_110"/>
</filter>
<filter id="filter28_f_289_110" x="352.781" y="19.7168" width="4.28727" height="4.28707" filterUnits="userSpaceOnUse" color-interpolation-filters="sRGB">
<feFlood flood-opacity="0" result="BackgroundImageFix"/>
<feBlend mode="normal" in="SourceGraphic" in2="BackgroundImageFix" result="shape"/>
<feGaussianBlur stdDeviation="0.668985" result="effect1_foregroundBlur_289_110"/>
</filter>
<filter id="filter29_f_289_110" x="363.869" y="27.2228" width="4.28727" height="4.28707" filterUnits="userSpaceOnUse" color-interpolation-filters="sRGB">
<feFlood flood-opacity="0" result="BackgroundImageFix"/>
<feBlend mode="normal" in="SourceGraphic" in2="BackgroundImageFix" result="shape"/>
<feGaussianBlur stdDeviation="0.668985" result="effect1_foregroundBlur_289_110"/>
</filter>
<filter id="filter30_f_289_110" x="342.526" y="50.5567" width="4.28727" height="4.28707" filterUnits="userSpaceOnUse" color-interpolation-filters="sRGB">
<feFlood flood-opacity="0" result="BackgroundImageFix"/>
<feBlend mode="normal" in="SourceGraphic" in2="BackgroundImageFix" result="shape"/>
<feGaussianBlur stdDeviation="0.668985" result="effect1_foregroundBlur_289_110"/>
</filter>
<filter id="filter31_f_289_110" x="354.956" y="48.2122" width="4.28727" height="4.28707" filterUnits="userSpaceOnUse" color-interpolation-filters="sRGB">
<feFlood flood-opacity="0" result="BackgroundImageFix"/>
<feBlend mode="normal" in="SourceGraphic" in2="BackgroundImageFix" result="shape"/>
<feGaussianBlur stdDeviation="0.668985" result="effect1_foregroundBlur_289_110"/>
</filter>
<filter id="filter32_f_289_110" x="377.294" y="47.2168" width="4.28727" height="4.28707" filterUnits="userSpaceOnUse" color-interpolation-filters="sRGB">
<feFlood flood-opacity="0" result="BackgroundImageFix"/>
<feBlend mode="normal" in="SourceGraphic" in2="BackgroundImageFix" result="shape"/>
<feGaussianBlur stdDeviation="0.668985" result="effect1_foregroundBlur_289_110"/>
</filter>
<filter id="filter33_f_289_110" x="377.118" y="63.3404" width="4.28727" height="4.28707" filterUnits="userSpaceOnUse" color-interpolation-filters="sRGB">
<feFlood flood-opacity="0" result="BackgroundImageFix"/>
<feBlend mode="normal" in="SourceGraphic" in2="BackgroundImageFix" result="shape"/>
<feGaussianBlur stdDeviation="0.668985" result="effect1_foregroundBlur_289_110"/>
</filter>
<filter id="filter34_f_289_110" x="372.605" y="22.3569" width="4.28727" height="4.28707" filterUnits="userSpaceOnUse" color-interpolation-filters="sRGB">
<feFlood flood-opacity="0" result="BackgroundImageFix"/>
<feBlend mode="normal" in="SourceGraphic" in2="BackgroundImageFix" result="shape"/>
<feGaussianBlur stdDeviation="0.668985" result="effect1_foregroundBlur_289_110"/>
</filter>
<filter id="filter35_f_289_110" x="382.998" y="306.594" width="4.56461" height="4.56482" filterUnits="userSpaceOnUse" color-interpolation-filters="sRGB">
<feFlood flood-opacity="0" result="BackgroundImageFix"/>
<feBlend mode="normal" in="SourceGraphic" in2="BackgroundImageFix" result="shape"/>
<feGaussianBlur stdDeviation="0.668985" result="effect1_foregroundBlur_289_110"/>
</filter>
<filter id="filter36_f_289_110" x="387.045" y="276.868" width="4.56461" height="4.56482" filterUnits="userSpaceOnUse" color-interpolation-filters="sRGB">
<feFlood flood-opacity="0" result="BackgroundImageFix"/>
<feBlend mode="normal" in="SourceGraphic" in2="BackgroundImageFix" result="shape"/>
<feGaussianBlur stdDeviation="0.668985" result="effect1_foregroundBlur_289_110"/>
</filter>
<filter id="filter37_f_289_110" x="392.337" y="266.274" width="4.39615" height="4.39623" filterUnits="userSpaceOnUse" color-interpolation-filters="sRGB">
<feFlood flood-opacity="0" result="BackgroundImageFix"/>
<feBlend mode="normal" in="SourceGraphic" in2="BackgroundImageFix" result="shape"/>
<feGaussianBlur stdDeviation="0.668985" result="effect1_foregroundBlur_289_110"/>
</filter>
<filter id="filter38_f_289_110" x="351.236" y="280.718" width="4.28727" height="4.28707" filterUnits="userSpaceOnUse" color-interpolation-filters="sRGB">
<feFlood flood-opacity="0" result="BackgroundImageFix"/>
<feBlend mode="normal" in="SourceGraphic" in2="BackgroundImageFix" result="shape"/>
<feGaussianBlur stdDeviation="0.668985" result="effect1_foregroundBlur_289_110"/>
</filter>
<filter id="filter39_f_289_110" x="365.025" y="299.771" width="4.56461" height="4.56482" filterUnits="userSpaceOnUse" color-interpolation-filters="sRGB">
<feFlood flood-opacity="0" result="BackgroundImageFix"/>
<feBlend mode="normal" in="SourceGraphic" in2="BackgroundImageFix" result="shape"/>
<feGaussianBlur stdDeviation="0.668985" result="effect1_foregroundBlur_289_110"/>
</filter>
<filter id="filter40_f_289_110" x="367.724" y="279.954" width="4.56461" height="4.56482" filterUnits="userSpaceOnUse" color-interpolation-filters="sRGB">
<feFlood flood-opacity="0" result="BackgroundImageFix"/>
<feBlend mode="normal" in="SourceGraphic" in2="BackgroundImageFix" result="shape"/>
<feGaussianBlur stdDeviation="0.668985" result="effect1_foregroundBlur_289_110"/>
</filter>
<filter id="filter41_f_289_110" x="371.162" y="254.121" width="4.39615" height="4.39623" filterUnits="userSpaceOnUse" color-interpolation-filters="sRGB">
<feFlood flood-opacity="0" result="BackgroundImageFix"/>
<feBlend mode="normal" in="SourceGraphic" in2="BackgroundImageFix" result="shape"/>
<feGaussianBlur stdDeviation="0.668985" result="effect1_foregroundBlur_289_110"/>
</filter>
<filter id="filter42_f_289_110" x="352.852" y="256.717" width="4.28727" height="4.28707" filterUnits="userSpaceOnUse" color-interpolation-filters="sRGB">
<feFlood flood-opacity="0" result="BackgroundImageFix"/>
<feBlend mode="normal" in="SourceGraphic" in2="BackgroundImageFix" result="shape"/>
<feGaussianBlur stdDeviation="0.668985" result="effect1_foregroundBlur_289_110"/>
</filter>
<filter id="filter43_f_289_110" x="363.94" y="264.223" width="4.28727" height="4.28707" filterUnits="userSpaceOnUse" color-interpolation-filters="sRGB">
<feFlood flood-opacity="0" result="BackgroundImageFix"/>
<feBlend mode="normal" in="SourceGraphic" in2="BackgroundImageFix" result="shape"/>
<feGaussianBlur stdDeviation="0.668985" result="effect1_foregroundBlur_289_110"/>
</filter>
<filter id="filter44_f_289_110" x="342.598" y="287.557" width="4.28727" height="4.28707" filterUnits="userSpaceOnUse" color-interpolation-filters="sRGB">
<feFlood flood-opacity="0" result="BackgroundImageFix"/>
<feBlend mode="normal" in="SourceGraphic" in2="BackgroundImageFix" result="shape"/>
<feGaussianBlur stdDeviation="0.668985" result="effect1_foregroundBlur_289_110"/>
</filter>
<filter id="filter45_f_289_110" x="355.027" y="285.212" width="4.28727" height="4.28707" filterUnits="userSpaceOnUse" color-interpolation-filters="sRGB">
<feFlood flood-opacity="0" result="BackgroundImageFix"/>
<feBlend mode="normal" in="SourceGraphic" in2="BackgroundImageFix" result="shape"/>
<feGaussianBlur stdDeviation="0.668985" result="effect1_foregroundBlur_289_110"/>
</filter>
<filter id="filter46_f_289_110" x="377.366" y="284.217" width="4.28727" height="4.28707" filterUnits="userSpaceOnUse" color-interpolation-filters="sRGB">
<feFlood flood-opacity="0" result="BackgroundImageFix"/>
<feBlend mode="normal" in="SourceGraphic" in2="BackgroundImageFix" result="shape"/>
<feGaussianBlur stdDeviation="0.668985" result="effect1_foregroundBlur_289_110"/>
</filter>
<filter id="filter47_f_289_110" x="377.189" y="300.34" width="4.28727" height="4.28707" filterUnits="userSpaceOnUse" color-interpolation-filters="sRGB">
<feFlood flood-opacity="0" result="BackgroundImageFix"/>
<feBlend mode="normal" in="SourceGraphic" in2="BackgroundImageFix" result="shape"/>
<feGaussianBlur stdDeviation="0.668985" result="effect1_foregroundBlur_289_110"/>
</filter>
<filter id="filter48_f_289_110" x="372.677" y="259.357" width="4.28727" height="4.28707" filterUnits="userSpaceOnUse" color-interpolation-filters="sRGB">
<feFlood flood-opacity="0" result="BackgroundImageFix"/>
<feBlend mode="normal" in="SourceGraphic" in2="BackgroundImageFix" result="shape"/>
<feGaussianBlur stdDeviation="0.668985" result="effect1_foregroundBlur_289_110"/>
</filter>
<filter id="filter49_b_289_110" x="253.186" y="224.35" width="40.0656" height="40.0658" filterUnits="userSpaceOnUse" color-interpolation-filters="sRGB">
<feFlood flood-opacity="0" result="BackgroundImageFix"/>
<feGaussianBlur in="BackgroundImageFix" stdDeviation="5.00823"/>
<feComposite in2="SourceAlpha" operator="in" result="effect1_backgroundBlur_289_110"/>
<feBlend mode="normal" in="SourceGraphic" in2="effect1_backgroundBlur_289_110" result="shape"/>
</filter>
<filter id="filter50_f_289_110" x="233.153" y="204.317" width="80.1315" height="80.1317" filterUnits="userSpaceOnUse" color-interpolation-filters="sRGB">
<feFlood flood-opacity="0" result="BackgroundImageFix"/>
<feBlend mode="normal" in="SourceGraphic" in2="BackgroundImageFix" result="shape"/>
<feGaussianBlur stdDeviation="15.0247" result="effect1_foregroundBlur_289_110"/>
</filter>
<filter id="filter51_b_289_110" x="243.169" y="129.194" width="40.0656" height="40.0658" filterUnits="userSpaceOnUse" color-interpolation-filters="sRGB">
<feFlood flood-opacity="0" result="BackgroundImageFix"/>
<feGaussianBlur in="BackgroundImageFix" stdDeviation="5.00823"/>
<feComposite in2="SourceAlpha" operator="in" result="effect1_backgroundBlur_289_110"/>
<feBlend mode="normal" in="SourceGraphic" in2="effect1_backgroundBlur_289_110" result="shape"/>
</filter>
<filter id="filter52_f_289_110" x="223.136" y="109.161" width="80.1315" height="80.1317" filterUnits="userSpaceOnUse" color-interpolation-filters="sRGB">
<feFlood flood-opacity="0" result="BackgroundImageFix"/>
<feBlend mode="normal" in="SourceGraphic" in2="BackgroundImageFix" result="shape"/>
<feGaussianBlur stdDeviation="15.0247" result="effect1_foregroundBlur_289_110"/>
</filter>
<linearGradient id="paint0_linear_289_110" x1="125.492" y1="3.21045" x2="125.492" y2="560.21" gradientUnits="userSpaceOnUse">
<stop offset="0.369547" stop-color="#F3F3F5"/>
<stop offset="1" stop-color="#F3F3F5" stop-opacity="0"/>
</linearGradient>
<linearGradient id="paint1_linear_289_110" x1="223.582" y1="236.871" x2="-387.949" y2="585.383" gradientUnits="userSpaceOnUse">
<stop stop-color="#2962FF"/>
<stop offset="1" stop-color="#2962FF" stop-opacity="0"/>
</linearGradient>
<linearGradient id="paint2_linear_289_110" x1="280.731" y1="149.227" x2="-440.454" y2="442.208" gradientUnits="userSpaceOnUse">
<stop stop-color="#11A008"/>
<stop offset="1" stop-color="#11A008" stop-opacity="0"/>
</linearGradient>
<linearGradient id="paint3_linear_289_110" x1="175.421" y1="260.466" x2="293.765" y2="623.379" gradientUnits="userSpaceOnUse">
<stop stop-color="#11A008" stop-opacity="0.12"/>
<stop offset="0.297984" stop-color="#2962FF" stop-opacity="0.04"/>
</linearGradient>
<linearGradient id="paint4_linear_289_110" x1="261.018" y1="335.244" x2="261.018" y2="427.21" gradientUnits="userSpaceOnUse">
<stop stop-color="#F1F2F5" stop-opacity="0"/>
<stop offset="1" stop-color="#F1F2F5"/>
</linearGradient>
<clipPath id="clip0_289_110">
<rect x="-0.0078125" y="3.21045" width="521" height="424" rx="12" fill="white"/>
</clipPath>
<clipPath id="clip1_289_110">
<rect x="-139.008" y="3.21045" width="529" height="557" rx="6" fill="white"/>
</clipPath>
</defs>
</svg>
