<svg width="247" height="188" viewBox="0 0 247 188" fill="none" xmlns="http://www.w3.org/2000/svg">
<rect x="89.5625" y="49.3828" width="78.7656" height="78.7656" rx="39.3828" fill="#E2E7ED"/>
<rect x="89.5625" y="49.3828" width="78.7656" height="78.7656" rx="39.3828" stroke="url(#paint0_linear_183_917)" stroke-width="1.10938"/>
<g clip-path="url(#clip0_183_917)" filter="url(#filter0_f_183_917)">
<path d="M137.754 72.0444H120.074C115.766 72.0444 112.273 75.5367 112.273 79.8447V97.5254C112.273 101.833 115.766 105.326 120.074 105.326H137.754C142.062 105.326 145.555 101.833 145.555 97.5254V79.8447C145.555 75.5367 142.062 72.0444 137.754 72.0444Z" fill="url(#paint1_radial_183_917)"/>
<path d="M137.754 72.0444H120.074C115.766 72.0444 112.273 75.5367 112.273 79.8447V97.5254C112.273 101.833 115.766 105.326 120.074 105.326H137.754C142.062 105.326 145.555 101.833 145.555 97.5254V79.8447C145.555 75.5367 142.062 72.0444 137.754 72.0444Z" fill="url(#paint2_radial_183_917)"/>
<path d="M128.916 75.6846C125.385 75.6846 124.942 75.7 123.555 75.7631C122.171 75.8265 121.226 76.0456 120.4 76.3671C119.545 76.6991 118.819 77.1434 118.097 77.8662C117.374 78.5889 116.929 79.3142 116.596 80.169C116.274 80.9958 116.055 81.9409 115.992 83.3243C115.93 84.7111 115.914 85.1544 115.914 88.6852C115.914 92.216 115.93 92.6577 115.993 94.0444C116.056 95.4284 116.275 96.3732 116.597 97.1997C116.929 98.0549 117.373 98.7802 118.096 99.5028C118.818 100.226 119.544 100.671 120.398 101.003C121.225 101.325 122.17 101.544 123.554 101.607C124.941 101.67 125.384 101.686 128.914 101.686C132.445 101.686 132.887 101.67 134.274 101.607C135.658 101.544 136.603 101.325 137.431 101.003C138.285 100.671 139.01 100.226 139.732 99.5028C140.455 98.7802 140.899 98.0549 141.233 97.2001C141.552 96.3732 141.772 95.4282 141.837 94.0446C141.899 92.658 141.915 92.216 141.915 88.6852C141.915 85.1544 141.899 84.7113 141.837 83.3246C141.772 81.9405 141.552 80.9959 141.233 80.1693C140.899 79.3142 140.455 78.5889 139.732 77.8662C139.009 77.1431 138.286 76.6989 137.43 76.3672C136.601 76.0456 135.656 75.8264 134.272 75.7631C132.885 75.7 132.444 75.6846 128.912 75.6846H128.916ZM127.749 78.0274C128.096 78.0269 128.482 78.0274 128.916 78.0274C132.387 78.0274 132.798 78.0399 134.169 78.1021C135.437 78.1601 136.125 78.3719 136.583 78.5499C137.19 78.7854 137.622 79.0672 138.077 79.5223C138.532 79.9773 138.814 80.4106 139.05 81.0174C139.228 81.475 139.44 82.163 139.497 83.4305C139.56 84.801 139.573 85.2126 139.573 88.6822C139.573 92.1518 139.56 92.5635 139.497 93.9339C139.439 95.2014 139.228 95.8894 139.05 96.3472C138.814 96.9539 138.532 97.3859 138.077 97.8407C137.622 98.2957 137.19 98.5773 136.583 98.813C136.125 98.9917 135.437 99.203 134.169 99.261C132.799 99.3232 132.387 99.3367 128.916 99.3367C125.444 99.3367 125.033 99.3232 123.662 99.261C122.395 99.2025 121.707 98.9907 121.248 98.8127C120.642 98.577 120.208 98.2954 119.753 97.8404C119.298 97.3854 119.017 96.9531 118.78 96.3461C118.602 95.8884 118.39 95.2004 118.333 93.9328C118.27 92.5623 118.258 92.1507 118.258 88.6789C118.258 85.2072 118.27 84.7978 118.333 83.4273C118.391 82.1597 118.602 81.4717 118.78 81.0135C119.016 80.4067 119.298 79.9734 119.753 79.5184C120.209 79.0634 120.642 78.7817 121.248 78.5456C121.707 78.3668 122.395 78.1556 123.662 78.0973C124.862 78.0431 125.327 78.0269 127.749 78.0241V78.0274ZM135.855 80.186C134.994 80.186 134.295 80.8841 134.295 81.7455C134.295 82.6068 134.994 83.3056 135.855 83.3056C136.717 83.3056 137.415 82.6068 137.415 81.7455C137.415 80.8842 136.717 80.1855 135.855 80.1855V80.186ZM128.916 82.0088C125.229 82.0088 122.239 84.9981 122.239 88.6852C122.239 92.3723 125.229 95.3602 128.916 95.3602C132.603 95.3602 135.591 92.3723 135.591 88.6852C135.591 84.9983 132.603 82.0088 128.915 82.0088H128.916ZM128.916 84.3516C131.309 84.3516 133.249 86.2917 133.249 88.6852C133.249 91.0784 131.309 93.0188 128.916 93.0188C126.522 93.0188 124.582 91.0784 124.582 88.6852C124.582 86.2917 126.522 84.3516 128.916 84.3516Z" fill="white"/>
</g>
<g clip-path="url(#clip1_183_917)">
<path d="M137.754 72.0444H120.074C115.766 72.0444 112.273 75.5367 112.273 79.8447V97.5254C112.273 101.833 115.766 105.326 120.074 105.326H137.754C142.062 105.326 145.555 101.833 145.555 97.5254V79.8447C145.555 75.5367 142.062 72.0444 137.754 72.0444Z" fill="url(#paint3_radial_183_917)"/>
<path d="M137.754 72.0444H120.074C115.766 72.0444 112.273 75.5367 112.273 79.8447V97.5254C112.273 101.833 115.766 105.326 120.074 105.326H137.754C142.062 105.326 145.555 101.833 145.555 97.5254V79.8447C145.555 75.5367 142.062 72.0444 137.754 72.0444Z" fill="url(#paint4_radial_183_917)"/>
<path d="M128.916 75.6846C125.385 75.6846 124.942 75.7 123.555 75.7631C122.171 75.8265 121.226 76.0456 120.4 76.3671C119.545 76.6991 118.819 77.1434 118.097 77.8662C117.374 78.5889 116.929 79.3142 116.596 80.169C116.274 80.9958 116.055 81.9409 115.992 83.3243C115.93 84.7111 115.914 85.1544 115.914 88.6852C115.914 92.216 115.93 92.6577 115.993 94.0444C116.056 95.4284 116.275 96.3732 116.597 97.1997C116.929 98.0549 117.373 98.7802 118.096 99.5028C118.818 100.226 119.544 100.671 120.398 101.003C121.225 101.325 122.17 101.544 123.554 101.607C124.941 101.67 125.384 101.686 128.914 101.686C132.445 101.686 132.887 101.67 134.274 101.607C135.658 101.544 136.603 101.325 137.431 101.003C138.285 100.671 139.01 100.226 139.732 99.5028C140.455 98.7802 140.899 98.0549 141.233 97.2001C141.552 96.3732 141.772 95.4282 141.837 94.0446C141.899 92.658 141.915 92.216 141.915 88.6852C141.915 85.1544 141.899 84.7113 141.837 83.3246C141.772 81.9405 141.552 80.9959 141.233 80.1693C140.899 79.3142 140.455 78.5889 139.732 77.8662C139.009 77.1431 138.286 76.6989 137.43 76.3672C136.601 76.0456 135.656 75.8264 134.272 75.7631C132.885 75.7 132.444 75.6846 128.912 75.6846H128.916ZM127.749 78.0274C128.096 78.0269 128.482 78.0274 128.916 78.0274C132.387 78.0274 132.798 78.0399 134.169 78.1021C135.437 78.1601 136.125 78.3719 136.583 78.5499C137.19 78.7854 137.622 79.0672 138.077 79.5223C138.532 79.9773 138.814 80.4106 139.05 81.0174C139.228 81.475 139.44 82.163 139.497 83.4305C139.56 84.801 139.573 85.2126 139.573 88.6822C139.573 92.1518 139.56 92.5635 139.497 93.9339C139.439 95.2014 139.228 95.8894 139.05 96.3472C138.814 96.9539 138.532 97.3859 138.077 97.8407C137.622 98.2957 137.19 98.5773 136.583 98.813C136.125 98.9917 135.437 99.203 134.169 99.261C132.799 99.3232 132.387 99.3367 128.916 99.3367C125.444 99.3367 125.033 99.3232 123.662 99.261C122.395 99.2025 121.707 98.9907 121.248 98.8127C120.642 98.577 120.208 98.2954 119.753 97.8404C119.298 97.3854 119.017 96.9531 118.78 96.3461C118.602 95.8884 118.39 95.2004 118.333 93.9328C118.27 92.5623 118.258 92.1507 118.258 88.6789C118.258 85.2072 118.27 84.7978 118.333 83.4273C118.391 82.1597 118.602 81.4717 118.78 81.0135C119.016 80.4067 119.298 79.9734 119.753 79.5184C120.209 79.0634 120.642 78.7817 121.248 78.5456C121.707 78.3668 122.395 78.1556 123.662 78.0973C124.862 78.0431 125.327 78.0269 127.749 78.0241V78.0274ZM135.855 80.186C134.994 80.186 134.295 80.8841 134.295 81.7455C134.295 82.6068 134.994 83.3056 135.855 83.3056C136.717 83.3056 137.415 82.6068 137.415 81.7455C137.415 80.8842 136.717 80.1855 135.855 80.1855V80.186ZM128.916 82.0088C125.229 82.0088 122.239 84.9981 122.239 88.6852C122.239 92.3723 125.229 95.3602 128.916 95.3602C132.603 95.3602 135.591 92.3723 135.591 88.6852C135.591 84.9983 132.603 82.0088 128.915 82.0088H128.916ZM128.916 84.3516C131.309 84.3516 133.249 86.2917 133.249 88.6852C133.249 91.0784 131.309 93.0188 128.916 93.0188C126.522 93.0188 124.582 91.0784 124.582 88.6852C124.582 86.2917 126.522 84.3516 128.916 84.3516Z" fill="white"/>
</g>
<g clip-path="url(#clip2_183_917)">
<rect x="215.754" y="132.031" width="29.3984" height="29.3984" rx="14.6992" fill="#E2E7ED"/>
<g clip-path="url(#clip3_183_917)" filter="url(#filter1_f_183_917)">
<path d="M234.678 139.221C234.424 138.985 234.112 138.82 233.775 138.742C233.437 138.664 233.085 138.676 232.753 138.777C231.538 139.142 227.359 141.753 227.359 141.753C227.359 141.753 223.185 144.373 222.324 145.305C222.088 145.559 221.923 145.871 221.845 146.208C221.767 146.546 221.779 146.898 221.88 147.23C222.719 149.271 224.353 152.158 225.905 153.652C226.159 153.887 226.47 154.052 226.807 154.13C227.145 154.208 227.497 154.196 227.829 154.096C229.044 153.73 233.223 151.119 233.223 151.119C233.223 151.119 237.402 148.507 238.263 147.575C238.499 147.322 238.664 147.01 238.742 146.673C238.82 146.335 238.808 145.983 238.708 145.651C237.884 143.597 236.231 140.723 234.678 139.221Z" fill="#FF0000"/>
<path d="M230.209 149.278L232.421 145.103L227.699 145.262L230.209 149.278Z" fill="white"/>
</g>
<g clip-path="url(#clip4_183_917)">
<path d="M234.678 139.221C234.424 138.985 234.112 138.82 233.775 138.742C233.437 138.664 233.085 138.676 232.753 138.777C231.538 139.142 227.359 141.753 227.359 141.753C227.359 141.753 223.185 144.373 222.324 145.305C222.088 145.559 221.923 145.871 221.845 146.208C221.767 146.546 221.779 146.898 221.88 147.23C222.719 149.271 224.353 152.158 225.905 153.652C226.159 153.887 226.47 154.052 226.807 154.13C227.145 154.208 227.497 154.196 227.829 154.096C229.044 153.73 233.223 151.119 233.223 151.119C233.223 151.119 237.402 148.507 238.263 147.575C238.499 147.322 238.664 147.01 238.742 146.673C238.82 146.335 238.808 145.983 238.708 145.651C237.884 143.597 236.231 140.723 234.678 139.221Z" fill="#FF0000"/>
<path d="M230.209 149.278L232.421 145.103L227.699 145.262L230.209 149.278Z" fill="white"/>
</g>
</g>
<rect x="215.199" y="131.477" width="30.5078" height="30.5078" rx="15.2539" stroke="url(#paint5_linear_183_917)" stroke-width="1.10938"/>
<rect x="1.08984" y="138.133" width="48.8125" height="48.8125" rx="24.4062" fill="#E2E7ED"/>
<rect x="1.08984" y="138.133" width="48.8125" height="48.8125" rx="24.4062" stroke="url(#paint6_linear_183_917)" stroke-width="1.10938"/>
<g clip-path="url(#clip5_183_917)" filter="url(#filter2_f_183_917)">
<path d="M25.1441 152.496L16.9778 157.21C14.988 158.359 14.3063 160.904 15.4551 162.893L20.1699 171.06C21.3187 173.049 23.863 173.731 25.8528 172.582L34.0191 167.868C36.0089 166.719 36.6907 164.174 35.5419 162.185L30.827 154.018C29.6782 152.029 27.1339 151.347 25.1441 152.496Z" fill="white"/>
<path d="M25.1441 152.496L16.9778 157.21C14.988 158.359 14.3063 160.904 15.4551 162.893L20.1699 171.06C21.3187 173.049 23.863 173.731 25.8528 172.582L34.0191 167.868C36.0089 166.719 36.6907 164.174 35.5419 162.185L30.827 154.018C29.6782 152.029 27.1339 151.347 25.1441 152.496Z" fill="#1D9BF0"/>
<path d="M28.5267 157.861C28.5883 157.952 28.6433 158.048 28.6988 158.144C30.3905 161.074 30.111 165.741 26.0322 168.096L26.0311 168.094C24.8272 168.792 23.448 169.128 22.0581 169.063C22.2456 168.982 22.4277 168.891 22.6044 168.79C23.6036 168.214 24.3802 167.319 24.8094 166.249C24.3416 166.507 23.8047 166.613 23.2739 166.551C22.7431 166.49 22.2448 166.264 21.8486 165.905C22.2178 165.777 22.5528 165.566 22.8277 165.289C21.6725 165.677 20.4035 165.198 19.794 164.142L19.7778 164.114C20.1853 164.108 20.5854 164.004 20.9444 163.811C19.5941 163.722 18.5454 162.599 18.5486 161.246C19.5008 161.61 20.5189 161.769 21.5367 161.713C22.5545 161.658 23.5493 161.389 24.4564 160.924C24.15 160.596 23.935 160.194 23.8329 159.757C23.7308 159.32 23.7452 158.864 23.8746 158.435C24.2831 157.08 25.7126 156.312 27.0675 156.72C27.5075 156.335 27.8786 155.878 28.1649 155.368C28.2958 155.977 28.201 156.613 27.8981 157.158C28.3078 156.852 28.6691 156.486 28.97 156.073C28.9298 156.691 28.7796 157.296 28.5267 157.861Z" fill="white"/>
</g>
<g clip-path="url(#clip6_183_917)">
<path d="M25.1441 152.496L16.9778 157.21C14.988 158.359 14.3063 160.904 15.4551 162.893L20.1699 171.06C21.3187 173.049 23.863 173.731 25.8528 172.582L34.0191 167.868C36.0089 166.719 36.6907 164.174 35.5419 162.185L30.827 154.018C29.6782 152.029 27.1339 151.347 25.1441 152.496Z" fill="white"/>
<path d="M25.1441 152.496L16.9778 157.21C14.988 158.359 14.3063 160.904 15.4551 162.893L20.1699 171.06C21.3187 173.049 23.863 173.731 25.8528 172.582L34.0191 167.868C36.0089 166.719 36.6907 164.174 35.5419 162.185L30.827 154.018C29.6782 152.029 27.1339 151.347 25.1441 152.496Z" fill="#1D9BF0"/>
<path d="M28.5267 157.861C28.5883 157.952 28.6433 158.048 28.6988 158.144C30.3905 161.074 30.111 165.741 26.0322 168.096L26.0311 168.094C24.8272 168.792 23.448 169.128 22.0581 169.063C22.2456 168.982 22.4277 168.891 22.6044 168.79C23.6036 168.214 24.3802 167.319 24.8094 166.249C24.3416 166.507 23.8047 166.613 23.2739 166.551C22.7431 166.49 22.2448 166.264 21.8486 165.905C22.2178 165.777 22.5528 165.566 22.8277 165.289C21.6725 165.677 20.4035 165.198 19.794 164.142L19.7778 164.114C20.1853 164.108 20.5854 164.004 20.9444 163.811C19.5941 163.722 18.5454 162.599 18.5486 161.246C19.5008 161.61 20.5189 161.769 21.5367 161.713C22.5545 161.658 23.5493 161.389 24.4564 160.924C24.15 160.596 23.935 160.194 23.8329 159.757C23.7308 159.32 23.7452 158.864 23.8746 158.435C24.2831 157.08 25.7126 156.312 27.0675 156.72C27.5075 156.335 27.8786 155.878 28.1649 155.368C28.2958 155.977 28.201 156.613 27.8981 157.158C28.3078 156.852 28.6691 156.486 28.97 156.073C28.9298 156.691 28.7796 157.296 28.5267 157.861Z" fill="white"/>
</g>
<g clip-path="url(#clip7_183_917)">
<rect x="13.293" y="36.0703" width="29.3984" height="29.3984" rx="14.6992" fill="#E2E7ED"/>
<g clip-path="url(#clip8_183_917)" filter="url(#filter3_f_183_917)">
<path d="M28.8507 42.9736L22.853 46.7213C21.3917 47.6345 20.9473 49.5594 21.8604 51.0208L25.6082 57.0184C26.5213 58.4797 28.4462 58.9241 29.9076 58.011L35.9052 54.2633C37.3666 53.3501 37.811 51.4252 36.8978 49.9638L33.1501 43.9662C32.2369 42.5049 30.312 42.0605 28.8507 42.9736Z" fill="white"/>
<path d="M28.8507 42.9736L22.853 46.7213C21.3917 47.6345 20.9473 49.5594 21.8604 51.0208L25.6082 57.0184C26.5213 58.4797 28.4462 58.9241 29.9076 58.011L35.9052 54.2633C37.3666 53.3501 37.811 51.4252 36.8978 49.9638L33.1501 43.9662C32.2369 42.5049 30.312 42.0605 28.8507 42.9736Z" fill="#0A66C2"/>
<path d="M34.3514 52.8846L35.6422 52.078C35.689 52.0487 35.7222 52.0021 35.7346 51.9484C35.7471 51.8946 35.7376 51.8382 35.7084 51.7914L34.0049 49.0637C33.1142 47.6383 32.1224 46.7345 30.4566 47.7754C29.8086 48.1476 29.4154 48.8472 29.4338 49.5936C29.4339 49.5972 29.4328 49.6008 29.4306 49.6037C29.4285 49.6067 29.4255 49.6088 29.422 49.6099C29.4185 49.6109 29.4148 49.6108 29.4114 49.6096C29.408 49.6083 29.4051 49.606 29.4031 49.6029L29.0702 49.07C29.0409 49.0232 28.9943 48.99 28.9405 48.9776C28.8868 48.9652 28.8303 48.9746 28.7835 49.0039L27.5586 49.7693C27.5118 49.7985 27.4785 49.8452 27.4661 49.8989C27.4537 49.9527 27.4632 50.0091 27.4924 50.0559L30.5793 54.996C30.6085 55.0428 30.6552 55.0761 30.7089 55.0885C30.7627 55.1009 30.8191 55.0914 30.8659 55.0622L32.1567 54.2557C32.2034 54.2264 32.2367 54.1798 32.2491 54.1261C32.2615 54.0723 32.2521 54.0158 32.2228 53.969L30.6969 51.5271C30.2655 50.8366 29.9786 50.0861 30.8346 49.5512C31.6785 49.0239 32.1831 49.8071 32.5667 50.4209L34.0648 52.8184C34.094 52.8652 34.1406 52.8984 34.1944 52.9108C34.2481 52.9232 34.3046 52.9138 34.3514 52.8846ZM23.5257 49.9572C23.8526 50.4804 24.5524 50.6418 25.0756 50.3148C25.5987 49.9879 25.76 49.2881 25.4331 48.765C25.1061 48.242 24.4066 48.0805 23.8835 48.4074C23.3602 48.7344 23.1988 49.434 23.5257 49.9572ZM28.1881 56.7358L29.4806 55.9282C29.5274 55.8989 29.5606 55.8523 29.573 55.7986C29.5854 55.7448 29.576 55.6883 29.5467 55.6416L26.4597 50.7012C26.4305 50.6544 26.3838 50.6212 26.3301 50.6088C26.2763 50.5964 26.2198 50.6058 26.1731 50.6351L24.8806 51.4427C24.8338 51.4719 24.8006 51.5185 24.7882 51.5723C24.7758 51.626 24.7852 51.6825 24.8144 51.7293L27.9015 56.6696C27.9307 56.7164 27.9774 56.7497 28.0311 56.7621C28.0849 56.7745 28.1413 56.765 28.1881 56.7358Z" fill="white"/>
</g>
<g clip-path="url(#clip9_183_917)">
<path d="M28.8507 42.9734L22.853 46.7211C21.3917 47.6343 20.9473 49.5592 21.8604 51.0205L25.6082 57.0181C26.5213 58.4795 28.4462 58.9239 29.9076 58.0107L35.9052 54.263C37.3666 53.3499 37.811 51.4249 36.8978 49.9636L33.1501 43.966C32.2369 42.5046 30.312 42.0602 28.8507 42.9734Z" fill="white"/>
<path d="M28.8507 42.9734L22.853 46.7211C21.3917 47.6343 20.9473 49.5592 21.8604 51.0205L25.6082 57.0181C26.5213 58.4795 28.4462 58.9239 29.9076 58.0107L35.9052 54.263C37.3666 53.3499 37.811 51.4249 36.8978 49.9636L33.1501 43.966C32.2369 42.5046 30.312 42.0602 28.8507 42.9734Z" fill="#0A66C2"/>
<path d="M34.3514 52.8841L35.6422 52.0775C35.689 52.0482 35.7222 52.0016 35.7346 51.9479C35.7471 51.8942 35.7376 51.8377 35.7084 51.7909L34.0049 49.0632C33.1142 47.6378 32.1224 46.7341 30.4566 47.775C29.8086 48.1471 29.4154 48.8467 29.4338 49.5931C29.4339 49.5967 29.4328 49.6003 29.4306 49.6032C29.4285 49.6062 29.4255 49.6083 29.422 49.6094C29.4185 49.6105 29.4148 49.6103 29.4114 49.6091C29.408 49.6078 29.4051 49.6055 29.4031 49.6024L29.0702 49.0695C29.0409 49.0228 28.9943 48.9895 28.9405 48.9771C28.8868 48.9647 28.8303 48.9741 28.7835 49.0034L27.5586 49.7688C27.5118 49.7981 27.4785 49.8447 27.4661 49.8984C27.4537 49.9522 27.4632 50.0087 27.4924 50.0554L30.5793 54.9955C30.6085 55.0423 30.6552 55.0756 30.7089 55.088C30.7627 55.1004 30.8191 55.091 30.8659 55.0617L32.1567 54.2552C32.2034 54.2259 32.2367 54.1793 32.2491 54.1256C32.2615 54.0718 32.2521 54.0153 32.2228 53.9686L30.6969 51.5266C30.2655 50.8361 29.9786 50.0856 30.8346 49.5507C31.6785 49.0234 32.1831 49.8066 32.5667 50.4204L34.0648 52.8179C34.094 52.8647 34.1406 52.8979 34.1944 52.9103C34.2481 52.9228 34.3046 52.9133 34.3514 52.8841ZM23.5257 49.9567C23.8526 50.4799 24.5524 50.6413 25.0756 50.3143C25.5987 49.9874 25.76 49.2877 25.4331 48.7645C25.1061 48.2415 24.4066 48.08 23.8835 48.4069C23.3602 48.7339 23.1988 49.4335 23.5257 49.9567ZM28.1881 56.7353L29.4806 55.9277C29.5274 55.8985 29.5606 55.8518 29.573 55.7981C29.5854 55.7443 29.576 55.6878 29.5467 55.6411L26.4597 50.7007C26.4305 50.654 26.3838 50.6207 26.3301 50.6083C26.2763 50.5959 26.2198 50.6053 26.1731 50.6346L24.8806 51.4422C24.8338 51.4714 24.8006 51.518 24.7882 51.5718C24.7758 51.6255 24.7852 51.682 24.8144 51.7288L27.9015 56.6691C27.9307 56.7159 27.9774 56.7492 28.0311 56.7616C28.0849 56.774 28.1413 56.7645 28.1881 56.7353Z" fill="white"/>
</g>
</g>
<rect x="12.7383" y="35.5156" width="30.5078" height="30.5078" rx="15.2539" stroke="url(#paint7_linear_183_917)" stroke-width="1.10938"/>
<rect x="191.902" y="0.570312" width="48.8125" height="48.8125" rx="24.4062" fill="#E2E7ED"/>
<rect x="191.902" y="0.570312" width="48.8125" height="48.8125" rx="24.4062" stroke="url(#paint8_linear_183_917)" stroke-width="1.10938"/>
<g clip-path="url(#clip10_183_917)" filter="url(#filter4_f_183_917)">
<path d="M223.997 29.414C226.448 25.1692 224.993 19.7413 220.748 17.2905C216.504 14.8398 211.076 16.2942 208.625 20.539C206.41 24.3753 207.385 29.1778 210.726 31.8757L213.827 26.5049L211.876 25.3782L213.159 23.1564L215.11 24.2831L216.088 22.5898C217.2 20.6635 218.962 20.262 220.717 21.2756C221.558 21.7611 222.351 22.4191 222.351 22.4191L221.259 24.3105L220.29 23.751C219.335 23.1997 218.695 23.6203 218.344 24.2281L217.512 25.6699L219.644 26.9006L218.02 28.9256L216.229 27.8916L213.128 33.2625C217.136 34.8073 221.782 33.2503 223.997 29.414Z" fill="#1877F2"/>
<path d="M218.021 28.9254L219.644 26.9004L217.513 25.6697L218.345 24.228C218.696 23.6201 219.336 23.1996 220.291 23.7508L221.26 24.3104L222.352 22.4189C222.352 22.4189 221.559 21.761 220.718 21.2755C218.962 20.2619 217.2 20.6634 216.088 22.5897L215.111 24.283L213.159 23.1563L211.876 25.378L213.828 26.5047L210.727 31.8756C211.088 32.1672 211.472 32.4303 211.874 32.6623C212.276 32.8946 212.696 33.0952 213.129 33.2623L216.23 27.8915L218.021 28.9254Z" fill="white"/>
</g>
<g clip-path="url(#clip11_183_917)">
<path d="M223.997 29.414C226.448 25.1692 224.993 19.7413 220.748 17.2905C216.504 14.8398 211.076 16.2942 208.625 20.539C206.41 24.3753 207.385 29.1778 210.726 31.8757L213.827 26.5049L211.876 25.3782L213.159 23.1564L215.11 24.2831L216.088 22.5898C217.2 20.6635 218.962 20.262 220.717 21.2756C221.558 21.7611 222.351 22.4191 222.351 22.4191L221.259 24.3105L220.29 23.751C219.335 23.1997 218.695 23.6203 218.344 24.2281L217.512 25.6699L219.644 26.9006L218.02 28.9256L216.229 27.8916L213.128 33.2625C217.136 34.8073 221.782 33.2503 223.997 29.414Z" fill="#1877F2"/>
<path d="M218.021 28.9254L219.644 26.9004L217.513 25.6697L218.345 24.228C218.696 23.6201 219.336 23.1996 220.291 23.7508L221.26 24.3104L222.352 22.4189C222.352 22.4189 221.559 21.761 220.718 21.2755C218.962 20.2619 217.2 20.6634 216.088 22.5897L215.111 24.283L213.159 23.1563L211.876 25.378L213.828 26.5047L210.727 31.8756C211.088 32.1672 211.472 32.4303 211.874 32.6623C212.276 32.8946 212.696 33.0952 213.129 33.2623L216.23 27.8915L218.021 28.9254Z" fill="white"/>
</g>
<defs>
<filter id="filter0_f_183_917" x="105.617" y="65.3882" width="46.5938" height="46.5938" filterUnits="userSpaceOnUse" color-interpolation-filters="sRGB">
<feFlood flood-opacity="0" result="BackgroundImageFix"/>
<feBlend mode="normal" in="SourceGraphic" in2="BackgroundImageFix" result="shape"/>
<feGaussianBlur stdDeviation="3.32812" result="effect1_foregroundBlur_183_917"/>
</filter>
<filter id="filter1_f_183_917" x="214.016" y="130.912" width="32.5742" height="31.083" filterUnits="userSpaceOnUse" color-interpolation-filters="sRGB">
<feFlood flood-opacity="0" result="BackgroundImageFix"/>
<feBlend mode="normal" in="SourceGraphic" in2="BackgroundImageFix" result="shape"/>
<feGaussianBlur stdDeviation="3.32812" result="effect1_foregroundBlur_183_917"/>
</filter>
<filter id="filter2_f_183_917" x="6.71875" y="143.759" width="37.5586" height="37.5596" filterUnits="userSpaceOnUse" color-interpolation-filters="sRGB">
<feFlood flood-opacity="0" result="BackgroundImageFix"/>
<feBlend mode="normal" in="SourceGraphic" in2="BackgroundImageFix" result="shape"/>
<feGaussianBlur stdDeviation="3.32812" result="effect1_foregroundBlur_183_917"/>
</filter>
<filter id="filter3_f_183_917" x="13.5508" y="34.6641" width="31.6562" height="31.6565" filterUnits="userSpaceOnUse" color-interpolation-filters="sRGB">
<feFlood flood-opacity="0" result="BackgroundImageFix"/>
<feBlend mode="normal" in="SourceGraphic" in2="BackgroundImageFix" result="shape"/>
<feGaussianBlur stdDeviation="3.32812" result="effect1_foregroundBlur_183_917"/>
</filter>
<filter id="filter4_f_183_917" x="197.531" y="6.19678" width="37.5586" height="37.5596" filterUnits="userSpaceOnUse" color-interpolation-filters="sRGB">
<feFlood flood-opacity="0" result="BackgroundImageFix"/>
<feBlend mode="normal" in="SourceGraphic" in2="BackgroundImageFix" result="shape"/>
<feGaussianBlur stdDeviation="3.32812" result="effect1_foregroundBlur_183_917"/>
</filter>
<linearGradient id="paint0_linear_183_917" x1="106.203" y1="54.9297" x2="148.914" y2="124.266" gradientUnits="userSpaceOnUse">
<stop stop-color="#D5DEE8"/>
<stop offset="0.29229" stop-color="#D5DEE8" stop-opacity="0.1"/>
</linearGradient>
<radialGradient id="paint1_radial_183_917" cx="0" cy="0" r="1" gradientUnits="userSpaceOnUse" gradientTransform="translate(121.114 107.889) rotate(-90) scale(32.9842 30.6779)">
<stop stop-color="#FFDD55"/>
<stop offset="0.1" stop-color="#FFDD55"/>
<stop offset="0.5" stop-color="#FF543E"/>
<stop offset="1" stop-color="#C837AB"/>
</radialGradient>
<radialGradient id="paint2_radial_183_917" cx="0" cy="0" r="1" gradientUnits="userSpaceOnUse" gradientTransform="translate(106.699 74.4419) rotate(78.681) scale(14.7441 60.7757)">
<stop stop-color="#3771C8"/>
<stop offset="0.128" stop-color="#3771C8"/>
<stop offset="1" stop-color="#6600FF" stop-opacity="0"/>
</radialGradient>
<radialGradient id="paint3_radial_183_917" cx="0" cy="0" r="1" gradientUnits="userSpaceOnUse" gradientTransform="translate(121.114 107.889) rotate(-90) scale(32.9842 30.6779)">
<stop stop-color="#FFDD55"/>
<stop offset="0.1" stop-color="#FFDD55"/>
<stop offset="0.5" stop-color="#FF543E"/>
<stop offset="1" stop-color="#C837AB"/>
</radialGradient>
<radialGradient id="paint4_radial_183_917" cx="0" cy="0" r="1" gradientUnits="userSpaceOnUse" gradientTransform="translate(106.699 74.4419) rotate(78.681) scale(14.7441 60.7757)">
<stop stop-color="#3771C8"/>
<stop offset="0.128" stop-color="#3771C8"/>
<stop offset="1" stop-color="#6600FF" stop-opacity="0"/>
</radialGradient>
<linearGradient id="paint5_linear_183_917" x1="221.844" y1="133.921" x2="238.013" y2="160.17" gradientUnits="userSpaceOnUse">
<stop stop-color="#D5DEE8"/>
<stop offset="0.29229" stop-color="#D5DEE8" stop-opacity="0.1"/>
</linearGradient>
<linearGradient id="paint6_linear_183_917" x1="11.5259" y1="141.754" x2="37.7626" y2="184.346" gradientUnits="userSpaceOnUse">
<stop stop-color="#D5DEE8"/>
<stop offset="0.29229" stop-color="#D5DEE8" stop-opacity="0.1"/>
</linearGradient>
<linearGradient id="paint7_linear_183_917" x1="19.3826" y1="37.9602" x2="35.5518" y2="64.2088" gradientUnits="userSpaceOnUse">
<stop stop-color="#D5DEE8"/>
<stop offset="0.29229" stop-color="#D5DEE8" stop-opacity="0.1"/>
</linearGradient>
<linearGradient id="paint8_linear_183_917" x1="202.338" y1="4.19163" x2="228.575" y2="46.7837" gradientUnits="userSpaceOnUse">
<stop stop-color="#D5DEE8"/>
<stop offset="0.29229" stop-color="#D5DEE8" stop-opacity="0.1"/>
</linearGradient>
<clipPath id="clip0_183_917">
<rect width="33.2812" height="33.2812" fill="white" transform="translate(112.273 72.0444)"/>
</clipPath>
<clipPath id="clip1_183_917">
<rect width="33.2812" height="33.2812" fill="white" transform="translate(112.273 72.0444)"/>
</clipPath>
<clipPath id="clip2_183_917">
<rect x="215.754" y="132.031" width="29.3984" height="29.3984" rx="14.6992" fill="white"/>
</clipPath>
<clipPath id="clip3_183_917">
<rect width="15.7809" height="11.0938" fill="white" transform="translate(220.672 145.93) rotate(-32)"/>
</clipPath>
<clipPath id="clip4_183_917">
<rect width="15.7809" height="11.0938" fill="white" transform="translate(220.672 145.93) rotate(-32)"/>
</clipPath>
<clipPath id="clip5_183_917">
<rect width="17.75" height="17.75" fill="white" transform="translate(13.375 159.291) rotate(-30)"/>
</clipPath>
<clipPath id="clip6_183_917">
<rect width="17.75" height="17.75" fill="white" transform="translate(13.375 159.291) rotate(-30)"/>
</clipPath>
<clipPath id="clip7_183_917">
<rect x="13.293" y="36.0703" width="29.3984" height="29.3984" rx="14.6992" fill="white"/>
</clipPath>
<clipPath id="clip8_183_917">
<rect width="13.3125" height="13.3125" fill="white" transform="translate(20.207 48.3748) rotate(-32)"/>
</clipPath>
<clipPath id="clip9_183_917">
<rect width="13.3125" height="13.3125" fill="white" transform="translate(20.207 48.3745) rotate(-32)"/>
</clipPath>
<clipPath id="clip10_183_917">
<rect width="17.75" height="17.75" fill="white" transform="translate(213.062 12.853) rotate(30)"/>
</clipPath>
<clipPath id="clip11_183_917">
<rect width="17.75" height="17.75" fill="white" transform="translate(213.062 12.853) rotate(30)"/>
</clipPath>
</defs>
</svg>
