<svg width="346" height="247" viewBox="0 0 346 247" fill="none" xmlns="http://www.w3.org/2000/svg">
<path d="M18.2652 188.122L55.0327 195.498L112.214 172.292L150.646 184.082L192.255 129.194L261.193 123.645L300.059 64.6369L345.071 58.878" stroke="#2962FF"/>
<path d="M34.6409 236.946L71.872 232.464L118.939 192.552L159.13 191.742L181.504 126.6L245.256 99.7877L263.737 31.5898L304.696 12.0539" stroke="#11A008"/>
<g clip-path="url(#clip0_251_122)">
<rect x="215.666" y="153" width="72" height="33" rx="16.5" fill="#2962FF" fill-opacity="0.12"/>
<path d="M237.208 173.166V167.034H238.384V173.166H237.208ZM234.66 170.66V169.554H240.932V170.66H234.66ZM245.265 175.112C244.574 175.112 243.902 175.005 243.249 174.79C242.605 174.575 242.077 174.286 241.667 173.922L242.311 172.816C242.637 173.124 243.062 173.376 243.585 173.572C244.107 173.768 244.667 173.866 245.265 173.866C245.993 173.866 246.557 173.712 246.959 173.404C247.369 173.087 247.575 172.662 247.575 172.13C247.575 171.617 247.379 171.206 246.987 170.898C246.604 170.581 245.993 170.422 245.153 170.422H244.369V169.442L247.281 165.858L247.477 166.418H242.115V165.2H248.583V166.152L245.685 169.722L244.957 169.288H245.419C246.604 169.288 247.491 169.554 248.079 170.086C248.676 170.618 248.975 171.295 248.975 172.116C248.975 172.667 248.839 173.171 248.569 173.628C248.298 174.085 247.887 174.449 247.337 174.72C246.795 174.981 246.105 175.112 245.265 175.112ZM251.81 175L255.968 165.788L256.332 166.418H250.508L251.208 165.732V168.168H249.864V165.2H257.256V166.152L253.294 175H251.81ZM259.828 175L266.52 165.2H267.598L260.906 175H259.828ZM260.612 170.464C260.164 170.464 259.767 170.352 259.422 170.128C259.076 169.904 258.806 169.591 258.61 169.19C258.423 168.789 258.33 168.322 258.33 167.79C258.33 167.258 258.423 166.791 258.61 166.39C258.806 165.989 259.076 165.676 259.422 165.452C259.767 165.228 260.164 165.116 260.612 165.116C261.069 165.116 261.466 165.228 261.802 165.452C262.147 165.676 262.413 165.989 262.6 166.39C262.786 166.791 262.88 167.258 262.88 167.79C262.88 168.322 262.786 168.789 262.6 169.19C262.413 169.591 262.147 169.904 261.802 170.128C261.466 170.352 261.069 170.464 260.612 170.464ZM260.612 169.666C261.041 169.666 261.377 169.503 261.62 169.176C261.862 168.84 261.984 168.378 261.984 167.79C261.984 167.202 261.862 166.745 261.62 166.418C261.377 166.082 261.041 165.914 260.612 165.914C260.192 165.914 259.856 166.082 259.604 166.418C259.361 166.745 259.24 167.202 259.24 167.79C259.24 168.369 259.361 168.826 259.604 169.162C259.856 169.498 260.192 169.666 260.612 169.666ZM266.814 175.084C266.366 175.084 265.969 174.972 265.624 174.748C265.278 174.524 265.012 174.211 264.826 173.81C264.639 173.409 264.546 172.942 264.546 172.41C264.546 171.878 264.639 171.411 264.826 171.01C265.012 170.609 265.278 170.296 265.624 170.072C265.969 169.848 266.366 169.736 266.814 169.736C267.271 169.736 267.668 169.848 268.004 170.072C268.349 170.296 268.615 170.609 268.802 171.01C268.998 171.411 269.096 171.878 269.096 172.41C269.096 172.942 268.998 173.409 268.802 173.81C268.615 174.211 268.349 174.524 268.004 174.748C267.668 174.972 267.271 175.084 266.814 175.084ZM266.814 174.286C267.234 174.286 267.565 174.123 267.808 173.796C268.06 173.46 268.186 172.998 268.186 172.41C268.186 171.831 268.06 171.374 267.808 171.038C267.565 170.702 267.234 170.534 266.814 170.534C266.394 170.534 266.058 170.702 265.806 171.038C265.563 171.365 265.442 171.822 265.442 172.41C265.442 172.998 265.563 173.46 265.806 173.796C266.058 174.123 266.394 174.286 266.814 174.286Z" fill="#2962FF"/>
</g>
<g clip-path="url(#clip1_251_122)">
<rect x="185.666" y="3" width="72" height="33" rx="16.5" fill="#11A008" fill-opacity="0.12"/>
<path d="M207.256 23.166V17.034H208.432V23.166H207.256ZM204.708 20.66V19.554H210.98V20.66H204.708ZM215.754 25.112C215.063 25.112 214.391 25.0047 213.738 24.79C213.094 24.5753 212.567 24.286 212.156 23.922L212.8 22.816C213.127 23.124 213.551 23.376 214.074 23.572C214.597 23.768 215.152 23.866 215.74 23.866C216.487 23.866 217.061 23.7073 217.462 23.39C217.863 23.0727 218.064 22.648 218.064 22.116C218.064 21.752 217.975 21.4347 217.798 21.164C217.621 20.8933 217.313 20.688 216.874 20.548C216.445 20.3987 215.852 20.324 215.096 20.324H212.87L213.388 15.2H218.918V16.418H213.906L214.634 15.732L214.228 19.778L213.5 19.106H215.39C216.37 19.106 217.159 19.232 217.756 19.484C218.353 19.736 218.787 20.086 219.058 20.534C219.329 20.9727 219.464 21.4813 219.464 22.06C219.464 22.62 219.329 23.1333 219.058 23.6C218.787 24.0573 218.377 24.426 217.826 24.706C217.285 24.9767 216.594 25.112 215.754 25.112ZM223.557 25.112C222.866 25.112 222.194 25.0047 221.541 24.79C220.897 24.5753 220.369 24.286 219.959 23.922L220.603 22.816C220.929 23.124 221.354 23.376 221.877 23.572C222.399 23.768 222.959 23.866 223.557 23.866C224.285 23.866 224.849 23.712 225.251 23.404C225.661 23.0867 225.867 22.662 225.867 22.13C225.867 21.6167 225.671 21.206 225.279 20.898C224.896 20.5807 224.285 20.422 223.445 20.422H222.661V19.442L225.573 15.858L225.769 16.418H220.407V15.2H226.875V16.152L223.977 19.722L223.249 19.288H223.711C224.896 19.288 225.783 19.554 226.371 20.086C226.968 20.618 227.267 21.2947 227.267 22.116C227.267 22.6667 227.131 23.1707 226.861 23.628C226.59 24.0853 226.179 24.4493 225.629 24.72C225.087 24.9813 224.397 25.112 223.557 25.112ZM229.78 25L236.472 15.2H237.55L230.858 25H229.78ZM230.564 20.464C230.116 20.464 229.719 20.352 229.374 20.128C229.028 19.904 228.758 19.5913 228.562 19.19C228.375 18.7887 228.282 18.322 228.282 17.79C228.282 17.258 228.375 16.7913 228.562 16.39C228.758 15.9887 229.028 15.676 229.374 15.452C229.719 15.228 230.116 15.116 230.564 15.116C231.021 15.116 231.418 15.228 231.754 15.452C232.099 15.676 232.365 15.9887 232.552 16.39C232.738 16.7913 232.832 17.258 232.832 17.79C232.832 18.322 232.738 18.7887 232.552 19.19C232.365 19.5913 232.099 19.904 231.754 20.128C231.418 20.352 231.021 20.464 230.564 20.464ZM230.564 19.666C230.993 19.666 231.329 19.5027 231.572 19.176C231.814 18.84 231.936 18.378 231.936 17.79C231.936 17.202 231.814 16.7447 231.572 16.418C231.329 16.082 230.993 15.914 230.564 15.914C230.144 15.914 229.808 16.082 229.556 16.418C229.313 16.7447 229.192 17.202 229.192 17.79C229.192 18.3687 229.313 18.826 229.556 19.162C229.808 19.498 230.144 19.666 230.564 19.666ZM236.766 25.084C236.318 25.084 235.921 24.972 235.576 24.748C235.23 24.524 234.964 24.2113 234.778 23.81C234.591 23.4087 234.498 22.942 234.498 22.41C234.498 21.878 234.591 21.4113 234.778 21.01C234.964 20.6087 235.23 20.296 235.576 20.072C235.921 19.848 236.318 19.736 236.766 19.736C237.223 19.736 237.62 19.848 237.956 20.072C238.301 20.296 238.567 20.6087 238.754 21.01C238.95 21.4113 239.048 21.878 239.048 22.41C239.048 22.942 238.95 23.4087 238.754 23.81C238.567 24.2113 238.301 24.524 237.956 24.748C237.62 24.972 237.223 25.084 236.766 25.084ZM236.766 24.286C237.186 24.286 237.517 24.1227 237.76 23.796C238.012 23.46 238.138 22.998 238.138 22.41C238.138 21.8313 238.012 21.374 237.76 21.038C237.517 20.702 237.186 20.534 236.766 20.534C236.346 20.534 236.01 20.702 235.758 21.038C235.515 21.3647 235.394 21.822 235.394 22.41C235.394 22.998 235.515 23.46 235.758 23.796C236.01 24.1227 236.346 24.286 236.766 24.286Z" fill="#11A008"/>
</g>
<g opacity="0.3">
<g opacity="0.01" clip-path="url(#clip2_251_122)">
<path d="M13.2598 176.253L11.2246 174.215L22.3164 163.12C22.4941 162.941 22.7055 162.799 22.9383 162.702C23.1711 162.605 23.4207 162.555 23.6729 162.555C23.925 162.555 24.1747 162.605 24.4075 162.702C24.6403 162.799 24.8516 162.941 25.0294 163.12L36.127 174.215L34.0918 176.251L23.6758 165.837L13.2598 176.253Z" fill="#11A008"/>
</g>
<g opacity="0.02" clip-path="url(#clip3_251_122)">
<path d="M13.2598 159.613L11.2246 157.576L22.3164 146.48C22.4941 146.301 22.7055 146.159 22.9383 146.062C23.1711 145.965 23.4207 145.916 23.6729 145.916C23.925 145.916 24.1747 145.965 24.4075 146.062C24.6403 146.159 24.8516 146.301 25.0294 146.48L36.127 157.576L34.0918 159.611L23.6758 149.197L13.2598 159.613Z" fill="#11A008"/>
</g>
<g opacity="0.05" clip-path="url(#clip4_251_122)">
<path d="M13.2598 142.973L11.2246 140.935L22.3164 129.84C22.4941 129.661 22.7055 129.519 22.9383 129.422C23.1711 129.325 23.4207 129.275 23.6729 129.275C23.925 129.275 24.1747 129.325 24.4075 129.422C24.6403 129.519 24.8516 129.661 25.0294 129.84L36.127 140.935L34.0918 142.971L23.6758 132.557L13.2598 142.973Z" fill="#11A008"/>
</g>
<g opacity="0.1" clip-path="url(#clip5_251_122)">
<path d="M13.2598 126.333L11.2246 124.296L22.3164 113.2C22.4941 113.021 22.7055 112.879 22.9383 112.782C23.1711 112.685 23.4207 112.635 23.6729 112.635C23.925 112.635 24.1747 112.685 24.4075 112.782C24.6403 112.879 24.8516 113.021 25.0294 113.2L36.127 124.296L34.0918 126.331L23.6758 115.917L13.2598 126.333Z" fill="#11A008"/>
</g>
<g opacity="0.2" clip-path="url(#clip6_251_122)">
<path d="M13.2598 109.693L11.2246 107.655L22.3164 96.5597C22.4941 96.3809 22.7055 96.2389 22.9383 96.1421C23.1711 96.0452 23.4207 95.9954 23.6729 95.9954C23.925 95.9954 24.1747 96.0452 24.4075 96.1421C24.6403 96.2389 24.8516 96.3809 25.0294 96.5597L36.127 107.655L34.0918 109.691L23.6758 99.2765L13.2598 109.693Z" fill="#11A008"/>
</g>
<g opacity="0.4" clip-path="url(#clip7_251_122)">
<path d="M13.2598 93.0527L11.2246 91.0155L22.3164 79.9199C22.4941 79.741 22.7055 79.5991 22.9383 79.5022C23.1711 79.4053 23.4207 79.3555 23.6729 79.3555C23.925 79.3555 24.1747 79.4053 24.4075 79.5022C24.6403 79.5991 24.8516 79.741 25.0294 79.9199L36.127 91.0155L34.0918 93.0507L23.6758 82.6367L13.2598 93.0527Z" fill="#11A008"/>
</g>
<g opacity="0.6" clip-path="url(#clip8_251_122)">
<path d="M13.2598 76.4125L11.2246 74.3754L22.3164 63.2797C22.4941 63.1009 22.7055 62.9589 22.9383 62.8621C23.1711 62.7652 23.4207 62.7153 23.6729 62.7153C23.925 62.7153 24.1747 62.7652 24.4075 62.8621C24.6403 62.9589 24.8516 63.1009 25.0294 63.2797L36.127 74.3754L34.0918 76.4106L23.6758 65.9965L13.2598 76.4125Z" fill="#11A008"/>
</g>
<g opacity="0.8" clip-path="url(#clip9_251_122)">
<path d="M13.2598 59.7726L11.2246 57.7355L22.3164 46.6398C22.4941 46.461 22.7055 46.319 22.9383 46.2222C23.1711 46.1253 23.4207 46.0754 23.6729 46.0754C23.925 46.0754 24.1747 46.1253 24.4075 46.2222C24.6403 46.319 24.8516 46.461 25.0294 46.6398L36.127 57.7355L34.0918 59.7707L23.6758 49.3566L13.2598 59.7726Z" fill="#11A008"/>
</g>
<g clip-path="url(#clip10_251_122)">
<path d="M13.2598 43.1322L11.2246 41.0951L22.3164 29.9994C22.4941 29.8206 22.7055 29.6786 22.9383 29.5818C23.1711 29.4849 23.4207 29.4351 23.6729 29.4351C23.925 29.4351 24.1747 29.4849 24.4075 29.5818C24.6403 29.6786 24.8516 29.8206 25.0294 29.9994L36.127 41.0951L34.0918 43.1303L23.6758 32.7162L13.2598 43.1322Z" fill="#11A008"/>
</g>
</g>
<g opacity="0.1">
<g opacity="0.01" clip-path="url(#clip11_251_122)">
<path d="M115.26 223.253L113.225 221.215L124.316 210.12C124.494 209.941 124.705 209.799 124.938 209.702C125.171 209.605 125.421 209.555 125.673 209.555C125.925 209.555 126.175 209.605 126.407 209.702C126.64 209.799 126.852 209.941 127.029 210.12L138.127 221.215L136.092 223.251L125.676 212.837L115.26 223.253Z" fill="#2962FF"/>
</g>
<g opacity="0.02" clip-path="url(#clip12_251_122)">
<path d="M115.26 206.613L113.225 204.576L124.316 193.48C124.494 193.301 124.705 193.159 124.938 193.062C125.171 192.965 125.421 192.916 125.673 192.916C125.925 192.916 126.175 192.965 126.407 193.062C126.64 193.159 126.852 193.301 127.029 193.48L138.127 204.576L136.092 206.611L125.676 196.197L115.26 206.613Z" fill="#2962FF"/>
</g>
<g opacity="0.05" clip-path="url(#clip13_251_122)">
<path d="M115.26 189.973L113.225 187.935L124.316 176.84C124.494 176.661 124.705 176.519 124.938 176.422C125.171 176.325 125.421 176.275 125.673 176.275C125.925 176.275 126.175 176.325 126.407 176.422C126.64 176.519 126.852 176.661 127.029 176.84L138.127 187.935L136.092 189.971L125.676 179.557L115.26 189.973Z" fill="#2962FF"/>
</g>
<g opacity="0.1" clip-path="url(#clip14_251_122)">
<path d="M115.26 173.333L113.225 171.296L124.316 160.2C124.494 160.021 124.705 159.879 124.938 159.782C125.171 159.685 125.421 159.635 125.673 159.635C125.925 159.635 126.175 159.685 126.407 159.782C126.64 159.879 126.852 160.021 127.029 160.2L138.127 171.296L136.092 173.331L125.676 162.917L115.26 173.333Z" fill="#2962FF"/>
</g>
<g opacity="0.2" clip-path="url(#clip15_251_122)">
<path d="M115.26 156.693L113.225 154.655L124.316 143.56C124.494 143.381 124.705 143.239 124.938 143.142C125.171 143.045 125.421 142.995 125.673 142.995C125.925 142.995 126.175 143.045 126.407 143.142C126.64 143.239 126.852 143.381 127.029 143.56L138.127 154.655L136.092 156.691L125.676 146.277L115.26 156.693Z" fill="#2962FF"/>
</g>
<g opacity="0.4" clip-path="url(#clip16_251_122)">
<path d="M115.26 140.053L113.225 138.016L124.316 126.92C124.494 126.741 124.705 126.599 124.938 126.502C125.171 126.405 125.421 126.355 125.673 126.355C125.925 126.355 126.175 126.405 126.407 126.502C126.64 126.599 126.852 126.741 127.029 126.92L138.127 138.016L136.092 140.051L125.676 129.637L115.26 140.053Z" fill="#2962FF"/>
</g>
<g opacity="0.6" clip-path="url(#clip17_251_122)">
<path d="M115.26 123.413L113.225 121.375L124.316 110.28C124.494 110.101 124.705 109.959 124.938 109.862C125.171 109.765 125.421 109.715 125.673 109.715C125.925 109.715 126.175 109.765 126.407 109.862C126.64 109.959 126.852 110.101 127.029 110.28L138.127 121.375L136.092 123.411L125.676 112.997L115.26 123.413Z" fill="#2962FF"/>
</g>
<g opacity="0.8" clip-path="url(#clip18_251_122)">
<path d="M115.26 106.773L113.225 104.736L124.316 93.6398C124.494 93.461 124.705 93.319 124.938 93.2222C125.171 93.1253 125.421 93.0754 125.673 93.0754C125.925 93.0754 126.175 93.1253 126.407 93.2222C126.64 93.319 126.852 93.461 127.029 93.6398L138.127 104.736L136.092 106.771L125.676 96.3566L115.26 106.773Z" fill="#2962FF"/>
</g>
<g clip-path="url(#clip19_251_122)">
<path d="M115.26 90.1322L113.225 88.0951L124.316 76.9994C124.494 76.8206 124.705 76.6786 124.938 76.5818C125.171 76.4849 125.421 76.4351 125.673 76.4351C125.925 76.4351 126.175 76.4849 126.407 76.5818C126.64 76.6786 126.852 76.8206 127.029 76.9994L138.127 88.0951L136.092 90.1303L125.676 79.7162L115.26 90.1322Z" fill="#2962FF"/>
</g>
</g>
<g opacity="0.3">
<g opacity="0.01" clip-path="url(#clip20_251_122)">
<path d="M217.26 190.253L215.225 188.215L226.316 177.12C226.494 176.941 226.705 176.799 226.938 176.702C227.171 176.605 227.421 176.555 227.673 176.555C227.925 176.555 228.175 176.605 228.407 176.702C228.64 176.799 228.852 176.941 229.029 177.12L240.127 188.215L238.092 190.251L227.676 179.837L217.26 190.253Z" fill="#11A008"/>
</g>
<g opacity="0.02" clip-path="url(#clip21_251_122)">
<path d="M217.26 173.613L215.225 171.576L226.316 160.48C226.494 160.301 226.705 160.159 226.938 160.062C227.171 159.965 227.421 159.916 227.673 159.916C227.925 159.916 228.175 159.965 228.407 160.062C228.64 160.159 228.852 160.301 229.029 160.48L240.127 171.576L238.092 173.611L227.676 163.197L217.26 173.613Z" fill="#11A008"/>
</g>
<g opacity="0.05" clip-path="url(#clip22_251_122)">
<path d="M217.26 156.973L215.225 154.935L226.316 143.84C226.494 143.661 226.705 143.519 226.938 143.422C227.171 143.325 227.421 143.275 227.673 143.275C227.925 143.275 228.175 143.325 228.407 143.422C228.64 143.519 228.852 143.661 229.029 143.84L240.127 154.935L238.092 156.971L227.676 146.557L217.26 156.973Z" fill="#11A008"/>
</g>
<g opacity="0.1" clip-path="url(#clip23_251_122)">
<path d="M217.26 140.333L215.225 138.296L226.316 127.2C226.494 127.021 226.705 126.879 226.938 126.782C227.171 126.685 227.421 126.635 227.673 126.635C227.925 126.635 228.175 126.685 228.407 126.782C228.64 126.879 228.852 127.021 229.029 127.2L240.127 138.296L238.092 140.331L227.676 129.917L217.26 140.333Z" fill="#11A008"/>
</g>
<g opacity="0.2" clip-path="url(#clip24_251_122)">
<path d="M217.26 123.693L215.225 121.655L226.316 110.56C226.494 110.381 226.705 110.239 226.938 110.142C227.171 110.045 227.421 109.995 227.673 109.995C227.925 109.995 228.175 110.045 228.407 110.142C228.64 110.239 228.852 110.381 229.029 110.56L240.127 121.655L238.092 123.691L227.676 113.277L217.26 123.693Z" fill="#11A008"/>
</g>
<g opacity="0.4" clip-path="url(#clip25_251_122)">
<path d="M217.26 107.053L215.225 105.016L226.316 93.9199C226.494 93.741 226.705 93.5991 226.938 93.5022C227.171 93.4053 227.421 93.3555 227.673 93.3555C227.925 93.3555 228.175 93.4053 228.407 93.5022C228.64 93.5991 228.852 93.741 229.029 93.9199L240.127 105.016L238.092 107.051L227.676 96.6367L217.26 107.053Z" fill="#11A008"/>
</g>
<g opacity="0.6" clip-path="url(#clip26_251_122)">
<path d="M217.26 90.4125L215.225 88.3754L226.316 77.2797C226.494 77.1009 226.705 76.9589 226.938 76.8621C227.171 76.7652 227.421 76.7153 227.673 76.7153C227.925 76.7153 228.175 76.7652 228.407 76.8621C228.64 76.9589 228.852 77.1009 229.029 77.2797L240.127 88.3754L238.092 90.4106L227.676 79.9965L217.26 90.4125Z" fill="#11A008"/>
</g>
<g opacity="0.8" clip-path="url(#clip27_251_122)">
<path d="M217.26 73.7726L215.225 71.7355L226.316 60.6398C226.494 60.461 226.705 60.319 226.938 60.2222C227.171 60.1253 227.421 60.0754 227.673 60.0754C227.925 60.0754 228.175 60.1253 228.407 60.2222C228.64 60.319 228.852 60.461 229.029 60.6398L240.127 71.7355L238.092 73.7707L227.676 63.3566L217.26 73.7726Z" fill="#11A008"/>
</g>
<g clip-path="url(#clip28_251_122)">
<path d="M217.26 57.1322L215.225 55.0951L226.316 43.9994C226.494 43.8206 226.705 43.6786 226.938 43.5818C227.171 43.4849 227.421 43.4351 227.673 43.4351C227.925 43.4351 228.175 43.4849 228.407 43.5818C228.64 43.6786 228.852 43.8206 229.029 43.9994L240.127 55.0951L238.092 57.1303L227.676 46.7162L217.26 57.1322Z" fill="#11A008"/>
</g>
</g>
<g opacity="0.1">
<g opacity="0.01" clip-path="url(#clip29_251_122)">
<path d="M306.26 230.253L304.225 228.215L315.316 217.12C315.494 216.941 315.705 216.799 315.938 216.702C316.171 216.605 316.421 216.555 316.673 216.555C316.925 216.555 317.175 216.605 317.407 216.702C317.64 216.799 317.852 216.941 318.029 217.12L329.127 228.215L327.092 230.251L316.676 219.837L306.26 230.253Z" fill="#2962FF"/>
</g>
<g opacity="0.02" clip-path="url(#clip30_251_122)">
<path d="M306.26 213.613L304.225 211.576L315.316 200.48C315.494 200.301 315.705 200.159 315.938 200.062C316.171 199.965 316.421 199.916 316.673 199.916C316.925 199.916 317.175 199.965 317.407 200.062C317.64 200.159 317.852 200.301 318.029 200.48L329.127 211.576L327.092 213.611L316.676 203.197L306.26 213.613Z" fill="#2962FF"/>
</g>
<g opacity="0.05" clip-path="url(#clip31_251_122)">
<path d="M306.26 196.973L304.225 194.935L315.316 183.84C315.494 183.661 315.705 183.519 315.938 183.422C316.171 183.325 316.421 183.275 316.673 183.275C316.925 183.275 317.175 183.325 317.407 183.422C317.64 183.519 317.852 183.661 318.029 183.84L329.127 194.935L327.092 196.971L316.676 186.557L306.26 196.973Z" fill="#2962FF"/>
</g>
<g opacity="0.1" clip-path="url(#clip32_251_122)">
<path d="M306.26 180.333L304.225 178.296L315.316 167.2C315.494 167.021 315.705 166.879 315.938 166.782C316.171 166.685 316.421 166.635 316.673 166.635C316.925 166.635 317.175 166.685 317.407 166.782C317.64 166.879 317.852 167.021 318.029 167.2L329.127 178.296L327.092 180.331L316.676 169.917L306.26 180.333Z" fill="#2962FF"/>
</g>
<g opacity="0.2" clip-path="url(#clip33_251_122)">
<path d="M306.26 163.693L304.225 161.655L315.316 150.56C315.494 150.381 315.705 150.239 315.938 150.142C316.171 150.045 316.421 149.995 316.673 149.995C316.925 149.995 317.175 150.045 317.407 150.142C317.64 150.239 317.852 150.381 318.029 150.56L329.127 161.655L327.092 163.691L316.676 153.277L306.26 163.693Z" fill="#2962FF"/>
</g>
<g opacity="0.4" clip-path="url(#clip34_251_122)">
<path d="M306.26 147.053L304.225 145.016L315.316 133.92C315.494 133.741 315.705 133.599 315.938 133.502C316.171 133.405 316.421 133.355 316.673 133.355C316.925 133.355 317.175 133.405 317.407 133.502C317.64 133.599 317.852 133.741 318.029 133.92L329.127 145.016L327.092 147.051L316.676 136.637L306.26 147.053Z" fill="#2962FF"/>
</g>
<g opacity="0.6" clip-path="url(#clip35_251_122)">
<path d="M306.26 130.413L304.225 128.375L315.316 117.28C315.494 117.101 315.705 116.959 315.938 116.862C316.171 116.765 316.421 116.715 316.673 116.715C316.925 116.715 317.175 116.765 317.407 116.862C317.64 116.959 317.852 117.101 318.029 117.28L329.127 128.375L327.092 130.411L316.676 119.997L306.26 130.413Z" fill="#2962FF"/>
</g>
<g opacity="0.8" clip-path="url(#clip36_251_122)">
<path d="M306.26 113.773L304.225 111.736L315.316 100.64C315.494 100.461 315.705 100.319 315.938 100.222C316.171 100.125 316.421 100.075 316.673 100.075C316.925 100.075 317.175 100.125 317.407 100.222C317.64 100.319 317.852 100.461 318.029 100.64L329.127 111.736L327.092 113.771L316.676 103.357L306.26 113.773Z" fill="#2962FF"/>
</g>
<g clip-path="url(#clip37_251_122)">
<path d="M306.26 97.1322L304.225 95.0951L315.316 83.9994C315.494 83.8206 315.705 83.6786 315.938 83.5818C316.171 83.4849 316.421 83.4351 316.673 83.4351C316.925 83.4351 317.175 83.4849 317.407 83.5818C317.64 83.6786 317.852 83.8206 318.029 83.9994L329.127 95.0951L327.092 97.1303L316.676 86.7162L306.26 97.1322Z" fill="#2962FF"/>
</g>
</g>
<defs>
<clipPath id="clip0_251_122">
<rect x="215.666" y="153" width="72" height="33" rx="16.5" fill="white"/>
</clipPath>
<clipPath id="clip1_251_122">
<rect x="185.666" y="3" width="72" height="33" rx="16.5" fill="white"/>
</clipPath>
<clipPath id="clip2_251_122">
<rect width="23.04" height="46.08" fill="white" transform="translate(0.626953 180.96) rotate(-90)"/>
</clipPath>
<clipPath id="clip3_251_122">
<rect width="23.04" height="46.08" fill="white" transform="translate(0.626953 164.32) rotate(-90)"/>
</clipPath>
<clipPath id="clip4_251_122">
<rect width="23.04" height="46.08" fill="white" transform="translate(0.626953 147.68) rotate(-90)"/>
</clipPath>
<clipPath id="clip5_251_122">
<rect width="23.04" height="46.08" fill="white" transform="translate(0.626953 131.04) rotate(-90)"/>
</clipPath>
<clipPath id="clip6_251_122">
<rect width="23.04" height="46.08" fill="white" transform="translate(0.626953 114.4) rotate(-90)"/>
</clipPath>
<clipPath id="clip7_251_122">
<rect width="23.04" height="46.08" fill="white" transform="translate(0.626953 97.76) rotate(-90)"/>
</clipPath>
<clipPath id="clip8_251_122">
<rect width="23.04" height="46.08" fill="white" transform="translate(0.626953 81.1199) rotate(-90)"/>
</clipPath>
<clipPath id="clip9_251_122">
<rect width="23.04" height="46.08" fill="white" transform="translate(0.626953 64.48) rotate(-90)"/>
</clipPath>
<clipPath id="clip10_251_122">
<rect width="23.04" height="46.08" fill="white" transform="translate(0.626953 47.8398) rotate(-90)"/>
</clipPath>
<clipPath id="clip11_251_122">
<rect width="23.04" height="46.08" fill="white" transform="translate(102.627 227.96) rotate(-90)"/>
</clipPath>
<clipPath id="clip12_251_122">
<rect width="23.04" height="46.08" fill="white" transform="translate(102.627 211.32) rotate(-90)"/>
</clipPath>
<clipPath id="clip13_251_122">
<rect width="23.04" height="46.08" fill="white" transform="translate(102.627 194.68) rotate(-90)"/>
</clipPath>
<clipPath id="clip14_251_122">
<rect width="23.04" height="46.08" fill="white" transform="translate(102.627 178.04) rotate(-90)"/>
</clipPath>
<clipPath id="clip15_251_122">
<rect width="23.04" height="46.08" fill="white" transform="translate(102.627 161.4) rotate(-90)"/>
</clipPath>
<clipPath id="clip16_251_122">
<rect width="23.04" height="46.08" fill="white" transform="translate(102.627 144.76) rotate(-90)"/>
</clipPath>
<clipPath id="clip17_251_122">
<rect width="23.04" height="46.08" fill="white" transform="translate(102.627 128.12) rotate(-90)"/>
</clipPath>
<clipPath id="clip18_251_122">
<rect width="23.04" height="46.08" fill="white" transform="translate(102.627 111.48) rotate(-90)"/>
</clipPath>
<clipPath id="clip19_251_122">
<rect width="23.04" height="46.08" fill="white" transform="translate(102.627 94.8398) rotate(-90)"/>
</clipPath>
<clipPath id="clip20_251_122">
<rect width="23.04" height="46.08" fill="white" transform="translate(204.627 194.96) rotate(-90)"/>
</clipPath>
<clipPath id="clip21_251_122">
<rect width="23.04" height="46.08" fill="white" transform="translate(204.627 178.32) rotate(-90)"/>
</clipPath>
<clipPath id="clip22_251_122">
<rect width="23.04" height="46.08" fill="white" transform="translate(204.627 161.68) rotate(-90)"/>
</clipPath>
<clipPath id="clip23_251_122">
<rect width="23.04" height="46.08" fill="white" transform="translate(204.627 145.04) rotate(-90)"/>
</clipPath>
<clipPath id="clip24_251_122">
<rect width="23.04" height="46.08" fill="white" transform="translate(204.627 128.4) rotate(-90)"/>
</clipPath>
<clipPath id="clip25_251_122">
<rect width="23.04" height="46.08" fill="white" transform="translate(204.627 111.76) rotate(-90)"/>
</clipPath>
<clipPath id="clip26_251_122">
<rect width="23.04" height="46.08" fill="white" transform="translate(204.627 95.1199) rotate(-90)"/>
</clipPath>
<clipPath id="clip27_251_122">
<rect width="23.04" height="46.08" fill="white" transform="translate(204.627 78.48) rotate(-90)"/>
</clipPath>
<clipPath id="clip28_251_122">
<rect width="23.04" height="46.08" fill="white" transform="translate(204.627 61.8398) rotate(-90)"/>
</clipPath>
<clipPath id="clip29_251_122">
<rect width="23.04" height="46.08" fill="white" transform="translate(293.627 234.96) rotate(-90)"/>
</clipPath>
<clipPath id="clip30_251_122">
<rect width="23.04" height="46.08" fill="white" transform="translate(293.627 218.32) rotate(-90)"/>
</clipPath>
<clipPath id="clip31_251_122">
<rect width="23.04" height="46.08" fill="white" transform="translate(293.627 201.68) rotate(-90)"/>
</clipPath>
<clipPath id="clip32_251_122">
<rect width="23.04" height="46.08" fill="white" transform="translate(293.627 185.04) rotate(-90)"/>
</clipPath>
<clipPath id="clip33_251_122">
<rect width="23.04" height="46.08" fill="white" transform="translate(293.627 168.4) rotate(-90)"/>
</clipPath>
<clipPath id="clip34_251_122">
<rect width="23.04" height="46.08" fill="white" transform="translate(293.627 151.76) rotate(-90)"/>
</clipPath>
<clipPath id="clip35_251_122">
<rect width="23.04" height="46.08" fill="white" transform="translate(293.627 135.12) rotate(-90)"/>
</clipPath>
<clipPath id="clip36_251_122">
<rect width="23.04" height="46.08" fill="white" transform="translate(293.627 118.48) rotate(-90)"/>
</clipPath>
<clipPath id="clip37_251_122">
<rect width="23.04" height="46.08" fill="white" transform="translate(293.627 101.84) rotate(-90)"/>
</clipPath>
</defs>
</svg>
