<svg class="z-1 w-full" width="460" height="442" viewBox="0 0 460 442" fill="none" xmlns="http://www.w3.org/2000/svg">
<g clip-path="url(#clip0_186_919)">
<g clip-path="url(#clip1_186_919)">
<rect x="-195" y="6" width="645" height="424" rx="12" fill="white"/>
<g opacity="0.6" filter="url(#filter0_f_186_919)">
<rect x="398.16" y="184.722" width="1.33797" height="1.33797" rx="0.668985" transform="rotate(138.383 398.16 184.722)" fill="white"/>
</g>
<g opacity="0.6" filter="url(#filter1_f_186_919)">
<rect x="402.207" y="154.996" width="1.33797" height="1.33797" rx="0.668985" transform="rotate(138.383 402.207 154.996)" fill="white"/>
</g>
<g opacity="0.6" filter="url(#filter2_f_186_919)">
<rect x="406.865" y="145.122" width="1.33797" height="1.33797" rx="0.668985" transform="rotate(-159.61 406.865 145.122)" fill="white"/>
</g>
<g opacity="0.6" filter="url(#filter3_f_186_919)">
<rect width="1.33797" height="1.33797" rx="0.668985" transform="matrix(0.231267 -0.97289 -0.97289 -0.231267 365.811 159.457)" fill="white"/>
</g>
<g opacity="0.3" filter="url(#filter4_f_186_919)">
<rect x="380.188" y="177.899" width="1.33797" height="1.33797" rx="0.668985" transform="rotate(138.383 380.188 177.899)" fill="white"/>
</g>
<g opacity="0.3" filter="url(#filter5_f_186_919)">
<rect x="382.887" y="158.082" width="1.33797" height="1.33797" rx="0.668985" transform="rotate(138.383 382.887 158.082)" fill="white"/>
</g>
<g opacity="0.3" filter="url(#filter6_f_186_919)">
<rect x="385.689" y="132.969" width="1.33797" height="1.33797" rx="0.668985" transform="rotate(-159.61 385.689 132.969)" fill="white"/>
</g>
<g opacity="0.3" filter="url(#filter7_f_186_919)">
<rect width="1.33797" height="1.33797" rx="0.668985" transform="matrix(0.231267 -0.97289 -0.97289 -0.231267 367.428 135.455)" fill="white"/>
</g>
<g opacity="0.3" filter="url(#filter8_f_186_919)">
<rect width="1.33797" height="1.33797" rx="0.668985" transform="matrix(0.231267 -0.97289 -0.97289 -0.231267 378.516 142.961)" fill="white"/>
</g>
<g opacity="0.3" filter="url(#filter9_f_186_919)">
<rect width="1.33797" height="1.33797" rx="0.668985" transform="matrix(0.231267 -0.97289 -0.97289 -0.231267 357.172 166.295)" fill="white"/>
</g>
<g opacity="0.3" filter="url(#filter10_f_186_919)">
<rect width="1.33797" height="1.33797" rx="0.668985" transform="matrix(0.231267 -0.97289 -0.97289 -0.231267 369.604 163.951)" fill="white"/>
</g>
<g opacity="0.3" filter="url(#filter11_f_186_919)">
<rect width="1.33797" height="1.33797" rx="0.668985" transform="matrix(0.231267 -0.97289 -0.97289 -0.231267 391.941 162.955)" fill="white"/>
</g>
<g opacity="0.3" filter="url(#filter12_f_186_919)">
<rect width="1.33797" height="1.33797" rx="0.668985" transform="matrix(0.231267 -0.97289 -0.97289 -0.231267 391.764 179.079)" fill="white"/>
</g>
<g opacity="0.3" filter="url(#filter13_f_186_919)">
<rect width="1.33797" height="1.33797" rx="0.668985" transform="matrix(0.231267 -0.97289 -0.97289 -0.231267 387.252 138.096)" fill="white"/>
</g>
<g opacity="0.6" filter="url(#filter14_f_186_919)">
<rect width="1.33797" height="1.33797" rx="0.668985" transform="matrix(0.231267 -0.97289 -0.97289 -0.231267 435.811 269.457)" fill="white"/>
</g>
<g opacity="0.3" filter="url(#filter15_f_186_919)">
<rect x="450.188" y="287.899" width="1.33797" height="1.33797" rx="0.668985" transform="rotate(138.383 450.188 287.899)" fill="white"/>
</g>
<g opacity="0.3" filter="url(#filter16_f_186_919)">
<rect x="452.887" y="268.082" width="1.33797" height="1.33797" rx="0.668985" transform="rotate(138.383 452.887 268.082)" fill="white"/>
</g>
<g opacity="0.3" filter="url(#filter17_f_186_919)">
<rect width="1.33797" height="1.33797" rx="0.668985" transform="matrix(0.231267 -0.97289 -0.97289 -0.231267 437.428 245.455)" fill="white"/>
</g>
<g opacity="0.3" filter="url(#filter18_f_186_919)">
<rect width="1.33797" height="1.33797" rx="0.668985" transform="matrix(0.231267 -0.97289 -0.97289 -0.231267 448.516 252.961)" fill="white"/>
</g>
<g opacity="0.3" filter="url(#filter19_f_186_919)">
<rect width="1.33797" height="1.33797" rx="0.668985" transform="matrix(0.231267 -0.97289 -0.97289 -0.231267 427.172 276.295)" fill="white"/>
</g>
<g opacity="0.3" filter="url(#filter20_f_186_919)">
<rect width="1.33797" height="1.33797" rx="0.668985" transform="matrix(0.231267 -0.97289 -0.97289 -0.231267 439.604 273.951)" fill="white"/>
</g>
<g opacity="0.6" filter="url(#filter21_f_186_919)">
<rect x="315.16" y="74.722" width="1.33797" height="1.33797" rx="0.668985" transform="rotate(138.383 315.16 74.722)" fill="white"/>
</g>
<g opacity="0.6" filter="url(#filter22_f_186_919)">
<rect x="319.207" y="44.9963" width="1.33797" height="1.33797" rx="0.668985" transform="rotate(138.383 319.207 44.9963)" fill="white"/>
</g>
<g opacity="0.6" filter="url(#filter23_f_186_919)">
<rect x="323.865" y="35.1221" width="1.33797" height="1.33797" rx="0.668985" transform="rotate(-159.61 323.865 35.1221)" fill="white"/>
</g>
<g opacity="0.6" filter="url(#filter24_f_186_919)">
<rect width="1.33797" height="1.33797" rx="0.668985" transform="matrix(0.231267 -0.97289 -0.97289 -0.231267 282.811 49.4568)" fill="white"/>
</g>
<g opacity="0.3" filter="url(#filter25_f_186_919)">
<rect x="297.188" y="67.899" width="1.33797" height="1.33797" rx="0.668985" transform="rotate(138.383 297.188 67.899)" fill="white"/>
</g>
<g opacity="0.3" filter="url(#filter26_f_186_919)">
<rect x="299.887" y="48.0818" width="1.33797" height="1.33797" rx="0.668985" transform="rotate(138.383 299.887 48.0818)" fill="white"/>
</g>
<g opacity="0.3" filter="url(#filter27_f_186_919)">
<rect x="302.689" y="22.9687" width="1.33797" height="1.33797" rx="0.668985" transform="rotate(-159.61 302.689 22.9687)" fill="white"/>
</g>
<g opacity="0.3" filter="url(#filter28_f_186_919)">
<rect width="1.33797" height="1.33797" rx="0.668985" transform="matrix(0.231267 -0.97289 -0.97289 -0.231267 284.428 25.4554)" fill="white"/>
</g>
<g opacity="0.3" filter="url(#filter29_f_186_919)">
<rect width="1.33797" height="1.33797" rx="0.668985" transform="matrix(0.231267 -0.97289 -0.97289 -0.231267 295.516 32.9615)" fill="white"/>
</g>
<g opacity="0.3" filter="url(#filter30_f_186_919)">
<rect width="1.33797" height="1.33797" rx="0.668985" transform="matrix(0.231267 -0.97289 -0.97289 -0.231267 274.172 56.2954)" fill="white"/>
</g>
<g opacity="0.3" filter="url(#filter31_f_186_919)">
<rect width="1.33797" height="1.33797" rx="0.668985" transform="matrix(0.231267 -0.97289 -0.97289 -0.231267 286.604 53.9509)" fill="white"/>
</g>
<g opacity="0.3" filter="url(#filter32_f_186_919)">
<rect width="1.33797" height="1.33797" rx="0.668985" transform="matrix(0.231267 -0.97289 -0.97289 -0.231267 308.941 52.9555)" fill="white"/>
</g>
<g opacity="0.3" filter="url(#filter33_f_186_919)">
<rect width="1.33797" height="1.33797" rx="0.668985" transform="matrix(0.231267 -0.97289 -0.97289 -0.231267 308.764 69.079)" fill="white"/>
</g>
<g opacity="0.3" filter="url(#filter34_f_186_919)">
<rect width="1.33797" height="1.33797" rx="0.668985" transform="matrix(0.231267 -0.97289 -0.97289 -0.231267 304.252 28.0956)" fill="white"/>
</g>
<g opacity="0.6" filter="url(#filter35_f_186_919)">
<rect x="315.232" y="311.722" width="1.33797" height="1.33797" rx="0.668985" transform="rotate(138.383 315.232 311.722)" fill="white"/>
</g>
<g opacity="0.6" filter="url(#filter36_f_186_919)">
<rect x="319.279" y="281.996" width="1.33797" height="1.33797" rx="0.668985" transform="rotate(138.383 319.279 281.996)" fill="white"/>
</g>
<g opacity="0.6" filter="url(#filter37_f_186_919)">
<rect x="323.938" y="272.122" width="1.33797" height="1.33797" rx="0.668985" transform="rotate(-159.61 323.938 272.122)" fill="white"/>
</g>
<g opacity="0.6" filter="url(#filter38_f_186_919)">
<rect width="1.33797" height="1.33797" rx="0.668985" transform="matrix(0.231267 -0.97289 -0.97289 -0.231267 282.883 286.457)" fill="white"/>
</g>
<g opacity="0.3" filter="url(#filter39_f_186_919)">
<rect x="297.26" y="304.899" width="1.33797" height="1.33797" rx="0.668985" transform="rotate(138.383 297.26 304.899)" fill="white"/>
</g>
<g opacity="0.3" filter="url(#filter40_f_186_919)">
<rect x="299.959" y="285.082" width="1.33797" height="1.33797" rx="0.668985" transform="rotate(138.383 299.959 285.082)" fill="white"/>
</g>
<g opacity="0.3" filter="url(#filter41_f_186_919)">
<rect x="302.762" y="259.969" width="1.33797" height="1.33797" rx="0.668985" transform="rotate(-159.61 302.762 259.969)" fill="white"/>
</g>
<g opacity="0.3" filter="url(#filter42_f_186_919)">
<rect width="1.33797" height="1.33797" rx="0.668985" transform="matrix(0.231267 -0.97289 -0.97289 -0.231267 284.5 262.455)" fill="white"/>
</g>
<g opacity="0.3" filter="url(#filter43_f_186_919)">
<rect width="1.33797" height="1.33797" rx="0.668985" transform="matrix(0.231267 -0.97289 -0.97289 -0.231267 295.588 269.961)" fill="white"/>
</g>
<g opacity="0.3" filter="url(#filter44_f_186_919)">
<rect width="1.33797" height="1.33797" rx="0.668985" transform="matrix(0.231267 -0.97289 -0.97289 -0.231267 274.244 293.295)" fill="white"/>
</g>
<g opacity="0.3" filter="url(#filter45_f_186_919)">
<rect width="1.33797" height="1.33797" rx="0.668985" transform="matrix(0.231267 -0.97289 -0.97289 -0.231267 286.676 290.951)" fill="white"/>
</g>
<g opacity="0.3" filter="url(#filter46_f_186_919)">
<rect width="1.33797" height="1.33797" rx="0.668985" transform="matrix(0.231267 -0.97289 -0.97289 -0.231267 309.014 289.955)" fill="white"/>
</g>
<g opacity="0.3" filter="url(#filter47_f_186_919)">
<rect width="1.33797" height="1.33797" rx="0.668985" transform="matrix(0.231267 -0.97289 -0.97289 -0.231267 308.836 306.079)" fill="white"/>
</g>
<g opacity="0.3" filter="url(#filter48_f_186_919)">
<rect width="1.33797" height="1.33797" rx="0.668985" transform="matrix(0.231267 -0.97289 -0.97289 -0.231267 304.324 265.096)" fill="white"/>
</g>
<path d="M418 38L402 54M402 38L418 54" stroke="#1E1E1E" stroke-width="2.66667" stroke-linecap="round" stroke-linejoin="round"/>
<g clip-path="url(#clip2_186_919)">
<rect x="-210" y="6" width="529" height="424" rx="6" fill="url(#paint0_linear_186_919)"/>
<path d="M-544 441.243C-544 441.243 -457.829 445.471 -405.022 432.479C-363.053 422.154 -344.51 400.687 -302.353 391.161C-244.167 378.013 -208.122 402.73 -149.602 391.161C-112.742 383.874 -95.6625 364.019 -58.2017 361.112C-46.0144 360.166 -38.8616 363.632 -26.9002 361.112C-3.26149 356.131 0.847155 334.008 23.1821 324.802C35.3543 319.785 43.5467 321.014 55.7356 316.038C94.4686 300.224 90.541 250.832 130.859 239.662C157.784 232.203 202.226 244.67 202.226 244.67" stroke="url(#paint1_linear_186_919)" stroke-width="2.50412"/>
<g filter="url(#filter49_b_186_919)">
<rect x="192.209" y="237.156" width="20.0329" height="20.0329" rx="10.0165" fill="#2962FF"/>
</g>
<g filter="url(#filter50_f_186_919)">
<rect x="192.209" y="237.156" width="20.0329" height="20.0329" rx="10.0165" fill="#2962FF"/>
</g>
<path d="M-512.699 446.25C-512.699 446.25 -405.128 343.891 -318.63 312.28C-247.642 286.337 -199.045 307.785 -127.065 284.735C-53.5421 261.19 -23.7535 221.254 48.2226 193.334C101.012 172.857 187.201 152.016 187.201 152.016" stroke="url(#paint2_linear_186_919)" stroke-width="2.50412"/>
<g filter="url(#filter51_b_186_919)">
<rect x="182.193" y="142" width="20.0329" height="20.0329" rx="10.0165" fill="#11A008"/>
</g>
<g filter="url(#filter52_f_186_919)">
<rect x="182.193" y="142" width="20.0329" height="20.0329" rx="10.0165" fill="#11A008"/>
</g>
<path d="M-484.749 509.053L-425.956 447.604L-393.433 419.37L-368.415 397.78L-337.142 374.529L-299.615 357.921L-275.847 351.278L-254.582 347.956L-199.542 346.295L-172.022 342.974L-145.753 336.33L-118.233 324.705L-89.4618 309.758L-70.6982 296.471V261.5L-38.5 239.5L5.5 213L59 188.5L125.5 168L202 147V524H-486L-484.749 509.053Z" fill="url(#paint3_linear_186_919)"/>
<path d="M100.584 61.5091C99.6134 60.7491 98.1934 61.4421 98.1934 62.6751V87.5991C98.1934 89.1371 100.159 89.7791 101.067 88.5371L107.292 80.0141C107.478 79.76 107.721 79.5533 108.002 79.4108C108.282 79.2683 108.593 79.1941 108.907 79.1941H118.597C120.109 79.1941 120.767 77.2821 119.575 76.3501L100.584 61.5091Z" fill="#0D0E11"/>
<path d="M100.276 61.9028L100.276 61.9031L119.267 76.744C120.086 77.3838 119.633 78.6941 118.597 78.6941H108.907C108.907 78.6941 108.907 78.6941 108.907 78.6941C108.514 78.6941 108.126 78.7869 107.775 78.965C107.425 79.1431 107.121 79.4015 106.889 79.7191L106.889 79.7192L100.664 88.242C100.041 89.0938 98.6934 88.6533 98.6934 87.5991V62.6751C98.6934 61.8581 99.634 61.4002 100.276 61.9028ZM101.067 88.5371L107.292 80.0141L101.067 88.5371Z" stroke="white" stroke-opacity="0.8"/>
</g>
<path d="M404.609 47.82C405.58 47.06 407 47.753 407 48.986V73.91C407 75.448 405.034 76.09 404.126 74.848L397.901 66.325C397.715 66.0709 397.472 65.8642 397.192 65.7217C396.911 65.5792 396.601 65.505 396.286 65.505H386.596C385.084 65.505 384.426 63.593 385.618 62.661L404.609 47.82Z" fill="#0D0E11"/>
<path d="M404.917 48.2137L404.917 48.214L385.926 63.0549C385.108 63.6947 385.56 65.005 386.596 65.005H396.286C396.286 65.005 396.286 65.005 396.286 65.005C396.679 65.005 397.067 65.0978 397.418 65.2759C397.769 65.454 398.073 65.7124 398.305 66.03L398.305 66.0301L404.53 74.5529C405.152 75.4047 406.5 74.9642 406.5 73.91V48.986C406.5 48.169 405.559 47.7111 404.917 48.2137ZM404.126 74.848L397.901 66.325L404.126 74.848Z" stroke="white" stroke-opacity="0.8"/>
<path d="M411.84 325.483C412.363 324.366 411.368 323.138 410.166 323.415L385.881 329.022C384.383 329.368 384.199 331.428 385.614 332.033L395.319 336.181C395.608 336.305 395.864 336.495 396.066 336.737C396.268 336.978 396.41 337.264 396.481 337.571L398.661 347.012C399.001 348.485 401.012 348.696 401.652 347.325L411.84 325.483Z" fill="#0D0E11"/>
<path d="M411.387 325.271L411.387 325.271L401.199 347.114C400.759 348.055 399.381 347.909 399.148 346.9L396.968 337.458C396.968 337.458 396.968 337.458 396.968 337.458C396.88 337.075 396.702 336.718 396.45 336.416C396.197 336.114 395.877 335.876 395.515 335.722L395.515 335.722L385.811 331.574C384.84 331.158 384.967 329.746 385.994 329.509L410.279 323.902C411.075 323.719 411.733 324.532 411.387 325.271ZM385.614 332.033L395.319 336.181L385.614 332.033Z" stroke="white" stroke-opacity="0.8"/>
</g>
<rect x="-194" y="7" width="643" height="422" rx="11" stroke="#D5DEE8" stroke-width="2"/>
</g>
<defs>
<filter id="filter0_f_186_919" x="394.934" y="182.384" width="4.56461" height="4.56482" filterUnits="userSpaceOnUse" color-interpolation-filters="sRGB">
<feFlood flood-opacity="0" result="BackgroundImageFix"/>
<feBlend mode="normal" in="SourceGraphic" in2="BackgroundImageFix" result="shape"/>
<feGaussianBlur stdDeviation="0.668985" result="effect1_foregroundBlur_186_919"/>
</filter>
<filter id="filter1_f_186_919" x="398.98" y="152.658" width="4.56461" height="4.56482" filterUnits="userSpaceOnUse" color-interpolation-filters="sRGB">
<feFlood flood-opacity="0" result="BackgroundImageFix"/>
<feBlend mode="normal" in="SourceGraphic" in2="BackgroundImageFix" result="shape"/>
<feGaussianBlur stdDeviation="0.668985" result="effect1_foregroundBlur_186_919"/>
</filter>
<filter id="filter2_f_186_919" x="404.273" y="142.064" width="4.39664" height="4.39623" filterUnits="userSpaceOnUse" color-interpolation-filters="sRGB">
<feFlood flood-opacity="0" result="BackgroundImageFix"/>
<feBlend mode="normal" in="SourceGraphic" in2="BackgroundImageFix" result="shape"/>
<feGaussianBlur stdDeviation="0.668985" result="effect1_foregroundBlur_186_919"/>
</filter>
<filter id="filter3_f_186_919" x="363.172" y="156.508" width="4.28531" height="4.28707" filterUnits="userSpaceOnUse" color-interpolation-filters="sRGB">
<feFlood flood-opacity="0" result="BackgroundImageFix"/>
<feBlend mode="normal" in="SourceGraphic" in2="BackgroundImageFix" result="shape"/>
<feGaussianBlur stdDeviation="0.668985" result="effect1_foregroundBlur_186_919"/>
</filter>
<filter id="filter4_f_186_919" x="376.961" y="175.561" width="4.56461" height="4.56482" filterUnits="userSpaceOnUse" color-interpolation-filters="sRGB">
<feFlood flood-opacity="0" result="BackgroundImageFix"/>
<feBlend mode="normal" in="SourceGraphic" in2="BackgroundImageFix" result="shape"/>
<feGaussianBlur stdDeviation="0.668985" result="effect1_foregroundBlur_186_919"/>
</filter>
<filter id="filter5_f_186_919" x="379.66" y="155.744" width="4.56461" height="4.56482" filterUnits="userSpaceOnUse" color-interpolation-filters="sRGB">
<feFlood flood-opacity="0" result="BackgroundImageFix"/>
<feBlend mode="normal" in="SourceGraphic" in2="BackgroundImageFix" result="shape"/>
<feGaussianBlur stdDeviation="0.668985" result="effect1_foregroundBlur_186_919"/>
</filter>
<filter id="filter6_f_186_919" x="383.098" y="129.91" width="4.39664" height="4.39623" filterUnits="userSpaceOnUse" color-interpolation-filters="sRGB">
<feFlood flood-opacity="0" result="BackgroundImageFix"/>
<feBlend mode="normal" in="SourceGraphic" in2="BackgroundImageFix" result="shape"/>
<feGaussianBlur stdDeviation="0.668985" result="effect1_foregroundBlur_186_919"/>
</filter>
<filter id="filter7_f_186_919" x="364.789" y="132.506" width="4.28531" height="4.28707" filterUnits="userSpaceOnUse" color-interpolation-filters="sRGB">
<feFlood flood-opacity="0" result="BackgroundImageFix"/>
<feBlend mode="normal" in="SourceGraphic" in2="BackgroundImageFix" result="shape"/>
<feGaussianBlur stdDeviation="0.668985" result="effect1_foregroundBlur_186_919"/>
</filter>
<filter id="filter8_f_186_919" x="375.877" y="140.012" width="4.28531" height="4.28707" filterUnits="userSpaceOnUse" color-interpolation-filters="sRGB">
<feFlood flood-opacity="0" result="BackgroundImageFix"/>
<feBlend mode="normal" in="SourceGraphic" in2="BackgroundImageFix" result="shape"/>
<feGaussianBlur stdDeviation="0.668985" result="effect1_foregroundBlur_186_919"/>
</filter>
<filter id="filter9_f_186_919" x="354.533" y="163.346" width="4.28531" height="4.28707" filterUnits="userSpaceOnUse" color-interpolation-filters="sRGB">
<feFlood flood-opacity="0" result="BackgroundImageFix"/>
<feBlend mode="normal" in="SourceGraphic" in2="BackgroundImageFix" result="shape"/>
<feGaussianBlur stdDeviation="0.668985" result="effect1_foregroundBlur_186_919"/>
</filter>
<filter id="filter10_f_186_919" x="366.965" y="161.002" width="4.28531" height="4.28707" filterUnits="userSpaceOnUse" color-interpolation-filters="sRGB">
<feFlood flood-opacity="0" result="BackgroundImageFix"/>
<feBlend mode="normal" in="SourceGraphic" in2="BackgroundImageFix" result="shape"/>
<feGaussianBlur stdDeviation="0.668985" result="effect1_foregroundBlur_186_919"/>
</filter>
<filter id="filter11_f_186_919" x="389.303" y="160.006" width="4.28531" height="4.28707" filterUnits="userSpaceOnUse" color-interpolation-filters="sRGB">
<feFlood flood-opacity="0" result="BackgroundImageFix"/>
<feBlend mode="normal" in="SourceGraphic" in2="BackgroundImageFix" result="shape"/>
<feGaussianBlur stdDeviation="0.668985" result="effect1_foregroundBlur_186_919"/>
</filter>
<filter id="filter12_f_186_919" x="389.125" y="176.13" width="4.28531" height="4.28707" filterUnits="userSpaceOnUse" color-interpolation-filters="sRGB">
<feFlood flood-opacity="0" result="BackgroundImageFix"/>
<feBlend mode="normal" in="SourceGraphic" in2="BackgroundImageFix" result="shape"/>
<feGaussianBlur stdDeviation="0.668985" result="effect1_foregroundBlur_186_919"/>
</filter>
<filter id="filter13_f_186_919" x="384.613" y="135.146" width="4.28531" height="4.28707" filterUnits="userSpaceOnUse" color-interpolation-filters="sRGB">
<feFlood flood-opacity="0" result="BackgroundImageFix"/>
<feBlend mode="normal" in="SourceGraphic" in2="BackgroundImageFix" result="shape"/>
<feGaussianBlur stdDeviation="0.668985" result="effect1_foregroundBlur_186_919"/>
</filter>
<filter id="filter14_f_186_919" x="433.172" y="266.508" width="4.28531" height="4.28707" filterUnits="userSpaceOnUse" color-interpolation-filters="sRGB">
<feFlood flood-opacity="0" result="BackgroundImageFix"/>
<feBlend mode="normal" in="SourceGraphic" in2="BackgroundImageFix" result="shape"/>
<feGaussianBlur stdDeviation="0.668985" result="effect1_foregroundBlur_186_919"/>
</filter>
<filter id="filter15_f_186_919" x="446.961" y="285.561" width="4.56461" height="4.56482" filterUnits="userSpaceOnUse" color-interpolation-filters="sRGB">
<feFlood flood-opacity="0" result="BackgroundImageFix"/>
<feBlend mode="normal" in="SourceGraphic" in2="BackgroundImageFix" result="shape"/>
<feGaussianBlur stdDeviation="0.668985" result="effect1_foregroundBlur_186_919"/>
</filter>
<filter id="filter16_f_186_919" x="449.66" y="265.744" width="4.56461" height="4.56482" filterUnits="userSpaceOnUse" color-interpolation-filters="sRGB">
<feFlood flood-opacity="0" result="BackgroundImageFix"/>
<feBlend mode="normal" in="SourceGraphic" in2="BackgroundImageFix" result="shape"/>
<feGaussianBlur stdDeviation="0.668985" result="effect1_foregroundBlur_186_919"/>
</filter>
<filter id="filter17_f_186_919" x="434.789" y="242.506" width="4.28531" height="4.28707" filterUnits="userSpaceOnUse" color-interpolation-filters="sRGB">
<feFlood flood-opacity="0" result="BackgroundImageFix"/>
<feBlend mode="normal" in="SourceGraphic" in2="BackgroundImageFix" result="shape"/>
<feGaussianBlur stdDeviation="0.668985" result="effect1_foregroundBlur_186_919"/>
</filter>
<filter id="filter18_f_186_919" x="445.877" y="250.012" width="4.28531" height="4.28707" filterUnits="userSpaceOnUse" color-interpolation-filters="sRGB">
<feFlood flood-opacity="0" result="BackgroundImageFix"/>
<feBlend mode="normal" in="SourceGraphic" in2="BackgroundImageFix" result="shape"/>
<feGaussianBlur stdDeviation="0.668985" result="effect1_foregroundBlur_186_919"/>
</filter>
<filter id="filter19_f_186_919" x="424.533" y="273.346" width="4.28531" height="4.28707" filterUnits="userSpaceOnUse" color-interpolation-filters="sRGB">
<feFlood flood-opacity="0" result="BackgroundImageFix"/>
<feBlend mode="normal" in="SourceGraphic" in2="BackgroundImageFix" result="shape"/>
<feGaussianBlur stdDeviation="0.668985" result="effect1_foregroundBlur_186_919"/>
</filter>
<filter id="filter20_f_186_919" x="436.965" y="271.002" width="4.28531" height="4.28707" filterUnits="userSpaceOnUse" color-interpolation-filters="sRGB">
<feFlood flood-opacity="0" result="BackgroundImageFix"/>
<feBlend mode="normal" in="SourceGraphic" in2="BackgroundImageFix" result="shape"/>
<feGaussianBlur stdDeviation="0.668985" result="effect1_foregroundBlur_186_919"/>
</filter>
<filter id="filter21_f_186_919" x="311.934" y="72.3838" width="4.56461" height="4.56481" filterUnits="userSpaceOnUse" color-interpolation-filters="sRGB">
<feFlood flood-opacity="0" result="BackgroundImageFix"/>
<feBlend mode="normal" in="SourceGraphic" in2="BackgroundImageFix" result="shape"/>
<feGaussianBlur stdDeviation="0.668985" result="effect1_foregroundBlur_186_919"/>
</filter>
<filter id="filter22_f_186_919" x="315.98" y="42.658" width="4.56461" height="4.56481" filterUnits="userSpaceOnUse" color-interpolation-filters="sRGB">
<feFlood flood-opacity="0" result="BackgroundImageFix"/>
<feBlend mode="normal" in="SourceGraphic" in2="BackgroundImageFix" result="shape"/>
<feGaussianBlur stdDeviation="0.668985" result="effect1_foregroundBlur_186_919"/>
</filter>
<filter id="filter23_f_186_919" x="321.273" y="32.0639" width="4.39664" height="4.39623" filterUnits="userSpaceOnUse" color-interpolation-filters="sRGB">
<feFlood flood-opacity="0" result="BackgroundImageFix"/>
<feBlend mode="normal" in="SourceGraphic" in2="BackgroundImageFix" result="shape"/>
<feGaussianBlur stdDeviation="0.668985" result="effect1_foregroundBlur_186_919"/>
</filter>
<filter id="filter24_f_186_919" x="280.172" y="46.5077" width="4.28531" height="4.28707" filterUnits="userSpaceOnUse" color-interpolation-filters="sRGB">
<feFlood flood-opacity="0" result="BackgroundImageFix"/>
<feBlend mode="normal" in="SourceGraphic" in2="BackgroundImageFix" result="shape"/>
<feGaussianBlur stdDeviation="0.668985" result="effect1_foregroundBlur_186_919"/>
</filter>
<filter id="filter25_f_186_919" x="293.961" y="65.5608" width="4.56461" height="4.56481" filterUnits="userSpaceOnUse" color-interpolation-filters="sRGB">
<feFlood flood-opacity="0" result="BackgroundImageFix"/>
<feBlend mode="normal" in="SourceGraphic" in2="BackgroundImageFix" result="shape"/>
<feGaussianBlur stdDeviation="0.668985" result="effect1_foregroundBlur_186_919"/>
</filter>
<filter id="filter26_f_186_919" x="296.66" y="45.7436" width="4.56461" height="4.56481" filterUnits="userSpaceOnUse" color-interpolation-filters="sRGB">
<feFlood flood-opacity="0" result="BackgroundImageFix"/>
<feBlend mode="normal" in="SourceGraphic" in2="BackgroundImageFix" result="shape"/>
<feGaussianBlur stdDeviation="0.668985" result="effect1_foregroundBlur_186_919"/>
</filter>
<filter id="filter27_f_186_919" x="300.098" y="19.9104" width="4.39664" height="4.39623" filterUnits="userSpaceOnUse" color-interpolation-filters="sRGB">
<feFlood flood-opacity="0" result="BackgroundImageFix"/>
<feBlend mode="normal" in="SourceGraphic" in2="BackgroundImageFix" result="shape"/>
<feGaussianBlur stdDeviation="0.668985" result="effect1_foregroundBlur_186_919"/>
</filter>
<filter id="filter28_f_186_919" x="281.789" y="22.5063" width="4.28531" height="4.28707" filterUnits="userSpaceOnUse" color-interpolation-filters="sRGB">
<feFlood flood-opacity="0" result="BackgroundImageFix"/>
<feBlend mode="normal" in="SourceGraphic" in2="BackgroundImageFix" result="shape"/>
<feGaussianBlur stdDeviation="0.668985" result="effect1_foregroundBlur_186_919"/>
</filter>
<filter id="filter29_f_186_919" x="292.877" y="30.0124" width="4.28531" height="4.28707" filterUnits="userSpaceOnUse" color-interpolation-filters="sRGB">
<feFlood flood-opacity="0" result="BackgroundImageFix"/>
<feBlend mode="normal" in="SourceGraphic" in2="BackgroundImageFix" result="shape"/>
<feGaussianBlur stdDeviation="0.668985" result="effect1_foregroundBlur_186_919"/>
</filter>
<filter id="filter30_f_186_919" x="271.533" y="53.3463" width="4.28531" height="4.28707" filterUnits="userSpaceOnUse" color-interpolation-filters="sRGB">
<feFlood flood-opacity="0" result="BackgroundImageFix"/>
<feBlend mode="normal" in="SourceGraphic" in2="BackgroundImageFix" result="shape"/>
<feGaussianBlur stdDeviation="0.668985" result="effect1_foregroundBlur_186_919"/>
</filter>
<filter id="filter31_f_186_919" x="283.965" y="51.0018" width="4.28531" height="4.28707" filterUnits="userSpaceOnUse" color-interpolation-filters="sRGB">
<feFlood flood-opacity="0" result="BackgroundImageFix"/>
<feBlend mode="normal" in="SourceGraphic" in2="BackgroundImageFix" result="shape"/>
<feGaussianBlur stdDeviation="0.668985" result="effect1_foregroundBlur_186_919"/>
</filter>
<filter id="filter32_f_186_919" x="306.303" y="50.0064" width="4.28531" height="4.28707" filterUnits="userSpaceOnUse" color-interpolation-filters="sRGB">
<feFlood flood-opacity="0" result="BackgroundImageFix"/>
<feBlend mode="normal" in="SourceGraphic" in2="BackgroundImageFix" result="shape"/>
<feGaussianBlur stdDeviation="0.668985" result="effect1_foregroundBlur_186_919"/>
</filter>
<filter id="filter33_f_186_919" x="306.125" y="66.1299" width="4.28531" height="4.28707" filterUnits="userSpaceOnUse" color-interpolation-filters="sRGB">
<feFlood flood-opacity="0" result="BackgroundImageFix"/>
<feBlend mode="normal" in="SourceGraphic" in2="BackgroundImageFix" result="shape"/>
<feGaussianBlur stdDeviation="0.668985" result="effect1_foregroundBlur_186_919"/>
</filter>
<filter id="filter34_f_186_919" x="301.613" y="25.1465" width="4.28531" height="4.28707" filterUnits="userSpaceOnUse" color-interpolation-filters="sRGB">
<feFlood flood-opacity="0" result="BackgroundImageFix"/>
<feBlend mode="normal" in="SourceGraphic" in2="BackgroundImageFix" result="shape"/>
<feGaussianBlur stdDeviation="0.668985" result="effect1_foregroundBlur_186_919"/>
</filter>
<filter id="filter35_f_186_919" x="312.006" y="309.384" width="4.56461" height="4.56482" filterUnits="userSpaceOnUse" color-interpolation-filters="sRGB">
<feFlood flood-opacity="0" result="BackgroundImageFix"/>
<feBlend mode="normal" in="SourceGraphic" in2="BackgroundImageFix" result="shape"/>
<feGaussianBlur stdDeviation="0.668985" result="effect1_foregroundBlur_186_919"/>
</filter>
<filter id="filter36_f_186_919" x="316.053" y="279.658" width="4.56461" height="4.56482" filterUnits="userSpaceOnUse" color-interpolation-filters="sRGB">
<feFlood flood-opacity="0" result="BackgroundImageFix"/>
<feBlend mode="normal" in="SourceGraphic" in2="BackgroundImageFix" result="shape"/>
<feGaussianBlur stdDeviation="0.668985" result="effect1_foregroundBlur_186_919"/>
</filter>
<filter id="filter37_f_186_919" x="321.346" y="269.064" width="4.39664" height="4.39623" filterUnits="userSpaceOnUse" color-interpolation-filters="sRGB">
<feFlood flood-opacity="0" result="BackgroundImageFix"/>
<feBlend mode="normal" in="SourceGraphic" in2="BackgroundImageFix" result="shape"/>
<feGaussianBlur stdDeviation="0.668985" result="effect1_foregroundBlur_186_919"/>
</filter>
<filter id="filter38_f_186_919" x="280.244" y="283.508" width="4.28531" height="4.28707" filterUnits="userSpaceOnUse" color-interpolation-filters="sRGB">
<feFlood flood-opacity="0" result="BackgroundImageFix"/>
<feBlend mode="normal" in="SourceGraphic" in2="BackgroundImageFix" result="shape"/>
<feGaussianBlur stdDeviation="0.668985" result="effect1_foregroundBlur_186_919"/>
</filter>
<filter id="filter39_f_186_919" x="294.033" y="302.561" width="4.56461" height="4.56482" filterUnits="userSpaceOnUse" color-interpolation-filters="sRGB">
<feFlood flood-opacity="0" result="BackgroundImageFix"/>
<feBlend mode="normal" in="SourceGraphic" in2="BackgroundImageFix" result="shape"/>
<feGaussianBlur stdDeviation="0.668985" result="effect1_foregroundBlur_186_919"/>
</filter>
<filter id="filter40_f_186_919" x="296.732" y="282.744" width="4.56461" height="4.56482" filterUnits="userSpaceOnUse" color-interpolation-filters="sRGB">
<feFlood flood-opacity="0" result="BackgroundImageFix"/>
<feBlend mode="normal" in="SourceGraphic" in2="BackgroundImageFix" result="shape"/>
<feGaussianBlur stdDeviation="0.668985" result="effect1_foregroundBlur_186_919"/>
</filter>
<filter id="filter41_f_186_919" x="300.17" y="256.91" width="4.39664" height="4.39623" filterUnits="userSpaceOnUse" color-interpolation-filters="sRGB">
<feFlood flood-opacity="0" result="BackgroundImageFix"/>
<feBlend mode="normal" in="SourceGraphic" in2="BackgroundImageFix" result="shape"/>
<feGaussianBlur stdDeviation="0.668985" result="effect1_foregroundBlur_186_919"/>
</filter>
<filter id="filter42_f_186_919" x="281.861" y="259.506" width="4.28531" height="4.28707" filterUnits="userSpaceOnUse" color-interpolation-filters="sRGB">
<feFlood flood-opacity="0" result="BackgroundImageFix"/>
<feBlend mode="normal" in="SourceGraphic" in2="BackgroundImageFix" result="shape"/>
<feGaussianBlur stdDeviation="0.668985" result="effect1_foregroundBlur_186_919"/>
</filter>
<filter id="filter43_f_186_919" x="292.949" y="267.012" width="4.28531" height="4.28707" filterUnits="userSpaceOnUse" color-interpolation-filters="sRGB">
<feFlood flood-opacity="0" result="BackgroundImageFix"/>
<feBlend mode="normal" in="SourceGraphic" in2="BackgroundImageFix" result="shape"/>
<feGaussianBlur stdDeviation="0.668985" result="effect1_foregroundBlur_186_919"/>
</filter>
<filter id="filter44_f_186_919" x="271.605" y="290.346" width="4.28531" height="4.28707" filterUnits="userSpaceOnUse" color-interpolation-filters="sRGB">
<feFlood flood-opacity="0" result="BackgroundImageFix"/>
<feBlend mode="normal" in="SourceGraphic" in2="BackgroundImageFix" result="shape"/>
<feGaussianBlur stdDeviation="0.668985" result="effect1_foregroundBlur_186_919"/>
</filter>
<filter id="filter45_f_186_919" x="284.037" y="288.002" width="4.28531" height="4.28707" filterUnits="userSpaceOnUse" color-interpolation-filters="sRGB">
<feFlood flood-opacity="0" result="BackgroundImageFix"/>
<feBlend mode="normal" in="SourceGraphic" in2="BackgroundImageFix" result="shape"/>
<feGaussianBlur stdDeviation="0.668985" result="effect1_foregroundBlur_186_919"/>
</filter>
<filter id="filter46_f_186_919" x="306.375" y="287.006" width="4.28531" height="4.28707" filterUnits="userSpaceOnUse" color-interpolation-filters="sRGB">
<feFlood flood-opacity="0" result="BackgroundImageFix"/>
<feBlend mode="normal" in="SourceGraphic" in2="BackgroundImageFix" result="shape"/>
<feGaussianBlur stdDeviation="0.668985" result="effect1_foregroundBlur_186_919"/>
</filter>
<filter id="filter47_f_186_919" x="306.197" y="303.13" width="4.28531" height="4.28707" filterUnits="userSpaceOnUse" color-interpolation-filters="sRGB">
<feFlood flood-opacity="0" result="BackgroundImageFix"/>
<feBlend mode="normal" in="SourceGraphic" in2="BackgroundImageFix" result="shape"/>
<feGaussianBlur stdDeviation="0.668985" result="effect1_foregroundBlur_186_919"/>
</filter>
<filter id="filter48_f_186_919" x="301.685" y="262.147" width="4.28531" height="4.28707" filterUnits="userSpaceOnUse" color-interpolation-filters="sRGB">
<feFlood flood-opacity="0" result="BackgroundImageFix"/>
<feBlend mode="normal" in="SourceGraphic" in2="BackgroundImageFix" result="shape"/>
<feGaussianBlur stdDeviation="0.668985" result="effect1_foregroundBlur_186_919"/>
</filter>
<filter id="filter49_b_186_919" x="182.193" y="227.14" width="40.0661" height="40.0658" filterUnits="userSpaceOnUse" color-interpolation-filters="sRGB">
<feFlood flood-opacity="0" result="BackgroundImageFix"/>
<feGaussianBlur in="BackgroundImageFix" stdDeviation="5.00823"/>
<feComposite in2="SourceAlpha" operator="in" result="effect1_backgroundBlur_186_919"/>
<feBlend mode="normal" in="SourceGraphic" in2="effect1_backgroundBlur_186_919" result="shape"/>
</filter>
<filter id="filter50_f_186_919" x="162.16" y="207.107" width="80.132" height="80.1317" filterUnits="userSpaceOnUse" color-interpolation-filters="sRGB">
<feFlood flood-opacity="0" result="BackgroundImageFix"/>
<feBlend mode="normal" in="SourceGraphic" in2="BackgroundImageFix" result="shape"/>
<feGaussianBlur stdDeviation="15.0247" result="effect1_foregroundBlur_186_919"/>
</filter>
<filter id="filter51_b_186_919" x="172.177" y="131.984" width="40.0661" height="40.0658" filterUnits="userSpaceOnUse" color-interpolation-filters="sRGB">
<feFlood flood-opacity="0" result="BackgroundImageFix"/>
<feGaussianBlur in="BackgroundImageFix" stdDeviation="5.00823"/>
<feComposite in2="SourceAlpha" operator="in" result="effect1_backgroundBlur_186_919"/>
<feBlend mode="normal" in="SourceGraphic" in2="effect1_backgroundBlur_186_919" result="shape"/>
</filter>
<filter id="filter52_f_186_919" x="152.144" y="111.951" width="80.132" height="80.1317" filterUnits="userSpaceOnUse" color-interpolation-filters="sRGB">
<feFlood flood-opacity="0" result="BackgroundImageFix"/>
<feBlend mode="normal" in="SourceGraphic" in2="BackgroundImageFix" result="shape"/>
<feGaussianBlur stdDeviation="15.0247" result="effect1_foregroundBlur_186_919"/>
</filter>
<linearGradient id="paint0_linear_186_919" x1="54.5" y1="6" x2="54.5" y2="430" gradientUnits="userSpaceOnUse">
<stop offset="0.369547" stop-color="#F3F3F5"/>
<stop offset="1" stop-color="#F3F3F5" stop-opacity="0"/>
</linearGradient>
<linearGradient id="paint1_linear_186_919" x1="152.59" y1="239.66" x2="-458.941" y2="588.172" gradientUnits="userSpaceOnUse">
<stop stop-color="#2962FF"/>
<stop offset="1" stop-color="#2962FF" stop-opacity="0"/>
</linearGradient>
<linearGradient id="paint2_linear_186_919" x1="209.738" y1="152.016" x2="-511.447" y2="444.998" gradientUnits="userSpaceOnUse">
<stop stop-color="#11A008"/>
<stop offset="1" stop-color="#11A008" stop-opacity="0"/>
</linearGradient>
<linearGradient id="paint3_linear_186_919" x1="104.429" y1="263.256" x2="222.773" y2="626.168" gradientUnits="userSpaceOnUse">
<stop stop-color="#11A008" stop-opacity="0.12"/>
<stop offset="0.297984" stop-color="#2962FF" stop-opacity="0.04"/>
</linearGradient>
<clipPath id="clip0_186_919">
<rect width="460" height="442" rx="8" fill="white"/>
</clipPath>
<clipPath id="clip1_186_919">
<rect x="-195" y="6" width="645" height="424" rx="12" fill="white"/>
</clipPath>
<clipPath id="clip2_186_919">
<rect x="-210" y="6" width="529" height="424" rx="6" fill="white"/>
</clipPath>
</defs>
</svg>
