<svg width="590" height="431" viewBox="0 0 590 431" fill="none" xmlns="http://www.w3.org/2000/svg">
<g filter="url(#filter0_b_282_1848)">
<mask id="path-1-inside-1_282_1848" fill="white">
<path d="M331.992 46.1314C331.992 34.2586 341.617 24.6338 353.49 24.6338H418.495C430.367 24.6338 439.992 34.2586 439.992 46.1314V111.904C439.992 123.777 430.367 133.402 418.495 133.402H353.49C341.617 133.402 331.992 123.777 331.992 111.904V46.1314Z"/>
</mask>
<path d="M331.992 46.1314C331.992 34.2586 341.617 24.6338 353.49 24.6338H418.495C430.367 24.6338 439.992 34.2586 439.992 46.1314V111.904C439.992 123.777 430.367 133.402 418.495 133.402H353.49C341.617 133.402 331.992 123.777 331.992 111.904V46.1314Z" fill="white"/>
<path d="M330.992 46.1314C330.992 33.8168 340.975 23.8338 353.29 23.8338H418.695C431.009 23.8338 440.992 33.8168 440.992 46.1314H438.992C438.992 34.7004 429.815 25.4338 418.495 25.4338H353.49C342.169 25.4338 332.992 34.7004 332.992 46.1314H330.992ZM439.992 133.402H331.992H439.992ZM353.49 133.402C341.065 133.402 330.992 123.329 330.992 110.904V46.1314C330.992 33.8168 340.975 23.8338 353.29 23.8338L353.49 25.4338C342.169 25.4338 332.992 34.7004 332.992 46.1314V111.904C332.992 123.777 342.169 133.402 353.49 133.402ZM418.695 23.8338C431.009 23.8338 440.992 33.8168 440.992 46.1314V110.904C440.992 123.329 430.92 133.402 418.495 133.402C429.815 133.402 438.992 123.777 438.992 111.904V46.1314C438.992 34.7004 429.815 25.4338 418.495 25.4338L418.695 23.8338Z" fill="url(#paint0_linear_282_1848)" fill-opacity="0.7" mask="url(#path-1-inside-1_282_1848)"/>
<g clip-path="url(#clip0_282_1848)">
<rect x="338.134" y="30.7758" width="95.7156" height="96.4834" rx="15.3555" fill="#F3F3F5"/>
<g clip-path="url(#clip1_282_1848)">
<path fill-rule="evenodd" clip-rule="evenodd" d="M370.106 59.8909C370.909 59.0869 371.998 58.6347 373.134 58.6337H390.277C390.465 58.6334 390.651 58.6701 390.824 58.7416C390.998 58.8132 391.156 58.9183 391.289 59.0509L402.717 70.4794C402.85 70.6124 402.955 70.7701 403.026 70.9436C403.098 71.1172 403.135 71.3031 403.134 71.4909V94.348C403.134 95.4847 402.683 96.5747 401.879 97.3785C401.075 98.1822 399.985 98.6337 398.849 98.6337H373.134C371.998 98.6337 370.908 98.1822 370.104 97.3785C369.3 96.5747 368.849 95.4847 368.849 94.348V62.9194C368.849 61.7823 369.3 60.6909 370.106 59.8909ZM383.049 74.1394C383.049 73.5223 383.551 73.0194 384.171 73.0194H387.814C388.431 73.0194 388.934 73.5223 388.934 74.1394V78.5966H393.391C394.011 78.5966 394.511 79.0994 394.511 79.7194V83.3623C394.512 83.5096 394.484 83.6556 394.428 83.7918C394.372 83.928 394.289 84.0518 394.185 84.156C394.081 84.2601 393.957 84.3426 393.821 84.3986C393.685 84.4546 393.539 84.4831 393.391 84.4823H388.934V88.9394C388.935 89.087 388.907 89.2333 388.851 89.3698C388.796 89.5064 388.713 89.6305 388.609 89.7349C388.505 89.8394 388.381 89.9221 388.245 89.9783C388.108 90.0345 387.962 90.0631 387.814 90.0623H384.169C384.021 90.0631 383.875 90.0346 383.739 89.9786C383.603 89.9226 383.479 89.8401 383.375 89.736C383.271 89.6318 383.188 89.508 383.132 89.3718C383.076 89.2356 383.048 89.0896 383.049 88.9423V84.4852H378.591C378.444 84.4859 378.298 84.4574 378.161 84.4012C378.025 84.345 377.901 84.2623 377.797 84.1578C377.693 84.0533 377.61 83.9292 377.554 83.7927C377.499 83.6561 377.47 83.5098 377.471 83.3623V79.7194C377.471 79.0994 377.971 78.5994 378.591 78.5994H383.049V74.1394Z" fill="#2962FF"/>
</g>
<g filter="url(#filter1_f_282_1848)">
<line x1="339.646" y1="122.907" x2="431.146" y2="34.9071" stroke="url(#paint1_linear_282_1848)"/>
</g>
<g opacity="0.2" filter="url(#filter2_f_282_1848)">
<rect width="124.476" height="10.6652" transform="translate(444.001 48.6555) rotate(134.834)" fill="white"/>
</g>
<g opacity="0.2" filter="url(#filter3_f_282_1848)">
<rect width="124.476" height="9.76843" transform="translate(420.427 25.0735) rotate(134.834)" fill="white"/>
</g>
<g opacity="0.4" filter="url(#filter4_f_282_1848)">
<rect x="343.992" y="15.7675" width="82" height="25.5" rx="12.75" fill="#2962FF"/>
</g>
<g opacity="0.4" filter="url(#filter5_f_282_1848)">
<rect x="345.492" y="118.768" width="86" height="13" rx="6.5" fill="#2962FF"/>
</g>
<g opacity="0.4" filter="url(#filter6_f_282_1848)">
<rect x="425.992" y="46.7675" width="8" height="54.5" rx="4" fill="#2962FF"/>
</g>
<g opacity="0.4" filter="url(#filter7_f_282_1848)">
<rect x="337.992" y="51.7675" width="10.5" height="54.5" rx="5.25" fill="#2962FF"/>
</g>
<g style="mix-blend-mode:plus-lighter" opacity="0.1" filter="url(#filter8_f_282_1848)">
<rect width="10.5" height="46" transform="translate(380.492 59.7675)" fill="#2D7AFE"/>
</g>
</g>
<rect x="338.518" y="31.1597" width="94.9479" height="95.7156" rx="14.9716" stroke="url(#paint2_linear_282_1848)" stroke-width="0.767773"/>
</g>
<g clip-path="url(#clip2_282_1848)">
<path d="M292.496 190.811C291.86 188.927 290.501 187.372 288.718 186.49C286.935 185.608 284.875 185.469 282.99 186.106C281.106 186.743 279.552 188.102 278.669 189.885C277.787 191.667 277.649 193.727 278.285 195.612L279.418 198.966C277.589 200.217 275.951 201.657 274.502 203.286C272.828 202.837 271.05 202.982 269.471 203.697C267.891 204.411 266.608 205.65 265.839 207.203C265.07 208.757 264.863 210.529 265.253 212.218C265.643 213.907 266.606 215.409 267.978 216.468C267.562 218.618 267.41 220.81 267.524 222.997L264.17 224.13C262.285 224.766 260.731 226.125 259.848 227.908C258.966 229.691 258.828 231.751 259.465 233.635C260.101 235.52 261.46 237.074 263.243 237.957C265.026 238.839 267.086 238.977 268.97 238.341L272.324 237.208C273.575 239.037 275.016 240.675 276.645 242.123C276.196 243.798 276.341 245.576 277.055 247.155C277.769 248.735 279.008 250.018 280.562 250.787C282.115 251.556 283.887 251.763 285.576 251.373C287.265 250.983 288.767 250.02 289.826 248.648C291.957 249.061 294.133 249.212 296.355 249.102L297.488 252.456C298.125 254.341 299.484 255.895 301.266 256.777C303.049 257.66 305.109 257.798 306.994 257.161C308.878 256.525 310.433 255.166 311.315 253.383C312.198 251.6 312.336 249.54 311.699 247.655L310.566 244.302C312.395 243.05 314.034 241.61 315.482 239.981C317.156 240.43 318.934 240.285 320.514 239.571C322.093 238.857 323.377 237.617 324.146 236.064C324.915 234.51 325.122 232.738 324.732 231.049C324.342 229.36 323.379 227.859 322.006 226.8C322.419 224.669 322.571 222.492 322.461 220.271L325.815 219.138C327.699 218.501 329.253 217.142 330.136 215.359C331.018 213.577 331.156 211.516 330.52 209.632C329.883 207.747 328.524 206.193 326.741 205.311C324.959 204.428 322.898 204.29 321.014 204.927L317.66 206.06C316.425 204.252 314.974 202.601 313.34 201.144C313.788 199.47 313.643 197.692 312.929 196.112C312.215 194.533 310.976 193.249 309.422 192.48C307.869 191.711 306.097 191.504 304.408 191.894C302.719 192.284 301.217 193.247 300.158 194.619C298.008 194.204 295.816 194.051 293.629 194.165L292.496 190.811ZM298.993 233.476C297.438 234.007 295.793 234.225 294.154 234.118C292.514 234.011 290.912 233.58 289.44 232.851C287.967 232.123 286.653 231.11 285.574 229.871C284.494 228.632 283.67 227.193 283.15 225.634C282.358 223.292 282.279 220.768 282.923 218.381C283.566 215.994 284.903 213.851 286.764 212.224C288.625 210.596 290.927 209.557 293.379 209.238C295.83 208.919 298.322 209.334 300.537 210.431C302.753 211.528 304.594 213.257 305.827 215.4C307.06 217.542 307.63 220.003 307.464 222.47C307.299 224.936 306.406 227.299 304.898 229.258C303.39 231.217 301.335 232.685 298.993 233.476Z" fill="#2962FF"/>
<path d="M288.733 120.835L238.843 137.689C228.497 141.184 220.293 143.955 213.872 146.726C207.293 149.561 201.97 152.646 197.646 157.062C190.635 164.241 186.077 173.455 184.626 183.384C183.724 189.494 184.501 195.607 186.236 202.557C187.927 209.343 190.699 217.547 194.194 227.893L211.047 277.783C214.542 288.129 217.314 296.333 220.084 302.754C222.919 309.333 226.005 314.656 230.424 318.989C237.603 325.997 246.816 330.551 256.743 332C262.853 332.902 268.965 332.125 275.915 330.389C282.701 328.699 290.906 325.927 301.251 322.432L351.142 305.579C361.487 302.084 369.692 299.312 376.113 296.541C382.692 293.707 388.014 290.621 392.347 286.202C399.354 279.026 403.91 269.816 405.362 259.893C406.258 253.764 405.483 247.66 403.748 240.71C402.057 233.925 399.286 225.72 395.791 215.374L378.937 165.484C375.442 155.139 372.671 146.934 369.9 140.513C367.065 133.934 363.98 128.612 359.563 124.288C352.388 117.277 343.177 112.718 333.251 111.264C327.122 110.368 321.019 111.142 314.069 112.878C307.283 114.569 299.078 117.34 288.733 120.835ZM208.377 167.55C210.761 165.108 214.092 162.97 219.812 160.499C225.617 158 233.231 155.417 243.956 151.794L293.221 135.152C303.955 131.526 311.572 128.953 317.698 127.432C323.732 125.922 327.689 125.608 331.075 126.101C337.864 127.096 344.165 130.214 349.073 135.009C351.518 137.403 353.659 140.743 356.127 146.454C358.626 152.259 361.209 159.873 364.832 170.597L381.474 219.862C385.1 230.596 387.673 238.214 389.194 244.339C390.704 250.373 391.017 254.331 390.525 257.717C389.53 264.506 386.412 270.806 381.617 275.714C379.223 278.159 375.883 280.301 370.172 282.768C364.367 285.268 356.753 287.85 346.028 291.473L296.763 308.116C286.039 311.738 278.412 314.315 272.287 315.835C266.253 317.346 262.295 317.659 258.909 317.167C252.12 316.172 245.82 313.053 240.911 308.258C238.467 305.865 236.325 302.524 233.858 296.814C231.358 291.008 228.776 283.394 225.153 272.67L208.51 223.405C204.887 212.68 202.311 205.054 200.791 198.928C199.28 192.894 198.967 188.936 199.459 185.551C200.454 178.761 203.582 172.458 208.377 167.55Z" fill="#2962FF"/>
<path opacity="0.5" d="M240.517 240.036C235.636 225.588 236.694 209.794 243.459 196.126C250.224 182.459 262.142 172.039 276.59 167.158C291.037 162.277 306.832 163.336 320.5 170.101C334.167 176.866 344.587 188.783 349.468 203.231C354.348 217.679 353.29 233.474 346.525 247.141C339.76 260.809 327.843 271.229 313.395 276.109C298.947 280.99 283.152 279.931 269.485 273.166C255.817 266.401 245.397 254.484 240.517 240.036ZM281.39 181.369C276.103 183.155 271.219 185.966 267.017 189.639C262.815 193.313 259.379 197.778 256.903 202.78C254.427 207.782 252.961 213.223 252.587 218.792C252.214 224.36 252.941 229.948 254.728 235.236C256.514 240.523 259.324 245.407 262.998 249.609C266.671 253.81 271.137 257.247 276.139 259.723C281.141 262.199 286.581 263.665 292.15 264.039C297.719 264.412 303.306 263.685 308.594 261.898C319.273 258.291 328.081 250.589 333.082 240.487C338.082 230.385 338.864 218.711 335.257 208.032C331.649 197.353 323.947 188.545 313.846 183.544C303.744 178.544 292.069 177.762 281.39 181.369ZM192.123 198.331C195.892 197.057 200.013 197.334 203.578 199.098C207.144 200.863 209.862 203.972 211.135 207.741L215.936 221.952C217.209 225.721 216.933 229.841 215.168 233.407C213.403 236.972 210.294 239.691 206.525 240.964C202.756 242.237 198.636 241.961 195.071 240.196C191.505 238.431 188.787 235.322 187.514 231.553L182.713 217.342C181.44 213.573 181.716 209.453 183.481 205.888C185.246 202.322 188.354 199.604 192.123 198.331ZM231.938 269.322C230.665 265.553 227.947 262.444 224.381 260.68C220.816 258.915 216.695 258.639 212.926 259.912C209.157 261.185 206.049 263.903 204.284 267.469C202.519 271.034 202.243 275.155 203.516 278.924L208.317 293.135C209.59 296.904 212.308 300.012 215.874 301.777C219.439 303.542 223.559 303.818 227.328 302.545C231.097 301.272 234.206 298.553 235.971 294.988C237.736 291.423 238.012 287.302 236.739 283.533L231.938 269.322Z" fill="#2962FF"/>
</g>
<g filter="url(#filter9_b_282_1848)">
<mask id="path-14-inside-2_282_1848" fill="white">
<path d="M137.992 320.131C137.992 308.259 147.617 298.634 159.49 298.634H224.495C236.367 298.634 245.992 308.259 245.992 320.131V385.904C245.992 397.777 236.367 407.402 224.495 407.402H159.49C147.617 407.402 137.992 397.777 137.992 385.904V320.131Z"/>
</mask>
<path d="M137.992 320.131C137.992 308.259 147.617 298.634 159.49 298.634H224.495C236.367 298.634 245.992 308.259 245.992 320.131V385.904C245.992 397.777 236.367 407.402 224.495 407.402H159.49C147.617 407.402 137.992 397.777 137.992 385.904V320.131Z" fill="white"/>
<path d="M136.992 320.131C136.992 307.817 146.975 297.834 159.29 297.834H224.695C237.009 297.834 246.992 307.817 246.992 320.131H244.992C244.992 308.7 235.815 299.434 224.495 299.434H159.49C148.169 299.434 138.992 308.7 138.992 320.131H136.992ZM245.992 407.402H137.992H245.992ZM159.49 407.402C147.065 407.402 136.992 397.329 136.992 384.904V320.131C136.992 307.817 146.975 297.834 159.29 297.834L159.49 299.434C148.169 299.434 138.992 308.7 138.992 320.131V385.904C138.992 397.777 148.169 407.402 159.49 407.402ZM224.695 297.834C237.009 297.834 246.992 307.817 246.992 320.131V384.904C246.992 397.329 236.92 407.402 224.495 407.402C235.815 407.402 244.992 397.777 244.992 385.904V320.131C244.992 308.7 235.815 299.434 224.495 299.434L224.695 297.834Z" fill="url(#paint3_linear_282_1848)" fill-opacity="0.7" mask="url(#path-14-inside-2_282_1848)"/>
<g clip-path="url(#clip3_282_1848)">
<rect x="144.134" y="304.776" width="95.7156" height="96.4834" rx="15.3555" fill="#F3F3F5"/>
<path d="M208.242 365.134C208.242 365.465 208.11 365.783 207.876 366.018C207.641 366.252 207.323 366.384 206.992 366.384H176.992C176.66 366.384 176.342 366.252 176.108 366.018C175.873 365.783 175.742 365.465 175.742 365.134C175.742 364.802 175.873 364.484 176.108 364.25C176.342 364.015 176.66 363.884 176.992 363.884H206.992C207.323 363.884 207.641 364.015 207.876 364.25C208.11 364.484 208.242 364.802 208.242 365.134ZM208.242 341.384V358.884C208.242 359.547 207.978 360.183 207.509 360.651C207.041 361.12 206.405 361.384 205.742 361.384H178.242C177.579 361.384 176.943 361.12 176.474 360.651C176.005 360.183 175.742 359.547 175.742 358.884V341.384C175.742 340.721 176.005 340.085 176.474 339.616C176.943 339.147 177.579 338.884 178.242 338.884H205.742C206.405 338.884 207.041 339.147 207.509 339.616C207.978 340.085 208.242 340.721 208.242 341.384ZM197.617 350.134C197.617 349.933 197.568 349.735 197.475 349.557C197.383 349.379 197.248 349.226 197.084 349.11L190.834 344.735C190.647 344.604 190.427 344.527 190.199 344.512C189.971 344.497 189.743 344.545 189.54 344.65C189.337 344.756 189.167 344.915 189.048 345.11C188.93 345.306 188.867 345.53 188.867 345.759V354.509C188.867 354.737 188.93 354.962 189.048 355.157C189.167 355.353 189.337 355.512 189.54 355.617C189.743 355.723 189.971 355.771 190.199 355.756C190.427 355.741 190.647 355.663 190.834 355.532L197.084 351.157C197.248 351.042 197.383 350.889 197.475 350.711C197.568 350.532 197.617 350.335 197.617 350.134Z" fill="#2962FF"/>
<g filter="url(#filter10_f_282_1848)">
<line x1="145.646" y1="396.907" x2="237.146" y2="308.907" stroke="url(#paint4_linear_282_1848)"/>
</g>
<g opacity="0.2" filter="url(#filter11_f_282_1848)">
<rect width="124.476" height="10.6652" transform="translate(250.001 322.655) rotate(134.834)" fill="white"/>
</g>
<g opacity="0.2" filter="url(#filter12_f_282_1848)">
<rect width="124.476" height="9.76843" transform="translate(226.427 299.074) rotate(134.834)" fill="white"/>
</g>
<g opacity="0.4" filter="url(#filter13_f_282_1848)">
<rect x="149.992" y="289.768" width="82" height="25.5" rx="12.75" fill="#2962FF"/>
</g>
<g opacity="0.4" filter="url(#filter14_f_282_1848)">
<rect x="151.492" y="392.768" width="86" height="13" rx="6.5" fill="#2962FF"/>
</g>
<g opacity="0.4" filter="url(#filter15_f_282_1848)">
<rect x="231.992" y="320.768" width="8" height="54.5" rx="4" fill="#2962FF"/>
</g>
<g opacity="0.4" filter="url(#filter16_f_282_1848)">
<rect x="143.992" y="325.768" width="10.5" height="54.5" rx="5.25" fill="#2962FF"/>
</g>
<g style="mix-blend-mode:plus-lighter" opacity="0.1" filter="url(#filter17_f_282_1848)">
<rect width="10.5" height="46" transform="translate(186.492 333.768)" fill="#2D7AFE"/>
</g>
</g>
<rect x="144.518" y="305.16" width="94.9479" height="95.7156" rx="14.9716" stroke="url(#paint5_linear_282_1848)" stroke-width="0.767773"/>
</g>
<g filter="url(#filter18_b_282_1848)">
<mask id="path-24-inside-3_282_1848" fill="white">
<path d="M386.992 240.131C386.992 228.259 396.617 218.634 408.49 218.634H473.495C485.367 218.634 494.992 228.259 494.992 240.131V305.904C494.992 317.777 485.367 327.402 473.495 327.402H408.49C396.617 327.402 386.992 317.777 386.992 305.904V240.131Z"/>
</mask>
<path d="M386.992 240.131C386.992 228.259 396.617 218.634 408.49 218.634H473.495C485.367 218.634 494.992 228.259 494.992 240.131V305.904C494.992 317.777 485.367 327.402 473.495 327.402H408.49C396.617 327.402 386.992 317.777 386.992 305.904V240.131Z" fill="white"/>
<path d="M385.992 240.131C385.992 227.817 395.975 217.834 408.29 217.834H473.695C486.009 217.834 495.992 227.817 495.992 240.131H493.992C493.992 228.7 484.815 219.434 473.495 219.434H408.49C397.169 219.434 387.992 228.7 387.992 240.131H385.992ZM494.992 327.402H386.992H494.992ZM408.49 327.402C396.065 327.402 385.992 317.329 385.992 304.904V240.131C385.992 227.817 395.975 217.834 408.29 217.834L408.49 219.434C397.169 219.434 387.992 228.7 387.992 240.131V305.904C387.992 317.777 397.169 327.402 408.49 327.402ZM473.695 217.834C486.009 217.834 495.992 227.817 495.992 240.131V304.904C495.992 317.329 485.92 327.402 473.495 327.402C484.815 327.402 493.992 317.777 493.992 305.904V240.131C493.992 228.7 484.815 219.434 473.495 219.434L473.695 217.834Z" fill="url(#paint6_linear_282_1848)" fill-opacity="0.7" mask="url(#path-24-inside-3_282_1848)"/>
<g clip-path="url(#clip4_282_1848)">
<rect x="393.134" y="224.776" width="95.7156" height="96.4834" rx="15.3555" fill="#F3F3F5"/>
<path fill-rule="evenodd" clip-rule="evenodd" d="M424.442 261.397C424.325 262.01 424.325 262.747 424.325 264.217V275.967C424.325 282.252 424.325 285.395 426.279 287.347C428.232 289.299 431.374 289.3 437.659 289.3H444.325C450.61 289.3 453.754 289.3 455.705 287.347C457.657 285.394 457.659 282.252 457.659 275.967V272.297C457.659 267.91 457.659 265.715 456.375 264.29C456.257 264.159 456.133 264.034 456.002 263.915C454.577 262.634 452.382 262.634 447.995 262.634H447.372C445.45 262.634 444.489 262.634 443.592 262.379C443.1 262.238 442.626 262.041 442.179 261.792C441.365 261.34 440.685 260.659 439.325 259.3L438.409 258.384C437.952 257.927 437.725 257.7 437.485 257.5C436.453 256.645 435.187 256.12 433.852 255.995C433.542 255.967 433.219 255.967 432.575 255.967C431.104 255.967 430.369 255.967 429.755 256.084C428.438 256.332 427.227 256.972 426.279 257.92C425.331 258.867 424.691 260.08 424.442 261.397ZM448.13 257.634C448.739 257.634 449.044 257.634 449.3 257.667C450.997 257.9 452.347 259.239 452.657 260.967C452.403 260.91 452.147 260.865 451.889 260.832C450.822 260.692 449.475 260.692 447.805 260.692H447.249C445.679 260.692 445.082 260.684 444.54 260.524C444.225 260.43 443.922 260.3 443.637 260.135C443.144 259.852 442.717 259.422 441.607 258.272L440.992 257.634H448.13ZM442.659 268.05C442.327 268.05 442.009 268.182 441.775 268.416C441.54 268.651 441.409 268.969 441.409 269.3C441.409 269.632 441.54 269.95 441.775 270.184C442.009 270.419 442.327 270.55 442.659 270.55H450.992C451.323 270.55 451.641 270.419 451.876 270.184C452.11 269.95 452.242 269.632 452.242 269.3C452.242 268.969 452.11 268.651 451.876 268.416C451.641 268.182 451.323 268.05 450.992 268.05H442.659Z" fill="#2962FF"/>
<g filter="url(#filter19_f_282_1848)">
<line x1="394.646" y1="316.907" x2="486.146" y2="228.907" stroke="url(#paint7_linear_282_1848)"/>
</g>
<g opacity="0.2" filter="url(#filter20_f_282_1848)">
<rect width="124.476" height="10.6652" transform="translate(499.001 242.655) rotate(134.834)" fill="white"/>
</g>
<g opacity="0.2" filter="url(#filter21_f_282_1848)">
<rect width="124.476" height="9.76843" transform="translate(475.427 219.074) rotate(134.834)" fill="white"/>
</g>
<g opacity="0.4" filter="url(#filter22_f_282_1848)">
<rect x="398.992" y="209.768" width="82" height="25.5" rx="12.75" fill="#2962FF"/>
</g>
<g opacity="0.4" filter="url(#filter23_f_282_1848)">
<rect x="400.492" y="312.768" width="86" height="13" rx="6.5" fill="#2962FF"/>
</g>
<g opacity="0.4" filter="url(#filter24_f_282_1848)">
<rect x="480.992" y="240.768" width="8" height="54.5" rx="4" fill="#2962FF"/>
</g>
<g opacity="0.4" filter="url(#filter25_f_282_1848)">
<rect x="392.992" y="245.768" width="10.5" height="54.5" rx="5.25" fill="#2962FF"/>
</g>
<g style="mix-blend-mode:plus-lighter" opacity="0.1" filter="url(#filter26_f_282_1848)">
<rect width="10.5" height="46" transform="translate(435.492 253.768)" fill="#2D7AFE"/>
</g>
</g>
<rect x="393.518" y="225.16" width="94.9479" height="95.7156" rx="14.9716" stroke="url(#paint8_linear_282_1848)" stroke-width="0.767773"/>
</g>
<g filter="url(#filter27_b_282_1848)">
<mask id="path-34-inside-4_282_1848" fill="white">
<path d="M93.9922 110.131C93.9922 98.2586 103.617 88.6338 115.49 88.6338H180.495C192.367 88.6338 201.992 98.2586 201.992 110.131V175.904C201.992 187.777 192.367 197.402 180.495 197.402H115.49C103.617 197.402 93.9922 187.777 93.9922 175.904V110.131Z"/>
</mask>
<path d="M93.9922 110.131C93.9922 98.2586 103.617 88.6338 115.49 88.6338H180.495C192.367 88.6338 201.992 98.2586 201.992 110.131V175.904C201.992 187.777 192.367 197.402 180.495 197.402H115.49C103.617 197.402 93.9922 187.777 93.9922 175.904V110.131Z" fill="white"/>
<path d="M92.9922 110.131C92.9922 97.8168 102.975 87.8338 115.29 87.8338H180.695C193.009 87.8338 202.992 97.8168 202.992 110.131H200.992C200.992 98.7004 191.815 89.4338 180.495 89.4338H115.49C104.169 89.4338 94.9922 98.7004 94.9922 110.131H92.9922ZM201.992 197.402H93.9922H201.992ZM115.49 197.402C103.065 197.402 92.9922 187.329 92.9922 174.904V110.131C92.9922 97.8168 102.975 87.8338 115.29 87.8338L115.49 89.4338C104.169 89.4338 94.9922 98.7004 94.9922 110.131V175.904C94.9922 187.777 104.169 197.402 115.49 197.402ZM180.695 87.8338C193.009 87.8338 202.992 97.8168 202.992 110.131V174.904C202.992 187.329 192.92 197.402 180.495 197.402C191.815 197.402 200.992 187.777 200.992 175.904V110.131C200.992 98.7004 191.815 89.4338 180.495 89.4338L180.695 87.8338Z" fill="url(#paint9_linear_282_1848)" fill-opacity="0.7" mask="url(#path-34-inside-4_282_1848)"/>
<g clip-path="url(#clip5_282_1848)">
<rect x="100.134" y="94.7758" width="95.7156" height="96.4834" rx="15.3555" fill="#F3F3F5"/>
<g clip-path="url(#clip6_282_1848)">
<path d="M156.717 130.996L152.355 126.634H148.717L153.08 130.996H156.717ZM133.448 126.634H131.992V130.996H137.811L133.448 126.634ZM147.267 130.996L142.898 126.634H139.261L143.623 130.996H147.267ZM158.173 136.815H152.355L156.717 132.452H153.08L148.717 136.815H142.898L147.261 132.452H143.623L139.261 136.815H133.448L137.811 132.452H131.992V155.727C131.992 157.327 133.298 158.634 134.898 158.634H161.08C162.686 158.634 163.986 157.327 163.986 155.727V132.452H162.53L158.173 136.815ZM143.63 154.271V141.177L155.267 147.721L143.63 154.271ZM158.173 126.634L162.536 130.996H163.992V126.634H158.173Z" fill="#2962FF"/>
</g>
<g filter="url(#filter28_f_282_1848)">
<line x1="101.646" y1="186.907" x2="193.146" y2="98.9071" stroke="url(#paint10_linear_282_1848)"/>
</g>
<g opacity="0.2" filter="url(#filter29_f_282_1848)">
<rect width="124.476" height="10.6652" transform="translate(206.001 112.655) rotate(134.834)" fill="white"/>
</g>
<g opacity="0.2" filter="url(#filter30_f_282_1848)">
<rect width="124.476" height="9.76843" transform="translate(182.427 89.0735) rotate(134.834)" fill="white"/>
</g>
<g opacity="0.4" filter="url(#filter31_f_282_1848)">
<rect x="105.992" y="79.7675" width="82" height="25.5" rx="12.75" fill="#2962FF"/>
</g>
<g opacity="0.4" filter="url(#filter32_f_282_1848)">
<rect x="107.492" y="182.768" width="86" height="13" rx="6.5" fill="#2962FF"/>
</g>
<g opacity="0.4" filter="url(#filter33_f_282_1848)">
<rect x="187.992" y="110.768" width="8" height="54.5" rx="4" fill="#2962FF"/>
</g>
<g opacity="0.4" filter="url(#filter34_f_282_1848)">
<rect x="99.9922" y="115.768" width="10.5" height="54.5" rx="5.25" fill="#2962FF"/>
</g>
<g style="mix-blend-mode:plus-lighter" opacity="0.1" filter="url(#filter35_f_282_1848)">
<rect width="10.5" height="46" transform="translate(142.492 123.768)" fill="#2D7AFE"/>
</g>
</g>
<rect x="100.518" y="95.1597" width="94.9479" height="95.7156" rx="14.9716" stroke="url(#paint11_linear_282_1848)" stroke-width="0.767773"/>
</g>
<defs>
<filter id="filter0_b_282_1848" x="319.992" y="12.6338" width="132" height="132.768" filterUnits="userSpaceOnUse" color-interpolation-filters="sRGB">
<feFlood flood-opacity="0" result="BackgroundImageFix"/>
<feGaussianBlur in="BackgroundImageFix" stdDeviation="6"/>
<feComposite in2="SourceAlpha" operator="in" result="effect1_backgroundBlur_282_1848"/>
<feBlend mode="normal" in="SourceGraphic" in2="effect1_backgroundBlur_282_1848" result="shape"/>
</filter>
<filter id="filter1_f_282_1848" x="332.299" y="27.5468" width="106.193" height="102.721" filterUnits="userSpaceOnUse" color-interpolation-filters="sRGB">
<feFlood flood-opacity="0" result="BackgroundImageFix"/>
<feBlend mode="normal" in="SourceGraphic" in2="BackgroundImageFix" result="shape"/>
<feGaussianBlur stdDeviation="3.5" result="effect1_foregroundBlur_282_1848"/>
</filter>
<filter id="filter2_f_282_1848" x="323.675" y="16.1359" width="145.326" height="145.792" filterUnits="userSpaceOnUse" color-interpolation-filters="sRGB">
<feFlood flood-opacity="0" result="BackgroundImageFix"/>
<feBlend mode="normal" in="SourceGraphic" in2="BackgroundImageFix" result="shape"/>
<feGaussianBlur stdDeviation="12.5" result="effect1_foregroundBlur_282_1848"/>
</filter>
<filter id="filter3_f_282_1848" x="300.737" y="-6.81378" width="144.69" height="145.159" filterUnits="userSpaceOnUse" color-interpolation-filters="sRGB">
<feFlood flood-opacity="0" result="BackgroundImageFix"/>
<feBlend mode="normal" in="SourceGraphic" in2="BackgroundImageFix" result="shape"/>
<feGaussianBlur stdDeviation="12.5" result="effect1_foregroundBlur_282_1848"/>
</filter>
<filter id="filter4_f_282_1848" x="323.992" y="-4.23248" width="122" height="65.5" filterUnits="userSpaceOnUse" color-interpolation-filters="sRGB">
<feFlood flood-opacity="0" result="BackgroundImageFix"/>
<feBlend mode="normal" in="SourceGraphic" in2="BackgroundImageFix" result="shape"/>
<feGaussianBlur stdDeviation="10" result="effect1_foregroundBlur_282_1848"/>
</filter>
<filter id="filter5_f_282_1848" x="325.492" y="98.7675" width="126" height="53" filterUnits="userSpaceOnUse" color-interpolation-filters="sRGB">
<feFlood flood-opacity="0" result="BackgroundImageFix"/>
<feBlend mode="normal" in="SourceGraphic" in2="BackgroundImageFix" result="shape"/>
<feGaussianBlur stdDeviation="10" result="effect1_foregroundBlur_282_1848"/>
</filter>
<filter id="filter6_f_282_1848" x="405.992" y="26.7675" width="48" height="94.5" filterUnits="userSpaceOnUse" color-interpolation-filters="sRGB">
<feFlood flood-opacity="0" result="BackgroundImageFix"/>
<feBlend mode="normal" in="SourceGraphic" in2="BackgroundImageFix" result="shape"/>
<feGaussianBlur stdDeviation="10" result="effect1_foregroundBlur_282_1848"/>
</filter>
<filter id="filter7_f_282_1848" x="317.992" y="31.7675" width="50.5" height="94.5" filterUnits="userSpaceOnUse" color-interpolation-filters="sRGB">
<feFlood flood-opacity="0" result="BackgroundImageFix"/>
<feBlend mode="normal" in="SourceGraphic" in2="BackgroundImageFix" result="shape"/>
<feGaussianBlur stdDeviation="10" result="effect1_foregroundBlur_282_1848"/>
</filter>
<filter id="filter8_f_282_1848" x="371.492" y="50.7675" width="28.5" height="64" filterUnits="userSpaceOnUse" color-interpolation-filters="sRGB">
<feFlood flood-opacity="0" result="BackgroundImageFix"/>
<feBlend mode="normal" in="SourceGraphic" in2="BackgroundImageFix" result="shape"/>
<feGaussianBlur stdDeviation="4.5" result="effect1_foregroundBlur_282_1848"/>
</filter>
<filter id="filter9_b_282_1848" x="125.992" y="286.634" width="132" height="132.768" filterUnits="userSpaceOnUse" color-interpolation-filters="sRGB">
<feFlood flood-opacity="0" result="BackgroundImageFix"/>
<feGaussianBlur in="BackgroundImageFix" stdDeviation="6"/>
<feComposite in2="SourceAlpha" operator="in" result="effect1_backgroundBlur_282_1848"/>
<feBlend mode="normal" in="SourceGraphic" in2="effect1_backgroundBlur_282_1848" result="shape"/>
</filter>
<filter id="filter10_f_282_1848" x="138.299" y="301.547" width="106.193" height="102.721" filterUnits="userSpaceOnUse" color-interpolation-filters="sRGB">
<feFlood flood-opacity="0" result="BackgroundImageFix"/>
<feBlend mode="normal" in="SourceGraphic" in2="BackgroundImageFix" result="shape"/>
<feGaussianBlur stdDeviation="3.5" result="effect1_foregroundBlur_282_1848"/>
</filter>
<filter id="filter11_f_282_1848" x="129.675" y="290.136" width="145.326" height="145.792" filterUnits="userSpaceOnUse" color-interpolation-filters="sRGB">
<feFlood flood-opacity="0" result="BackgroundImageFix"/>
<feBlend mode="normal" in="SourceGraphic" in2="BackgroundImageFix" result="shape"/>
<feGaussianBlur stdDeviation="12.5" result="effect1_foregroundBlur_282_1848"/>
</filter>
<filter id="filter12_f_282_1848" x="106.737" y="267.186" width="144.69" height="145.159" filterUnits="userSpaceOnUse" color-interpolation-filters="sRGB">
<feFlood flood-opacity="0" result="BackgroundImageFix"/>
<feBlend mode="normal" in="SourceGraphic" in2="BackgroundImageFix" result="shape"/>
<feGaussianBlur stdDeviation="12.5" result="effect1_foregroundBlur_282_1848"/>
</filter>
<filter id="filter13_f_282_1848" x="129.992" y="269.768" width="122" height="65.5" filterUnits="userSpaceOnUse" color-interpolation-filters="sRGB">
<feFlood flood-opacity="0" result="BackgroundImageFix"/>
<feBlend mode="normal" in="SourceGraphic" in2="BackgroundImageFix" result="shape"/>
<feGaussianBlur stdDeviation="10" result="effect1_foregroundBlur_282_1848"/>
</filter>
<filter id="filter14_f_282_1848" x="131.492" y="372.768" width="126" height="53" filterUnits="userSpaceOnUse" color-interpolation-filters="sRGB">
<feFlood flood-opacity="0" result="BackgroundImageFix"/>
<feBlend mode="normal" in="SourceGraphic" in2="BackgroundImageFix" result="shape"/>
<feGaussianBlur stdDeviation="10" result="effect1_foregroundBlur_282_1848"/>
</filter>
<filter id="filter15_f_282_1848" x="211.992" y="300.768" width="48" height="94.5001" filterUnits="userSpaceOnUse" color-interpolation-filters="sRGB">
<feFlood flood-opacity="0" result="BackgroundImageFix"/>
<feBlend mode="normal" in="SourceGraphic" in2="BackgroundImageFix" result="shape"/>
<feGaussianBlur stdDeviation="10" result="effect1_foregroundBlur_282_1848"/>
</filter>
<filter id="filter16_f_282_1848" x="123.992" y="305.768" width="50.5" height="94.5001" filterUnits="userSpaceOnUse" color-interpolation-filters="sRGB">
<feFlood flood-opacity="0" result="BackgroundImageFix"/>
<feBlend mode="normal" in="SourceGraphic" in2="BackgroundImageFix" result="shape"/>
<feGaussianBlur stdDeviation="10" result="effect1_foregroundBlur_282_1848"/>
</filter>
<filter id="filter17_f_282_1848" x="177.492" y="324.768" width="28.5" height="64.0001" filterUnits="userSpaceOnUse" color-interpolation-filters="sRGB">
<feFlood flood-opacity="0" result="BackgroundImageFix"/>
<feBlend mode="normal" in="SourceGraphic" in2="BackgroundImageFix" result="shape"/>
<feGaussianBlur stdDeviation="4.5" result="effect1_foregroundBlur_282_1848"/>
</filter>
<filter id="filter18_b_282_1848" x="374.992" y="206.634" width="132" height="132.768" filterUnits="userSpaceOnUse" color-interpolation-filters="sRGB">
<feFlood flood-opacity="0" result="BackgroundImageFix"/>
<feGaussianBlur in="BackgroundImageFix" stdDeviation="6"/>
<feComposite in2="SourceAlpha" operator="in" result="effect1_backgroundBlur_282_1848"/>
<feBlend mode="normal" in="SourceGraphic" in2="effect1_backgroundBlur_282_1848" result="shape"/>
</filter>
<filter id="filter19_f_282_1848" x="387.299" y="221.547" width="106.193" height="102.721" filterUnits="userSpaceOnUse" color-interpolation-filters="sRGB">
<feFlood flood-opacity="0" result="BackgroundImageFix"/>
<feBlend mode="normal" in="SourceGraphic" in2="BackgroundImageFix" result="shape"/>
<feGaussianBlur stdDeviation="3.5" result="effect1_foregroundBlur_282_1848"/>
</filter>
<filter id="filter20_f_282_1848" x="378.675" y="210.136" width="145.326" height="145.792" filterUnits="userSpaceOnUse" color-interpolation-filters="sRGB">
<feFlood flood-opacity="0" result="BackgroundImageFix"/>
<feBlend mode="normal" in="SourceGraphic" in2="BackgroundImageFix" result="shape"/>
<feGaussianBlur stdDeviation="12.5" result="effect1_foregroundBlur_282_1848"/>
</filter>
<filter id="filter21_f_282_1848" x="355.737" y="187.186" width="144.69" height="145.159" filterUnits="userSpaceOnUse" color-interpolation-filters="sRGB">
<feFlood flood-opacity="0" result="BackgroundImageFix"/>
<feBlend mode="normal" in="SourceGraphic" in2="BackgroundImageFix" result="shape"/>
<feGaussianBlur stdDeviation="12.5" result="effect1_foregroundBlur_282_1848"/>
</filter>
<filter id="filter22_f_282_1848" x="378.992" y="189.768" width="122" height="65.5" filterUnits="userSpaceOnUse" color-interpolation-filters="sRGB">
<feFlood flood-opacity="0" result="BackgroundImageFix"/>
<feBlend mode="normal" in="SourceGraphic" in2="BackgroundImageFix" result="shape"/>
<feGaussianBlur stdDeviation="10" result="effect1_foregroundBlur_282_1848"/>
</filter>
<filter id="filter23_f_282_1848" x="380.492" y="292.768" width="126" height="53" filterUnits="userSpaceOnUse" color-interpolation-filters="sRGB">
<feFlood flood-opacity="0" result="BackgroundImageFix"/>
<feBlend mode="normal" in="SourceGraphic" in2="BackgroundImageFix" result="shape"/>
<feGaussianBlur stdDeviation="10" result="effect1_foregroundBlur_282_1848"/>
</filter>
<filter id="filter24_f_282_1848" x="460.992" y="220.768" width="48" height="94.5" filterUnits="userSpaceOnUse" color-interpolation-filters="sRGB">
<feFlood flood-opacity="0" result="BackgroundImageFix"/>
<feBlend mode="normal" in="SourceGraphic" in2="BackgroundImageFix" result="shape"/>
<feGaussianBlur stdDeviation="10" result="effect1_foregroundBlur_282_1848"/>
</filter>
<filter id="filter25_f_282_1848" x="372.992" y="225.768" width="50.5" height="94.5" filterUnits="userSpaceOnUse" color-interpolation-filters="sRGB">
<feFlood flood-opacity="0" result="BackgroundImageFix"/>
<feBlend mode="normal" in="SourceGraphic" in2="BackgroundImageFix" result="shape"/>
<feGaussianBlur stdDeviation="10" result="effect1_foregroundBlur_282_1848"/>
</filter>
<filter id="filter26_f_282_1848" x="426.492" y="244.768" width="28.5" height="64" filterUnits="userSpaceOnUse" color-interpolation-filters="sRGB">
<feFlood flood-opacity="0" result="BackgroundImageFix"/>
<feBlend mode="normal" in="SourceGraphic" in2="BackgroundImageFix" result="shape"/>
<feGaussianBlur stdDeviation="4.5" result="effect1_foregroundBlur_282_1848"/>
</filter>
<filter id="filter27_b_282_1848" x="81.9922" y="76.6338" width="132" height="132.768" filterUnits="userSpaceOnUse" color-interpolation-filters="sRGB">
<feFlood flood-opacity="0" result="BackgroundImageFix"/>
<feGaussianBlur in="BackgroundImageFix" stdDeviation="6"/>
<feComposite in2="SourceAlpha" operator="in" result="effect1_backgroundBlur_282_1848"/>
<feBlend mode="normal" in="SourceGraphic" in2="effect1_backgroundBlur_282_1848" result="shape"/>
</filter>
<filter id="filter28_f_282_1848" x="94.2988" y="91.5468" width="106.193" height="102.721" filterUnits="userSpaceOnUse" color-interpolation-filters="sRGB">
<feFlood flood-opacity="0" result="BackgroundImageFix"/>
<feBlend mode="normal" in="SourceGraphic" in2="BackgroundImageFix" result="shape"/>
<feGaussianBlur stdDeviation="3.5" result="effect1_foregroundBlur_282_1848"/>
</filter>
<filter id="filter29_f_282_1848" x="85.6748" y="80.1359" width="145.326" height="145.792" filterUnits="userSpaceOnUse" color-interpolation-filters="sRGB">
<feFlood flood-opacity="0" result="BackgroundImageFix"/>
<feBlend mode="normal" in="SourceGraphic" in2="BackgroundImageFix" result="shape"/>
<feGaussianBlur stdDeviation="12.5" result="effect1_foregroundBlur_282_1848"/>
</filter>
<filter id="filter30_f_282_1848" x="62.7373" y="57.1862" width="144.69" height="145.159" filterUnits="userSpaceOnUse" color-interpolation-filters="sRGB">
<feFlood flood-opacity="0" result="BackgroundImageFix"/>
<feBlend mode="normal" in="SourceGraphic" in2="BackgroundImageFix" result="shape"/>
<feGaussianBlur stdDeviation="12.5" result="effect1_foregroundBlur_282_1848"/>
</filter>
<filter id="filter31_f_282_1848" x="85.9922" y="59.7675" width="122" height="65.5" filterUnits="userSpaceOnUse" color-interpolation-filters="sRGB">
<feFlood flood-opacity="0" result="BackgroundImageFix"/>
<feBlend mode="normal" in="SourceGraphic" in2="BackgroundImageFix" result="shape"/>
<feGaussianBlur stdDeviation="10" result="effect1_foregroundBlur_282_1848"/>
</filter>
<filter id="filter32_f_282_1848" x="87.4922" y="162.768" width="126" height="53" filterUnits="userSpaceOnUse" color-interpolation-filters="sRGB">
<feFlood flood-opacity="0" result="BackgroundImageFix"/>
<feBlend mode="normal" in="SourceGraphic" in2="BackgroundImageFix" result="shape"/>
<feGaussianBlur stdDeviation="10" result="effect1_foregroundBlur_282_1848"/>
</filter>
<filter id="filter33_f_282_1848" x="167.992" y="90.7675" width="48" height="94.5" filterUnits="userSpaceOnUse" color-interpolation-filters="sRGB">
<feFlood flood-opacity="0" result="BackgroundImageFix"/>
<feBlend mode="normal" in="SourceGraphic" in2="BackgroundImageFix" result="shape"/>
<feGaussianBlur stdDeviation="10" result="effect1_foregroundBlur_282_1848"/>
</filter>
<filter id="filter34_f_282_1848" x="79.9922" y="95.7675" width="50.5" height="94.5" filterUnits="userSpaceOnUse" color-interpolation-filters="sRGB">
<feFlood flood-opacity="0" result="BackgroundImageFix"/>
<feBlend mode="normal" in="SourceGraphic" in2="BackgroundImageFix" result="shape"/>
<feGaussianBlur stdDeviation="10" result="effect1_foregroundBlur_282_1848"/>
</filter>
<filter id="filter35_f_282_1848" x="133.492" y="114.768" width="28.5" height="64" filterUnits="userSpaceOnUse" color-interpolation-filters="sRGB">
<feFlood flood-opacity="0" result="BackgroundImageFix"/>
<feBlend mode="normal" in="SourceGraphic" in2="BackgroundImageFix" result="shape"/>
<feGaussianBlur stdDeviation="4.5" result="effect1_foregroundBlur_282_1848"/>
</filter>
<linearGradient id="paint0_linear_282_1848" x1="438.968" y1="27.0651" x2="330.492" y2="140.286" gradientUnits="userSpaceOnUse">
<stop offset="0.0360406" stop-color="#2D7AFE"/>
<stop offset="0.214314" stop-color="#2D7AFE" stop-opacity="0"/>
</linearGradient>
<linearGradient id="paint1_linear_282_1848" x1="431.839" y1="35.6279" x2="340.339" y2="123.628" gradientUnits="userSpaceOnUse">
<stop offset="0.804766" stop-color="#2962FF"/>
<stop offset="1" stop-color="#2962FF" stop-opacity="0"/>
</linearGradient>
<linearGradient id="paint2_linear_282_1848" x1="429.883" y1="123.932" x2="420.751" y2="114.259" gradientUnits="userSpaceOnUse">
<stop stop-color="#2D7AFE"/>
<stop offset="0.376037" stop-color="#2D7AFE" stop-opacity="0"/>
</linearGradient>
<linearGradient id="paint3_linear_282_1848" x1="244.968" y1="301.065" x2="136.492" y2="414.286" gradientUnits="userSpaceOnUse">
<stop offset="0.0360406" stop-color="#2D7AFE"/>
<stop offset="0.214314" stop-color="#2D7AFE" stop-opacity="0"/>
</linearGradient>
<linearGradient id="paint4_linear_282_1848" x1="237.839" y1="309.628" x2="146.339" y2="397.628" gradientUnits="userSpaceOnUse">
<stop offset="0.804766" stop-color="#2962FF"/>
<stop offset="1" stop-color="#2962FF" stop-opacity="0"/>
</linearGradient>
<linearGradient id="paint5_linear_282_1848" x1="235.883" y1="397.932" x2="226.751" y2="388.259" gradientUnits="userSpaceOnUse">
<stop stop-color="#2D7AFE"/>
<stop offset="0.376037" stop-color="#2D7AFE" stop-opacity="0"/>
</linearGradient>
<linearGradient id="paint6_linear_282_1848" x1="493.968" y1="221.065" x2="385.492" y2="334.286" gradientUnits="userSpaceOnUse">
<stop offset="0.0360406" stop-color="#2D7AFE"/>
<stop offset="0.214314" stop-color="#2D7AFE" stop-opacity="0"/>
</linearGradient>
<linearGradient id="paint7_linear_282_1848" x1="486.839" y1="229.628" x2="395.339" y2="317.628" gradientUnits="userSpaceOnUse">
<stop offset="0.804766" stop-color="#2962FF"/>
<stop offset="1" stop-color="#2962FF" stop-opacity="0"/>
</linearGradient>
<linearGradient id="paint8_linear_282_1848" x1="484.883" y1="317.932" x2="475.751" y2="308.259" gradientUnits="userSpaceOnUse">
<stop stop-color="#2D7AFE"/>
<stop offset="0.376037" stop-color="#2D7AFE" stop-opacity="0"/>
</linearGradient>
<linearGradient id="paint9_linear_282_1848" x1="200.968" y1="91.0651" x2="92.4922" y2="204.286" gradientUnits="userSpaceOnUse">
<stop offset="0.0360406" stop-color="#2D7AFE"/>
<stop offset="0.214314" stop-color="#2D7AFE" stop-opacity="0"/>
</linearGradient>
<linearGradient id="paint10_linear_282_1848" x1="193.839" y1="99.6279" x2="102.339" y2="187.628" gradientUnits="userSpaceOnUse">
<stop offset="0.804766" stop-color="#2962FF"/>
<stop offset="1" stop-color="#2962FF" stop-opacity="0"/>
</linearGradient>
<linearGradient id="paint11_linear_282_1848" x1="191.883" y1="187.932" x2="182.751" y2="178.259" gradientUnits="userSpaceOnUse">
<stop stop-color="#2D7AFE"/>
<stop offset="0.376037" stop-color="#2D7AFE" stop-opacity="0"/>
</linearGradient>
<clipPath id="clip0_282_1848">
<rect x="338.134" y="30.7758" width="95.7156" height="96.4834" rx="15.3555" fill="white"/>
</clipPath>
<clipPath id="clip1_282_1848">
<rect width="40" height="40" fill="white" transform="translate(365.992 58.6337)"/>
</clipPath>
<clipPath id="clip2_282_1848">
<rect width="240" height="240" fill="white" transform="translate(142.898 146.351) rotate(-18.6657)"/>
</clipPath>
<clipPath id="clip3_282_1848">
<rect x="144.134" y="304.776" width="95.7156" height="96.4834" rx="15.3555" fill="white"/>
</clipPath>
<clipPath id="clip4_282_1848">
<rect x="393.134" y="224.776" width="95.7156" height="96.4834" rx="15.3555" fill="white"/>
</clipPath>
<clipPath id="clip5_282_1848">
<rect x="100.134" y="94.7758" width="95.7156" height="96.4834" rx="15.3555" fill="white"/>
</clipPath>
<clipPath id="clip6_282_1848">
<rect width="32" height="32" fill="white" transform="translate(131.992 126.634)"/>
</clipPath>
</defs>
</svg>
