<svg width="374" height="211" viewBox="0 0 374 211" fill="none" xmlns="http://www.w3.org/2000/svg">
<mask id="path-1-outside-1_297_138" maskUnits="userSpaceOnUse" x="59.8457" y="0.283936" width="236" height="168" fill="black">
<rect fill="white" x="59.8457" y="0.283936" width="236" height="168"/>
<path d="M60.8457 11.9986C60.8457 6.08106 65.6428 1.28394 71.5604 1.28394H284.069C289.986 1.28394 294.783 6.08107 294.783 11.9986V167.362H60.8457V11.9986Z"/>
</mask>
<path d="M60.8457 11.9986C60.8457 6.08106 65.6428 1.28394 71.5604 1.28394H284.069C289.986 1.28394 294.783 6.08107 294.783 11.9986V167.362H60.8457V11.9986Z" fill="url(#paint0_linear_297_138)" fill-opacity="0.04"/>
<path d="M59.9528 11.9986C59.9528 5.58794 65.1497 0.391043 71.5604 0.391043H284.069C290.479 0.391043 295.676 5.58794 295.676 11.9986H293.891C293.891 6.5742 289.493 2.17683 284.069 2.17683H71.5604C66.136 2.17683 61.7386 6.5742 61.7386 11.9986H59.9528ZM294.783 167.362H60.8457H294.783ZM59.9528 167.362V11.9986C59.9528 5.58794 65.1497 0.391043 71.5604 0.391043V2.17683C66.136 2.17683 61.7386 6.5742 61.7386 11.9986V167.362H59.9528ZM284.069 0.391043C290.479 0.391043 295.676 5.58794 295.676 11.9986V167.362H293.891V11.9986C293.891 6.5742 289.493 2.17683 284.069 2.17683V0.391043Z" fill="url(#paint1_linear_297_138)" mask="url(#path-1-outside-1_297_138)"/>
<g filter="url(#filter0_b_297_138)">
<rect x="78.7031" y="20.9277" width="7.14314" height="7.14314" rx="3.57157" fill="#2962FF"/>
</g>
<g filter="url(#filter1_b_297_138)">
<rect x="89.418" y="20.928" width="28.5725" height="7.14314" rx="3.57157" fill="#2962FF"/>
</g>
<g filter="url(#filter2_b_297_138)">
<rect x="266.211" y="19.1418" width="10.7147" height="10.7147" rx="5.35735" fill="#2962FF"/>
</g>
<g filter="url(#filter3_b_297_138)">
<rect x="78.7031" y="44.1428" width="119.648" height="7.14314" rx="3.57157" fill="#2962FF" fill-opacity="0.16"/>
</g>
<g filter="url(#filter4_b_297_138)">
<rect x="78.7031" y="58.4292" width="198.222" height="7.14314" rx="3.57157" fill="white" fill-opacity="0.03"/>
</g>
<g filter="url(#filter5_b_297_138)">
<rect x="78.7031" y="72.7153" width="198.222" height="7.14314" rx="3.57157" fill="white" fill-opacity="0.03"/>
</g>
<g filter="url(#filter6_b_297_138)">
<rect x="78.7031" y="87.0017" width="150.899" height="7.14314" rx="3.57157" fill="white" fill-opacity="0.03"/>
</g>
<g opacity="0.6" filter="url(#filter7_f_297_138)">
<rect x="253.598" y="142.446" width="1.19466" height="1.19466" rx="0.597331" transform="rotate(138.383 253.598 142.446)" fill="white"/>
</g>
<g opacity="0.6" filter="url(#filter8_f_297_138)">
<rect x="257.213" y="115.904" width="1.19466" height="1.19466" rx="0.597331" transform="rotate(138.383 257.213 115.904)" fill="white"/>
</g>
<g opacity="0.6" filter="url(#filter9_f_297_138)">
<rect x="261.371" y="107.087" width="1.19466" height="1.19466" rx="0.597331" transform="rotate(-159.61 261.371 107.087)" fill="white"/>
</g>
<g opacity="0.6" filter="url(#filter10_f_297_138)">
<rect width="1.19466" height="1.19466" rx="0.597331" transform="matrix(0.231267 -0.97289 -0.97289 -0.231267 224.713 119.887)" fill="white"/>
</g>
<g opacity="0.3" filter="url(#filter11_f_297_138)">
<rect x="237.551" y="136.354" width="1.19466" height="1.19466" rx="0.597331" transform="rotate(138.383 237.551 136.354)" fill="white"/>
</g>
<g opacity="0.3" filter="url(#filter12_f_297_138)">
<rect x="239.959" y="118.66" width="1.19466" height="1.19466" rx="0.597331" transform="rotate(138.383 239.959 118.66)" fill="white"/>
</g>
<g opacity="0.3" filter="url(#filter13_f_297_138)">
<rect x="242.463" y="96.2356" width="1.19466" height="1.19466" rx="0.597331" transform="rotate(-159.61 242.463 96.2356)" fill="white"/>
</g>
<g opacity="0.3" filter="url(#filter14_f_297_138)">
<rect width="1.19466" height="1.19466" rx="0.597331" transform="matrix(0.231267 -0.97289 -0.97289 -0.231267 226.158 98.4556)" fill="white"/>
</g>
<g opacity="0.3" filter="url(#filter15_f_297_138)">
<rect width="1.19466" height="1.19466" rx="0.597331" transform="matrix(0.231267 -0.97289 -0.97289 -0.231267 236.059 105.158)" fill="white"/>
</g>
<g opacity="0.3" filter="url(#filter16_f_297_138)">
<rect width="1.19466" height="1.19466" rx="0.597331" transform="matrix(0.231267 -0.97289 -0.97289 -0.231267 216.998 125.993)" fill="white"/>
</g>
<g opacity="0.3" filter="url(#filter17_f_297_138)">
<rect width="1.19466" height="1.19466" rx="0.597331" transform="matrix(0.231267 -0.97289 -0.97289 -0.231267 228.1 123.899)" fill="white"/>
</g>
<g opacity="0.3" filter="url(#filter18_f_297_138)">
<rect width="1.19466" height="1.19466" rx="0.597331" transform="matrix(0.231267 -0.97289 -0.97289 -0.231267 248.045 123.01)" fill="white"/>
</g>
<g opacity="0.3" filter="url(#filter19_f_297_138)">
<rect width="1.19466" height="1.19466" rx="0.597331" transform="matrix(0.231267 -0.97289 -0.97289 -0.231267 247.887 137.407)" fill="white"/>
</g>
<g opacity="0.3" filter="url(#filter20_f_297_138)">
<rect width="1.19466" height="1.19466" rx="0.597331" transform="matrix(0.231267 -0.97289 -0.97289 -0.231267 243.857 100.814)" fill="white"/>
</g>
<g filter="url(#filter21_b_297_138)">
<g clip-path="url(#clip0_297_138)">
<mask id="path-24-outside-2_297_138" maskUnits="userSpaceOnUse" x="0.578125" y="56.7161" width="168" height="154" fill="black">
<rect fill="white" x="0.578125" y="56.7161" width="168" height="154"/>
<path d="M1.57812 69.7161C1.57812 63.0886 6.95071 57.7161 13.5781 57.7161H154.911C161.539 57.7161 166.911 63.0886 166.911 69.7161V210.716H1.57812V69.7161Z"/>
</mask>
<path d="M1.57812 69.7161C1.57812 63.0886 6.95071 57.7161 13.5781 57.7161H154.911C161.539 57.7161 166.911 63.0886 166.911 69.7161V210.716H1.57812V69.7161Z" fill="#0C0F19"/>
<g filter="url(#filter22_b_297_138)">
<rect x="21.5781" y="79.7161" width="8" height="8" rx="4" fill="#2962FF"/>
</g>
<g filter="url(#filter23_b_297_138)">
<rect x="33.5781" y="79.7161" width="32" height="8" rx="4" fill="#2962FF" fill-opacity="0.3"/>
</g>
<g filter="url(#filter24_b_297_138)">
<rect x="134.912" y="77.7161" width="12" height="12" rx="6" fill="#2962FF" fill-opacity="0.24"/>
</g>
<rect x="34.4121" y="106.216" width="99.6665" height="99.6665" rx="49.8333" stroke="url(#paint2_linear_297_138)" stroke-opacity="0.24"/>
<rect x="48.5586" y="120.363" width="71.3719" height="71.3719" rx="35.6859" stroke="url(#paint3_linear_297_138)" stroke-opacity="0.24"/>
<path d="M84.2446 179.06C96.9532 179.06 107.255 168.758 107.255 156.049C107.255 143.341 96.9532 133.039 84.2446 133.039C71.5361 133.039 61.2344 143.341 61.2344 156.049C61.2344 168.758 71.5361 179.06 84.2446 179.06Z" stroke="#2962FF" stroke-width="2" stroke-linejoin="round"/>
<path d="M84.2539 142.243V156.061L94.0091 165.817" stroke="#2962FF" stroke-width="2.52455" stroke-linecap="round" stroke-linejoin="round"/>
<g opacity="0.7" filter="url(#filter25_f_297_138)">
<rect x="60.5781" y="131.716" width="48" height="48" rx="24" fill="#2962FF"/>
</g>
<path d="M41.2775 124.803L39.6477 119.533L36.4964 120.744L38.1263 126.014L33.3994 127.831L34.4859 131.344L39.2128 129.527L40.8426 134.797L43.9939 133.585L42.3641 128.316L47.091 126.499L46.0044 122.986L41.2775 124.803Z" fill="#11A008"/>
<path d="M128.278 157.68L126.648 152.954L123.496 154.04L125.126 158.767L120.399 160.397L121.486 163.548L126.213 161.918L127.843 166.645L130.994 165.559L129.364 160.832L134.091 159.202L133.004 156.051L128.278 157.68Z" fill="#11A008"/>
<g opacity="0.2" filter="url(#filter26_b_297_138)">
<path d="M39.7618 137.132L38.9469 134.497L37.3713 135.103L38.1862 137.738L35.8227 138.646L36.366 140.403L38.7295 139.494L39.5444 142.129L41.12 141.523L40.3051 138.888L42.6685 137.98L42.1253 136.223L39.7618 137.132Z" fill="#11A008"/>
</g>
<g opacity="0.2" filter="url(#filter27_b_297_138)">
<path d="M34.1997 145.668L33.7785 144.306L32.964 144.619L33.3852 145.982L32.1634 146.451L32.4443 147.359L33.6661 146.89L34.0873 148.252L34.9018 147.939L34.4806 146.576L35.7023 146.107L35.4215 145.199L34.1997 145.668Z" fill="#11A008"/>
</g>
<g opacity="0.2" filter="url(#filter28_b_297_138)">
<path d="M122.2 175.668L121.778 174.306L120.964 174.619L121.385 175.982L120.163 176.451L120.444 177.359L121.666 176.89L122.087 178.252L122.902 177.939L122.481 176.576L123.702 176.107L123.421 175.199L122.2 175.668Z" fill="#11A008"/>
</g>
<g opacity="0.2" filter="url(#filter29_b_297_138)">
<path d="M37.8208 149.736L37.3996 148.374L36.585 148.687L37.0063 150.049L35.7845 150.519L36.0654 151.427L37.2872 150.957L37.7084 152.319L38.5229 152.006L38.1017 150.644L39.3234 150.174L39.0426 149.266L37.8208 149.736Z" fill="#11A008"/>
</g>
<g opacity="0.2" filter="url(#filter30_b_297_138)">
<path d="M124.821 179.736L124.4 178.374L123.585 178.687L124.006 180.049L122.785 180.519L123.065 181.427L124.287 180.957L124.708 182.319L125.523 182.006L125.102 180.644L126.323 180.174L126.043 179.266L124.821 179.736Z" fill="#11A008"/>
</g>
<g opacity="0.2" filter="url(#filter31_b_297_138)">
<path d="M126.762 168.74L125.947 166.376L124.371 166.92L125.186 169.283L122.823 170.098L123.366 171.674L125.729 170.859L126.544 173.222L128.12 172.679L127.305 170.316L129.669 169.501L129.125 167.925L126.762 168.74Z" fill="#11A008"/>
</g>
<g opacity="0.2" filter="url(#filter32_b_297_138)">
<path d="M44.9962 117.805L44.1813 115.441L42.6056 115.984L43.4206 118.348L41.0571 119.163L41.6004 120.738L43.9638 119.923L44.7787 122.287L46.3544 121.744L45.5395 119.38L47.9029 118.565L47.3596 116.99L44.9962 117.805Z" fill="#11A008"/>
</g>
<g opacity="0.2" filter="url(#filter33_b_297_138)">
<path d="M131.996 148.805L131.181 146.441L129.606 146.984L130.421 149.348L128.057 150.163L128.6 151.738L130.964 150.923L131.779 153.287L133.354 152.744L132.539 150.38L134.903 149.565L134.36 147.99L131.996 148.805Z" fill="#11A008"/>
</g>
</g>
<path d="M0.578125 69.7161C0.578125 62.5364 6.39842 56.7161 13.5781 56.7161H154.911C162.091 56.7161 167.911 62.5364 167.911 69.7161H165.911C165.911 63.6409 160.987 58.7161 154.911 58.7161H13.5781C7.50299 58.7161 2.57812 63.6409 2.57812 69.7161H0.578125ZM166.911 210.716H1.57812H166.911ZM0.578125 210.716V69.7161C0.578125 62.5364 6.39842 56.7161 13.5781 56.7161V58.7161C7.50299 58.7161 2.57812 63.6409 2.57812 69.7161V210.716H0.578125ZM154.911 56.7161C162.091 56.7161 167.911 62.5364 167.911 69.7161V210.716H165.911V69.7161C165.911 63.6409 160.987 58.7161 154.911 58.7161V56.7161Z" fill="url(#paint4_linear_297_138)" fill-opacity="0.6" mask="url(#path-24-outside-2_297_138)"/>
</g>
<g filter="url(#filter34_b_297_138)">
<g clip-path="url(#clip1_297_138)">
<mask id="path-46-outside-3_297_138" maskUnits="userSpaceOnUse" x="205.914" y="56.7161" width="168" height="154" fill="black">
<rect fill="white" x="205.914" y="56.7161" width="168" height="154"/>
<path d="M206.914 69.7161C206.914 63.0886 212.287 57.7161 218.914 57.7161H360.247C366.875 57.7161 372.247 63.0886 372.247 69.7161V210.716H206.914V69.7161Z"/>
</mask>
<path d="M206.914 69.7161C206.914 63.0886 212.287 57.7161 218.914 57.7161H360.247C366.875 57.7161 372.247 63.0886 372.247 69.7161V210.716H206.914V69.7161Z" fill="#0C0F19"/>
<g filter="url(#filter35_b_297_138)">
<rect x="226.914" y="79.7161" width="8" height="8" rx="4" fill="#2962FF"/>
</g>
<g filter="url(#filter36_b_297_138)">
<rect x="238.914" y="79.7161" width="32" height="8" rx="4" fill="#2962FF" fill-opacity="0.06"/>
</g>
<g filter="url(#filter37_b_297_138)">
<rect x="340.248" y="77.7161" width="12" height="12" rx="6" fill="#2962FF" fill-opacity="0.12"/>
</g>
<rect x="239.748" y="106.216" width="99.6665" height="99.6665" rx="49.8333" stroke="url(#paint5_linear_297_138)" stroke-opacity="0.24"/>
<rect x="253.895" y="120.363" width="71.3719" height="71.3719" rx="35.6859" stroke="url(#paint6_linear_297_138)" stroke-opacity="0.24"/>
<path fill-rule="evenodd" clip-rule="evenodd" d="M290.023 135.113H289.823C288.1 135.113 286.663 135.113 285.524 135.266C284.32 135.428 283.233 135.784 282.36 136.657C281.486 137.531 281.129 138.618 280.968 139.82C280.859 140.639 280.826 142.593 280.819 144.269C276.942 144.398 274.612 144.85 272.995 146.468C270.748 148.714 270.748 152.33 270.748 159.561C270.748 166.792 270.748 170.408 272.995 172.654C275.243 174.899 278.857 174.901 286.088 174.901H293.758C300.989 174.901 304.605 174.901 306.851 172.654C309.096 170.407 309.098 166.792 309.098 159.561C309.098 152.33 309.098 148.714 306.851 146.468C305.234 144.85 302.905 144.398 299.027 144.271C299.02 142.593 298.989 140.639 298.878 139.822C298.717 138.618 298.36 137.531 297.486 136.659C296.613 135.784 295.526 135.428 294.322 135.266C293.183 135.113 291.745 135.113 290.023 135.113ZM296.151 144.225C296.141 142.601 296.115 140.854 296.028 140.204C295.908 139.32 295.702 138.94 295.453 138.691C295.204 138.442 294.824 138.237 293.938 138.116C293.014 137.993 291.772 137.989 289.923 137.989C288.075 137.989 286.832 137.993 285.906 138.118C285.022 138.237 284.642 138.442 284.393 138.693C284.144 138.944 283.939 139.32 283.818 140.204C283.731 140.856 283.703 142.601 283.695 144.225C284.447 144.221 285.244 144.22 286.088 144.221H293.758C294.604 144.221 295.402 144.222 296.151 144.225ZM289.923 150.453C290.304 150.453 290.67 150.605 290.94 150.874C291.21 151.144 291.361 151.51 291.361 151.891V151.91C293.449 152.436 295.196 154.083 295.196 156.365C295.196 156.746 295.045 157.112 294.775 157.382C294.505 157.651 294.139 157.803 293.758 157.803C293.377 157.803 293.011 157.651 292.741 157.382C292.471 157.112 292.32 156.746 292.32 156.365C292.32 155.628 291.503 154.608 289.923 154.608C288.343 154.608 287.526 155.628 287.526 156.365C287.526 157.101 288.343 158.123 289.923 158.123C292.579 158.123 295.196 159.964 295.196 162.758C295.196 165.039 293.449 166.685 291.361 167.212V167.231C291.361 167.613 291.21 167.978 290.94 168.248C290.67 168.518 290.304 168.669 289.923 168.669C289.542 168.669 289.176 168.518 288.906 168.248C288.636 167.978 288.485 167.613 288.485 167.231V167.212C286.397 166.687 284.65 165.039 284.65 162.758C284.65 162.376 284.801 162.01 285.071 161.741C285.341 161.471 285.707 161.32 286.088 161.32C286.469 161.32 286.835 161.471 287.105 161.741C287.375 162.01 287.526 162.376 287.526 162.758C287.526 163.494 288.343 164.514 289.923 164.514C291.503 164.514 292.32 163.494 292.32 162.758C292.32 162.021 291.503 160.999 289.923 160.999C287.267 160.999 284.65 159.158 284.65 156.365C284.65 154.083 286.397 152.436 288.485 151.91V151.891C288.485 151.51 288.636 151.144 288.906 150.874C289.176 150.605 289.542 150.453 289.923 150.453Z" fill="#2962FF"/>
<g opacity="0.7" filter="url(#filter38_f_297_138)">
<rect x="265.578" y="131.716" width="48" height="48" rx="24" fill="#2962FF"/>
</g>
<path d="M246.61 124.803L244.98 119.533L241.828 120.744L243.458 126.014L238.731 127.831L239.818 131.344L244.545 129.527L246.175 134.797L249.326 133.585L247.696 128.316L252.423 126.499L251.336 122.986L246.61 124.803Z" fill="#11A008"/>
<path d="M333.61 157.68L331.98 152.954L328.828 154.04L330.458 158.767L325.731 160.397L326.818 163.548L331.545 161.918L333.175 166.645L336.326 165.559L334.696 160.832L339.423 159.202L338.336 156.051L333.61 157.68Z" fill="#11A008"/>
<g opacity="0.2" filter="url(#filter39_b_297_138)">
<path d="M245.098 137.132L244.283 134.497L242.707 135.103L243.522 137.738L241.159 138.646L241.702 140.403L244.065 139.494L244.88 142.129L246.456 141.523L245.641 138.888L248.004 137.98L247.461 136.223L245.098 137.132Z" fill="#11A008"/>
</g>
<g opacity="0.2" filter="url(#filter40_b_297_138)">
<path d="M239.536 145.668L239.114 144.306L238.3 144.619L238.721 145.982L237.499 146.451L237.78 147.359L239.002 146.89L239.423 148.252L240.238 147.939L239.817 146.576L241.038 146.107L240.757 145.199L239.536 145.668Z" fill="#11A008"/>
</g>
<g opacity="0.2" filter="url(#filter41_b_297_138)">
<path d="M327.536 175.668L327.114 174.306L326.3 174.619L326.721 175.982L325.499 176.451L325.78 177.359L327.002 176.89L327.423 178.252L328.238 177.939L327.817 176.576L329.038 176.107L328.757 175.199L327.536 175.668Z" fill="#11A008"/>
</g>
<g opacity="0.2" filter="url(#filter42_b_297_138)">
<path d="M243.157 149.736L242.735 148.374L241.921 148.687L242.342 150.049L241.12 150.519L241.401 151.427L242.623 150.957L243.044 152.319L243.859 152.006L243.438 150.644L244.659 150.174L244.379 149.266L243.157 149.736Z" fill="#11A008"/>
</g>
<g opacity="0.2" filter="url(#filter43_b_297_138)">
<path d="M330.157 179.736L329.735 178.374L328.921 178.687L329.342 180.049L328.12 180.519L328.401 181.427L329.623 180.957L330.044 182.319L330.859 182.006L330.438 180.644L331.659 180.174L331.379 179.266L330.157 179.736Z" fill="#11A008"/>
</g>
<g opacity="0.2" filter="url(#filter44_b_297_138)">
<path d="M332.098 168.74L331.283 166.376L329.707 166.92L330.522 169.283L328.159 170.098L328.702 171.674L331.065 170.859L331.88 173.222L333.456 172.679L332.641 170.316L335.004 169.501L334.461 167.925L332.098 168.74Z" fill="#11A008"/>
</g>
<g opacity="0.2" filter="url(#filter45_b_297_138)">
<path d="M250.332 117.805L249.517 115.441L247.942 115.984L248.756 118.348L246.393 119.163L246.936 120.738L249.3 119.923L250.115 122.287L251.69 121.744L250.875 119.38L253.239 118.565L252.696 116.99L250.332 117.805Z" fill="#11A008"/>
</g>
<g opacity="0.2" filter="url(#filter46_b_297_138)">
<path d="M337.332 148.805L336.517 146.441L334.942 146.984L335.756 149.348L333.393 150.163L333.936 151.738L336.3 150.923L337.115 153.287L338.69 152.744L337.875 150.38L340.239 149.565L339.696 147.99L337.332 148.805Z" fill="#11A008"/>
</g>
</g>
<path d="M205.914 69.7161C205.914 62.5364 211.734 56.7161 218.914 56.7161H360.247C367.427 56.7161 373.247 62.5364 373.247 69.7161H371.247C371.247 63.6409 366.323 58.7161 360.247 58.7161H218.914C212.839 58.7161 207.914 63.6409 207.914 69.7161H205.914ZM372.247 210.716H206.914H372.247ZM205.914 210.716V69.7161C205.914 62.5364 211.734 56.7161 218.914 56.7161V58.7161C212.839 58.7161 207.914 63.6409 207.914 69.7161V210.716H205.914ZM360.247 56.7161C367.427 56.7161 373.247 62.5364 373.247 69.7161V210.716H371.247V69.7161C371.247 63.6409 366.323 58.7161 360.247 58.7161V56.7161Z" fill="url(#paint7_linear_297_138)" fill-opacity="0.6" mask="url(#path-46-outside-3_297_138)"/>
</g>
<defs>
<filter id="filter0_b_297_138" x="75.1316" y="17.3562" width="14.2857" height="14.2862" filterUnits="userSpaceOnUse" color-interpolation-filters="sRGB">
<feFlood flood-opacity="0" result="BackgroundImageFix"/>
<feGaussianBlur in="BackgroundImageFix" stdDeviation="1.78578"/>
<feComposite in2="SourceAlpha" operator="in" result="effect1_backgroundBlur_297_138"/>
<feBlend mode="normal" in="SourceGraphic" in2="effect1_backgroundBlur_297_138" result="shape"/>
</filter>
<filter id="filter1_b_297_138" x="85.8464" y="17.3564" width="35.7154" height="14.2862" filterUnits="userSpaceOnUse" color-interpolation-filters="sRGB">
<feFlood flood-opacity="0" result="BackgroundImageFix"/>
<feGaussianBlur in="BackgroundImageFix" stdDeviation="1.78578"/>
<feComposite in2="SourceAlpha" operator="in" result="effect1_backgroundBlur_297_138"/>
<feBlend mode="normal" in="SourceGraphic" in2="effect1_backgroundBlur_297_138" result="shape"/>
</filter>
<filter id="filter2_b_297_138" x="262.639" y="15.5703" width="17.858" height="17.8577" filterUnits="userSpaceOnUse" color-interpolation-filters="sRGB">
<feFlood flood-opacity="0" result="BackgroundImageFix"/>
<feGaussianBlur in="BackgroundImageFix" stdDeviation="1.78578"/>
<feComposite in2="SourceAlpha" operator="in" result="effect1_backgroundBlur_297_138"/>
<feBlend mode="normal" in="SourceGraphic" in2="effect1_backgroundBlur_297_138" result="shape"/>
</filter>
<filter id="filter3_b_297_138" x="75.1316" y="40.5713" width="126.792" height="14.2862" filterUnits="userSpaceOnUse" color-interpolation-filters="sRGB">
<feFlood flood-opacity="0" result="BackgroundImageFix"/>
<feGaussianBlur in="BackgroundImageFix" stdDeviation="1.78578"/>
<feComposite in2="SourceAlpha" operator="in" result="effect1_backgroundBlur_297_138"/>
<feBlend mode="normal" in="SourceGraphic" in2="effect1_backgroundBlur_297_138" result="shape"/>
</filter>
<filter id="filter4_b_297_138" x="75.1316" y="54.8576" width="205.366" height="14.2862" filterUnits="userSpaceOnUse" color-interpolation-filters="sRGB">
<feFlood flood-opacity="0" result="BackgroundImageFix"/>
<feGaussianBlur in="BackgroundImageFix" stdDeviation="1.78578"/>
<feComposite in2="SourceAlpha" operator="in" result="effect1_backgroundBlur_297_138"/>
<feBlend mode="normal" in="SourceGraphic" in2="effect1_backgroundBlur_297_138" result="shape"/>
</filter>
<filter id="filter5_b_297_138" x="75.1316" y="69.1438" width="205.366" height="14.2862" filterUnits="userSpaceOnUse" color-interpolation-filters="sRGB">
<feFlood flood-opacity="0" result="BackgroundImageFix"/>
<feGaussianBlur in="BackgroundImageFix" stdDeviation="1.78578"/>
<feComposite in2="SourceAlpha" operator="in" result="effect1_backgroundBlur_297_138"/>
<feBlend mode="normal" in="SourceGraphic" in2="effect1_backgroundBlur_297_138" result="shape"/>
</filter>
<filter id="filter6_b_297_138" x="75.1316" y="83.4301" width="158.042" height="14.2862" filterUnits="userSpaceOnUse" color-interpolation-filters="sRGB">
<feFlood flood-opacity="0" result="BackgroundImageFix"/>
<feGaussianBlur in="BackgroundImageFix" stdDeviation="1.78578"/>
<feComposite in2="SourceAlpha" operator="in" result="effect1_backgroundBlur_297_138"/>
<feBlend mode="normal" in="SourceGraphic" in2="effect1_backgroundBlur_297_138" result="shape"/>
</filter>
<filter id="filter7_f_297_138" x="250.715" y="140.358" width="4.07682" height="4.07585" filterUnits="userSpaceOnUse" color-interpolation-filters="sRGB">
<feFlood flood-opacity="0" result="BackgroundImageFix"/>
<feBlend mode="normal" in="SourceGraphic" in2="BackgroundImageFix" result="shape"/>
<feGaussianBlur stdDeviation="0.597331" result="effect1_foregroundBlur_297_138"/>
</filter>
<filter id="filter8_f_297_138" x="254.331" y="113.816" width="4.07682" height="4.07585" filterUnits="userSpaceOnUse" color-interpolation-filters="sRGB">
<feFlood flood-opacity="0" result="BackgroundImageFix"/>
<feBlend mode="normal" in="SourceGraphic" in2="BackgroundImageFix" result="shape"/>
<feGaussianBlur stdDeviation="0.597331" result="effect1_foregroundBlur_297_138"/>
</filter>
<filter id="filter9_f_297_138" x="259.057" y="104.357" width="3.92448" height="3.92546" filterUnits="userSpaceOnUse" color-interpolation-filters="sRGB">
<feFlood flood-opacity="0" result="BackgroundImageFix"/>
<feBlend mode="normal" in="SourceGraphic" in2="BackgroundImageFix" result="shape"/>
<feGaussianBlur stdDeviation="0.597331" result="effect1_foregroundBlur_297_138"/>
</filter>
<filter id="filter10_f_297_138" x="222.356" y="117.254" width="3.82682" height="3.8278" filterUnits="userSpaceOnUse" color-interpolation-filters="sRGB">
<feFlood flood-opacity="0" result="BackgroundImageFix"/>
<feBlend mode="normal" in="SourceGraphic" in2="BackgroundImageFix" result="shape"/>
<feGaussianBlur stdDeviation="0.597331" result="effect1_foregroundBlur_297_138"/>
</filter>
<filter id="filter11_f_297_138" x="234.669" y="134.267" width="4.07682" height="4.07585" filterUnits="userSpaceOnUse" color-interpolation-filters="sRGB">
<feFlood flood-opacity="0" result="BackgroundImageFix"/>
<feBlend mode="normal" in="SourceGraphic" in2="BackgroundImageFix" result="shape"/>
<feGaussianBlur stdDeviation="0.597331" result="effect1_foregroundBlur_297_138"/>
</filter>
<filter id="filter12_f_297_138" x="237.077" y="116.572" width="4.07682" height="4.07585" filterUnits="userSpaceOnUse" color-interpolation-filters="sRGB">
<feFlood flood-opacity="0" result="BackgroundImageFix"/>
<feBlend mode="normal" in="SourceGraphic" in2="BackgroundImageFix" result="shape"/>
<feGaussianBlur stdDeviation="0.597331" result="effect1_foregroundBlur_297_138"/>
</filter>
<filter id="filter13_f_297_138" x="240.149" y="93.5048" width="3.92448" height="3.92546" filterUnits="userSpaceOnUse" color-interpolation-filters="sRGB">
<feFlood flood-opacity="0" result="BackgroundImageFix"/>
<feBlend mode="normal" in="SourceGraphic" in2="BackgroundImageFix" result="shape"/>
<feGaussianBlur stdDeviation="0.597331" result="effect1_foregroundBlur_297_138"/>
</filter>
<filter id="filter14_f_297_138" x="223.801" y="95.8224" width="3.82682" height="3.8278" filterUnits="userSpaceOnUse" color-interpolation-filters="sRGB">
<feFlood flood-opacity="0" result="BackgroundImageFix"/>
<feBlend mode="normal" in="SourceGraphic" in2="BackgroundImageFix" result="shape"/>
<feGaussianBlur stdDeviation="0.597331" result="effect1_foregroundBlur_297_138"/>
</filter>
<filter id="filter15_f_297_138" x="233.702" y="102.525" width="3.82682" height="3.8278" filterUnits="userSpaceOnUse" color-interpolation-filters="sRGB">
<feFlood flood-opacity="0" result="BackgroundImageFix"/>
<feBlend mode="normal" in="SourceGraphic" in2="BackgroundImageFix" result="shape"/>
<feGaussianBlur stdDeviation="0.597331" result="effect1_foregroundBlur_297_138"/>
</filter>
<filter id="filter16_f_297_138" x="214.641" y="123.36" width="3.82682" height="3.8278" filterUnits="userSpaceOnUse" color-interpolation-filters="sRGB">
<feFlood flood-opacity="0" result="BackgroundImageFix"/>
<feBlend mode="normal" in="SourceGraphic" in2="BackgroundImageFix" result="shape"/>
<feGaussianBlur stdDeviation="0.597331" result="effect1_foregroundBlur_297_138"/>
</filter>
<filter id="filter17_f_297_138" x="225.743" y="121.266" width="3.82682" height="3.8278" filterUnits="userSpaceOnUse" color-interpolation-filters="sRGB">
<feFlood flood-opacity="0" result="BackgroundImageFix"/>
<feBlend mode="normal" in="SourceGraphic" in2="BackgroundImageFix" result="shape"/>
<feGaussianBlur stdDeviation="0.597331" result="effect1_foregroundBlur_297_138"/>
</filter>
<filter id="filter18_f_297_138" x="245.688" y="120.377" width="3.82682" height="3.8278" filterUnits="userSpaceOnUse" color-interpolation-filters="sRGB">
<feFlood flood-opacity="0" result="BackgroundImageFix"/>
<feBlend mode="normal" in="SourceGraphic" in2="BackgroundImageFix" result="shape"/>
<feGaussianBlur stdDeviation="0.597331" result="effect1_foregroundBlur_297_138"/>
</filter>
<filter id="filter19_f_297_138" x="245.53" y="134.774" width="3.82682" height="3.8278" filterUnits="userSpaceOnUse" color-interpolation-filters="sRGB">
<feFlood flood-opacity="0" result="BackgroundImageFix"/>
<feBlend mode="normal" in="SourceGraphic" in2="BackgroundImageFix" result="shape"/>
<feGaussianBlur stdDeviation="0.597331" result="effect1_foregroundBlur_297_138"/>
</filter>
<filter id="filter20_f_297_138" x="241.501" y="98.1806" width="3.82682" height="3.8278" filterUnits="userSpaceOnUse" color-interpolation-filters="sRGB">
<feFlood flood-opacity="0" result="BackgroundImageFix"/>
<feBlend mode="normal" in="SourceGraphic" in2="BackgroundImageFix" result="shape"/>
<feGaussianBlur stdDeviation="0.597331" result="effect1_foregroundBlur_297_138"/>
</filter>
<filter id="filter21_b_297_138" x="-23.4219" y="32.7161" width="215.334" height="202" filterUnits="userSpaceOnUse" color-interpolation-filters="sRGB">
<feFlood flood-opacity="0" result="BackgroundImageFix"/>
<feGaussianBlur in="BackgroundImageFix" stdDeviation="12"/>
<feComposite in2="SourceAlpha" operator="in" result="effect1_backgroundBlur_297_138"/>
<feBlend mode="normal" in="SourceGraphic" in2="effect1_backgroundBlur_297_138" result="shape"/>
</filter>
<filter id="filter22_b_297_138" x="17.5781" y="75.7161" width="16" height="16" filterUnits="userSpaceOnUse" color-interpolation-filters="sRGB">
<feFlood flood-opacity="0" result="BackgroundImageFix"/>
<feGaussianBlur in="BackgroundImageFix" stdDeviation="2"/>
<feComposite in2="SourceAlpha" operator="in" result="effect1_backgroundBlur_297_138"/>
<feBlend mode="normal" in="SourceGraphic" in2="effect1_backgroundBlur_297_138" result="shape"/>
</filter>
<filter id="filter23_b_297_138" x="29.5781" y="75.7161" width="40" height="16" filterUnits="userSpaceOnUse" color-interpolation-filters="sRGB">
<feFlood flood-opacity="0" result="BackgroundImageFix"/>
<feGaussianBlur in="BackgroundImageFix" stdDeviation="2"/>
<feComposite in2="SourceAlpha" operator="in" result="effect1_backgroundBlur_297_138"/>
<feBlend mode="normal" in="SourceGraphic" in2="effect1_backgroundBlur_297_138" result="shape"/>
</filter>
<filter id="filter24_b_297_138" x="130.912" y="73.7161" width="20" height="20" filterUnits="userSpaceOnUse" color-interpolation-filters="sRGB">
<feFlood flood-opacity="0" result="BackgroundImageFix"/>
<feGaussianBlur in="BackgroundImageFix" stdDeviation="2"/>
<feComposite in2="SourceAlpha" operator="in" result="effect1_backgroundBlur_297_138"/>
<feBlend mode="normal" in="SourceGraphic" in2="effect1_backgroundBlur_297_138" result="shape"/>
</filter>
<filter id="filter25_f_297_138" x="-19.4219" y="51.7158" width="208" height="208" filterUnits="userSpaceOnUse" color-interpolation-filters="sRGB">
<feFlood flood-opacity="0" result="BackgroundImageFix"/>
<feBlend mode="normal" in="SourceGraphic" in2="BackgroundImageFix" result="shape"/>
<feGaussianBlur stdDeviation="40" result="effect1_foregroundBlur_297_138"/>
</filter>
<filter id="filter26_b_297_138" x="-24.1777" y="74.4971" width="126.846" height="127.632" filterUnits="userSpaceOnUse" color-interpolation-filters="sRGB">
<feFlood flood-opacity="0" result="BackgroundImageFix"/>
<feGaussianBlur in="BackgroundImageFix" stdDeviation="30"/>
<feComposite in2="SourceAlpha" operator="in" result="effect1_backgroundBlur_297_138"/>
<feBlend mode="normal" in="SourceGraphic" in2="effect1_backgroundBlur_297_138" result="shape"/>
</filter>
<filter id="filter27_b_297_138" x="1.14758" y="113.29" width="65.572" height="65.978" filterUnits="userSpaceOnUse" color-interpolation-filters="sRGB">
<feFlood flood-opacity="0" result="BackgroundImageFix"/>
<feGaussianBlur in="BackgroundImageFix" stdDeviation="15.5082"/>
<feComposite in2="SourceAlpha" operator="in" result="effect1_backgroundBlur_297_138"/>
<feBlend mode="normal" in="SourceGraphic" in2="effect1_backgroundBlur_297_138" result="shape"/>
</filter>
<filter id="filter28_b_297_138" x="89.1476" y="143.29" width="65.572" height="65.978" filterUnits="userSpaceOnUse" color-interpolation-filters="sRGB">
<feFlood flood-opacity="0" result="BackgroundImageFix"/>
<feGaussianBlur in="BackgroundImageFix" stdDeviation="15.5082"/>
<feComposite in2="SourceAlpha" operator="in" result="effect1_backgroundBlur_297_138"/>
<feBlend mode="normal" in="SourceGraphic" in2="effect1_backgroundBlur_297_138" result="shape"/>
</filter>
<filter id="filter29_b_297_138" x="4.76867" y="117.358" width="65.572" height="65.978" filterUnits="userSpaceOnUse" color-interpolation-filters="sRGB">
<feFlood flood-opacity="0" result="BackgroundImageFix"/>
<feGaussianBlur in="BackgroundImageFix" stdDeviation="15.5082"/>
<feComposite in2="SourceAlpha" operator="in" result="effect1_backgroundBlur_297_138"/>
<feBlend mode="normal" in="SourceGraphic" in2="effect1_backgroundBlur_297_138" result="shape"/>
</filter>
<filter id="filter30_b_297_138" x="91.7687" y="147.358" width="65.572" height="65.978" filterUnits="userSpaceOnUse" color-interpolation-filters="sRGB">
<feFlood flood-opacity="0" result="BackgroundImageFix"/>
<feGaussianBlur in="BackgroundImageFix" stdDeviation="15.5082"/>
<feComposite in2="SourceAlpha" operator="in" result="effect1_backgroundBlur_297_138"/>
<feBlend mode="normal" in="SourceGraphic" in2="effect1_backgroundBlur_297_138" result="shape"/>
</filter>
<filter id="filter31_b_297_138" x="62.8223" y="106.376" width="126.846" height="126.846" filterUnits="userSpaceOnUse" color-interpolation-filters="sRGB">
<feFlood flood-opacity="0" result="BackgroundImageFix"/>
<feGaussianBlur in="BackgroundImageFix" stdDeviation="30"/>
<feComposite in2="SourceAlpha" operator="in" result="effect1_backgroundBlur_297_138"/>
<feBlend mode="normal" in="SourceGraphic" in2="effect1_backgroundBlur_297_138" result="shape"/>
</filter>
<filter id="filter32_b_297_138" x="-18.9434" y="55.4412" width="126.846" height="126.846" filterUnits="userSpaceOnUse" color-interpolation-filters="sRGB">
<feFlood flood-opacity="0" result="BackgroundImageFix"/>
<feGaussianBlur in="BackgroundImageFix" stdDeviation="30"/>
<feComposite in2="SourceAlpha" operator="in" result="effect1_backgroundBlur_297_138"/>
<feBlend mode="normal" in="SourceGraphic" in2="effect1_backgroundBlur_297_138" result="shape"/>
</filter>
<filter id="filter33_b_297_138" x="68.0566" y="86.4412" width="126.846" height="126.846" filterUnits="userSpaceOnUse" color-interpolation-filters="sRGB">
<feFlood flood-opacity="0" result="BackgroundImageFix"/>
<feGaussianBlur in="BackgroundImageFix" stdDeviation="30"/>
<feComposite in2="SourceAlpha" operator="in" result="effect1_backgroundBlur_297_138"/>
<feBlend mode="normal" in="SourceGraphic" in2="effect1_backgroundBlur_297_138" result="shape"/>
</filter>
<filter id="filter34_b_297_138" x="181.914" y="32.7161" width="215.334" height="202" filterUnits="userSpaceOnUse" color-interpolation-filters="sRGB">
<feFlood flood-opacity="0" result="BackgroundImageFix"/>
<feGaussianBlur in="BackgroundImageFix" stdDeviation="12"/>
<feComposite in2="SourceAlpha" operator="in" result="effect1_backgroundBlur_297_138"/>
<feBlend mode="normal" in="SourceGraphic" in2="effect1_backgroundBlur_297_138" result="shape"/>
</filter>
<filter id="filter35_b_297_138" x="222.914" y="75.7161" width="16" height="16" filterUnits="userSpaceOnUse" color-interpolation-filters="sRGB">
<feFlood flood-opacity="0" result="BackgroundImageFix"/>
<feGaussianBlur in="BackgroundImageFix" stdDeviation="2"/>
<feComposite in2="SourceAlpha" operator="in" result="effect1_backgroundBlur_297_138"/>
<feBlend mode="normal" in="SourceGraphic" in2="effect1_backgroundBlur_297_138" result="shape"/>
</filter>
<filter id="filter36_b_297_138" x="234.914" y="75.7161" width="40" height="16" filterUnits="userSpaceOnUse" color-interpolation-filters="sRGB">
<feFlood flood-opacity="0" result="BackgroundImageFix"/>
<feGaussianBlur in="BackgroundImageFix" stdDeviation="2"/>
<feComposite in2="SourceAlpha" operator="in" result="effect1_backgroundBlur_297_138"/>
<feBlend mode="normal" in="SourceGraphic" in2="effect1_backgroundBlur_297_138" result="shape"/>
</filter>
<filter id="filter37_b_297_138" x="336.248" y="73.7161" width="20" height="20" filterUnits="userSpaceOnUse" color-interpolation-filters="sRGB">
<feFlood flood-opacity="0" result="BackgroundImageFix"/>
<feGaussianBlur in="BackgroundImageFix" stdDeviation="2"/>
<feComposite in2="SourceAlpha" operator="in" result="effect1_backgroundBlur_297_138"/>
<feBlend mode="normal" in="SourceGraphic" in2="effect1_backgroundBlur_297_138" result="shape"/>
</filter>
<filter id="filter38_f_297_138" x="185.578" y="51.7158" width="208" height="208" filterUnits="userSpaceOnUse" color-interpolation-filters="sRGB">
<feFlood flood-opacity="0" result="BackgroundImageFix"/>
<feBlend mode="normal" in="SourceGraphic" in2="BackgroundImageFix" result="shape"/>
<feGaussianBlur stdDeviation="40" result="effect1_foregroundBlur_297_138"/>
</filter>
<filter id="filter39_b_297_138" x="181.158" y="74.4971" width="126.846" height="127.632" filterUnits="userSpaceOnUse" color-interpolation-filters="sRGB">
<feFlood flood-opacity="0" result="BackgroundImageFix"/>
<feGaussianBlur in="BackgroundImageFix" stdDeviation="30"/>
<feComposite in2="SourceAlpha" operator="in" result="effect1_backgroundBlur_297_138"/>
<feBlend mode="normal" in="SourceGraphic" in2="effect1_backgroundBlur_297_138" result="shape"/>
</filter>
<filter id="filter40_b_297_138" x="206.484" y="113.29" width="65.572" height="65.978" filterUnits="userSpaceOnUse" color-interpolation-filters="sRGB">
<feFlood flood-opacity="0" result="BackgroundImageFix"/>
<feGaussianBlur in="BackgroundImageFix" stdDeviation="15.5082"/>
<feComposite in2="SourceAlpha" operator="in" result="effect1_backgroundBlur_297_138"/>
<feBlend mode="normal" in="SourceGraphic" in2="effect1_backgroundBlur_297_138" result="shape"/>
</filter>
<filter id="filter41_b_297_138" x="294.484" y="143.29" width="65.572" height="65.978" filterUnits="userSpaceOnUse" color-interpolation-filters="sRGB">
<feFlood flood-opacity="0" result="BackgroundImageFix"/>
<feGaussianBlur in="BackgroundImageFix" stdDeviation="15.5082"/>
<feComposite in2="SourceAlpha" operator="in" result="effect1_backgroundBlur_297_138"/>
<feBlend mode="normal" in="SourceGraphic" in2="effect1_backgroundBlur_297_138" result="shape"/>
</filter>
<filter id="filter42_b_297_138" x="210.105" y="117.358" width="65.572" height="65.978" filterUnits="userSpaceOnUse" color-interpolation-filters="sRGB">
<feFlood flood-opacity="0" result="BackgroundImageFix"/>
<feGaussianBlur in="BackgroundImageFix" stdDeviation="15.5082"/>
<feComposite in2="SourceAlpha" operator="in" result="effect1_backgroundBlur_297_138"/>
<feBlend mode="normal" in="SourceGraphic" in2="effect1_backgroundBlur_297_138" result="shape"/>
</filter>
<filter id="filter43_b_297_138" x="297.105" y="147.358" width="65.572" height="65.978" filterUnits="userSpaceOnUse" color-interpolation-filters="sRGB">
<feFlood flood-opacity="0" result="BackgroundImageFix"/>
<feGaussianBlur in="BackgroundImageFix" stdDeviation="15.5082"/>
<feComposite in2="SourceAlpha" operator="in" result="effect1_backgroundBlur_297_138"/>
<feBlend mode="normal" in="SourceGraphic" in2="effect1_backgroundBlur_297_138" result="shape"/>
</filter>
<filter id="filter44_b_297_138" x="268.158" y="106.376" width="126.846" height="126.846" filterUnits="userSpaceOnUse" color-interpolation-filters="sRGB">
<feFlood flood-opacity="0" result="BackgroundImageFix"/>
<feGaussianBlur in="BackgroundImageFix" stdDeviation="30"/>
<feComposite in2="SourceAlpha" operator="in" result="effect1_backgroundBlur_297_138"/>
<feBlend mode="normal" in="SourceGraphic" in2="effect1_backgroundBlur_297_138" result="shape"/>
</filter>
<filter id="filter45_b_297_138" x="186.393" y="55.4412" width="126.846" height="126.846" filterUnits="userSpaceOnUse" color-interpolation-filters="sRGB">
<feFlood flood-opacity="0" result="BackgroundImageFix"/>
<feGaussianBlur in="BackgroundImageFix" stdDeviation="30"/>
<feComposite in2="SourceAlpha" operator="in" result="effect1_backgroundBlur_297_138"/>
<feBlend mode="normal" in="SourceGraphic" in2="effect1_backgroundBlur_297_138" result="shape"/>
</filter>
<filter id="filter46_b_297_138" x="273.393" y="86.4412" width="126.846" height="126.846" filterUnits="userSpaceOnUse" color-interpolation-filters="sRGB">
<feFlood flood-opacity="0" result="BackgroundImageFix"/>
<feGaussianBlur in="BackgroundImageFix" stdDeviation="30"/>
<feComposite in2="SourceAlpha" operator="in" result="effect1_backgroundBlur_297_138"/>
<feBlend mode="normal" in="SourceGraphic" in2="effect1_backgroundBlur_297_138" result="shape"/>
</filter>
<linearGradient id="paint0_linear_297_138" x1="177.815" y1="1.28394" x2="177.815" y2="167.362" gradientUnits="userSpaceOnUse">
<stop stop-color="#2962FF"/>
<stop offset="1" stop-color="#2962FF" stop-opacity="0"/>
</linearGradient>
<linearGradient id="paint1_linear_297_138" x1="177.815" y1="1.28394" x2="177.815" y2="167.362" gradientUnits="userSpaceOnUse">
<stop stop-color="#2962FF"/>
<stop offset="1" stop-color="#2962FF" stop-opacity="0"/>
</linearGradient>
<linearGradient id="paint2_linear_297_138" x1="84.2454" y1="105.716" x2="84.2454" y2="206.383" gradientUnits="userSpaceOnUse">
<stop stop-color="white"/>
<stop offset="0.803769" stop-color="white" stop-opacity="0"/>
</linearGradient>
<linearGradient id="paint3_linear_297_138" x1="84.2445" y1="120.863" x2="84.2445" y2="191.235" gradientUnits="userSpaceOnUse">
<stop stop-color="white"/>
<stop offset="0.803769" stop-color="white" stop-opacity="0"/>
</linearGradient>
<linearGradient id="paint4_linear_297_138" x1="165.344" y1="61.1361" x2="75.9837" y2="258.297" gradientUnits="userSpaceOnUse">
<stop offset="0.0360406" stop-color="#2D7AFE"/>
<stop offset="0.695599" stop-color="#2D7AFE" stop-opacity="0"/>
</linearGradient>
<linearGradient id="paint5_linear_297_138" x1="289.581" y1="105.716" x2="289.581" y2="206.383" gradientUnits="userSpaceOnUse">
<stop stop-color="white"/>
<stop offset="0.803769" stop-color="white" stop-opacity="0"/>
</linearGradient>
<linearGradient id="paint6_linear_297_138" x1="289.58" y1="120.863" x2="289.58" y2="191.235" gradientUnits="userSpaceOnUse">
<stop stop-color="white"/>
<stop offset="0.803769" stop-color="white" stop-opacity="0"/>
</linearGradient>
<linearGradient id="paint7_linear_297_138" x1="370.68" y1="61.1361" x2="281.32" y2="258.297" gradientUnits="userSpaceOnUse">
<stop offset="0.0360406" stop-color="#2D7AFE"/>
<stop offset="0.695599" stop-color="#2D7AFE" stop-opacity="0"/>
</linearGradient>
<clipPath id="clip0_297_138">
<path d="M1.57812 69.7161C1.57812 63.0886 6.95071 57.7161 13.5781 57.7161H154.911C161.539 57.7161 166.911 63.0886 166.911 69.7161V210.716H1.57812V69.7161Z" fill="white"/>
</clipPath>
<clipPath id="clip1_297_138">
<path d="M206.914 69.7161C206.914 63.0886 212.287 57.7161 218.914 57.7161H360.247C366.875 57.7161 372.247 63.0886 372.247 69.7161V210.716H206.914V69.7161Z" fill="white"/>
</clipPath>
</defs>
</svg>
