<svg width="590" height="431" viewBox="0 0 590 431" fill="none" xmlns="http://www.w3.org/2000/svg">
<g clip-path="url(#clip0_282_770)">
<rect width="56.0582" height="56.034" rx="28.017" transform="matrix(0.558656 -0.8294 0.828675 0.55973 34.4922 379.852)" fill="#2962FF"/>
<g clip-path="url(#clip1_282_770)">
<path d="M65.1178 370.821C63.8156 369.1 65.3404 366.726 67.3919 367.113L67.5857 367.16L70.3933 367.92C71.0371 368.094 71.7107 368.129 72.3687 368.02C73.0267 367.912 73.6537 367.664 74.2076 367.292L74.4273 367.135L76.7447 365.378C78.4635 364.075 80.8357 365.602 80.4503 367.655L80.404 367.849L79.6461 370.66C79.4719 371.304 79.4378 371.979 79.5462 372.638C79.6546 373.297 79.9029 373.925 80.2744 374.48L80.4304 374.699L82.1877 377.021C83.4898 378.743 81.9651 381.117 79.9152 380.729L79.7201 380.685L76.9132 379.923C76.2693 379.749 75.5955 379.714 74.9373 379.822C74.2792 379.931 73.6519 380.179 73.0979 380.551L72.8788 380.707L70.5614 382.464C68.842 383.768 66.4698 382.24 66.8568 380.187L66.9011 379.992L67.6601 377.182C67.834 376.537 67.8679 375.863 67.7594 375.204C67.6509 374.545 67.4025 373.917 67.0311 373.363L66.875 373.143L65.1178 370.821ZM68.2322 358.997C68.3541 358.816 68.5244 358.673 68.7235 358.584C68.9227 358.495 69.1428 358.464 69.3589 358.494L69.5033 358.524L70.7233 358.855L71.7311 358.09C71.9148 357.95 72.136 357.868 72.3664 357.854C72.5969 357.84 72.8263 357.895 73.0255 358.012C73.2248 358.129 73.385 358.302 73.4858 358.51C73.5866 358.718 73.6234 358.952 73.5917 359.18L73.5612 359.326L73.2309 360.547L73.9956 361.557C74.1352 361.741 74.2171 361.962 74.2309 362.193C74.2447 362.424 74.1898 362.653 74.0732 362.853C73.9565 363.052 73.7833 363.212 73.5756 363.313C73.3678 363.414 73.1349 363.45 72.9062 363.418L72.7618 363.388L71.5418 363.057L70.5341 363.822C70.3503 363.962 70.1292 364.044 69.8987 364.058C69.6683 364.072 69.4389 364.017 69.2396 363.9C69.0403 363.783 68.8801 363.61 68.7793 363.402C68.6785 363.194 68.6417 362.961 68.6734 362.732L68.7039 362.586L69.0343 361.365L68.2695 360.355C68.1224 360.161 68.0398 359.926 68.0331 359.682C68.0264 359.439 68.096 359.199 68.2322 358.997Z" fill="white"/>
</g>
</g>
<rect x="437.463" y="331.941" width="48.0119" height="48.0672" rx="24.0059" transform="rotate(-180 437.463 331.941)" fill="#2962FF"/>
<path d="M416.357 314.494C415.759 316.244 413.341 316.297 412.632 314.653L412.572 314.493L411.765 312.133C411.58 311.592 411.281 311.096 410.888 310.68C410.496 310.264 410.018 309.938 409.489 309.722L409.272 309.641L406.912 308.835C405.162 308.237 405.109 305.819 406.752 305.11L406.912 305.05L409.272 304.243C409.813 304.058 410.309 303.759 410.725 303.367C411.141 302.974 411.468 302.497 411.684 301.967L411.765 301.751L412.571 299.39C413.169 297.64 415.587 297.587 416.295 299.23L416.357 299.39L417.163 301.75C417.348 302.291 417.646 302.787 418.039 303.203C418.432 303.619 418.909 303.946 419.439 304.162L419.655 304.243L422.015 305.049C423.766 305.647 423.819 308.065 422.175 308.773L422.015 308.835L419.655 309.641C419.114 309.826 418.618 310.125 418.202 310.517C417.786 310.91 417.46 311.387 417.244 311.917L417.163 312.133L416.357 314.494ZM406.464 317.942C406.277 317.942 406.093 317.889 405.935 317.79C405.776 317.691 405.648 317.55 405.566 317.382L405.518 317.265L405.168 316.239L404.141 315.889C403.953 315.825 403.789 315.707 403.669 315.55C403.548 315.393 403.477 315.203 403.464 315.006C403.452 314.808 403.498 314.611 403.598 314.44C403.697 314.269 403.845 314.131 404.023 314.044L404.141 313.996L405.167 313.646L405.517 312.619C405.581 312.431 405.699 312.267 405.856 312.147C406.013 312.026 406.203 311.956 406.4 311.943C406.598 311.931 406.795 311.977 406.966 312.076C407.137 312.176 407.275 312.324 407.362 312.502L407.41 312.619L407.76 313.645L408.787 313.995C408.974 314.058 409.139 314.176 409.259 314.334C409.379 314.491 409.45 314.68 409.463 314.878C409.476 315.075 409.429 315.272 409.33 315.444C409.231 315.615 409.083 315.753 408.905 315.84L408.787 315.888L407.761 316.238L407.411 317.265C407.343 317.462 407.216 317.634 407.046 317.755C406.876 317.877 406.673 317.942 406.464 317.942Z" fill="white"/>
<rect x="491.477" y="20.2156" width="64.0158" height="64.0895" rx="32.0079" fill="#2962FF"/>
<path d="M519.619 43.4795C520.417 41.1462 523.641 41.0755 524.586 43.2675L524.666 43.4809L525.742 46.6275C525.989 47.3492 526.387 48.0095 526.911 48.5641C527.434 49.1187 528.07 49.5545 528.777 49.8422L529.066 49.9502L532.213 51.0249C534.546 51.8222 534.617 55.0462 532.426 55.9915L532.213 56.0715L529.066 57.1475C528.344 57.394 527.684 57.7924 527.129 58.3159C526.574 58.8394 526.138 59.4758 525.85 60.1822L525.742 60.4702L524.667 63.6182C523.87 65.9515 520.646 66.0222 519.702 63.8315L519.619 63.6182L518.545 60.4715C518.298 59.7496 517.9 59.089 517.376 58.5342C516.853 57.9794 516.216 57.5434 515.51 57.2555L515.222 57.1475L512.075 56.0729C509.741 55.2755 509.67 52.0515 511.862 51.1075L512.075 51.0249L515.222 49.9502C515.944 49.7036 516.604 49.3051 517.159 48.7816C517.713 48.2581 518.149 47.6218 518.437 46.9155L518.545 46.6275L519.619 43.4795ZM532.81 38.8822C533.059 38.8822 533.304 38.9522 533.516 39.0842C533.727 39.2162 533.898 39.4049 534.007 39.6289L534.071 39.7849L534.538 41.1529L535.907 41.6195C536.157 41.7045 536.376 41.8617 536.537 42.0713C536.698 42.2809 536.792 42.5334 536.809 42.7969C536.826 43.0604 536.764 43.3229 536.632 43.5513C536.499 43.7796 536.302 43.9635 536.065 44.0795L535.907 44.1435L534.539 44.6102L534.073 45.9795C533.988 46.2294 533.83 46.4485 533.621 46.6089C533.411 46.7693 533.158 46.8638 532.895 46.8805C532.631 46.8972 532.369 46.8353 532.141 46.7027C531.912 46.5701 531.729 46.3727 531.613 46.1355L531.549 45.9795L531.082 44.6115L529.713 44.1449C529.463 44.0599 529.244 43.9027 529.083 43.6931C528.923 43.4835 528.828 43.231 528.811 42.9675C528.794 42.704 528.856 42.4415 528.988 42.2132C529.121 41.9848 529.318 41.8009 529.555 41.6849L529.713 41.6209L531.081 41.1542L531.547 39.7849C531.637 39.5214 531.807 39.2927 532.034 39.1309C532.26 38.969 532.532 38.882 532.81 38.8822Z" fill="white"/>
<g clip-path="url(#clip2_282_770)">
<rect width="40.0289" height="40.0369" rx="20.0145" transform="matrix(0.76568 -0.643222 0.642353 0.766409 95.2031 203.024)" fill="#2962FF"/>
<g clip-path="url(#clip3_282_770)">
<path d="M118.01 202.854C117.454 201.416 118.969 200.086 120.301 200.756L120.425 200.826L122.203 201.9C122.611 202.147 123.067 202.303 123.54 202.358C124.013 202.413 124.493 202.366 124.946 202.22L125.128 202.156L127.065 201.405C128.502 200.849 129.83 202.365 129.161 203.699L129.091 203.823L128.018 205.603C127.771 206.012 127.615 206.468 127.559 206.942C127.504 207.416 127.551 207.896 127.697 208.35L127.761 208.531L128.51 210.471C129.066 211.909 127.551 213.239 126.22 212.569L126.095 212.5L124.317 211.425C123.909 211.178 123.453 211.022 122.98 210.967C122.507 210.912 122.027 210.959 121.574 211.105L121.392 211.169L119.455 211.919C118.018 212.476 116.69 210.96 117.36 209.626L117.429 209.501L118.503 207.721C118.749 207.313 118.905 206.857 118.961 206.383C119.016 205.909 118.969 205.429 118.823 204.975L118.759 204.794L118.01 202.854ZM122.476 195.349C122.596 195.249 122.741 195.184 122.895 195.162C123.049 195.14 123.207 195.162 123.349 195.225L123.442 195.274L124.215 195.742L125.057 195.415C125.211 195.355 125.379 195.342 125.54 195.378C125.701 195.414 125.848 195.497 125.962 195.616C126.075 195.736 126.151 195.886 126.18 196.049C126.208 196.212 126.187 196.379 126.12 196.53L126.071 196.624L125.603 197.397L125.93 198.241C125.989 198.395 126.002 198.563 125.966 198.724C125.93 198.885 125.847 199.032 125.728 199.146C125.609 199.26 125.458 199.336 125.296 199.364C125.133 199.392 124.966 199.372 124.815 199.305L124.722 199.256L123.949 198.788L123.107 199.115C122.953 199.175 122.785 199.188 122.624 199.152C122.463 199.116 122.316 199.033 122.203 198.913C122.089 198.794 122.013 198.643 121.985 198.481C121.956 198.318 121.977 198.151 122.044 198L122.093 197.906L122.561 197.132L122.234 196.289C122.172 196.127 122.161 195.949 122.205 195.78C122.248 195.612 122.343 195.461 122.476 195.349Z" fill="white"/>
</g>
</g>
<rect width="32.0183" height="32.0344" rx="16.0091" transform="matrix(0.847774 -0.530358 0.529481 0.848322 301.383 169.577)" fill="#2962FF"/>
<g clip-path="url(#clip4_282_770)">
<path d="M319.47 171.982C319.19 170.78 320.538 169.896 321.519 170.575L321.609 170.644L322.899 171.693C323.194 171.934 323.538 172.108 323.907 172.205C324.275 172.301 324.661 172.317 325.036 172.252L325.187 172.221L326.806 171.843C328.006 171.562 328.889 172.911 328.211 173.893L328.142 173.983L327.093 175.274C326.852 175.57 326.677 175.914 326.581 176.283C326.484 176.652 326.468 177.038 326.533 177.414L326.563 177.565L326.941 179.185C327.221 180.386 325.873 181.271 324.893 180.592L324.801 180.524L323.513 179.474C323.217 179.233 322.874 179.059 322.505 178.962C322.136 178.866 321.751 178.849 321.375 178.915L321.224 178.945L319.606 179.324C318.405 179.605 317.522 178.256 318.201 177.274L318.27 177.183L319.319 175.892C319.56 175.596 319.734 175.252 319.831 174.883C319.927 174.514 319.943 174.129 319.878 173.753L319.848 173.602L319.47 171.982ZM323.844 166.534C323.95 166.468 324.072 166.432 324.197 166.432C324.321 166.432 324.444 166.467 324.549 166.533L324.618 166.582L325.178 167.039L325.882 166.873C326.01 166.843 326.145 166.852 326.268 166.898C326.392 166.944 326.499 167.026 326.576 167.134C326.653 167.241 326.696 167.369 326.7 167.501C326.704 167.633 326.67 167.763 326.6 167.875L326.55 167.944L326.094 168.505L326.258 169.209C326.288 169.338 326.28 169.472 326.233 169.596C326.187 169.72 326.105 169.827 325.998 169.904C325.89 169.981 325.763 170.024 325.631 170.028C325.499 170.033 325.369 169.998 325.257 169.928L325.188 169.879L324.628 169.422L323.924 169.587C323.796 169.618 323.662 169.609 323.538 169.563C323.414 169.516 323.307 169.434 323.231 169.327C323.154 169.22 323.11 169.092 323.106 168.96C323.102 168.828 323.137 168.698 323.207 168.586L323.256 168.517L323.713 167.956L323.548 167.251C323.516 167.116 323.528 166.974 323.581 166.845C323.634 166.716 323.726 166.607 323.844 166.534Z" fill="white"/>
</g>
<rect x="79.375" y="59.5605" width="24.0336" height="24.0059" rx="12.003" transform="rotate(-90 79.375 59.5605)" fill="#2962FF"/>
<path d="M88.098 49.0077C87.223 48.7087 87.1965 47.4997 88.0185 47.1452L88.0985 47.1152L89.2785 46.7117C89.5491 46.6193 89.7968 46.4698 90.0047 46.2735C90.2127 46.0772 90.3761 45.8386 90.484 45.5737L90.5245 45.4652L90.9275 44.2852C91.2265 43.4102 92.4355 43.3837 92.79 44.2052L92.82 44.2852L93.2235 45.4652C93.3159 45.7359 93.4653 45.9837 93.6617 46.1917C93.858 46.3998 94.0966 46.5633 94.3615 46.6712L94.4695 46.7117L95.65 47.1147C96.525 47.4137 96.5515 48.6227 95.73 48.9767L95.65 49.0077L94.47 49.4107C94.1993 49.5031 93.9516 49.6525 93.7435 49.8489C93.5355 50.0452 93.372 50.2838 93.264 50.5487L93.2235 50.6567L92.8205 51.8367C92.5215 52.7122 91.3125 52.7387 90.9585 51.9167L90.9275 51.8367L90.5245 50.6567C90.4321 50.3861 90.2826 50.1385 90.0863 49.9305C89.89 49.7226 89.6514 49.5591 89.3865 49.4512L89.2785 49.4107L88.098 49.0077ZM86.374 44.0612C86.374 43.9677 86.4003 43.876 86.4498 43.7966C86.4993 43.7173 86.57 43.6534 86.654 43.6122L86.7125 43.5882L87.2255 43.4132L87.4005 42.8997C87.4324 42.806 87.4913 42.7238 87.5699 42.6636C87.6485 42.6034 87.7432 42.5679 87.842 42.5616C87.9408 42.5553 88.0393 42.5784 88.1249 42.6281C88.2105 42.6778 88.2795 42.7518 88.323 42.8407L88.347 42.8997L88.522 43.4127L89.0355 43.5877C89.1292 43.6196 89.2114 43.6786 89.2715 43.7573C89.3317 43.8359 89.3671 43.9306 89.3734 44.0294C89.3796 44.1282 89.3564 44.2266 89.3067 44.3122C89.257 44.3978 89.183 44.4667 89.094 44.5102L89.0355 44.5342L88.5225 44.7092L88.3475 45.2227C88.3157 45.3165 88.2567 45.3986 88.1781 45.4588C88.0995 45.519 88.0048 45.5545 87.906 45.5609C87.8072 45.5672 87.7088 45.544 87.6231 45.4943C87.5375 45.4446 87.4686 45.3706 87.425 45.2817L87.401 45.2227L87.226 44.7097L86.7125 44.5347C86.6137 44.501 86.528 44.4372 86.4673 44.3523C86.4066 44.2674 86.374 44.1656 86.374 44.0612Z" fill="white"/>
<defs>
<clipPath id="clip0_282_770">
<rect width="56.0582" height="56.034" rx="28.017" transform="matrix(0.558656 -0.8294 0.828675 0.55973 34.4922 379.852)" fill="white"/>
</clipPath>
<clipPath id="clip1_282_770">
<rect width="28" height="28" fill="white" transform="matrix(0.558656 -0.8294 0.828675 0.55973 53.915 376.076)"/>
</clipPath>
<clipPath id="clip2_282_770">
<rect width="40.0289" height="40.0369" rx="20.0145" transform="matrix(0.76568 -0.643222 0.642353 0.766409 95.2031 203.024)" fill="white"/>
</clipPath>
<clipPath id="clip3_282_770">
<rect width="20" height="20" fill="white" transform="matrix(0.76568 -0.643222 0.642353 0.766409 109.284 204.256)"/>
</clipPath>
<clipPath id="clip4_282_770">
<rect width="16" height="16" fill="white" transform="matrix(0.847774 -0.530358 0.529481 0.848322 312.401 172.12)"/>
</clipPath>
</defs>
</svg>
