<svg width="521" height="391" viewBox="0 0 521 391" fill="none" xmlns="http://www.w3.org/2000/svg">
<g clip-path="url(#clip0_174_650)">
<rect y="359.134" width="56" height="56" rx="28" transform="rotate(-56 0 359.134)" fill="#2962FF"/>
<g clip-path="url(#clip1_174_650)">
<path d="M30.6461 350.102C29.3436 348.381 30.8698 346.008 32.9225 346.395L33.1164 346.441L35.9255 347.2C36.5696 347.375 37.2436 347.409 37.902 347.3C38.5604 347.192 39.188 346.943 39.7422 346.572L39.9622 346.415L42.2814 344.658C44.0014 343.356 46.3747 344.882 45.9886 346.934L45.9423 347.127L45.1832 349.937C45.0087 350.581 44.9745 351.255 45.0828 351.914C45.1911 352.572 45.4394 353.2 45.811 353.754L45.967 353.974L47.7248 356.293C49.0273 358.013 47.5011 360.387 45.45 360L45.2548 359.955L42.4464 359.195C41.8021 359.021 41.128 358.986 40.4694 359.095C39.8108 359.203 39.1831 359.451 38.6286 359.823L38.4094 359.979L36.0902 361.736C34.3694 363.039 31.9961 361.513 32.3839 359.461L32.4283 359.266L33.1884 356.457C33.3626 355.813 33.3966 355.139 33.2882 354.481C33.1798 353.822 32.9315 353.195 32.5599 352.641L32.4038 352.421L30.6461 350.102ZM33.7653 338.283C33.8873 338.103 34.0577 337.959 34.257 337.87C34.4563 337.782 34.6766 337.75 34.8927 337.78L35.0372 337.81L36.2579 338.141L37.2664 337.376C37.4504 337.236 37.6716 337.154 37.9022 337.14C38.1328 337.126 38.3623 337.181 38.5617 337.298C38.7611 337.415 38.9213 337.588 39.0221 337.796C39.1229 338.004 39.1597 338.237 39.1279 338.466L39.0974 338.611L38.7665 339.832L39.5315 340.84C39.6712 341.024 39.7531 341.245 39.7668 341.476C39.7806 341.707 39.7256 341.936 39.6088 342.135C39.492 342.335 39.3187 342.495 39.1108 342.596C38.9029 342.696 38.6698 342.733 38.441 342.701L38.2966 342.671L37.0759 342.34L36.0673 343.105C35.8834 343.245 35.6621 343.327 35.4315 343.341C35.201 343.355 34.9714 343.3 34.7721 343.183C34.5727 343.067 34.4125 342.893 34.3117 342.686C34.2109 342.478 34.174 342.245 34.2058 342.016L34.2364 341.87L34.5672 340.65L33.8022 339.641C33.6551 339.447 33.5725 339.212 33.5658 338.968C33.5592 338.725 33.6289 338.485 33.7653 338.283Z" fill="white"/>
</g>
</g>
<rect x="402.871" y="311.29" width="48" height="48" rx="24" transform="rotate(-180 402.871 311.29)" fill="#2962FF"/>
<path d="M381.765 293.843C381.167 295.593 378.749 295.646 378.04 294.002L377.98 293.842L377.173 291.482C376.988 290.94 376.689 290.445 376.297 290.029C375.904 289.613 375.427 289.286 374.897 289.071L374.68 288.99L372.32 288.184C370.57 287.586 370.517 285.168 372.16 284.459L372.32 284.399L374.68 283.592C375.221 283.407 375.717 283.108 376.133 282.715C376.549 282.323 376.876 281.845 377.092 281.316L377.173 281.1L377.979 278.739C378.577 276.989 380.995 276.936 381.703 278.579L381.765 278.739L382.571 281.099C382.756 281.64 383.055 282.135 383.447 282.552C383.84 282.968 384.317 283.295 384.847 283.511L385.063 283.592L387.423 284.398C389.174 284.996 389.227 287.414 387.583 288.122L387.423 288.184L385.063 288.99C384.522 289.174 384.026 289.473 383.611 289.866C383.195 290.259 382.868 290.736 382.652 291.266L382.571 291.482L381.765 293.843ZM371.872 297.291C371.685 297.291 371.502 297.238 371.343 297.139C371.184 297.04 371.056 296.899 370.974 296.731L370.926 296.614L370.576 295.588L369.549 295.238C369.361 295.174 369.197 295.056 369.077 294.899C368.956 294.742 368.885 294.552 368.873 294.355C368.86 294.157 368.906 293.96 369.006 293.789C369.105 293.617 369.253 293.48 369.431 293.393L369.549 293.345L370.575 292.995L370.925 291.968C370.989 291.78 371.107 291.616 371.264 291.496C371.421 291.375 371.611 291.304 371.808 291.292C372.006 291.279 372.203 291.326 372.374 291.425C372.545 291.525 372.683 291.673 372.77 291.851L372.818 291.968L373.168 292.994L374.195 293.344C374.382 293.407 374.547 293.525 374.667 293.682C374.788 293.84 374.859 294.029 374.871 294.227C374.884 294.424 374.838 294.621 374.738 294.792C374.639 294.964 374.491 295.101 374.313 295.189L374.195 295.237L373.169 295.587L372.819 296.614C372.752 296.811 372.624 296.983 372.454 297.104C372.284 297.225 372.081 297.291 371.872 297.291Z" fill="white"/>
<rect x="456.871" width="64" height="64" rx="32" fill="#2962FF"/>
<path d="M485.014 23.2641C485.811 20.9307 489.035 20.8601 489.981 23.0521L490.061 23.2654L491.137 26.4121C491.383 27.1337 491.782 27.7941 492.305 28.3486C492.829 28.9032 493.465 29.339 494.171 29.6267L494.461 29.7347L497.607 30.8094C499.941 31.6067 500.011 34.8307 497.821 35.7761L497.607 35.8561L494.461 36.9321C493.739 37.1785 493.078 37.5769 492.523 38.1004C491.968 38.6239 491.532 39.2604 491.245 39.9667L491.137 40.2547L490.062 43.4027C489.265 45.7361 486.041 45.8067 485.097 43.6161L485.014 43.4027L483.939 40.2561C483.693 39.5342 483.294 38.8736 482.771 38.3188C482.247 37.764 481.611 37.3279 480.905 37.0401L480.617 36.9321L477.47 35.8574C475.135 35.0601 475.065 31.8361 477.257 30.8921L477.47 30.8094L480.617 29.7347C481.338 29.4882 481.999 29.0897 482.553 28.5662C483.108 28.0427 483.544 27.4063 483.831 26.7001L483.939 26.4121L485.014 23.2641ZM498.205 18.6667C498.454 18.6667 498.698 18.7367 498.91 18.8687C499.122 19.0007 499.292 19.1894 499.402 19.4134L499.466 19.5694L499.933 20.9374L501.302 21.4041C501.552 21.489 501.771 21.6462 501.932 21.8558C502.092 22.0654 502.187 22.318 502.204 22.5814C502.22 22.8449 502.159 23.1075 502.026 23.3358C501.894 23.5641 501.696 23.748 501.459 23.8641L501.302 23.9281L499.934 24.3947L499.467 25.7641C499.382 26.014 499.225 26.233 499.015 26.3934C498.805 26.5538 498.553 26.6483 498.289 26.665C498.026 26.6818 497.763 26.6199 497.535 26.4873C497.307 26.3546 497.123 26.1572 497.007 25.9201L496.943 25.7641L496.477 24.3961L495.107 23.9294C494.857 23.8445 494.638 23.6873 494.478 23.4777C494.317 23.2681 494.222 23.0155 494.206 22.7521C494.189 22.4886 494.25 22.226 494.383 21.9977C494.515 21.7694 494.713 21.5855 494.95 21.4694L495.107 21.4054L496.475 20.9387L496.942 19.5694C497.032 19.306 497.202 19.0773 497.428 18.9154C497.655 18.7535 497.926 18.6666 498.205 18.6667Z" fill="white"/>
<g clip-path="url(#clip2_174_650)">
<rect x="60.6953" y="182.553" width="40" height="40" rx="20" transform="rotate(-40 60.6953 182.553)" fill="#2962FF"/>
<g clip-path="url(#clip3_174_650)">
<path d="M83.5129 182.386C82.9572 180.948 84.4724 179.619 85.8057 180.289L85.9297 180.359L87.709 181.433C88.1169 181.679 88.573 181.836 89.0465 181.891C89.5199 181.946 89.9996 181.899 90.4534 181.753L90.6353 181.688L92.5736 180.939C94.011 180.383 95.3401 181.898 94.671 183.231L94.601 183.355L93.5268 185.134C93.2801 185.542 93.1239 185.999 93.0686 186.472C93.0133 186.946 93.0602 187.425 93.2062 187.879L93.2702 188.061L94.0203 190C94.576 191.437 93.0608 192.766 91.7287 192.096L91.6034 192.027L89.8248 190.953C89.4168 190.706 88.9606 190.55 88.4871 190.495C88.0136 190.439 87.5337 190.486 87.0798 190.632L86.8986 190.696L84.9603 191.446C83.5222 192.002 82.1931 190.487 82.8633 189.154L82.9323 189.029L84.0071 187.25C84.2535 186.842 84.4096 186.386 84.4648 185.913C84.52 185.439 84.473 184.959 84.327 184.506L84.263 184.324L83.5129 182.386ZM87.9813 174.885C88.1008 174.785 88.2459 174.72 88.4003 174.698C88.5546 174.677 88.712 174.699 88.8546 174.762L88.9479 174.811L89.7209 175.278L90.564 174.951C90.7178 174.892 90.8859 174.879 91.0469 174.915C91.208 174.951 91.3548 175.034 91.4687 175.153C91.5826 175.272 91.6585 175.423 91.6868 175.585C91.7151 175.748 91.6945 175.915 91.6276 176.066L91.578 176.16L91.1105 176.933L91.4372 177.776C91.4968 177.93 91.5095 178.098 91.4736 178.259C91.4376 178.42 91.3547 178.567 91.2352 178.681C91.1158 178.794 90.9653 178.87 90.8027 178.898C90.6401 178.927 90.4729 178.906 90.3221 178.839L90.2287 178.79L89.4557 178.322L88.6126 178.649C88.4588 178.709 88.2908 178.722 88.1297 178.686C87.9686 178.65 87.8219 178.567 87.7079 178.448C87.594 178.328 87.5181 178.178 87.4898 178.015C87.4615 177.853 87.4821 177.685 87.549 177.535L87.5987 177.441L88.0661 176.668L87.7394 175.825C87.6767 175.662 87.6662 175.485 87.7096 175.316C87.753 175.148 87.848 174.997 87.9813 174.885Z" fill="white"/>
</g>
</g>
<g clip-path="url(#clip4_174_650)">
<rect x="266.824" y="149.152" width="32" height="32" rx="16" transform="rotate(-32 266.824 149.152)" fill="#2962FF"/>
<g clip-path="url(#clip5_174_650)">
<path d="M284.919 151.56C284.639 150.36 285.987 149.475 286.969 150.154L287.059 150.224L288.349 151.273C288.645 151.513 288.989 151.688 289.358 151.784C289.727 151.881 290.112 151.897 290.488 151.832L290.639 151.801L292.258 151.423C293.459 151.143 294.343 152.491 293.665 153.472L293.595 153.563L292.546 154.853C292.305 155.149 292.131 155.492 292.034 155.861C291.938 156.23 291.921 156.616 291.986 156.992L292.017 157.142L292.395 158.762C292.676 159.963 291.327 160.847 290.347 160.168L290.255 160.099L288.966 159.05C288.67 158.809 288.326 158.635 287.957 158.538C287.588 158.442 287.202 158.425 286.827 158.49L286.676 158.521L285.057 158.899C283.856 159.179 282.971 157.831 283.651 156.85L283.719 156.758L284.769 155.469C285.01 155.173 285.184 154.829 285.28 154.46C285.377 154.091 285.393 153.706 285.328 153.33L285.297 153.18L284.919 151.56ZM289.294 146.116C289.4 146.05 289.522 146.015 289.647 146.015C289.771 146.014 289.894 146.049 290 146.115L290.068 146.164L290.628 146.621L291.333 146.456C291.461 146.426 291.596 146.434 291.719 146.481C291.843 146.527 291.95 146.609 292.027 146.716C292.104 146.823 292.147 146.951 292.152 147.083C292.156 147.215 292.121 147.345 292.051 147.457L292.001 147.526L291.545 148.086L291.71 148.791C291.74 148.919 291.731 149.054 291.685 149.177C291.639 149.301 291.557 149.408 291.449 149.485C291.342 149.562 291.214 149.605 291.082 149.609C290.95 149.613 290.82 149.578 290.708 149.509L290.64 149.459L290.079 149.003L289.375 149.168C289.247 149.198 289.112 149.19 288.988 149.143C288.865 149.097 288.758 149.015 288.681 148.908C288.604 148.8 288.56 148.673 288.556 148.541C288.552 148.409 288.587 148.279 288.657 148.167L288.706 148.098L289.163 147.537L288.998 146.833C288.966 146.698 288.978 146.556 289.031 146.427C289.084 146.298 289.176 146.189 289.294 146.116Z" fill="white"/>
</g>
</g>
<rect x="44.8711" y="39.29" width="24" height="24" rx="12" transform="rotate(-90 44.8711 39.29)" fill="#2962FF"/>
<path d="M53.5951 28.7372C52.7201 28.4382 52.6936 27.2292 53.5156 26.8747L53.5956 26.8447L54.7756 26.4412C55.0462 26.3487 55.2938 26.1993 55.5018 26.003C55.7098 25.8067 55.8732 25.5681 55.9811 25.3032L56.0216 25.1947L56.4246 24.0147C56.7236 23.1397 57.9326 23.1132 58.2871 23.9347L58.3171 24.0147L58.7206 25.1947C58.813 25.4654 58.9624 25.7132 59.1587 25.9212C59.355 26.1293 59.5937 26.2928 59.8586 26.4007L59.9666 26.4412L61.1471 26.8442C62.0221 27.1432 62.0486 28.3522 61.2271 28.7062L61.1471 28.7372L59.9671 29.1402C59.6964 29.2326 59.4486 29.382 59.2406 29.5783C59.0326 29.7747 58.869 30.0133 58.7611 30.2782L58.7206 30.3862L58.3176 31.5662C58.0186 32.4417 56.8096 32.4682 56.4556 31.6462L56.4246 31.5662L56.0216 30.3862C55.9291 30.1156 55.7797 29.868 55.5834 29.66C55.3871 29.4521 55.1484 29.2886 54.8836 29.1807L54.7756 29.1402L53.5951 28.7372ZM51.8711 23.7907C51.8711 23.6972 51.8973 23.6055 51.9468 23.5261C51.9963 23.4468 52.0671 23.3829 52.1511 23.3417L52.2096 23.3177L52.7226 23.1427L52.8976 22.6292C52.9294 22.5355 52.9884 22.4533 53.067 22.3931C53.1456 22.3329 53.2403 22.2974 53.3391 22.2911C53.4379 22.2848 53.5364 22.3079 53.622 22.3576C53.7076 22.4073 53.7766 22.4813 53.8201 22.5702L53.8441 22.6292L54.0191 23.1422L54.5326 23.3172C54.6263 23.3491 54.7084 23.4081 54.7686 23.4868C54.8287 23.5654 54.8642 23.6601 54.8705 23.7589C54.8767 23.8577 54.8535 23.9561 54.8038 24.0417C54.7541 24.1273 54.68 24.1962 54.5911 24.2397L54.5326 24.2637L54.0196 24.4387L53.8446 24.9522C53.8127 25.046 53.7538 25.1281 53.6752 25.1883C53.5966 25.2485 53.5019 25.284 53.4031 25.2904C53.3043 25.2967 53.2058 25.2735 53.1202 25.2238C53.0346 25.1741 52.9656 25.1001 52.9221 25.0112L52.8981 24.9522L52.7231 24.4392L52.2096 24.2642C52.1108 24.2305 52.025 24.1667 51.9643 24.0818C51.9036 23.9969 51.871 23.8951 51.8711 23.7907Z" fill="white"/>
<defs>
<clipPath id="clip0_174_650">
<rect y="359.134" width="56" height="56" rx="28" transform="rotate(-56 0 359.134)" fill="white"/>
</clipPath>
<clipPath id="clip1_174_650">
<rect width="28" height="28" fill="white" transform="translate(19.4355 355.356) rotate(-56)"/>
</clipPath>
<clipPath id="clip2_174_650">
<rect x="60.6953" y="182.553" width="40" height="40" rx="20" transform="rotate(-40 60.6953 182.553)" fill="white"/>
</clipPath>
<clipPath id="clip3_174_650">
<rect width="20" height="20" fill="white" transform="translate(74.7832 183.786) rotate(-40)"/>
</clipPath>
<clipPath id="clip4_174_650">
<rect x="266.824" y="149.152" width="32" height="32" rx="16" transform="rotate(-32 266.824 149.152)" fill="white"/>
</clipPath>
<clipPath id="clip5_174_650">
<rect width="16" height="16" fill="white" transform="translate(277.848 151.697) rotate(-32)"/>
</clipPath>
</defs>
</svg>
