<svg class="z-1 w-full" width="513" height="312" viewBox="0 0 513 312" fill="none" xmlns="http://www.w3.org/2000/svg">
<g filter="url(#filter0_b_76_3157)">
<g clip-path="url(#clip0_76_3157)">
<rect x="220.5" width="72" height="72" rx="36" fill="white"/>
<path d="M256.501 17.3333C258.976 17.3333 261.35 18.3166 263.1 20.067C264.851 21.8173 265.834 24.1913 265.834 26.6666C265.834 29.142 264.851 31.516 263.1 33.2663C261.35 35.0167 258.976 36 256.501 36C254.025 36 251.651 35.0167 249.901 33.2663C248.151 31.516 247.167 29.142 247.167 26.6666C247.167 24.1913 248.151 21.8173 249.901 20.067C251.651 18.3166 254.025 17.3333 256.501 17.3333ZM256.501 40.6666C266.814 40.6666 275.167 44.8433 275.167 50V54.6666H237.834V50C237.834 44.8433 246.187 40.6666 256.501 40.6666Z" fill="#2962FF" fill-opacity="0.4"/>
<g opacity="0.1" filter="url(#filter1_f_76_3157)">
<rect x="227.492" y="53.8483" width="50.364" height="20.8856" rx="10.4428" transform="rotate(19.3511 227.492 53.8483)" fill="#2962FF"/>
</g>
</g>
<rect x="221" y="0.5" width="71" height="71" rx="35.5" stroke="#2D7AFE" stroke-opacity="0.4"/>
</g>
<g filter="url(#filter2_b_76_3157)">
<g clip-path="url(#clip1_76_3157)">
<rect x="96.5" y="120" width="72" height="72" rx="36" fill="white"/>
<path d="M132.501 137.333C134.976 137.333 137.35 138.317 139.1 140.067C140.851 141.817 141.834 144.191 141.834 146.667C141.834 149.142 140.851 151.516 139.1 153.266C137.35 155.017 134.976 156 132.501 156C130.025 156 127.651 155.017 125.901 153.266C124.151 151.516 123.167 149.142 123.167 146.667C123.167 144.191 124.151 141.817 125.901 140.067C127.651 138.317 130.025 137.333 132.501 137.333ZM132.501 160.667C142.814 160.667 151.167 164.843 151.167 170V174.667H113.834V170C113.834 164.843 122.187 160.667 132.501 160.667Z" fill="#2962FF" fill-opacity="0.4"/>
<g opacity="0.1" filter="url(#filter3_f_76_3157)">
<rect x="103.492" y="173.848" width="50.364" height="20.8856" rx="10.4428" transform="rotate(19.3511 103.492 173.848)" fill="#2962FF"/>
</g>
</g>
<rect x="97" y="120.5" width="71" height="71" rx="35.5" stroke="#2D7AFE" stroke-opacity="0.4"/>
</g>
<g filter="url(#filter4_b_76_3157)">
<g clip-path="url(#clip2_76_3157)">
<rect x="220.5" y="120" width="72" height="72" rx="36" fill="white"/>
<path d="M256.501 137.333C258.976 137.333 261.35 138.317 263.1 140.067C264.851 141.817 265.834 144.191 265.834 146.667C265.834 149.142 264.851 151.516 263.1 153.266C261.35 155.017 258.976 156 256.501 156C254.025 156 251.651 155.017 249.901 153.266C248.151 151.516 247.167 149.142 247.167 146.667C247.167 144.191 248.151 141.817 249.901 140.067C251.651 138.317 254.025 137.333 256.501 137.333ZM256.501 160.667C266.814 160.667 275.167 164.843 275.167 170V174.667H237.834V170C237.834 164.843 246.187 160.667 256.501 160.667Z" fill="#2962FF" fill-opacity="0.4"/>
<g opacity="0.1" filter="url(#filter5_f_76_3157)">
<rect x="227.492" y="173.848" width="50.364" height="20.8856" rx="10.4428" transform="rotate(19.3511 227.492 173.848)" fill="#2962FF"/>
</g>
</g>
<rect x="221" y="120.5" width="71" height="71" rx="35.5" stroke="#2D7AFE" stroke-opacity="0.4"/>
</g>
<g filter="url(#filter6_b_76_3157)">
<g clip-path="url(#clip3_76_3157)">
<rect x="344.5" y="120" width="72" height="72" rx="36" fill="white"/>
<path d="M380.501 137.333C382.976 137.333 385.35 138.317 387.1 140.067C388.851 141.817 389.834 144.191 389.834 146.667C389.834 149.142 388.851 151.516 387.1 153.266C385.35 155.017 382.976 156 380.501 156C378.025 156 375.651 155.017 373.901 153.266C372.151 151.516 371.167 149.142 371.167 146.667C371.167 144.191 372.151 141.817 373.901 140.067C375.651 138.317 378.025 137.333 380.501 137.333ZM380.501 160.667C390.814 160.667 399.167 164.843 399.167 170V174.667H361.834V170C361.834 164.843 370.187 160.667 380.501 160.667Z" fill="#2962FF" fill-opacity="0.4"/>
<g opacity="0.1" filter="url(#filter7_f_76_3157)">
<rect x="351.492" y="173.848" width="50.364" height="20.8856" rx="10.4428" transform="rotate(19.3511 351.492 173.848)" fill="#2962FF"/>
</g>
</g>
<rect x="345" y="120.5" width="71" height="71" rx="35.5" stroke="#2D7AFE" stroke-opacity="0.4"/>
</g>
<g filter="url(#filter8_b_76_3157)">
<g clip-path="url(#clip4_76_3157)">
<rect y="240" width="72" height="72" rx="36" fill="white"/>
<path d="M36.0007 257.333C38.476 257.333 40.85 258.317 42.6003 260.067C44.3507 261.817 45.334 264.191 45.334 266.667C45.334 269.142 44.3507 271.516 42.6003 273.266C40.85 275.017 38.476 276 36.0007 276C33.5253 276 31.1513 275.017 29.401 273.266C27.6506 271.516 26.6673 269.142 26.6673 266.667C26.6673 264.191 27.6506 261.817 29.401 260.067C31.1513 258.317 33.5253 257.333 36.0007 257.333ZM36.0007 280.667C46.314 280.667 54.6673 284.843 54.6673 290V294.667H17.334V290C17.334 284.843 25.6873 280.667 36.0007 280.667Z" fill="#2962FF" fill-opacity="0.4"/>
<g opacity="0.1" filter="url(#filter9_f_76_3157)">
<rect x="6.99219" y="293.848" width="50.364" height="20.8856" rx="10.4428" transform="rotate(19.3511 6.99219 293.848)" fill="#2962FF"/>
</g>
</g>
<rect x="0.5" y="240.5" width="71" height="71" rx="35.5" stroke="#2D7AFE" stroke-opacity="0.4"/>
</g>
<g filter="url(#filter10_b_76_3157)">
<g clip-path="url(#clip5_76_3157)">
<rect x="147" y="240" width="72" height="72" rx="36" fill="white"/>
<path d="M183.001 257.333C185.476 257.333 187.85 258.317 189.6 260.067C191.351 261.817 192.334 264.191 192.334 266.667C192.334 269.142 191.351 271.516 189.6 273.266C187.85 275.017 185.476 276 183.001 276C180.525 276 178.151 275.017 176.401 273.266C174.651 271.516 173.667 269.142 173.667 266.667C173.667 264.191 174.651 261.817 176.401 260.067C178.151 258.317 180.525 257.333 183.001 257.333ZM183.001 280.667C193.314 280.667 201.667 284.843 201.667 290V294.667H164.334V290C164.334 284.843 172.687 280.667 183.001 280.667Z" fill="#2962FF" fill-opacity="0.4"/>
<g opacity="0.1" filter="url(#filter11_f_76_3157)">
<rect x="153.992" y="293.848" width="50.364" height="20.8856" rx="10.4428" transform="rotate(19.3511 153.992 293.848)" fill="#2962FF"/>
</g>
</g>
<rect x="147.5" y="240.5" width="71" height="71" rx="35.5" stroke="#2D7AFE" stroke-opacity="0.4"/>
</g>
<g filter="url(#filter12_b_76_3157)">
<g clip-path="url(#clip6_76_3157)">
<rect x="294" y="240" width="72" height="72" rx="36" fill="white"/>
<path d="M330.001 257.333C332.476 257.333 334.85 258.317 336.6 260.067C338.351 261.817 339.334 264.191 339.334 266.667C339.334 269.142 338.351 271.516 336.6 273.266C334.85 275.017 332.476 276 330.001 276C327.525 276 325.151 275.017 323.401 273.266C321.651 271.516 320.667 269.142 320.667 266.667C320.667 264.191 321.651 261.817 323.401 260.067C325.151 258.317 327.525 257.333 330.001 257.333ZM330.001 280.667C340.314 280.667 348.667 284.843 348.667 290V294.667H311.334V290C311.334 284.843 319.687 280.667 330.001 280.667Z" fill="#2962FF" fill-opacity="0.4"/>
<g opacity="0.1" filter="url(#filter13_f_76_3157)">
<rect x="300.992" y="293.848" width="50.364" height="20.8856" rx="10.4428" transform="rotate(19.3511 300.992 293.848)" fill="#2962FF"/>
</g>
</g>
<rect x="294.5" y="240.5" width="71" height="71" rx="35.5" stroke="#2D7AFE" stroke-opacity="0.4"/>
</g>
<g filter="url(#filter14_b_76_3157)">
<g clip-path="url(#clip7_76_3157)">
<rect x="441" y="240" width="72" height="72" rx="36" fill="white"/>
<path d="M477.001 257.333C479.476 257.333 481.85 258.317 483.6 260.067C485.351 261.817 486.334 264.191 486.334 266.667C486.334 269.142 485.351 271.516 483.6 273.266C481.85 275.017 479.476 276 477.001 276C474.525 276 472.151 275.017 470.401 273.266C468.651 271.516 467.667 269.142 467.667 266.667C467.667 264.191 468.651 261.817 470.401 260.067C472.151 258.317 474.525 257.333 477.001 257.333ZM477.001 280.667C487.314 280.667 495.667 284.843 495.667 290V294.667H458.334V290C458.334 284.843 466.687 280.667 477.001 280.667Z" fill="#2962FF" fill-opacity="0.4"/>
<g opacity="0.1" filter="url(#filter15_f_76_3157)">
<rect x="447.992" y="293.848" width="50.364" height="20.8856" rx="10.4428" transform="rotate(19.3511 447.992 293.848)" fill="#2962FF"/>
</g>
</g>
<rect x="441.5" y="240.5" width="71" height="71" rx="35.5" stroke="#2D7AFE" stroke-opacity="0.4"/>
</g>
<defs>
<filter id="filter0_b_76_3157" x="-279.5" y="-500" width="1072" height="1072" filterUnits="userSpaceOnUse" color-interpolation-filters="sRGB">
<feFlood flood-opacity="0" result="BackgroundImageFix"/>
<feGaussianBlur in="BackgroundImageFix" stdDeviation="250"/>
<feComposite in2="SourceAlpha" operator="in" result="effect1_backgroundBlur_76_3157"/>
<feBlend mode="normal" in="SourceGraphic" in2="effect1_backgroundBlur_76_3157" result="shape"/>
</filter>
<filter id="filter1_f_76_3157" x="200.572" y="33.8483" width="94.4395" height="76.394" filterUnits="userSpaceOnUse" color-interpolation-filters="sRGB">
<feFlood flood-opacity="0" result="BackgroundImageFix"/>
<feBlend mode="normal" in="SourceGraphic" in2="BackgroundImageFix" result="shape"/>
<feGaussianBlur stdDeviation="10" result="effect1_foregroundBlur_76_3157"/>
</filter>
<filter id="filter2_b_76_3157" x="-403.5" y="-380" width="1072" height="1072" filterUnits="userSpaceOnUse" color-interpolation-filters="sRGB">
<feFlood flood-opacity="0" result="BackgroundImageFix"/>
<feGaussianBlur in="BackgroundImageFix" stdDeviation="250"/>
<feComposite in2="SourceAlpha" operator="in" result="effect1_backgroundBlur_76_3157"/>
<feBlend mode="normal" in="SourceGraphic" in2="effect1_backgroundBlur_76_3157" result="shape"/>
</filter>
<filter id="filter3_f_76_3157" x="76.5723" y="153.848" width="94.4395" height="76.394" filterUnits="userSpaceOnUse" color-interpolation-filters="sRGB">
<feFlood flood-opacity="0" result="BackgroundImageFix"/>
<feBlend mode="normal" in="SourceGraphic" in2="BackgroundImageFix" result="shape"/>
<feGaussianBlur stdDeviation="10" result="effect1_foregroundBlur_76_3157"/>
</filter>
<filter id="filter4_b_76_3157" x="-279.5" y="-380" width="1072" height="1072" filterUnits="userSpaceOnUse" color-interpolation-filters="sRGB">
<feFlood flood-opacity="0" result="BackgroundImageFix"/>
<feGaussianBlur in="BackgroundImageFix" stdDeviation="250"/>
<feComposite in2="SourceAlpha" operator="in" result="effect1_backgroundBlur_76_3157"/>
<feBlend mode="normal" in="SourceGraphic" in2="effect1_backgroundBlur_76_3157" result="shape"/>
</filter>
<filter id="filter5_f_76_3157" x="200.572" y="153.848" width="94.4395" height="76.394" filterUnits="userSpaceOnUse" color-interpolation-filters="sRGB">
<feFlood flood-opacity="0" result="BackgroundImageFix"/>
<feBlend mode="normal" in="SourceGraphic" in2="BackgroundImageFix" result="shape"/>
<feGaussianBlur stdDeviation="10" result="effect1_foregroundBlur_76_3157"/>
</filter>
<filter id="filter6_b_76_3157" x="-155.5" y="-380" width="1072" height="1072" filterUnits="userSpaceOnUse" color-interpolation-filters="sRGB">
<feFlood flood-opacity="0" result="BackgroundImageFix"/>
<feGaussianBlur in="BackgroundImageFix" stdDeviation="250"/>
<feComposite in2="SourceAlpha" operator="in" result="effect1_backgroundBlur_76_3157"/>
<feBlend mode="normal" in="SourceGraphic" in2="effect1_backgroundBlur_76_3157" result="shape"/>
</filter>
<filter id="filter7_f_76_3157" x="324.572" y="153.848" width="94.4395" height="76.394" filterUnits="userSpaceOnUse" color-interpolation-filters="sRGB">
<feFlood flood-opacity="0" result="BackgroundImageFix"/>
<feBlend mode="normal" in="SourceGraphic" in2="BackgroundImageFix" result="shape"/>
<feGaussianBlur stdDeviation="10" result="effect1_foregroundBlur_76_3157"/>
</filter>
<filter id="filter8_b_76_3157" x="-500" y="-260" width="1072" height="1072" filterUnits="userSpaceOnUse" color-interpolation-filters="sRGB">
<feFlood flood-opacity="0" result="BackgroundImageFix"/>
<feGaussianBlur in="BackgroundImageFix" stdDeviation="250"/>
<feComposite in2="SourceAlpha" operator="in" result="effect1_backgroundBlur_76_3157"/>
<feBlend mode="normal" in="SourceGraphic" in2="effect1_backgroundBlur_76_3157" result="shape"/>
</filter>
<filter id="filter9_f_76_3157" x="-19.9277" y="273.848" width="94.4395" height="76.394" filterUnits="userSpaceOnUse" color-interpolation-filters="sRGB">
<feFlood flood-opacity="0" result="BackgroundImageFix"/>
<feBlend mode="normal" in="SourceGraphic" in2="BackgroundImageFix" result="shape"/>
<feGaussianBlur stdDeviation="10" result="effect1_foregroundBlur_76_3157"/>
</filter>
<filter id="filter10_b_76_3157" x="-353" y="-260" width="1072" height="1072" filterUnits="userSpaceOnUse" color-interpolation-filters="sRGB">
<feFlood flood-opacity="0" result="BackgroundImageFix"/>
<feGaussianBlur in="BackgroundImageFix" stdDeviation="250"/>
<feComposite in2="SourceAlpha" operator="in" result="effect1_backgroundBlur_76_3157"/>
<feBlend mode="normal" in="SourceGraphic" in2="effect1_backgroundBlur_76_3157" result="shape"/>
</filter>
<filter id="filter11_f_76_3157" x="127.072" y="273.848" width="94.4395" height="76.394" filterUnits="userSpaceOnUse" color-interpolation-filters="sRGB">
<feFlood flood-opacity="0" result="BackgroundImageFix"/>
<feBlend mode="normal" in="SourceGraphic" in2="BackgroundImageFix" result="shape"/>
<feGaussianBlur stdDeviation="10" result="effect1_foregroundBlur_76_3157"/>
</filter>
<filter id="filter12_b_76_3157" x="-206" y="-260" width="1072" height="1072" filterUnits="userSpaceOnUse" color-interpolation-filters="sRGB">
<feFlood flood-opacity="0" result="BackgroundImageFix"/>
<feGaussianBlur in="BackgroundImageFix" stdDeviation="250"/>
<feComposite in2="SourceAlpha" operator="in" result="effect1_backgroundBlur_76_3157"/>
<feBlend mode="normal" in="SourceGraphic" in2="effect1_backgroundBlur_76_3157" result="shape"/>
</filter>
<filter id="filter13_f_76_3157" x="274.072" y="273.848" width="94.4395" height="76.394" filterUnits="userSpaceOnUse" color-interpolation-filters="sRGB">
<feFlood flood-opacity="0" result="BackgroundImageFix"/>
<feBlend mode="normal" in="SourceGraphic" in2="BackgroundImageFix" result="shape"/>
<feGaussianBlur stdDeviation="10" result="effect1_foregroundBlur_76_3157"/>
</filter>
<filter id="filter14_b_76_3157" x="-59" y="-260" width="1072" height="1072" filterUnits="userSpaceOnUse" color-interpolation-filters="sRGB">
<feFlood flood-opacity="0" result="BackgroundImageFix"/>
<feGaussianBlur in="BackgroundImageFix" stdDeviation="250"/>
<feComposite in2="SourceAlpha" operator="in" result="effect1_backgroundBlur_76_3157"/>
<feBlend mode="normal" in="SourceGraphic" in2="effect1_backgroundBlur_76_3157" result="shape"/>
</filter>
<filter id="filter15_f_76_3157" x="421.072" y="273.848" width="94.4395" height="76.394" filterUnits="userSpaceOnUse" color-interpolation-filters="sRGB">
<feFlood flood-opacity="0" result="BackgroundImageFix"/>
<feBlend mode="normal" in="SourceGraphic" in2="BackgroundImageFix" result="shape"/>
<feGaussianBlur stdDeviation="10" result="effect1_foregroundBlur_76_3157"/>
</filter>
<clipPath id="clip0_76_3157">
<rect x="220.5" width="72" height="72" rx="36" fill="white"/>
</clipPath>
<clipPath id="clip1_76_3157">
<rect x="96.5" y="120" width="72" height="72" rx="36" fill="white"/>
</clipPath>
<clipPath id="clip2_76_3157">
<rect x="220.5" y="120" width="72" height="72" rx="36" fill="white"/>
</clipPath>
<clipPath id="clip3_76_3157">
<rect x="344.5" y="120" width="72" height="72" rx="36" fill="white"/>
</clipPath>
<clipPath id="clip4_76_3157">
<rect y="240" width="72" height="72" rx="36" fill="white"/>
</clipPath>
<clipPath id="clip5_76_3157">
<rect x="147" y="240" width="72" height="72" rx="36" fill="white"/>
</clipPath>
<clipPath id="clip6_76_3157">
<rect x="294" y="240" width="72" height="72" rx="36" fill="white"/>
</clipPath>
<clipPath id="clip7_76_3157">
<rect x="441" y="240" width="72" height="72" rx="36" fill="white"/>
</clipPath>
</defs>
</svg>
