<svg class="z-1 w-full" width="401" height="383" viewBox="0 0 401 383" fill="none" xmlns="http://www.w3.org/2000/svg">
<g filter="url(#filter0_b_179_655)">
<mask id="path-1-inside-1_179_655" fill="white">
<path d="M238 21.4976C238 9.62481 247.625 0 259.498 0H324.502C336.375 0 346 9.62482 346 21.4976V87.2701C346 99.143 336.375 108.768 324.502 108.768H259.498C247.625 108.768 238 99.143 238 87.2701V21.4976Z"/>
</mask>
<path d="M238 21.4976C238 9.62481 247.625 0 259.498 0H324.502C336.375 0 346 9.62482 346 21.4976V87.2701C346 99.143 336.375 108.768 324.502 108.768H259.498C247.625 108.768 238 99.143 238 87.2701V21.4976Z" fill="white"/>
<path d="M237 21.4976C237 9.18299 246.983 -0.8 259.298 -0.8H324.702C337.017 -0.8 347 9.18299 347 21.4976H345C345 10.0666 335.823 0.8 324.502 0.8H259.498C248.177 0.8 239 10.0666 239 21.4976H237ZM346 108.768H238H346ZM259.498 108.768C247.073 108.768 237 98.6952 237 86.2701V21.4976C237 9.18299 246.983 -0.8 259.298 -0.8L259.498 0.8C248.177 0.8 239 10.0666 239 21.4976V87.2701C239 99.143 248.177 108.768 259.498 108.768ZM324.702 -0.8C337.017 -0.8 347 9.18299 347 21.4976V86.2701C347 98.6952 336.927 108.768 324.502 108.768C335.823 108.768 345 99.143 345 87.2701V21.4976C345 10.0666 335.823 0.8 324.502 0.8L324.702 -0.8Z" fill="url(#paint0_linear_179_655)" fill-opacity="0.7" mask="url(#path-1-inside-1_179_655)"/>
<g clip-path="url(#clip0_179_655)">
<rect x="244.143" y="6.14203" width="95.7156" height="96.4834" rx="15.3555" fill="#F3F3F5"/>
<g clip-path="url(#clip1_179_655)">
<path fill-rule="evenodd" clip-rule="evenodd" d="M276.115 35.2571C276.918 34.4531 278.007 34.0009 279.143 33.9999H296.286C296.474 33.9996 296.66 34.0363 296.833 34.1079C297.007 34.1794 297.165 34.2845 297.297 34.4171L308.726 45.8457C308.859 45.9786 308.964 46.1363 309.035 46.3099C309.107 46.4834 309.143 46.6694 309.143 46.8571V69.7142C309.143 70.8509 308.692 71.941 307.888 72.7447C307.084 73.5484 305.994 73.9999 304.857 73.9999H279.143C278.006 73.9999 276.916 73.5484 276.113 72.7447C275.309 71.941 274.857 70.8509 274.857 69.7142V38.2857C274.857 37.1485 275.309 36.0571 276.115 35.2571ZM289.057 49.5057C289.057 48.8885 289.56 48.3857 290.18 48.3857H293.823C294.44 48.3857 294.943 48.8885 294.943 49.5057V53.9628H299.4C300.02 53.9628 300.52 54.4657 300.52 55.0857V58.7285C300.521 58.8758 300.493 59.0218 300.437 59.158C300.381 59.2942 300.298 59.418 300.194 59.5222C300.09 59.6263 299.966 59.7088 299.83 59.7648C299.694 59.8208 299.548 59.8493 299.4 59.8485H294.943V64.3057C294.944 64.4532 294.916 64.5995 294.86 64.736C294.804 64.8726 294.722 64.9967 294.618 65.1012C294.514 65.2056 294.39 65.2883 294.253 65.3445C294.117 65.4007 293.971 65.4293 293.823 65.4285H290.177C290.03 65.4293 289.884 65.4008 289.748 65.3448C289.612 65.2888 289.488 65.2063 289.384 65.1022C289.28 64.998 289.197 64.8742 289.141 64.738C289.085 64.6018 289.057 64.4558 289.057 64.3085V59.8514H284.6C284.453 59.8521 284.307 59.8236 284.17 59.7674C284.034 59.7112 283.91 59.6285 283.806 59.524C283.701 59.4196 283.619 59.2955 283.563 59.1589C283.507 59.0223 283.479 58.876 283.48 58.7285V55.0857C283.48 54.4657 283.98 53.9657 284.6 53.9657H289.057V49.5057Z" fill="#2962FF"/>
</g>
<g filter="url(#filter1_f_179_655)">
<line x1="245.653" y1="98.2733" x2="337.153" y2="10.2734" stroke="url(#paint1_linear_179_655)"/>
</g>
<g opacity="0.2" filter="url(#filter2_f_179_655)">
<rect width="124.476" height="10.6652" transform="translate(350.01 24.0217) rotate(134.834)" fill="white"/>
</g>
<g opacity="0.2" filter="url(#filter3_f_179_655)">
<rect width="124.476" height="9.76843" transform="translate(326.436 0.439758) rotate(134.834)" fill="white"/>
</g>
<g opacity="0.4" filter="url(#filter4_f_179_655)">
<rect x="250" y="-8.86621" width="82" height="25.5" rx="12.75" fill="#2962FF"/>
</g>
<g opacity="0.4" filter="url(#filter5_f_179_655)">
<rect x="251.5" y="94.1337" width="86" height="13" rx="6.5" fill="#2962FF"/>
</g>
<g opacity="0.4" filter="url(#filter6_f_179_655)">
<rect x="332" y="22.1337" width="8" height="54.5" rx="4" fill="#2962FF"/>
</g>
<g opacity="0.4" filter="url(#filter7_f_179_655)">
<rect x="244" y="27.1337" width="10.5" height="54.5" rx="5.25" fill="#2962FF"/>
</g>
<g style="mix-blend-mode:plus-lighter" opacity="0.1" filter="url(#filter8_f_179_655)">
<rect width="10.5" height="46" transform="translate(286.5 35.1337)" fill="#2D7AFE"/>
</g>
</g>
<rect x="244.526" y="6.52592" width="94.9479" height="95.7156" rx="14.9716" stroke="url(#paint2_linear_179_655)" stroke-width="0.767773"/>
</g>
<g clip-path="url(#clip2_179_655)">
<path d="M198.504 166.177C197.868 164.293 196.508 162.739 194.726 161.856C192.943 160.974 190.883 160.836 188.998 161.472C187.114 162.109 185.559 163.468 184.677 165.251C183.795 167.033 183.657 169.094 184.293 170.978L185.426 174.332C183.597 175.583 181.958 177.023 180.51 178.652C178.836 178.204 177.058 178.349 175.478 179.063C173.899 179.777 172.616 181.016 171.847 182.57C171.078 184.123 170.871 185.895 171.261 187.584C171.651 189.273 172.614 190.775 173.986 191.834C173.57 193.984 173.418 196.176 173.531 198.363L170.178 199.496C168.293 200.132 166.739 201.491 165.856 203.274C164.974 205.057 164.836 207.117 165.472 209.002C166.109 210.886 167.468 212.441 169.251 213.323C171.034 214.205 173.094 214.343 174.978 213.707L178.332 212.574C179.583 214.403 181.023 216.042 182.653 217.49C182.204 219.164 182.349 220.942 183.063 222.521C183.777 224.101 185.016 225.384 186.57 226.153C188.123 226.922 189.895 227.129 191.584 226.739C193.273 226.349 194.775 225.386 195.834 224.014C197.965 224.427 200.141 224.579 202.363 224.468L203.496 227.822C204.132 229.707 205.492 231.261 207.274 232.144C209.057 233.026 211.117 233.164 213.002 232.527C214.886 231.891 216.441 230.532 217.323 228.749C218.205 226.966 218.343 224.906 217.707 223.022L216.574 219.668C218.403 218.417 220.042 216.976 221.49 215.347C223.164 215.796 224.942 215.651 226.522 214.937C228.101 214.223 229.384 212.984 230.153 211.43C230.922 209.877 231.129 208.105 230.739 206.416C230.349 204.727 229.386 203.225 228.014 202.166C228.427 200.035 228.579 197.859 228.469 195.637L231.822 194.504C233.707 193.867 235.261 192.508 236.144 190.726C237.026 188.943 237.164 186.883 236.528 184.998C235.891 183.114 234.532 181.559 232.749 180.677C230.966 179.794 228.906 179.656 227.022 180.293L223.668 181.426C222.432 179.618 220.982 177.968 219.347 176.51C219.796 174.836 219.651 173.058 218.937 171.478C218.223 169.899 216.984 168.615 215.43 167.846C213.877 167.078 212.105 166.87 210.416 167.26C208.727 167.65 207.225 168.613 206.166 169.986C204.016 169.57 201.824 169.417 199.637 169.531L198.504 166.177ZM205.001 208.842C203.446 209.373 201.801 209.591 200.162 209.484C198.522 209.377 196.92 208.946 195.447 208.218C193.975 207.489 192.661 206.476 191.582 205.237C190.502 203.999 189.678 202.559 189.157 201C188.366 198.658 188.287 196.134 188.931 193.747C189.574 191.36 190.911 189.217 192.772 187.59C194.633 185.962 196.935 184.924 199.387 184.604C201.838 184.285 204.329 184.7 206.545 185.797C208.761 186.894 210.602 188.623 211.834 190.766C213.067 192.909 213.637 195.369 213.472 197.836C213.307 200.303 212.414 202.665 210.906 204.624C209.398 206.583 207.343 208.051 205.001 208.842Z" fill="#2962FF"/>
<path d="M194.741 96.2014L144.85 113.055C134.505 116.55 126.3 119.321 119.879 122.092C113.301 124.927 107.978 128.013 103.654 132.429C96.6425 139.607 92.0844 148.821 90.6333 158.75C89.7314 164.86 90.5086 170.973 92.2443 177.923C93.935 184.709 96.7066 192.914 100.201 203.259L117.055 253.149C120.55 263.495 123.322 271.7 126.092 278.121C128.927 284.699 132.013 290.022 136.432 294.355C143.611 301.363 152.824 305.917 162.75 307.367C168.86 308.268 174.973 307.491 181.923 305.756C188.709 304.065 196.914 301.293 207.259 297.798L257.149 280.945C267.495 277.45 275.7 274.678 282.121 271.908C288.699 269.073 294.022 265.987 298.355 261.568C305.362 254.392 309.918 245.183 311.37 235.259C312.265 229.13 311.491 223.027 309.756 216.077C308.065 209.291 305.293 201.086 301.798 190.741L284.945 140.85C281.45 130.505 278.678 122.3 275.908 115.879C273.073 109.3 269.987 103.978 265.571 99.654C258.396 92.6431 249.185 88.0839 239.259 86.6301C233.13 85.7345 227.027 86.5086 220.077 88.2442C213.291 89.9349 205.086 92.7065 194.741 96.2014ZM114.385 142.916C116.769 140.475 120.1 138.336 125.82 135.865C131.625 133.366 139.239 130.783 149.964 127.16L199.229 110.518C209.963 106.892 217.58 104.319 223.705 102.798C229.739 101.288 233.697 100.975 237.083 101.467C243.872 102.462 250.172 105.58 255.081 110.375C257.525 112.769 259.667 116.109 262.134 121.82C264.634 127.625 267.217 135.239 270.839 145.964L287.482 195.229C291.108 205.963 293.681 213.58 295.202 219.705C296.712 225.739 297.025 229.697 296.533 233.083C295.538 239.872 292.419 246.172 287.624 251.081C285.231 253.525 281.891 255.667 276.18 258.134C270.375 260.634 262.761 263.216 252.036 266.839L202.771 283.482C192.047 287.105 184.42 289.681 178.294 291.201C172.261 292.712 168.303 293.025 164.917 292.533C158.128 291.538 151.828 288.419 146.919 283.624C144.475 281.231 142.333 277.891 139.865 272.18C137.366 266.375 134.783 258.761 131.16 248.036L114.518 198.771C110.895 188.047 108.319 180.42 106.798 174.294C105.288 168.26 104.975 164.303 105.467 160.917C106.462 154.128 109.59 147.824 114.385 142.916Z" fill="#2962FF"/>
<path opacity="0.5" d="M146.523 215.403C141.643 200.955 142.701 185.16 149.466 171.492C156.231 157.825 168.149 147.405 182.596 142.524C197.044 137.644 212.839 138.702 226.506 145.467C240.174 152.232 250.594 164.149 255.475 178.597C260.355 193.045 259.297 208.84 252.532 222.507C245.767 236.175 233.849 246.595 219.402 251.476C204.954 256.356 189.159 255.298 175.491 248.533C161.824 241.768 151.404 229.85 146.523 215.403ZM187.397 156.735C182.109 158.522 177.225 161.332 173.024 165.006C168.822 168.679 165.385 173.145 162.91 178.147C160.434 183.149 158.967 188.589 158.594 194.158C158.221 199.727 158.948 205.314 160.734 210.602C162.521 215.889 165.331 220.773 169.005 224.975C172.678 229.177 177.144 232.613 182.146 235.089C187.148 237.565 192.588 239.032 198.157 239.405C203.726 239.778 209.313 239.051 214.601 237.265C225.28 233.657 234.088 225.955 239.088 215.853C244.089 205.751 244.871 194.077 241.264 183.398C237.656 172.719 229.954 163.911 219.852 158.911C209.75 153.91 198.076 153.128 187.397 156.735ZM98.1303 173.697C101.899 172.424 106.02 172.7 109.585 174.465C113.15 176.229 115.869 179.338 117.142 183.107L121.943 197.318C123.216 201.087 122.94 205.208 121.175 208.773C119.41 212.338 116.301 215.057 112.532 216.33C108.763 217.603 104.643 217.327 101.078 215.562C97.5121 213.797 94.7938 210.689 93.5206 206.92L88.7199 192.709C87.4467 188.94 87.7229 184.819 89.4877 181.254C91.2524 177.688 94.3613 174.97 98.1303 173.697ZM137.945 244.688C136.672 240.919 133.953 237.811 130.388 236.046C126.823 234.281 122.702 234.005 118.933 235.278C115.164 236.551 112.055 239.27 110.291 242.835C108.526 246.4 108.25 250.521 109.523 254.29L114.324 268.501C115.597 272.27 118.315 275.379 121.88 277.143C125.446 278.908 129.566 279.184 133.335 277.911C137.104 276.638 140.213 273.92 141.978 270.354C143.743 266.789 144.019 262.668 142.746 258.899L137.945 244.688Z" fill="#2962FF"/>
</g>
<g filter="url(#filter9_b_179_655)">
<mask id="path-14-inside-2_179_655" fill="white">
<path d="M44 295.498C44 283.625 53.6248 274 65.4976 274H130.502C142.375 274 152 283.625 152 295.498V361.27C152 373.143 142.375 382.768 130.502 382.768H65.4976C53.6248 382.768 44 373.143 44 361.27V295.498Z"/>
</mask>
<path d="M44 295.498C44 283.625 53.6248 274 65.4976 274H130.502C142.375 274 152 283.625 152 295.498V361.27C152 373.143 142.375 382.768 130.502 382.768H65.4976C53.6248 382.768 44 373.143 44 361.27V295.498Z" fill="white"/>
<path d="M43 295.498C43 283.183 52.983 273.2 65.2976 273.2H130.702C143.017 273.2 153 283.183 153 295.498H151C151 284.067 141.823 274.8 130.502 274.8H65.4976C54.1771 274.8 45 284.067 45 295.498H43ZM152 382.768H44H152ZM65.4976 382.768C53.0725 382.768 43 372.695 43 360.27V295.498C43 283.183 52.983 273.2 65.2976 273.2L65.4976 274.8C54.1771 274.8 45 284.067 45 295.498V361.27C45 373.143 54.1771 382.768 65.4976 382.768ZM130.702 273.2C143.017 273.2 153 283.183 153 295.498V360.27C153 372.695 142.927 382.768 130.502 382.768C141.823 382.768 151 373.143 151 361.27V295.498C151 284.067 141.823 274.8 130.502 274.8L130.702 273.2Z" fill="url(#paint3_linear_179_655)" fill-opacity="0.7" mask="url(#path-14-inside-2_179_655)"/>
<g clip-path="url(#clip3_179_655)">
<rect x="50.1426" y="280.142" width="95.7156" height="96.4834" rx="15.3555" fill="#F3F3F5"/>
<path d="M114.25 340.5C114.25 340.831 114.118 341.149 113.884 341.384C113.649 341.618 113.332 341.75 113 341.75H83C82.6685 341.75 82.3505 341.618 82.1161 341.384C81.8817 341.149 81.75 340.831 81.75 340.5C81.75 340.168 81.8817 339.85 82.1161 339.616C82.3505 339.382 82.6685 339.25 83 339.25H113C113.332 339.25 113.649 339.382 113.884 339.616C114.118 339.85 114.25 340.168 114.25 340.5ZM114.25 316.75V334.25C114.25 334.913 113.987 335.549 113.518 336.018C113.049 336.487 112.413 336.75 111.75 336.75H84.25C83.587 336.75 82.9511 336.487 82.4822 336.018C82.0134 335.549 81.75 334.913 81.75 334.25V316.75C81.75 316.087 82.0134 315.451 82.4822 314.982C82.9511 314.513 83.587 314.25 84.25 314.25H111.75C112.413 314.25 113.049 314.513 113.518 314.982C113.987 315.451 114.25 316.087 114.25 316.75ZM103.625 325.5C103.625 325.299 103.576 325.101 103.484 324.923C103.391 324.745 103.257 324.592 103.092 324.477L96.8422 320.102C96.6549 319.97 96.4352 319.893 96.207 319.878C95.9789 319.863 95.7509 319.911 95.5481 320.016C95.3452 320.122 95.1752 320.281 95.0565 320.477C94.9379 320.672 94.8751 320.896 94.875 321.125V329.875C94.8751 330.104 94.9379 330.328 95.0565 330.523C95.1752 330.719 95.3452 330.878 95.5481 330.983C95.7509 331.089 95.9789 331.137 96.207 331.122C96.4352 331.107 96.6549 331.03 96.8422 330.898L103.092 326.523C103.257 326.408 103.391 326.255 103.484 326.077C103.576 325.899 103.625 325.701 103.625 325.5Z" fill="#2962FF"/>
<g filter="url(#filter10_f_179_655)">
<line x1="51.6534" y1="372.273" x2="143.153" y2="284.273" stroke="url(#paint4_linear_179_655)"/>
</g>
<g opacity="0.2" filter="url(#filter11_f_179_655)">
<rect width="124.476" height="10.6652" transform="translate(156.01 298.022) rotate(134.834)" fill="white"/>
</g>
<g opacity="0.2" filter="url(#filter12_f_179_655)">
<rect width="124.476" height="9.76843" transform="translate(132.436 274.44) rotate(134.834)" fill="white"/>
</g>
<g opacity="0.4" filter="url(#filter13_f_179_655)">
<rect x="56" y="265.134" width="82" height="25.5" rx="12.75" fill="#2962FF"/>
</g>
<g opacity="0.4" filter="url(#filter14_f_179_655)">
<rect x="57.5" y="368.134" width="86" height="13" rx="6.5" fill="#2962FF"/>
</g>
<g opacity="0.4" filter="url(#filter15_f_179_655)">
<rect x="138" y="296.134" width="8" height="54.5" rx="4" fill="#2962FF"/>
</g>
<g opacity="0.4" filter="url(#filter16_f_179_655)">
<rect x="50" y="301.134" width="10.5" height="54.5" rx="5.25" fill="#2962FF"/>
</g>
<g style="mix-blend-mode:plus-lighter" opacity="0.1" filter="url(#filter17_f_179_655)">
<rect width="10.5" height="46" transform="translate(92.5 309.134)" fill="#2D7AFE"/>
</g>
</g>
<rect x="50.5265" y="280.526" width="94.9479" height="95.7156" rx="14.9716" stroke="url(#paint5_linear_179_655)" stroke-width="0.767773"/>
</g>
<g filter="url(#filter18_b_179_655)">
<mask id="path-24-inside-3_179_655" fill="white">
<path d="M293 215.498C293 203.625 302.625 194 314.498 194H379.502C391.375 194 401 203.625 401 215.498V281.27C401 293.143 391.375 302.768 379.502 302.768H314.498C302.625 302.768 293 293.143 293 281.27V215.498Z"/>
</mask>
<path d="M293 215.498C293 203.625 302.625 194 314.498 194H379.502C391.375 194 401 203.625 401 215.498V281.27C401 293.143 391.375 302.768 379.502 302.768H314.498C302.625 302.768 293 293.143 293 281.27V215.498Z" fill="white"/>
<path d="M292 215.498C292 203.183 301.983 193.2 314.298 193.2H379.702C392.017 193.2 402 203.183 402 215.498H400C400 204.067 390.823 194.8 379.502 194.8H314.498C303.177 194.8 294 204.067 294 215.498H292ZM401 302.768H293H401ZM314.498 302.768C302.073 302.768 292 292.695 292 280.27V215.498C292 203.183 301.983 193.2 314.298 193.2L314.498 194.8C303.177 194.8 294 204.067 294 215.498V281.27C294 293.143 303.177 302.768 314.498 302.768ZM379.702 193.2C392.017 193.2 402 203.183 402 215.498V280.27C402 292.695 391.927 302.768 379.502 302.768C390.823 302.768 400 293.143 400 281.27V215.498C400 204.067 390.823 194.8 379.502 194.8L379.702 193.2Z" fill="url(#paint6_linear_179_655)" fill-opacity="0.7" mask="url(#path-24-inside-3_179_655)"/>
<g clip-path="url(#clip4_179_655)">
<rect x="299.143" y="200.142" width="95.7156" height="96.4834" rx="15.3555" fill="#F3F3F5"/>
<path fill-rule="evenodd" clip-rule="evenodd" d="M330.451 236.763C330.334 237.377 330.334 238.113 330.334 239.583V251.333C330.334 257.618 330.334 260.762 332.287 262.713C334.241 264.665 337.382 264.667 343.667 264.667H350.334C356.619 264.667 359.762 264.667 361.714 262.713C363.666 260.76 363.667 257.618 363.667 251.333V247.663C363.667 243.277 363.667 241.082 362.384 239.657C362.266 239.525 362.142 239.4 362.011 239.282C360.586 238 358.391 238 354.004 238H353.381C351.459 238 350.497 238 349.601 237.745C349.109 237.604 348.634 237.407 348.187 237.158C347.374 236.707 346.694 236.025 345.334 234.667L344.417 233.75C343.961 233.293 343.734 233.067 343.494 232.867C342.462 232.011 341.196 231.486 339.861 231.362C339.551 231.333 339.227 231.333 338.584 231.333C337.112 231.333 336.377 231.333 335.764 231.45C334.447 231.699 333.236 232.338 332.288 233.286C331.34 234.234 330.7 235.446 330.451 236.763ZM354.139 233C354.747 233 355.052 233 355.309 233.033C357.006 233.267 358.356 234.605 358.666 236.333C358.412 236.276 358.155 236.231 357.897 236.198C356.831 236.058 355.484 236.058 353.814 236.058H353.257C351.687 236.058 351.091 236.05 350.549 235.89C350.234 235.797 349.93 235.666 349.646 235.502C349.152 235.218 348.726 234.788 347.616 233.638L347.001 233H354.139ZM348.667 243.417C348.336 243.417 348.018 243.548 347.783 243.783C347.549 244.017 347.417 244.335 347.417 244.667C347.417 244.998 347.549 245.316 347.783 245.55C348.018 245.785 348.336 245.917 348.667 245.917H357.001C357.332 245.917 357.65 245.785 357.885 245.55C358.119 245.316 358.251 244.998 358.251 244.667C358.251 244.335 358.119 244.017 357.885 243.783C357.65 243.548 357.332 243.417 357.001 243.417H348.667Z" fill="#2962FF"/>
<g filter="url(#filter19_f_179_655)">
<line x1="300.653" y1="292.273" x2="392.153" y2="204.273" stroke="url(#paint7_linear_179_655)"/>
</g>
<g opacity="0.2" filter="url(#filter20_f_179_655)">
<rect width="124.476" height="10.6652" transform="translate(405.01 218.022) rotate(134.834)" fill="white"/>
</g>
<g opacity="0.2" filter="url(#filter21_f_179_655)">
<rect width="124.476" height="9.76843" transform="translate(381.436 194.44) rotate(134.834)" fill="white"/>
</g>
<g opacity="0.4" filter="url(#filter22_f_179_655)">
<rect x="305" y="185.134" width="82" height="25.5" rx="12.75" fill="#2962FF"/>
</g>
<g opacity="0.4" filter="url(#filter23_f_179_655)">
<rect x="306.5" y="288.134" width="86" height="13" rx="6.5" fill="#2962FF"/>
</g>
<g opacity="0.4" filter="url(#filter24_f_179_655)">
<rect x="387" y="216.134" width="8" height="54.5" rx="4" fill="#2962FF"/>
</g>
<g opacity="0.4" filter="url(#filter25_f_179_655)">
<rect x="299" y="221.134" width="10.5" height="54.5" rx="5.25" fill="#2962FF"/>
</g>
<g style="mix-blend-mode:plus-lighter" opacity="0.1" filter="url(#filter26_f_179_655)">
<rect width="10.5" height="46" transform="translate(341.5 229.134)" fill="#2D7AFE"/>
</g>
</g>
<rect x="299.526" y="200.526" width="94.9479" height="95.7156" rx="14.9716" stroke="url(#paint8_linear_179_655)" stroke-width="0.767773"/>
</g>
<g filter="url(#filter27_b_179_655)">
<mask id="path-34-inside-4_179_655" fill="white">
<path d="M0 85.4976C0 73.6248 9.62482 64 21.4976 64H86.5024C98.3752 64 108 73.6248 108 85.4976V151.27C108 163.143 98.3752 172.768 86.5024 172.768H21.4976C9.62482 172.768 0 163.143 0 151.27V85.4976Z"/>
</mask>
<path d="M0 85.4976C0 73.6248 9.62482 64 21.4976 64H86.5024C98.3752 64 108 73.6248 108 85.4976V151.27C108 163.143 98.3752 172.768 86.5024 172.768H21.4976C9.62482 172.768 0 163.143 0 151.27V85.4976Z" fill="white"/>
<path d="M-1 85.4976C-1 73.183 8.98299 63.2 21.2976 63.2H86.7024C99.017 63.2 109 73.183 109 85.4976H107C107 74.0666 97.8229 64.8 86.5024 64.8H21.4976C10.1771 64.8 1 74.0666 1 85.4976H-1ZM108 172.768H0H108ZM21.4976 172.768C9.07253 172.768 -1 162.695 -1 150.27V85.4976C-1 73.183 8.98299 63.2 21.2976 63.2L21.4976 64.8C10.1771 64.8 1 74.0666 1 85.4976V151.27C1 163.143 10.1771 172.768 21.4976 172.768ZM86.7024 63.2C99.017 63.2 109 73.183 109 85.4976V150.27C109 162.695 98.9275 172.768 86.5024 172.768C97.8229 172.768 107 163.143 107 151.27V85.4976C107 74.0666 97.8229 64.8 86.5024 64.8L86.7024 63.2Z" fill="url(#paint9_linear_179_655)" fill-opacity="0.7" mask="url(#path-34-inside-4_179_655)"/>
<g clip-path="url(#clip5_179_655)">
<rect x="6.14258" y="70.142" width="95.7156" height="96.4834" rx="15.3555" fill="#F3F3F5"/>
<g clip-path="url(#clip6_179_655)">
<path d="M62.725 106.362L58.3625 102H54.725L59.0875 106.362H62.725ZM39.4562 102H38V106.362H43.8187L39.4562 102ZM53.275 106.362L48.9062 102H45.2688L49.6313 106.362H53.275ZM64.1812 112.181H58.3625L62.725 107.819H59.0875L54.725 112.181H48.9062L53.2688 107.819H49.6313L45.2688 112.181H39.4562L43.8187 107.819H38V131.094C38 132.694 39.3062 134 40.9062 134H67.0875C68.6938 134 69.9937 132.694 69.9937 131.094V107.819H68.5375L64.1812 112.181ZM49.6375 129.637V116.544L61.275 123.087L49.6375 129.637ZM64.1812 102L68.5438 106.362H70V102H64.1812Z" fill="#2962FF"/>
</g>
<g filter="url(#filter28_f_179_655)">
<line x1="7.65341" y1="162.273" x2="99.1534" y2="74.2734" stroke="url(#paint10_linear_179_655)"/>
</g>
<g opacity="0.2" filter="url(#filter29_f_179_655)">
<rect width="124.476" height="10.6652" transform="translate(112.01 88.0217) rotate(134.834)" fill="white"/>
</g>
<g opacity="0.2" filter="url(#filter30_f_179_655)">
<rect width="124.476" height="9.76843" transform="translate(88.4355 64.4398) rotate(134.834)" fill="white"/>
</g>
<g opacity="0.4" filter="url(#filter31_f_179_655)">
<rect x="12" y="55.1337" width="82" height="25.5" rx="12.75" fill="#2962FF"/>
</g>
<g opacity="0.4" filter="url(#filter32_f_179_655)">
<rect x="13.5" y="158.134" width="86" height="13" rx="6.5" fill="#2962FF"/>
</g>
<g opacity="0.4" filter="url(#filter33_f_179_655)">
<rect x="94" y="86.1337" width="8" height="54.5" rx="4" fill="#2962FF"/>
</g>
<g opacity="0.4" filter="url(#filter34_f_179_655)">
<rect x="6" y="91.1337" width="10.5" height="54.5" rx="5.25" fill="#2962FF"/>
</g>
<g style="mix-blend-mode:plus-lighter" opacity="0.1" filter="url(#filter35_f_179_655)">
<rect width="10.5" height="46" transform="translate(48.5 99.1337)" fill="#2D7AFE"/>
</g>
</g>
<rect x="6.52646" y="70.5259" width="94.9479" height="95.7156" rx="14.9716" stroke="url(#paint11_linear_179_655)" stroke-width="0.767773"/>
</g>
<defs>
<filter id="filter0_b_179_655" x="226" y="-12" width="132" height="132.768" filterUnits="userSpaceOnUse" color-interpolation-filters="sRGB">
<feFlood flood-opacity="0" result="BackgroundImageFix"/>
<feGaussianBlur in="BackgroundImageFix" stdDeviation="6"/>
<feComposite in2="SourceAlpha" operator="in" result="effect1_backgroundBlur_179_655"/>
<feBlend mode="normal" in="SourceGraphic" in2="effect1_backgroundBlur_179_655" result="shape"/>
</filter>
<filter id="filter1_f_179_655" x="238.307" y="2.91296" width="106.193" height="102.721" filterUnits="userSpaceOnUse" color-interpolation-filters="sRGB">
<feFlood flood-opacity="0" result="BackgroundImageFix"/>
<feBlend mode="normal" in="SourceGraphic" in2="BackgroundImageFix" result="shape"/>
<feGaussianBlur stdDeviation="3.5" result="effect1_foregroundBlur_179_655"/>
</filter>
<filter id="filter2_f_179_655" x="229.684" y="-8.49792" width="145.326" height="145.792" filterUnits="userSpaceOnUse" color-interpolation-filters="sRGB">
<feFlood flood-opacity="0" result="BackgroundImageFix"/>
<feBlend mode="normal" in="SourceGraphic" in2="BackgroundImageFix" result="shape"/>
<feGaussianBlur stdDeviation="12.5" result="effect1_foregroundBlur_179_655"/>
</filter>
<filter id="filter3_f_179_655" x="206.746" y="-31.4475" width="144.689" height="145.159" filterUnits="userSpaceOnUse" color-interpolation-filters="sRGB">
<feFlood flood-opacity="0" result="BackgroundImageFix"/>
<feBlend mode="normal" in="SourceGraphic" in2="BackgroundImageFix" result="shape"/>
<feGaussianBlur stdDeviation="12.5" result="effect1_foregroundBlur_179_655"/>
</filter>
<filter id="filter4_f_179_655" x="230" y="-28.8662" width="122" height="65.5" filterUnits="userSpaceOnUse" color-interpolation-filters="sRGB">
<feFlood flood-opacity="0" result="BackgroundImageFix"/>
<feBlend mode="normal" in="SourceGraphic" in2="BackgroundImageFix" result="shape"/>
<feGaussianBlur stdDeviation="10" result="effect1_foregroundBlur_179_655"/>
</filter>
<filter id="filter5_f_179_655" x="231.5" y="74.1337" width="126" height="53" filterUnits="userSpaceOnUse" color-interpolation-filters="sRGB">
<feFlood flood-opacity="0" result="BackgroundImageFix"/>
<feBlend mode="normal" in="SourceGraphic" in2="BackgroundImageFix" result="shape"/>
<feGaussianBlur stdDeviation="10" result="effect1_foregroundBlur_179_655"/>
</filter>
<filter id="filter6_f_179_655" x="312" y="2.13373" width="48" height="94.5" filterUnits="userSpaceOnUse" color-interpolation-filters="sRGB">
<feFlood flood-opacity="0" result="BackgroundImageFix"/>
<feBlend mode="normal" in="SourceGraphic" in2="BackgroundImageFix" result="shape"/>
<feGaussianBlur stdDeviation="10" result="effect1_foregroundBlur_179_655"/>
</filter>
<filter id="filter7_f_179_655" x="224" y="7.13373" width="50.5" height="94.5" filterUnits="userSpaceOnUse" color-interpolation-filters="sRGB">
<feFlood flood-opacity="0" result="BackgroundImageFix"/>
<feBlend mode="normal" in="SourceGraphic" in2="BackgroundImageFix" result="shape"/>
<feGaussianBlur stdDeviation="10" result="effect1_foregroundBlur_179_655"/>
</filter>
<filter id="filter8_f_179_655" x="277.5" y="26.1337" width="28.5" height="64" filterUnits="userSpaceOnUse" color-interpolation-filters="sRGB">
<feFlood flood-opacity="0" result="BackgroundImageFix"/>
<feBlend mode="normal" in="SourceGraphic" in2="BackgroundImageFix" result="shape"/>
<feGaussianBlur stdDeviation="4.5" result="effect1_foregroundBlur_179_655"/>
</filter>
<filter id="filter9_b_179_655" x="32" y="262" width="132" height="132.768" filterUnits="userSpaceOnUse" color-interpolation-filters="sRGB">
<feFlood flood-opacity="0" result="BackgroundImageFix"/>
<feGaussianBlur in="BackgroundImageFix" stdDeviation="6"/>
<feComposite in2="SourceAlpha" operator="in" result="effect1_backgroundBlur_179_655"/>
<feBlend mode="normal" in="SourceGraphic" in2="effect1_backgroundBlur_179_655" result="shape"/>
</filter>
<filter id="filter10_f_179_655" x="44.3066" y="276.913" width="106.193" height="102.721" filterUnits="userSpaceOnUse" color-interpolation-filters="sRGB">
<feFlood flood-opacity="0" result="BackgroundImageFix"/>
<feBlend mode="normal" in="SourceGraphic" in2="BackgroundImageFix" result="shape"/>
<feGaussianBlur stdDeviation="3.5" result="effect1_foregroundBlur_179_655"/>
</filter>
<filter id="filter11_f_179_655" x="35.6836" y="265.502" width="145.326" height="145.792" filterUnits="userSpaceOnUse" color-interpolation-filters="sRGB">
<feFlood flood-opacity="0" result="BackgroundImageFix"/>
<feBlend mode="normal" in="SourceGraphic" in2="BackgroundImageFix" result="shape"/>
<feGaussianBlur stdDeviation="12.5" result="effect1_foregroundBlur_179_655"/>
</filter>
<filter id="filter12_f_179_655" x="12.7461" y="242.552" width="144.689" height="145.159" filterUnits="userSpaceOnUse" color-interpolation-filters="sRGB">
<feFlood flood-opacity="0" result="BackgroundImageFix"/>
<feBlend mode="normal" in="SourceGraphic" in2="BackgroundImageFix" result="shape"/>
<feGaussianBlur stdDeviation="12.5" result="effect1_foregroundBlur_179_655"/>
</filter>
<filter id="filter13_f_179_655" x="36" y="245.134" width="122" height="65.5" filterUnits="userSpaceOnUse" color-interpolation-filters="sRGB">
<feFlood flood-opacity="0" result="BackgroundImageFix"/>
<feBlend mode="normal" in="SourceGraphic" in2="BackgroundImageFix" result="shape"/>
<feGaussianBlur stdDeviation="10" result="effect1_foregroundBlur_179_655"/>
</filter>
<filter id="filter14_f_179_655" x="37.5" y="348.134" width="126" height="53" filterUnits="userSpaceOnUse" color-interpolation-filters="sRGB">
<feFlood flood-opacity="0" result="BackgroundImageFix"/>
<feBlend mode="normal" in="SourceGraphic" in2="BackgroundImageFix" result="shape"/>
<feGaussianBlur stdDeviation="10" result="effect1_foregroundBlur_179_655"/>
</filter>
<filter id="filter15_f_179_655" x="118" y="276.134" width="48" height="94.5" filterUnits="userSpaceOnUse" color-interpolation-filters="sRGB">
<feFlood flood-opacity="0" result="BackgroundImageFix"/>
<feBlend mode="normal" in="SourceGraphic" in2="BackgroundImageFix" result="shape"/>
<feGaussianBlur stdDeviation="10" result="effect1_foregroundBlur_179_655"/>
</filter>
<filter id="filter16_f_179_655" x="30" y="281.134" width="50.5" height="94.5" filterUnits="userSpaceOnUse" color-interpolation-filters="sRGB">
<feFlood flood-opacity="0" result="BackgroundImageFix"/>
<feBlend mode="normal" in="SourceGraphic" in2="BackgroundImageFix" result="shape"/>
<feGaussianBlur stdDeviation="10" result="effect1_foregroundBlur_179_655"/>
</filter>
<filter id="filter17_f_179_655" x="83.5" y="300.134" width="28.5" height="64" filterUnits="userSpaceOnUse" color-interpolation-filters="sRGB">
<feFlood flood-opacity="0" result="BackgroundImageFix"/>
<feBlend mode="normal" in="SourceGraphic" in2="BackgroundImageFix" result="shape"/>
<feGaussianBlur stdDeviation="4.5" result="effect1_foregroundBlur_179_655"/>
</filter>
<filter id="filter18_b_179_655" x="281" y="182" width="132" height="132.768" filterUnits="userSpaceOnUse" color-interpolation-filters="sRGB">
<feFlood flood-opacity="0" result="BackgroundImageFix"/>
<feGaussianBlur in="BackgroundImageFix" stdDeviation="6"/>
<feComposite in2="SourceAlpha" operator="in" result="effect1_backgroundBlur_179_655"/>
<feBlend mode="normal" in="SourceGraphic" in2="effect1_backgroundBlur_179_655" result="shape"/>
</filter>
<filter id="filter19_f_179_655" x="293.307" y="196.913" width="106.193" height="102.721" filterUnits="userSpaceOnUse" color-interpolation-filters="sRGB">
<feFlood flood-opacity="0" result="BackgroundImageFix"/>
<feBlend mode="normal" in="SourceGraphic" in2="BackgroundImageFix" result="shape"/>
<feGaussianBlur stdDeviation="3.5" result="effect1_foregroundBlur_179_655"/>
</filter>
<filter id="filter20_f_179_655" x="284.684" y="185.502" width="145.326" height="145.792" filterUnits="userSpaceOnUse" color-interpolation-filters="sRGB">
<feFlood flood-opacity="0" result="BackgroundImageFix"/>
<feBlend mode="normal" in="SourceGraphic" in2="BackgroundImageFix" result="shape"/>
<feGaussianBlur stdDeviation="12.5" result="effect1_foregroundBlur_179_655"/>
</filter>
<filter id="filter21_f_179_655" x="261.746" y="162.552" width="144.689" height="145.159" filterUnits="userSpaceOnUse" color-interpolation-filters="sRGB">
<feFlood flood-opacity="0" result="BackgroundImageFix"/>
<feBlend mode="normal" in="SourceGraphic" in2="BackgroundImageFix" result="shape"/>
<feGaussianBlur stdDeviation="12.5" result="effect1_foregroundBlur_179_655"/>
</filter>
<filter id="filter22_f_179_655" x="285" y="165.134" width="122" height="65.5" filterUnits="userSpaceOnUse" color-interpolation-filters="sRGB">
<feFlood flood-opacity="0" result="BackgroundImageFix"/>
<feBlend mode="normal" in="SourceGraphic" in2="BackgroundImageFix" result="shape"/>
<feGaussianBlur stdDeviation="10" result="effect1_foregroundBlur_179_655"/>
</filter>
<filter id="filter23_f_179_655" x="286.5" y="268.134" width="126" height="53" filterUnits="userSpaceOnUse" color-interpolation-filters="sRGB">
<feFlood flood-opacity="0" result="BackgroundImageFix"/>
<feBlend mode="normal" in="SourceGraphic" in2="BackgroundImageFix" result="shape"/>
<feGaussianBlur stdDeviation="10" result="effect1_foregroundBlur_179_655"/>
</filter>
<filter id="filter24_f_179_655" x="367" y="196.134" width="48" height="94.5" filterUnits="userSpaceOnUse" color-interpolation-filters="sRGB">
<feFlood flood-opacity="0" result="BackgroundImageFix"/>
<feBlend mode="normal" in="SourceGraphic" in2="BackgroundImageFix" result="shape"/>
<feGaussianBlur stdDeviation="10" result="effect1_foregroundBlur_179_655"/>
</filter>
<filter id="filter25_f_179_655" x="279" y="201.134" width="50.5" height="94.5" filterUnits="userSpaceOnUse" color-interpolation-filters="sRGB">
<feFlood flood-opacity="0" result="BackgroundImageFix"/>
<feBlend mode="normal" in="SourceGraphic" in2="BackgroundImageFix" result="shape"/>
<feGaussianBlur stdDeviation="10" result="effect1_foregroundBlur_179_655"/>
</filter>
<filter id="filter26_f_179_655" x="332.5" y="220.134" width="28.5" height="64" filterUnits="userSpaceOnUse" color-interpolation-filters="sRGB">
<feFlood flood-opacity="0" result="BackgroundImageFix"/>
<feBlend mode="normal" in="SourceGraphic" in2="BackgroundImageFix" result="shape"/>
<feGaussianBlur stdDeviation="4.5" result="effect1_foregroundBlur_179_655"/>
</filter>
<filter id="filter27_b_179_655" x="-12" y="52" width="132" height="132.768" filterUnits="userSpaceOnUse" color-interpolation-filters="sRGB">
<feFlood flood-opacity="0" result="BackgroundImageFix"/>
<feGaussianBlur in="BackgroundImageFix" stdDeviation="6"/>
<feComposite in2="SourceAlpha" operator="in" result="effect1_backgroundBlur_179_655"/>
<feBlend mode="normal" in="SourceGraphic" in2="effect1_backgroundBlur_179_655" result="shape"/>
</filter>
<filter id="filter28_f_179_655" x="0.306641" y="66.913" width="106.193" height="102.721" filterUnits="userSpaceOnUse" color-interpolation-filters="sRGB">
<feFlood flood-opacity="0" result="BackgroundImageFix"/>
<feBlend mode="normal" in="SourceGraphic" in2="BackgroundImageFix" result="shape"/>
<feGaussianBlur stdDeviation="3.5" result="effect1_foregroundBlur_179_655"/>
</filter>
<filter id="filter29_f_179_655" x="-8.31641" y="55.5021" width="145.326" height="145.792" filterUnits="userSpaceOnUse" color-interpolation-filters="sRGB">
<feFlood flood-opacity="0" result="BackgroundImageFix"/>
<feBlend mode="normal" in="SourceGraphic" in2="BackgroundImageFix" result="shape"/>
<feGaussianBlur stdDeviation="12.5" result="effect1_foregroundBlur_179_655"/>
</filter>
<filter id="filter30_f_179_655" x="-31.2539" y="32.5524" width="144.689" height="145.159" filterUnits="userSpaceOnUse" color-interpolation-filters="sRGB">
<feFlood flood-opacity="0" result="BackgroundImageFix"/>
<feBlend mode="normal" in="SourceGraphic" in2="BackgroundImageFix" result="shape"/>
<feGaussianBlur stdDeviation="12.5" result="effect1_foregroundBlur_179_655"/>
</filter>
<filter id="filter31_f_179_655" x="-8" y="35.1337" width="122" height="65.5" filterUnits="userSpaceOnUse" color-interpolation-filters="sRGB">
<feFlood flood-opacity="0" result="BackgroundImageFix"/>
<feBlend mode="normal" in="SourceGraphic" in2="BackgroundImageFix" result="shape"/>
<feGaussianBlur stdDeviation="10" result="effect1_foregroundBlur_179_655"/>
</filter>
<filter id="filter32_f_179_655" x="-6.5" y="138.134" width="126" height="53" filterUnits="userSpaceOnUse" color-interpolation-filters="sRGB">
<feFlood flood-opacity="0" result="BackgroundImageFix"/>
<feBlend mode="normal" in="SourceGraphic" in2="BackgroundImageFix" result="shape"/>
<feGaussianBlur stdDeviation="10" result="effect1_foregroundBlur_179_655"/>
</filter>
<filter id="filter33_f_179_655" x="74" y="66.1337" width="48" height="94.5" filterUnits="userSpaceOnUse" color-interpolation-filters="sRGB">
<feFlood flood-opacity="0" result="BackgroundImageFix"/>
<feBlend mode="normal" in="SourceGraphic" in2="BackgroundImageFix" result="shape"/>
<feGaussianBlur stdDeviation="10" result="effect1_foregroundBlur_179_655"/>
</filter>
<filter id="filter34_f_179_655" x="-14" y="71.1337" width="50.5" height="94.5" filterUnits="userSpaceOnUse" color-interpolation-filters="sRGB">
<feFlood flood-opacity="0" result="BackgroundImageFix"/>
<feBlend mode="normal" in="SourceGraphic" in2="BackgroundImageFix" result="shape"/>
<feGaussianBlur stdDeviation="10" result="effect1_foregroundBlur_179_655"/>
</filter>
<filter id="filter35_f_179_655" x="39.5" y="90.1337" width="28.5" height="64" filterUnits="userSpaceOnUse" color-interpolation-filters="sRGB">
<feFlood flood-opacity="0" result="BackgroundImageFix"/>
<feBlend mode="normal" in="SourceGraphic" in2="BackgroundImageFix" result="shape"/>
<feGaussianBlur stdDeviation="4.5" result="effect1_foregroundBlur_179_655"/>
</filter>
<linearGradient id="paint0_linear_179_655" x1="344.976" y1="2.43128" x2="236.5" y2="115.652" gradientUnits="userSpaceOnUse">
<stop offset="0.0360406" stop-color="#2D7AFE"/>
<stop offset="0.214314" stop-color="#2D7AFE" stop-opacity="0"/>
</linearGradient>
<linearGradient id="paint1_linear_179_655" x1="337.847" y1="10.9941" x2="246.347" y2="98.9941" gradientUnits="userSpaceOnUse">
<stop offset="0.804766" stop-color="#2962FF"/>
<stop offset="1" stop-color="#2962FF" stop-opacity="0"/>
</linearGradient>
<linearGradient id="paint2_linear_179_655" x1="335.891" y1="99.2984" x2="326.759" y2="89.6255" gradientUnits="userSpaceOnUse">
<stop stop-color="#2D7AFE"/>
<stop offset="0.376037" stop-color="#2D7AFE" stop-opacity="0"/>
</linearGradient>
<linearGradient id="paint3_linear_179_655" x1="150.976" y1="276.431" x2="42.5" y2="389.652" gradientUnits="userSpaceOnUse">
<stop offset="0.0360406" stop-color="#2D7AFE"/>
<stop offset="0.214314" stop-color="#2D7AFE" stop-opacity="0"/>
</linearGradient>
<linearGradient id="paint4_linear_179_655" x1="143.847" y1="284.994" x2="52.3466" y2="372.994" gradientUnits="userSpaceOnUse">
<stop offset="0.804766" stop-color="#2962FF"/>
<stop offset="1" stop-color="#2962FF" stop-opacity="0"/>
</linearGradient>
<linearGradient id="paint5_linear_179_655" x1="141.891" y1="373.298" x2="132.759" y2="363.625" gradientUnits="userSpaceOnUse">
<stop stop-color="#2D7AFE"/>
<stop offset="0.376037" stop-color="#2D7AFE" stop-opacity="0"/>
</linearGradient>
<linearGradient id="paint6_linear_179_655" x1="399.976" y1="196.431" x2="291.5" y2="309.652" gradientUnits="userSpaceOnUse">
<stop offset="0.0360406" stop-color="#2D7AFE"/>
<stop offset="0.214314" stop-color="#2D7AFE" stop-opacity="0"/>
</linearGradient>
<linearGradient id="paint7_linear_179_655" x1="392.847" y1="204.994" x2="301.347" y2="292.994" gradientUnits="userSpaceOnUse">
<stop offset="0.804766" stop-color="#2962FF"/>
<stop offset="1" stop-color="#2962FF" stop-opacity="0"/>
</linearGradient>
<linearGradient id="paint8_linear_179_655" x1="390.891" y1="293.298" x2="381.759" y2="283.625" gradientUnits="userSpaceOnUse">
<stop stop-color="#2D7AFE"/>
<stop offset="0.376037" stop-color="#2D7AFE" stop-opacity="0"/>
</linearGradient>
<linearGradient id="paint9_linear_179_655" x1="106.976" y1="66.4313" x2="-1.49999" y2="179.652" gradientUnits="userSpaceOnUse">
<stop offset="0.0360406" stop-color="#2D7AFE"/>
<stop offset="0.214314" stop-color="#2D7AFE" stop-opacity="0"/>
</linearGradient>
<linearGradient id="paint10_linear_179_655" x1="99.8466" y1="74.9941" x2="8.34659" y2="162.994" gradientUnits="userSpaceOnUse">
<stop offset="0.804766" stop-color="#2962FF"/>
<stop offset="1" stop-color="#2962FF" stop-opacity="0"/>
</linearGradient>
<linearGradient id="paint11_linear_179_655" x1="97.8914" y1="163.298" x2="88.7591" y2="153.625" gradientUnits="userSpaceOnUse">
<stop stop-color="#2D7AFE"/>
<stop offset="0.376037" stop-color="#2D7AFE" stop-opacity="0"/>
</linearGradient>
<clipPath id="clip0_179_655">
<rect x="244.143" y="6.14203" width="95.7156" height="96.4834" rx="15.3555" fill="white"/>
</clipPath>
<clipPath id="clip1_179_655">
<rect width="40" height="40" fill="white" transform="translate(272 33.9999)"/>
</clipPath>
<clipPath id="clip2_179_655">
<rect width="240" height="240" fill="white" transform="translate(48.9062 121.717) rotate(-18.6657)"/>
</clipPath>
<clipPath id="clip3_179_655">
<rect x="50.1426" y="280.142" width="95.7156" height="96.4834" rx="15.3555" fill="white"/>
</clipPath>
<clipPath id="clip4_179_655">
<rect x="299.143" y="200.142" width="95.7156" height="96.4834" rx="15.3555" fill="white"/>
</clipPath>
<clipPath id="clip5_179_655">
<rect x="6.14258" y="70.142" width="95.7156" height="96.4834" rx="15.3555" fill="white"/>
</clipPath>
<clipPath id="clip6_179_655">
<rect width="32" height="32" fill="white" transform="translate(38 102)"/>
</clipPath>
</defs>
</svg>
