<svg class="z-1 w-full" width="577" height="396" viewBox="0 0 577 396" fill="none" xmlns="http://www.w3.org/2000/svg">
<g clip-path="url(#clip0_178_652)">
<rect x="63" y="2" width="451" height="392" rx="10.2432" fill="url(#paint0_linear_178_652)"/>
<g opacity="0.6" filter="url(#filter0_f_178_652)">
<rect x="393.969" y="41.5215" width="1.14209" height="1.14209" rx="0.571043" transform="rotate(138.383 393.969 41.5215)" fill="white"/>
</g>
<g opacity="0.6" filter="url(#filter1_f_178_652)">
<rect x="397.424" y="16.1477" width="1.14209" height="1.14209" rx="0.571043" transform="rotate(138.383 397.424 16.1477)" fill="white"/>
</g>
<g opacity="0.6" filter="url(#filter2_f_178_652)">
<rect x="401.398" y="7.71924" width="1.14209" height="1.14209" rx="0.571043" transform="rotate(-159.61 401.398 7.71924)" fill="white"/>
</g>
<g opacity="0.6" filter="url(#filter3_f_178_652)">
<rect width="1.14209" height="1.14209" rx="0.571043" transform="matrix(0.231267 -0.97289 -0.97289 -0.231267 366.355 19.9553)" fill="white"/>
</g>
<g opacity="0.3" filter="url(#filter4_f_178_652)">
<rect x="378.627" y="35.6975" width="1.14209" height="1.14209" rx="0.571043" transform="rotate(138.383 378.627 35.6975)" fill="white"/>
</g>
<g opacity="0.3" filter="url(#filter5_f_178_652)">
<rect x="380.932" y="18.7816" width="1.14209" height="1.14209" rx="0.571043" transform="rotate(138.383 380.932 18.7816)" fill="white"/>
</g>
<g opacity="0.3" filter="url(#filter6_f_178_652)">
<rect width="1.14209" height="1.14209" rx="0.571043" transform="matrix(0.231267 -0.97289 -0.97289 -0.231267 377.199 5.87488)" fill="white"/>
</g>
<g opacity="0.3" filter="url(#filter7_f_178_652)">
<rect width="1.14209" height="1.14209" rx="0.571043" transform="matrix(0.231267 -0.97289 -0.97289 -0.231267 358.982 25.7926)" fill="white"/>
</g>
<g opacity="0.3" filter="url(#filter8_f_178_652)">
<rect width="1.14209" height="1.14209" rx="0.571043" transform="matrix(0.231267 -0.97289 -0.97289 -0.231267 369.592 23.7914)" fill="white"/>
</g>
<g opacity="0.3" filter="url(#filter9_f_178_652)">
<rect width="1.14209" height="1.14209" rx="0.571043" transform="matrix(0.231267 -0.97289 -0.97289 -0.231267 388.66 22.9418)" fill="white"/>
</g>
<g opacity="0.3" filter="url(#filter10_f_178_652)">
<rect width="1.14209" height="1.14209" rx="0.571043" transform="matrix(0.231267 -0.97289 -0.97289 -0.231267 388.51 36.7047)" fill="white"/>
</g>
<g opacity="0.3" filter="url(#filter11_f_178_652)">
<rect width="1.14209" height="1.14209" rx="0.571043" transform="matrix(0.231267 -0.97289 -0.97289 -0.231267 384.658 1.72144)" fill="white"/>
</g>
<g opacity="0.6" filter="url(#filter12_f_178_652)">
<rect x="88.3789" y="40.6681" width="1.14209" height="1.14209" rx="0.571043" transform="rotate(138.383 88.3789 40.6681)" fill="white"/>
</g>
<g opacity="0.6" filter="url(#filter13_f_178_652)">
<rect x="91.834" y="15.2943" width="1.14209" height="1.14209" rx="0.571043" transform="rotate(138.383 91.834 15.2943)" fill="white"/>
</g>
<g opacity="0.6" filter="url(#filter14_f_178_652)">
<rect x="95.8105" y="6.86572" width="1.14209" height="1.14209" rx="0.571043" transform="rotate(-159.61 95.8105 6.86572)" fill="white"/>
</g>
<g opacity="0.3" filter="url(#filter15_f_178_652)">
<rect x="73.0391" y="34.844" width="1.14209" height="1.14209" rx="0.571043" transform="rotate(138.383 73.0391 34.844)" fill="white"/>
</g>
<g opacity="0.3" filter="url(#filter16_f_178_652)">
<rect x="75.3418" y="17.9281" width="1.14209" height="1.14209" rx="0.571043" transform="rotate(138.383 75.3418 17.9281)" fill="white"/>
</g>
<g opacity="0.3" filter="url(#filter17_f_178_652)">
<rect width="1.14209" height="1.14209" rx="0.571043" transform="matrix(0.231267 -0.97289 -0.97289 -0.231267 71.6113 5.02136)" fill="white"/>
</g>
<g opacity="0.3" filter="url(#filter18_f_178_652)">
<rect width="1.14209" height="1.14209" rx="0.571043" transform="matrix(0.231267 -0.97289 -0.97289 -0.231267 64.0039 22.9379)" fill="white"/>
</g>
<g opacity="0.3" filter="url(#filter19_f_178_652)">
<rect width="1.14209" height="1.14209" rx="0.571043" transform="matrix(0.231267 -0.97289 -0.97289 -0.231267 83.0723 22.0883)" fill="white"/>
</g>
<g opacity="0.3" filter="url(#filter20_f_178_652)">
<rect width="1.14209" height="1.14209" rx="0.571043" transform="matrix(0.231267 -0.97289 -0.97289 -0.231267 82.9199 35.8512)" fill="white"/>
</g>
<g opacity="0.3" filter="url(#filter21_f_178_652)">
<rect width="1.14209" height="1.14209" rx="0.571043" transform="matrix(0.231267 -0.97289 -0.97289 -0.231267 79.0684 0.86792)" fill="white"/>
</g>
<g clip-path="url(#clip1_178_652)">
<rect x="77.666" y="19.5829" width="422" height="118" rx="6" fill="#F3F3F5"/>
<path d="M153.83 190.631L191.061 186.148L238.128 146.236L278.32 145.426L300.694 80.2847L364.446 53.4722L382.926 -14.7258L423.885 -34.2617" stroke="#2962FF"/>
</g>
<g filter="url(#filter22_b_178_652)">
<rect x="77.666" y="146.083" width="102.5" height="83" rx="4" fill="#F3F3F5"/>
</g>
<g filter="url(#filter23_b_178_652)">
<rect x="184.166" y="146.083" width="102.5" height="83" rx="4" fill="#F3F3F5"/>
</g>
<g filter="url(#filter24_b_178_652)">
<rect x="290.666" y="146.083" width="102.5" height="83" rx="4" fill="#F3F3F5"/>
</g>
<g filter="url(#filter25_b_178_652)">
<rect x="397.166" y="146.083" width="102.5" height="83" rx="4" fill="#F3F3F5"/>
</g>
<g filter="url(#filter26_b_178_652)">
<rect x="77.666" y="233.083" width="102.667" height="83" rx="4" fill="#F3F3F5"/>
</g>
<g filter="url(#filter27_b_178_652)">
<rect x="184.332" y="233.083" width="102.667" height="83" rx="4" fill="#F3F3F5"/>
</g>
<g filter="url(#filter28_b_178_652)">
<rect x="291" y="233.083" width="102.667" height="83" rx="4" fill="#F3F3F5"/>
</g>
<g filter="url(#filter29_b_178_652)">
<rect x="77.666" y="320.083" width="102.667" height="83" rx="4" fill="url(#paint1_linear_178_652)"/>
</g>
<g filter="url(#filter30_b_178_652)">
<rect x="184.332" y="320.083" width="102.667" height="83" rx="4" fill="url(#paint2_linear_178_652)"/>
</g>
<g filter="url(#filter31_b_178_652)">
<rect x="291" y="320.083" width="102.667" height="83" rx="4" fill="url(#paint3_linear_178_652)"/>
</g>
<g filter="url(#filter32_b_178_652)">
<rect x="397.666" y="233.083" width="102.667" height="170" rx="4" fill="url(#paint4_linear_178_652)"/>
</g>
</g>
<rect x="62" y="1" width="453" height="394" rx="11.2432" stroke="url(#paint5_linear_178_652)" stroke-width="2"/>
<g opacity="0.3">
<g opacity="0.01" clip-path="url(#clip2_178_652)">
<path d="M12.6328 152.124L10.5976 150.087L21.6894 138.991C21.8672 138.812 22.0785 138.67 22.3113 138.573C22.5441 138.477 22.7938 138.427 23.0459 138.427C23.2981 138.427 23.5477 138.477 23.7805 138.573C24.0133 138.67 24.2247 138.812 24.4024 138.991L35.5 150.087L33.4648 152.122L23.0488 141.708L12.6328 152.124Z" fill="#2962FF"/>
</g>
<g opacity="0.02" clip-path="url(#clip3_178_652)">
<path d="M12.6328 135.484L10.5976 133.447L21.6894 122.351C21.8672 122.172 22.0785 122.03 22.3113 121.933C22.5441 121.837 22.7938 121.787 23.0459 121.787C23.2981 121.787 23.5477 121.837 23.7805 121.933C24.0133 122.03 24.2247 122.172 24.4024 122.351L35.5 133.447L33.4648 135.482L23.0488 125.068L12.6328 135.484Z" fill="#2962FF"/>
</g>
<g opacity="0.05" clip-path="url(#clip4_178_652)">
<path d="M12.6328 118.844L10.5976 116.807L21.6894 105.711C21.8672 105.532 22.0785 105.39 22.3113 105.293C22.5441 105.197 22.7938 105.147 23.0459 105.147C23.2981 105.147 23.5477 105.197 23.7805 105.293C24.0133 105.39 24.2247 105.532 24.4024 105.711L35.5 116.807L33.4648 118.842L23.0488 108.428L12.6328 118.844Z" fill="#2962FF"/>
</g>
<g opacity="0.1" clip-path="url(#clip5_178_652)">
<path d="M12.6328 102.204L10.5976 100.167L21.6894 89.0711C21.8672 88.8922 22.0785 88.7503 22.3113 88.6534C22.5441 88.5566 22.7938 88.5067 23.0459 88.5067C23.2981 88.5067 23.5477 88.5566 23.7805 88.6534C24.0133 88.7503 24.2247 88.8922 24.4024 89.0711L35.5 100.167L33.4648 102.202L23.0488 91.7879L12.6328 102.204Z" fill="#2962FF"/>
</g>
<g opacity="0.2" clip-path="url(#clip6_178_652)">
<path d="M12.6328 85.5639L10.5976 83.5268L21.6894 72.4311C21.8672 72.2522 22.0785 72.1103 22.3113 72.0134C22.5441 71.9166 22.7938 71.8667 23.0459 71.8667C23.2981 71.8667 23.5477 71.9166 23.7805 72.0134C24.0133 72.1103 24.2247 72.2522 24.4024 72.4311L35.5 83.5268L33.4648 85.562L23.0488 75.1479L12.6328 85.5639Z" fill="#2962FF"/>
</g>
<g opacity="0.4" clip-path="url(#clip7_178_652)">
<path d="M12.6328 68.924L10.5976 66.8869L21.6894 55.7912C21.8672 55.6123 22.0785 55.4704 22.3113 55.3735C22.5441 55.2767 22.7938 55.2268 23.0459 55.2268C23.2981 55.2268 23.5477 55.2767 23.7805 55.3735C24.0133 55.4704 24.2247 55.6123 24.4024 55.7912L35.5 66.8869L33.4648 68.9221L23.0488 58.508L12.6328 68.924Z" fill="#2962FF"/>
</g>
<g opacity="0.6" clip-path="url(#clip8_178_652)">
<path d="M12.6328 52.284L10.5976 50.2469L21.6894 39.1512C21.8672 38.9723 22.0785 38.8304 22.3113 38.7335C22.5441 38.6367 22.7938 38.5868 23.0459 38.5868C23.2981 38.5868 23.5477 38.6367 23.7805 38.7335C24.0133 38.8304 24.2247 38.9723 24.4024 39.1512L35.5 50.2469L33.4648 52.2821L23.0488 41.868L12.6328 52.284Z" fill="#2962FF"/>
</g>
<g opacity="0.8" clip-path="url(#clip9_178_652)">
<path d="M12.6328 35.644L10.5976 33.6068L21.6894 22.5112C21.8672 22.3323 22.0785 22.1904 22.3113 22.0935C22.5441 21.9966 22.7938 21.9468 23.0459 21.9468C23.2981 21.9468 23.5477 21.9966 23.7805 22.0935C24.0133 22.1904 24.2247 22.3323 24.4024 22.5112L35.5 33.6068L33.4648 35.642L23.0488 25.228L12.6328 35.644Z" fill="#2962FF"/>
</g>
<g clip-path="url(#clip10_178_652)">
<path d="M12.6328 19.0038L10.5976 16.9667L21.6894 5.87103C21.8672 5.69217 22.0785 5.55023 22.3113 5.45337C22.5441 5.35651 22.7938 5.30664 23.0459 5.30664C23.2981 5.30664 23.5477 5.35651 23.7805 5.45337C24.0133 5.55023 24.2247 5.69217 24.4024 5.87103L35.5 16.9667L33.4648 19.0019L23.0488 8.58783L12.6328 19.0038Z" fill="#2962FF"/>
</g>
</g>
<g opacity="0.3">
<g opacity="0.01" clip-path="url(#clip11_178_652)">
<path d="M507.258 372.558L505.223 370.521L516.314 359.425C516.492 359.246 516.704 359.104 516.936 359.007C517.169 358.91 517.419 358.861 517.671 358.861C517.923 358.861 518.173 358.91 518.406 359.007C518.638 359.104 518.85 359.246 519.027 359.425L530.125 370.521L528.09 372.556L517.674 362.142L507.258 372.558Z" fill="#2962FF"/>
</g>
<g opacity="0.02" clip-path="url(#clip12_178_652)">
<path d="M507.258 355.918L505.223 353.881L516.314 342.785C516.492 342.606 516.704 342.464 516.936 342.367C517.169 342.27 517.419 342.221 517.671 342.221C517.923 342.221 518.173 342.27 518.406 342.367C518.638 342.464 518.85 342.606 519.027 342.785L530.125 353.881L528.09 355.916L517.674 345.502L507.258 355.918Z" fill="#2962FF"/>
</g>
<g opacity="0.05" clip-path="url(#clip13_178_652)">
<path d="M507.258 339.278L505.223 337.241L516.314 326.145C516.492 325.966 516.704 325.824 516.936 325.727C517.169 325.63 517.419 325.581 517.671 325.581C517.923 325.581 518.173 325.63 518.406 325.727C518.638 325.824 518.85 325.966 519.027 326.145L530.125 337.241L528.09 339.276L517.674 328.862L507.258 339.278Z" fill="#2962FF"/>
</g>
<g opacity="0.1" clip-path="url(#clip14_178_652)">
<path d="M507.258 322.638L505.223 320.601L516.314 309.505C516.492 309.326 516.704 309.184 516.936 309.087C517.169 308.99 517.419 308.941 517.671 308.941C517.923 308.941 518.173 308.99 518.406 309.087C518.638 309.184 518.85 309.326 519.027 309.505L530.125 320.601L528.09 322.636L517.674 312.222L507.258 322.638Z" fill="#2962FF"/>
</g>
<g opacity="0.2" clip-path="url(#clip15_178_652)">
<path d="M507.258 305.998L505.223 303.961L516.314 292.865C516.492 292.686 516.704 292.544 516.936 292.447C517.169 292.35 517.419 292.301 517.671 292.301C517.923 292.301 518.173 292.35 518.406 292.447C518.638 292.544 518.85 292.686 519.027 292.865L530.125 303.961L528.09 305.996L517.674 295.582L507.258 305.998Z" fill="#2962FF"/>
</g>
<g opacity="0.4" clip-path="url(#clip16_178_652)">
<path d="M507.258 289.358L505.223 287.321L516.314 276.225C516.492 276.046 516.704 275.904 516.936 275.807C517.169 275.711 517.419 275.661 517.671 275.661C517.923 275.661 518.173 275.711 518.406 275.807C518.638 275.904 518.85 276.046 519.027 276.225L530.125 287.321L528.09 289.356L517.674 278.942L507.258 289.358Z" fill="#2962FF"/>
</g>
<g opacity="0.6" clip-path="url(#clip17_178_652)">
<path d="M507.258 272.718L505.223 270.681L516.314 259.585C516.492 259.406 516.704 259.264 516.936 259.167C517.169 259.07 517.419 259.021 517.671 259.021C517.923 259.021 518.173 259.07 518.406 259.167C518.638 259.264 518.85 259.406 519.027 259.585L530.125 270.681L528.09 272.716L517.674 262.302L507.258 272.718Z" fill="#2962FF"/>
</g>
<g opacity="0.8" clip-path="url(#clip18_178_652)">
<path d="M507.258 256.078L505.223 254.041L516.314 242.945C516.492 242.766 516.704 242.624 516.936 242.527C517.169 242.43 517.419 242.381 517.671 242.381C517.923 242.381 518.173 242.43 518.406 242.527C518.638 242.624 518.85 242.766 519.027 242.945L530.125 254.041L528.09 256.076L517.674 245.662L507.258 256.078Z" fill="#2962FF"/>
</g>
<g clip-path="url(#clip19_178_652)">
<path d="M507.258 239.438L505.223 237.401L516.314 226.305C516.492 226.126 516.704 225.984 516.936 225.887C517.169 225.79 517.419 225.74 517.671 225.74C517.923 225.74 518.173 225.79 518.406 225.887C518.638 225.984 518.85 226.126 519.027 226.305L530.125 237.401L528.09 239.436L517.674 229.022L507.258 239.438Z" fill="#2962FF"/>
</g>
</g>
<g opacity="0.7">
<g opacity="0.01" clip-path="url(#clip20_178_652)">
<path d="M52.2578 383.105L50.2226 381.068L61.3144 369.972C61.4922 369.793 61.7035 369.651 61.9363 369.555C62.1691 369.458 62.4188 369.408 62.6709 369.408C62.9231 369.408 63.1727 369.458 63.4055 369.555C63.6383 369.651 63.8497 369.793 64.0274 369.972L75.125 381.068L73.0898 383.103L62.6738 372.689L52.2578 383.105Z" fill="#2962FF"/>
</g>
<g opacity="0.02" clip-path="url(#clip21_178_652)">
<path d="M52.2578 366.465L50.2226 364.428L61.3144 353.332C61.4922 353.153 61.7035 353.011 61.9363 352.915C62.1691 352.818 62.4188 352.768 62.6709 352.768C62.9231 352.768 63.1727 352.818 63.4055 352.915C63.6383 353.011 63.8497 353.153 64.0274 353.332L75.125 364.428L73.0898 366.463L62.6738 356.049L52.2578 366.465Z" fill="#2962FF"/>
</g>
<g opacity="0.05" clip-path="url(#clip22_178_652)">
<path d="M52.2578 349.825L50.2226 347.788L61.3144 336.692C61.4922 336.513 61.7035 336.371 61.9363 336.275C62.1691 336.178 62.4188 336.128 62.6709 336.128C62.9231 336.128 63.1727 336.178 63.4055 336.275C63.6383 336.371 63.8497 336.513 64.0274 336.692L75.125 347.788L73.0898 349.823L62.6738 339.409L52.2578 349.825Z" fill="#2962FF"/>
</g>
<g opacity="0.1" clip-path="url(#clip23_178_652)">
<path d="M52.2578 333.185L50.2226 331.148L61.3144 320.052C61.4922 319.873 61.7035 319.731 61.9363 319.635C62.1691 319.538 62.4188 319.488 62.6709 319.488C62.9231 319.488 63.1727 319.538 63.4055 319.635C63.6383 319.731 63.8497 319.873 64.0274 320.052L75.125 331.148L73.0898 333.183L62.6738 322.769L52.2578 333.185Z" fill="#2962FF"/>
</g>
<g opacity="0.2" clip-path="url(#clip24_178_652)">
<path d="M52.2578 316.545L50.2226 314.508L61.3144 303.412C61.4922 303.233 61.7035 303.091 61.9363 302.995C62.1691 302.898 62.4188 302.848 62.6709 302.848C62.9231 302.848 63.1727 302.898 63.4055 302.995C63.6383 303.091 63.8497 303.233 64.0274 303.412L75.125 314.508L73.0898 316.543L62.6738 306.129L52.2578 316.545Z" fill="#2962FF"/>
</g>
<g opacity="0.4" clip-path="url(#clip25_178_652)">
<path d="M52.2578 299.905L50.2226 297.868L61.3144 286.772C61.4922 286.593 61.7035 286.451 61.9363 286.355C62.1691 286.258 62.4188 286.208 62.6709 286.208C62.9231 286.208 63.1727 286.258 63.4055 286.355C63.6383 286.451 63.8497 286.593 64.0274 286.772L75.125 297.868L73.0898 299.903L62.6738 289.489L52.2578 299.905Z" fill="#2962FF"/>
</g>
<g opacity="0.6" clip-path="url(#clip26_178_652)">
<path d="M52.2578 283.265L50.2226 281.228L61.3144 270.132C61.4922 269.953 61.7035 269.811 61.9363 269.715C62.1691 269.618 62.4188 269.568 62.6709 269.568C62.9231 269.568 63.1727 269.618 63.4055 269.715C63.6383 269.811 63.8497 269.953 64.0274 270.132L75.125 281.228L73.0898 283.263L62.6738 272.849L52.2578 283.265Z" fill="#2962FF"/>
</g>
<g opacity="0.8" clip-path="url(#clip27_178_652)">
<path d="M52.2578 266.625L50.2226 264.588L61.3144 253.492C61.4922 253.313 61.7035 253.171 61.9363 253.075C62.1691 252.978 62.4188 252.928 62.6709 252.928C62.9231 252.928 63.1727 252.978 63.4055 253.075C63.6383 253.171 63.8497 253.313 64.0274 253.492L75.125 264.588L73.0898 266.623L62.6738 256.209L52.2578 266.625Z" fill="#2962FF"/>
</g>
<g clip-path="url(#clip28_178_652)">
<path d="M52.2578 249.985L50.2226 247.948L61.3144 236.852C61.4922 236.673 61.7035 236.531 61.9363 236.434C62.1691 236.338 62.4188 236.288 62.6709 236.288C62.9231 236.288 63.1727 236.338 63.4055 236.434C63.6383 236.531 63.8497 236.673 64.0274 236.852L75.125 247.948L73.0898 249.983L62.6738 239.569L52.2578 249.985Z" fill="#2962FF"/>
</g>
</g>
<g opacity="0.7">
<g opacity="0.01" clip-path="url(#clip29_178_652)">
<path d="M542.633 158.276L540.598 156.239L551.689 145.143C551.867 144.965 552.079 144.823 552.311 144.726C552.544 144.629 552.794 144.579 553.046 144.579C553.298 144.579 553.548 144.629 553.781 144.726C554.013 144.823 554.225 144.965 554.402 145.143L565.5 156.239L563.465 158.274L553.049 147.86L542.633 158.276Z" fill="#2962FF"/>
</g>
<g opacity="0.02" clip-path="url(#clip30_178_652)">
<path d="M542.633 141.636L540.598 139.599L551.689 128.503C551.867 128.325 552.079 128.183 552.311 128.086C552.544 127.989 552.794 127.939 553.046 127.939C553.298 127.939 553.548 127.989 553.781 128.086C554.013 128.183 554.225 128.325 554.402 128.503L565.5 139.599L563.465 141.634L553.049 131.22L542.633 141.636Z" fill="#2962FF"/>
</g>
<g opacity="0.05" clip-path="url(#clip31_178_652)">
<path d="M542.633 124.996L540.598 122.959L551.689 111.863C551.867 111.685 552.079 111.543 552.311 111.446C552.544 111.349 552.794 111.299 553.046 111.299C553.298 111.299 553.548 111.349 553.781 111.446C554.013 111.543 554.225 111.685 554.402 111.863L565.5 122.959L563.465 124.994L553.049 114.58L542.633 124.996Z" fill="#2962FF"/>
</g>
<g opacity="0.1" clip-path="url(#clip32_178_652)">
<path d="M542.633 108.356L540.598 106.319L551.689 95.2234C551.867 95.0446 552.079 94.9026 552.311 94.8058C552.544 94.7089 552.794 94.6591 553.046 94.6591C553.298 94.6591 553.548 94.7089 553.781 94.8058C554.013 94.9026 554.225 95.0446 554.402 95.2234L565.5 106.319L563.465 108.354L553.049 97.9402L542.633 108.356Z" fill="#2962FF"/>
</g>
<g opacity="0.2" clip-path="url(#clip33_178_652)">
<path d="M542.633 91.7162L540.598 89.6791L551.689 78.5834C551.867 78.4046 552.079 78.2626 552.311 78.1658C552.544 78.0689 552.794 78.019 553.046 78.019C553.298 78.019 553.548 78.0689 553.781 78.1658C554.013 78.2626 554.225 78.4046 554.402 78.5834L565.5 89.6791L563.465 91.7143L553.049 81.3002L542.633 91.7162Z" fill="#2962FF"/>
</g>
<g opacity="0.4" clip-path="url(#clip34_178_652)">
<path d="M542.633 75.0763L540.598 73.0392L551.689 61.9435C551.867 61.7647 552.079 61.6227 552.311 61.5259C552.544 61.429 552.794 61.3792 553.046 61.3792C553.298 61.3792 553.548 61.429 553.781 61.5259C554.013 61.6227 554.225 61.7647 554.402 61.9435L565.5 73.0392L563.465 75.0744L553.049 64.6603L542.633 75.0763Z" fill="#2962FF"/>
</g>
<g opacity="0.6" clip-path="url(#clip35_178_652)">
<path d="M542.633 58.4363L540.598 56.3992L551.689 45.3035C551.867 45.1247 552.079 44.9827 552.311 44.8859C552.544 44.789 552.794 44.7391 553.046 44.7391C553.298 44.7391 553.548 44.789 553.781 44.8859C554.013 44.9827 554.225 45.1247 554.402 45.3035L565.5 56.3992L563.465 58.4344L553.049 48.0203L542.633 58.4363Z" fill="#2962FF"/>
</g>
<g opacity="0.8" clip-path="url(#clip36_178_652)">
<path d="M542.633 41.7963L540.598 39.7592L551.689 28.6635C551.867 28.4846 552.079 28.3427 552.311 28.2458C552.544 28.149 552.794 28.0991 553.046 28.0991C553.298 28.0991 553.548 28.149 553.781 28.2458C554.013 28.3427 554.225 28.4846 554.402 28.6635L565.5 39.7592L563.465 41.7944L553.049 31.3803L542.633 41.7963Z" fill="#2962FF"/>
</g>
<g clip-path="url(#clip37_178_652)">
<path d="M542.633 25.1562L540.598 23.1191L551.689 12.0234C551.867 11.8445 552.079 11.7026 552.311 11.6057C552.544 11.5088 552.794 11.459 553.046 11.459C553.298 11.459 553.548 11.5088 553.781 11.6057C554.013 11.7026 554.225 11.8445 554.402 12.0234L565.5 23.119L563.465 25.1542L553.049 14.7402L542.633 25.1562Z" fill="#2962FF"/>
</g>
</g>
<defs>
<filter id="filter0_f_178_652" x="391.213" y="39.5255" width="3.89745" height="3.8966" filterUnits="userSpaceOnUse" color-interpolation-filters="sRGB">
<feFlood flood-opacity="0" result="BackgroundImageFix"/>
<feBlend mode="normal" in="SourceGraphic" in2="BackgroundImageFix" result="shape"/>
<feGaussianBlur stdDeviation="0.571043" result="effect1_foregroundBlur_178_652"/>
</filter>
<filter id="filter1_f_178_652" x="394.668" y="14.1517" width="3.89745" height="3.8966" filterUnits="userSpaceOnUse" color-interpolation-filters="sRGB">
<feFlood flood-opacity="0" result="BackgroundImageFix"/>
<feBlend mode="normal" in="SourceGraphic" in2="BackgroundImageFix" result="shape"/>
<feGaussianBlur stdDeviation="0.571043" result="effect1_foregroundBlur_178_652"/>
</filter>
<filter id="filter2_f_178_652" x="399.186" y="5.10877" width="3.75292" height="3.75255" filterUnits="userSpaceOnUse" color-interpolation-filters="sRGB">
<feFlood flood-opacity="0" result="BackgroundImageFix"/>
<feBlend mode="normal" in="SourceGraphic" in2="BackgroundImageFix" result="shape"/>
<feGaussianBlur stdDeviation="0.571043" result="effect1_foregroundBlur_178_652"/>
</filter>
<filter id="filter3_f_178_652" x="364.102" y="17.438" width="3.65917" height="3.65941" filterUnits="userSpaceOnUse" color-interpolation-filters="sRGB">
<feFlood flood-opacity="0" result="BackgroundImageFix"/>
<feBlend mode="normal" in="SourceGraphic" in2="BackgroundImageFix" result="shape"/>
<feGaussianBlur stdDeviation="0.571043" result="effect1_foregroundBlur_178_652"/>
</filter>
<filter id="filter4_f_178_652" x="375.872" y="33.7015" width="3.89745" height="3.8966" filterUnits="userSpaceOnUse" color-interpolation-filters="sRGB">
<feFlood flood-opacity="0" result="BackgroundImageFix"/>
<feBlend mode="normal" in="SourceGraphic" in2="BackgroundImageFix" result="shape"/>
<feGaussianBlur stdDeviation="0.571043" result="effect1_foregroundBlur_178_652"/>
</filter>
<filter id="filter5_f_178_652" x="378.176" y="16.7856" width="3.89745" height="3.8966" filterUnits="userSpaceOnUse" color-interpolation-filters="sRGB">
<feFlood flood-opacity="0" result="BackgroundImageFix"/>
<feBlend mode="normal" in="SourceGraphic" in2="BackgroundImageFix" result="shape"/>
<feGaussianBlur stdDeviation="0.571043" result="effect1_foregroundBlur_178_652"/>
</filter>
<filter id="filter6_f_178_652" x="374.946" y="3.35755" width="3.65917" height="3.65941" filterUnits="userSpaceOnUse" color-interpolation-filters="sRGB">
<feFlood flood-opacity="0" result="BackgroundImageFix"/>
<feBlend mode="normal" in="SourceGraphic" in2="BackgroundImageFix" result="shape"/>
<feGaussianBlur stdDeviation="0.571043" result="effect1_foregroundBlur_178_652"/>
</filter>
<filter id="filter7_f_178_652" x="356.729" y="23.2753" width="3.65917" height="3.65941" filterUnits="userSpaceOnUse" color-interpolation-filters="sRGB">
<feFlood flood-opacity="0" result="BackgroundImageFix"/>
<feBlend mode="normal" in="SourceGraphic" in2="BackgroundImageFix" result="shape"/>
<feGaussianBlur stdDeviation="0.571043" result="effect1_foregroundBlur_178_652"/>
</filter>
<filter id="filter8_f_178_652" x="367.338" y="21.2741" width="3.65917" height="3.65941" filterUnits="userSpaceOnUse" color-interpolation-filters="sRGB">
<feFlood flood-opacity="0" result="BackgroundImageFix"/>
<feBlend mode="normal" in="SourceGraphic" in2="BackgroundImageFix" result="shape"/>
<feGaussianBlur stdDeviation="0.571043" result="effect1_foregroundBlur_178_652"/>
</filter>
<filter id="filter9_f_178_652" x="386.407" y="20.4244" width="3.65917" height="3.65941" filterUnits="userSpaceOnUse" color-interpolation-filters="sRGB">
<feFlood flood-opacity="0" result="BackgroundImageFix"/>
<feBlend mode="normal" in="SourceGraphic" in2="BackgroundImageFix" result="shape"/>
<feGaussianBlur stdDeviation="0.571043" result="effect1_foregroundBlur_178_652"/>
</filter>
<filter id="filter10_f_178_652" x="386.256" y="34.1874" width="3.65917" height="3.65941" filterUnits="userSpaceOnUse" color-interpolation-filters="sRGB">
<feFlood flood-opacity="0" result="BackgroundImageFix"/>
<feBlend mode="normal" in="SourceGraphic" in2="BackgroundImageFix" result="shape"/>
<feGaussianBlur stdDeviation="0.571043" result="effect1_foregroundBlur_178_652"/>
</filter>
<filter id="filter11_f_178_652" x="382.405" y="-0.795894" width="3.65917" height="3.65941" filterUnits="userSpaceOnUse" color-interpolation-filters="sRGB">
<feFlood flood-opacity="0" result="BackgroundImageFix"/>
<feBlend mode="normal" in="SourceGraphic" in2="BackgroundImageFix" result="shape"/>
<feGaussianBlur stdDeviation="0.571043" result="effect1_foregroundBlur_178_652"/>
</filter>
<filter id="filter12_f_178_652" x="85.6235" y="38.6721" width="3.89745" height="3.8966" filterUnits="userSpaceOnUse" color-interpolation-filters="sRGB">
<feFlood flood-opacity="0" result="BackgroundImageFix"/>
<feBlend mode="normal" in="SourceGraphic" in2="BackgroundImageFix" result="shape"/>
<feGaussianBlur stdDeviation="0.571043" result="effect1_foregroundBlur_178_652"/>
</filter>
<filter id="filter13_f_178_652" x="89.0786" y="13.2983" width="3.89745" height="3.8966" filterUnits="userSpaceOnUse" color-interpolation-filters="sRGB">
<feFlood flood-opacity="0" result="BackgroundImageFix"/>
<feBlend mode="normal" in="SourceGraphic" in2="BackgroundImageFix" result="shape"/>
<feGaussianBlur stdDeviation="0.571043" result="effect1_foregroundBlur_178_652"/>
</filter>
<filter id="filter14_f_178_652" x="93.5981" y="4.25525" width="3.75292" height="3.75255" filterUnits="userSpaceOnUse" color-interpolation-filters="sRGB">
<feFlood flood-opacity="0" result="BackgroundImageFix"/>
<feBlend mode="normal" in="SourceGraphic" in2="BackgroundImageFix" result="shape"/>
<feGaussianBlur stdDeviation="0.571043" result="effect1_foregroundBlur_178_652"/>
</filter>
<filter id="filter15_f_178_652" x="70.2837" y="32.848" width="3.89745" height="3.8966" filterUnits="userSpaceOnUse" color-interpolation-filters="sRGB">
<feFlood flood-opacity="0" result="BackgroundImageFix"/>
<feBlend mode="normal" in="SourceGraphic" in2="BackgroundImageFix" result="shape"/>
<feGaussianBlur stdDeviation="0.571043" result="effect1_foregroundBlur_178_652"/>
</filter>
<filter id="filter16_f_178_652" x="72.5864" y="15.9321" width="3.89745" height="3.8966" filterUnits="userSpaceOnUse" color-interpolation-filters="sRGB">
<feFlood flood-opacity="0" result="BackgroundImageFix"/>
<feBlend mode="normal" in="SourceGraphic" in2="BackgroundImageFix" result="shape"/>
<feGaussianBlur stdDeviation="0.571043" result="effect1_foregroundBlur_178_652"/>
</filter>
<filter id="filter17_f_178_652" x="69.3579" y="2.50403" width="3.65917" height="3.65941" filterUnits="userSpaceOnUse" color-interpolation-filters="sRGB">
<feFlood flood-opacity="0" result="BackgroundImageFix"/>
<feBlend mode="normal" in="SourceGraphic" in2="BackgroundImageFix" result="shape"/>
<feGaussianBlur stdDeviation="0.571043" result="effect1_foregroundBlur_178_652"/>
</filter>
<filter id="filter18_f_178_652" x="61.7505" y="20.4205" width="3.65917" height="3.65941" filterUnits="userSpaceOnUse" color-interpolation-filters="sRGB">
<feFlood flood-opacity="0" result="BackgroundImageFix"/>
<feBlend mode="normal" in="SourceGraphic" in2="BackgroundImageFix" result="shape"/>
<feGaussianBlur stdDeviation="0.571043" result="effect1_foregroundBlur_178_652"/>
</filter>
<filter id="filter19_f_178_652" x="80.8189" y="19.5709" width="3.65917" height="3.65941" filterUnits="userSpaceOnUse" color-interpolation-filters="sRGB">
<feFlood flood-opacity="0" result="BackgroundImageFix"/>
<feBlend mode="normal" in="SourceGraphic" in2="BackgroundImageFix" result="shape"/>
<feGaussianBlur stdDeviation="0.571043" result="effect1_foregroundBlur_178_652"/>
</filter>
<filter id="filter20_f_178_652" x="80.6665" y="33.3339" width="3.65917" height="3.65941" filterUnits="userSpaceOnUse" color-interpolation-filters="sRGB">
<feFlood flood-opacity="0" result="BackgroundImageFix"/>
<feBlend mode="normal" in="SourceGraphic" in2="BackgroundImageFix" result="shape"/>
<feGaussianBlur stdDeviation="0.571043" result="effect1_foregroundBlur_178_652"/>
</filter>
<filter id="filter21_f_178_652" x="76.8149" y="-1.64941" width="3.65917" height="3.65941" filterUnits="userSpaceOnUse" color-interpolation-filters="sRGB">
<feFlood flood-opacity="0" result="BackgroundImageFix"/>
<feBlend mode="normal" in="SourceGraphic" in2="BackgroundImageFix" result="shape"/>
<feGaussianBlur stdDeviation="0.571043" result="effect1_foregroundBlur_178_652"/>
</filter>
<filter id="filter22_b_178_652" x="75.666" y="144.083" width="106.5" height="87" filterUnits="userSpaceOnUse" color-interpolation-filters="sRGB">
<feFlood flood-opacity="0" result="BackgroundImageFix"/>
<feGaussianBlur in="BackgroundImageFix" stdDeviation="1"/>
<feComposite in2="SourceAlpha" operator="in" result="effect1_backgroundBlur_178_652"/>
<feBlend mode="normal" in="SourceGraphic" in2="effect1_backgroundBlur_178_652" result="shape"/>
</filter>
<filter id="filter23_b_178_652" x="182.166" y="144.083" width="106.5" height="87" filterUnits="userSpaceOnUse" color-interpolation-filters="sRGB">
<feFlood flood-opacity="0" result="BackgroundImageFix"/>
<feGaussianBlur in="BackgroundImageFix" stdDeviation="1"/>
<feComposite in2="SourceAlpha" operator="in" result="effect1_backgroundBlur_178_652"/>
<feBlend mode="normal" in="SourceGraphic" in2="effect1_backgroundBlur_178_652" result="shape"/>
</filter>
<filter id="filter24_b_178_652" x="288.666" y="144.083" width="106.5" height="87" filterUnits="userSpaceOnUse" color-interpolation-filters="sRGB">
<feFlood flood-opacity="0" result="BackgroundImageFix"/>
<feGaussianBlur in="BackgroundImageFix" stdDeviation="1"/>
<feComposite in2="SourceAlpha" operator="in" result="effect1_backgroundBlur_178_652"/>
<feBlend mode="normal" in="SourceGraphic" in2="effect1_backgroundBlur_178_652" result="shape"/>
</filter>
<filter id="filter25_b_178_652" x="395.166" y="144.083" width="106.5" height="87" filterUnits="userSpaceOnUse" color-interpolation-filters="sRGB">
<feFlood flood-opacity="0" result="BackgroundImageFix"/>
<feGaussianBlur in="BackgroundImageFix" stdDeviation="1"/>
<feComposite in2="SourceAlpha" operator="in" result="effect1_backgroundBlur_178_652"/>
<feBlend mode="normal" in="SourceGraphic" in2="effect1_backgroundBlur_178_652" result="shape"/>
</filter>
<filter id="filter26_b_178_652" x="75.666" y="231.083" width="106.666" height="87" filterUnits="userSpaceOnUse" color-interpolation-filters="sRGB">
<feFlood flood-opacity="0" result="BackgroundImageFix"/>
<feGaussianBlur in="BackgroundImageFix" stdDeviation="1"/>
<feComposite in2="SourceAlpha" operator="in" result="effect1_backgroundBlur_178_652"/>
<feBlend mode="normal" in="SourceGraphic" in2="effect1_backgroundBlur_178_652" result="shape"/>
</filter>
<filter id="filter27_b_178_652" x="182.332" y="231.083" width="106.666" height="87" filterUnits="userSpaceOnUse" color-interpolation-filters="sRGB">
<feFlood flood-opacity="0" result="BackgroundImageFix"/>
<feGaussianBlur in="BackgroundImageFix" stdDeviation="1"/>
<feComposite in2="SourceAlpha" operator="in" result="effect1_backgroundBlur_178_652"/>
<feBlend mode="normal" in="SourceGraphic" in2="effect1_backgroundBlur_178_652" result="shape"/>
</filter>
<filter id="filter28_b_178_652" x="289" y="231.083" width="106.666" height="87" filterUnits="userSpaceOnUse" color-interpolation-filters="sRGB">
<feFlood flood-opacity="0" result="BackgroundImageFix"/>
<feGaussianBlur in="BackgroundImageFix" stdDeviation="1"/>
<feComposite in2="SourceAlpha" operator="in" result="effect1_backgroundBlur_178_652"/>
<feBlend mode="normal" in="SourceGraphic" in2="effect1_backgroundBlur_178_652" result="shape"/>
</filter>
<filter id="filter29_b_178_652" x="75.666" y="318.083" width="106.666" height="87" filterUnits="userSpaceOnUse" color-interpolation-filters="sRGB">
<feFlood flood-opacity="0" result="BackgroundImageFix"/>
<feGaussianBlur in="BackgroundImageFix" stdDeviation="1"/>
<feComposite in2="SourceAlpha" operator="in" result="effect1_backgroundBlur_178_652"/>
<feBlend mode="normal" in="SourceGraphic" in2="effect1_backgroundBlur_178_652" result="shape"/>
</filter>
<filter id="filter30_b_178_652" x="182.332" y="318.083" width="106.666" height="87" filterUnits="userSpaceOnUse" color-interpolation-filters="sRGB">
<feFlood flood-opacity="0" result="BackgroundImageFix"/>
<feGaussianBlur in="BackgroundImageFix" stdDeviation="1"/>
<feComposite in2="SourceAlpha" operator="in" result="effect1_backgroundBlur_178_652"/>
<feBlend mode="normal" in="SourceGraphic" in2="effect1_backgroundBlur_178_652" result="shape"/>
</filter>
<filter id="filter31_b_178_652" x="289" y="318.083" width="106.666" height="87" filterUnits="userSpaceOnUse" color-interpolation-filters="sRGB">
<feFlood flood-opacity="0" result="BackgroundImageFix"/>
<feGaussianBlur in="BackgroundImageFix" stdDeviation="1"/>
<feComposite in2="SourceAlpha" operator="in" result="effect1_backgroundBlur_178_652"/>
<feBlend mode="normal" in="SourceGraphic" in2="effect1_backgroundBlur_178_652" result="shape"/>
</filter>
<filter id="filter32_b_178_652" x="395.666" y="231.083" width="106.666" height="174" filterUnits="userSpaceOnUse" color-interpolation-filters="sRGB">
<feFlood flood-opacity="0" result="BackgroundImageFix"/>
<feGaussianBlur in="BackgroundImageFix" stdDeviation="1"/>
<feComposite in2="SourceAlpha" operator="in" result="effect1_backgroundBlur_178_652"/>
<feBlend mode="normal" in="SourceGraphic" in2="effect1_backgroundBlur_178_652" result="shape"/>
</filter>
<linearGradient id="paint0_linear_178_652" x1="288.5" y1="2" x2="288.5" y2="394" gradientUnits="userSpaceOnUse">
<stop stop-color="white"/>
<stop offset="1" stop-color="white" stop-opacity="0"/>
</linearGradient>
<linearGradient id="paint1_linear_178_652" x1="128.999" y1="320.083" x2="128.999" y2="403.083" gradientUnits="userSpaceOnUse">
<stop stop-color="#F3F3F5"/>
<stop offset="1" stop-color="#F3F3F5" stop-opacity="0"/>
</linearGradient>
<linearGradient id="paint2_linear_178_652" x1="235.665" y1="320.083" x2="235.665" y2="403.083" gradientUnits="userSpaceOnUse">
<stop stop-color="#F3F3F5"/>
<stop offset="1" stop-color="#F3F3F5" stop-opacity="0"/>
</linearGradient>
<linearGradient id="paint3_linear_178_652" x1="342.333" y1="320.083" x2="342.333" y2="403.083" gradientUnits="userSpaceOnUse">
<stop stop-color="#F3F3F5"/>
<stop offset="1" stop-color="#F3F3F5" stop-opacity="0"/>
</linearGradient>
<linearGradient id="paint4_linear_178_652" x1="448.999" y1="233.083" x2="448.999" y2="403.083" gradientUnits="userSpaceOnUse">
<stop offset="0.52446" stop-color="#F3F3F5"/>
<stop offset="1" stop-color="#F3F3F5" stop-opacity="0"/>
</linearGradient>
<linearGradient id="paint5_linear_178_652" x1="288.5" y1="2" x2="288.5" y2="394" gradientUnits="userSpaceOnUse">
<stop stop-color="#D5DEE8"/>
<stop offset="1" stop-color="#D5DEE8" stop-opacity="0"/>
</linearGradient>
<clipPath id="clip0_178_652">
<rect x="63" y="2" width="451" height="392" rx="10.2432" fill="white"/>
</clipPath>
<clipPath id="clip1_178_652">
<rect x="77.666" y="19.5829" width="422" height="118" rx="6" fill="white"/>
</clipPath>
<clipPath id="clip2_178_652">
<rect width="23.04" height="46.08" fill="white" transform="translate(0 156.831) rotate(-90)"/>
</clipPath>
<clipPath id="clip3_178_652">
<rect width="23.04" height="46.08" fill="white" transform="translate(0 140.191) rotate(-90)"/>
</clipPath>
<clipPath id="clip4_178_652">
<rect width="23.04" height="46.08" fill="white" transform="translate(0 123.551) rotate(-90)"/>
</clipPath>
<clipPath id="clip5_178_652">
<rect width="23.04" height="46.08" fill="white" transform="translate(0 106.911) rotate(-90)"/>
</clipPath>
<clipPath id="clip6_178_652">
<rect width="23.04" height="46.08" fill="white" transform="translate(0 90.2712) rotate(-90)"/>
</clipPath>
<clipPath id="clip7_178_652">
<rect width="23.04" height="46.08" fill="white" transform="translate(0 73.6313) rotate(-90)"/>
</clipPath>
<clipPath id="clip8_178_652">
<rect width="23.04" height="46.08" fill="white" transform="translate(0 56.9913) rotate(-90)"/>
</clipPath>
<clipPath id="clip9_178_652">
<rect width="23.04" height="46.08" fill="white" transform="translate(0 40.3513) rotate(-90)"/>
</clipPath>
<clipPath id="clip10_178_652">
<rect width="23.04" height="46.08" fill="white" transform="translate(0 23.7113) rotate(-90)"/>
</clipPath>
<clipPath id="clip11_178_652">
<rect width="23.04" height="46.08" fill="white" transform="translate(494.625 377.265) rotate(-90)"/>
</clipPath>
<clipPath id="clip12_178_652">
<rect width="23.04" height="46.08" fill="white" transform="translate(494.625 360.625) rotate(-90)"/>
</clipPath>
<clipPath id="clip13_178_652">
<rect width="23.04" height="46.08" fill="white" transform="translate(494.625 343.985) rotate(-90)"/>
</clipPath>
<clipPath id="clip14_178_652">
<rect width="23.04" height="46.08" fill="white" transform="translate(494.625 327.345) rotate(-90)"/>
</clipPath>
<clipPath id="clip15_178_652">
<rect width="23.04" height="46.08" fill="white" transform="translate(494.625 310.705) rotate(-90)"/>
</clipPath>
<clipPath id="clip16_178_652">
<rect width="23.04" height="46.08" fill="white" transform="translate(494.625 294.065) rotate(-90)"/>
</clipPath>
<clipPath id="clip17_178_652">
<rect width="23.04" height="46.08" fill="white" transform="translate(494.625 277.425) rotate(-90)"/>
</clipPath>
<clipPath id="clip18_178_652">
<rect width="23.04" height="46.08" fill="white" transform="translate(494.625 260.785) rotate(-90)"/>
</clipPath>
<clipPath id="clip19_178_652">
<rect width="23.04" height="46.08" fill="white" transform="translate(494.625 244.145) rotate(-90)"/>
</clipPath>
<clipPath id="clip20_178_652">
<rect width="23.04" height="46.08" fill="white" transform="translate(39.625 387.812) rotate(-90)"/>
</clipPath>
<clipPath id="clip21_178_652">
<rect width="23.04" height="46.08" fill="white" transform="translate(39.625 371.172) rotate(-90)"/>
</clipPath>
<clipPath id="clip22_178_652">
<rect width="23.04" height="46.08" fill="white" transform="translate(39.625 354.532) rotate(-90)"/>
</clipPath>
<clipPath id="clip23_178_652">
<rect width="23.04" height="46.08" fill="white" transform="translate(39.625 337.892) rotate(-90)"/>
</clipPath>
<clipPath id="clip24_178_652">
<rect width="23.04" height="46.08" fill="white" transform="translate(39.625 321.252) rotate(-90)"/>
</clipPath>
<clipPath id="clip25_178_652">
<rect width="23.04" height="46.08" fill="white" transform="translate(39.625 304.612) rotate(-90)"/>
</clipPath>
<clipPath id="clip26_178_652">
<rect width="23.04" height="46.08" fill="white" transform="translate(39.625 287.972) rotate(-90)"/>
</clipPath>
<clipPath id="clip27_178_652">
<rect width="23.04" height="46.08" fill="white" transform="translate(39.625 271.332) rotate(-90)"/>
</clipPath>
<clipPath id="clip28_178_652">
<rect width="23.04" height="46.08" fill="white" transform="translate(39.625 254.692) rotate(-90)"/>
</clipPath>
<clipPath id="clip29_178_652">
<rect width="23.04" height="46.08" fill="white" transform="translate(530 162.984) rotate(-90)"/>
</clipPath>
<clipPath id="clip30_178_652">
<rect width="23.04" height="46.08" fill="white" transform="translate(530 146.344) rotate(-90)"/>
</clipPath>
<clipPath id="clip31_178_652">
<rect width="23.04" height="46.08" fill="white" transform="translate(530 129.704) rotate(-90)"/>
</clipPath>
<clipPath id="clip32_178_652">
<rect width="23.04" height="46.08" fill="white" transform="translate(530 113.064) rotate(-90)"/>
</clipPath>
<clipPath id="clip33_178_652">
<rect width="23.04" height="46.08" fill="white" transform="translate(530 96.4236) rotate(-90)"/>
</clipPath>
<clipPath id="clip34_178_652">
<rect width="23.04" height="46.08" fill="white" transform="translate(530 79.7837) rotate(-90)"/>
</clipPath>
<clipPath id="clip35_178_652">
<rect width="23.04" height="46.08" fill="white" transform="translate(530 63.1437) rotate(-90)"/>
</clipPath>
<clipPath id="clip36_178_652">
<rect width="23.04" height="46.08" fill="white" transform="translate(530 46.5037) rotate(-90)"/>
</clipPath>
<clipPath id="clip37_178_652">
<rect width="23.04" height="46.08" fill="white" transform="translate(530 29.8636) rotate(-90)"/>
</clipPath>
</defs>
</svg>
