<svg width="591" height="431" viewBox="0 0 591 431" fill="none" xmlns="http://www.w3.org/2000/svg">
<g clip-path="url(#clip0_282_1678)">
<rect x="77.7571" y="19.5059" width="451" height="392" rx="10.2432" fill="url(#paint0_linear_282_1678)"/>
<g opacity="0.6" filter="url(#filter0_f_282_1678)">
<rect x="408.725" y="59.0275" width="1.14209" height="1.14209" rx="0.571043" transform="rotate(138.383 408.725 59.0275)" fill="white"/>
</g>
<g opacity="0.6" filter="url(#filter1_f_282_1678)">
<rect x="412.179" y="33.6537" width="1.14209" height="1.14209" rx="0.571043" transform="rotate(138.383 412.179 33.6537)" fill="white"/>
</g>
<g opacity="0.6" filter="url(#filter2_f_282_1678)">
<rect x="416.155" y="25.2252" width="1.14209" height="1.14209" rx="0.571043" transform="rotate(-159.61 416.155 25.2252)" fill="white"/>
</g>
<g opacity="0.6" filter="url(#filter3_f_282_1678)">
<rect width="1.14209" height="1.14209" rx="0.571043" transform="matrix(0.231267 -0.97289 -0.97289 -0.231267 381.112 37.4612)" fill="white"/>
</g>
<g opacity="0.3" filter="url(#filter4_f_282_1678)">
<rect x="393.384" y="53.2034" width="1.14209" height="1.14209" rx="0.571043" transform="rotate(138.383 393.384 53.2034)" fill="white"/>
</g>
<g opacity="0.3" filter="url(#filter5_f_282_1678)">
<rect x="395.687" y="36.2876" width="1.14209" height="1.14209" rx="0.571043" transform="rotate(138.383 395.687 36.2876)" fill="white"/>
</g>
<g opacity="0.3" filter="url(#filter6_f_282_1678)">
<rect width="1.14209" height="1.14209" rx="0.571043" transform="matrix(0.231267 -0.97289 -0.97289 -0.231267 391.956 23.3808)" fill="white"/>
</g>
<g opacity="0.3" filter="url(#filter7_f_282_1678)">
<rect width="1.14209" height="1.14209" rx="0.571043" transform="matrix(0.231267 -0.97289 -0.97289 -0.231267 373.738 43.2986)" fill="white"/>
</g>
<g opacity="0.3" filter="url(#filter8_f_282_1678)">
<rect width="1.14209" height="1.14209" rx="0.571043" transform="matrix(0.231267 -0.97289 -0.97289 -0.231267 384.348 41.2973)" fill="white"/>
</g>
<g opacity="0.3" filter="url(#filter9_f_282_1678)">
<rect width="1.14209" height="1.14209" rx="0.571043" transform="matrix(0.231267 -0.97289 -0.97289 -0.231267 403.416 40.4476)" fill="white"/>
</g>
<g opacity="0.3" filter="url(#filter10_f_282_1678)">
<rect width="1.14209" height="1.14209" rx="0.571043" transform="matrix(0.231267 -0.97289 -0.97289 -0.231267 403.265 54.2106)" fill="white"/>
</g>
<g opacity="0.3" filter="url(#filter11_f_282_1678)">
<rect width="1.14209" height="1.14209" rx="0.571043" transform="matrix(0.231267 -0.97289 -0.97289 -0.231267 399.414 19.2274)" fill="white"/>
</g>
<g opacity="0.6" filter="url(#filter12_f_282_1678)">
<rect x="103.137" y="58.1739" width="1.14209" height="1.14209" rx="0.571043" transform="rotate(138.383 103.137 58.1739)" fill="white"/>
</g>
<g opacity="0.6" filter="url(#filter13_f_282_1678)">
<rect x="106.592" y="32.8001" width="1.14209" height="1.14209" rx="0.571043" transform="rotate(138.383 106.592 32.8001)" fill="white"/>
</g>
<g opacity="0.6" filter="url(#filter14_f_282_1678)">
<rect x="110.567" y="24.3716" width="1.14209" height="1.14209" rx="0.571043" transform="rotate(-159.61 110.567 24.3716)" fill="white"/>
</g>
<g opacity="0.3" filter="url(#filter15_f_282_1678)">
<rect x="87.7957" y="52.3498" width="1.14209" height="1.14209" rx="0.571043" transform="rotate(138.383 87.7957 52.3498)" fill="white"/>
</g>
<g opacity="0.3" filter="url(#filter16_f_282_1678)">
<rect x="90.0986" y="35.434" width="1.14209" height="1.14209" rx="0.571043" transform="rotate(138.383 90.0986 35.434)" fill="white"/>
</g>
<g opacity="0.3" filter="url(#filter17_f_282_1678)">
<rect width="1.14209" height="1.14209" rx="0.571043" transform="matrix(0.231267 -0.97289 -0.97289 -0.231267 86.3684 22.5272)" fill="white"/>
</g>
<g opacity="0.3" filter="url(#filter18_f_282_1678)">
<rect width="1.14209" height="1.14209" rx="0.571043" transform="matrix(0.231267 -0.97289 -0.97289 -0.231267 78.7603 40.4437)" fill="white"/>
</g>
<g opacity="0.3" filter="url(#filter19_f_282_1678)">
<rect width="1.14209" height="1.14209" rx="0.571043" transform="matrix(0.231267 -0.97289 -0.97289 -0.231267 97.8284 39.594)" fill="white"/>
</g>
<g opacity="0.3" filter="url(#filter20_f_282_1678)">
<rect width="1.14209" height="1.14209" rx="0.571043" transform="matrix(0.231267 -0.97289 -0.97289 -0.231267 97.6775 53.357)" fill="white"/>
</g>
<g opacity="0.3" filter="url(#filter21_f_282_1678)">
<rect width="1.14209" height="1.14209" rx="0.571043" transform="matrix(0.231267 -0.97289 -0.97289 -0.231267 93.8259 18.3738)" fill="white"/>
</g>
<g clip-path="url(#clip1_282_1678)">
<rect x="92.4238" y="37.0887" width="422" height="118" rx="6" fill="#F3F3F5"/>
<path d="M168.588 208.136L205.819 203.654L252.886 163.742L293.077 162.932L315.451 97.7906L379.203 70.9781L397.684 2.7801L438.642 -16.7558" stroke="#2962FF"/>
</g>
<g filter="url(#filter22_b_282_1678)">
<rect x="92.4238" y="163.589" width="102.5" height="83" rx="4" fill="#F3F3F5"/>
</g>
<g filter="url(#filter23_b_282_1678)">
<rect x="198.924" y="163.589" width="102.5" height="83" rx="4" fill="#F3F3F5"/>
</g>
<g filter="url(#filter24_b_282_1678)">
<rect x="305.424" y="163.589" width="102.5" height="83" rx="4" fill="#F3F3F5"/>
</g>
<g filter="url(#filter25_b_282_1678)">
<rect x="411.924" y="163.589" width="102.5" height="83" rx="4" fill="#F3F3F5"/>
</g>
<g filter="url(#filter26_b_282_1678)">
<rect x="92.4238" y="250.589" width="102.667" height="83" rx="4" fill="#F3F3F5"/>
</g>
<g filter="url(#filter27_b_282_1678)">
<rect x="199.091" y="250.589" width="102.667" height="83" rx="4" fill="#F3F3F5"/>
</g>
<g filter="url(#filter28_b_282_1678)">
<rect x="305.757" y="250.589" width="102.667" height="83" rx="4" fill="#F3F3F5"/>
</g>
<g filter="url(#filter29_b_282_1678)">
<rect x="92.4238" y="337.589" width="102.667" height="83" rx="4" fill="url(#paint1_linear_282_1678)"/>
</g>
<g filter="url(#filter30_b_282_1678)">
<rect x="199.091" y="337.589" width="102.667" height="83" rx="4" fill="url(#paint2_linear_282_1678)"/>
</g>
<g filter="url(#filter31_b_282_1678)">
<rect x="305.757" y="337.589" width="102.667" height="83" rx="4" fill="url(#paint3_linear_282_1678)"/>
</g>
<g filter="url(#filter32_b_282_1678)">
<rect x="412.424" y="250.589" width="102.667" height="170" rx="4" fill="url(#paint4_linear_282_1678)"/>
</g>
</g>
<rect x="76.7571" y="18.5059" width="453" height="394" rx="11.2432" stroke="url(#paint5_linear_282_1678)" stroke-width="2"/>
<g opacity="0.3">
<g opacity="0.01" clip-path="url(#clip2_282_1678)">
<path d="M20.3906 169.63L18.3554 167.593L29.4473 156.497C29.625 156.318 29.8363 156.176 30.0691 156.079C30.3019 155.982 30.5516 155.933 30.8037 155.933C31.0559 155.933 31.3055 155.982 31.5383 156.079C31.7711 156.176 31.9825 156.318 32.1602 156.497L43.2578 167.593L41.2226 169.628L30.8066 159.214L20.3906 169.63Z" fill="#2962FF"/>
</g>
<g opacity="0.02" clip-path="url(#clip3_282_1678)">
<path d="M20.3906 152.99L18.3554 150.953L29.4473 139.857C29.625 139.678 29.8363 139.536 30.0691 139.439C30.3019 139.342 30.5516 139.293 30.8037 139.293C31.0559 139.293 31.3055 139.342 31.5383 139.439C31.7711 139.536 31.9825 139.678 32.1602 139.857L43.2578 150.953L41.2226 152.988L30.8066 142.574L20.3906 152.99Z" fill="#2962FF"/>
</g>
<g opacity="0.05" clip-path="url(#clip4_282_1678)">
<path d="M20.3906 136.35L18.3554 134.313L29.4473 123.217C29.625 123.038 29.8363 122.896 30.0691 122.799C30.3019 122.702 30.5516 122.653 30.8037 122.653C31.0559 122.653 31.3055 122.702 31.5383 122.799C31.7711 122.896 31.9825 123.038 32.1602 123.217L43.2578 134.313L41.2226 136.348L30.8066 125.934L20.3906 136.35Z" fill="#2962FF"/>
</g>
<g opacity="0.1" clip-path="url(#clip5_282_1678)">
<path d="M20.3906 119.71L18.3554 117.673L29.4473 106.577C29.625 106.398 29.8363 106.256 30.0691 106.159C30.3019 106.062 30.5516 106.013 30.8037 106.013C31.0559 106.013 31.3055 106.062 31.5383 106.159C31.7711 106.256 31.9825 106.398 32.1602 106.577L43.2578 117.673L41.2226 119.708L30.8066 109.294L20.3906 119.71Z" fill="#2962FF"/>
</g>
<g opacity="0.2" clip-path="url(#clip6_282_1678)">
<path d="M20.3906 103.07L18.3554 101.033L29.4473 89.937C29.625 89.7582 29.8363 89.6162 30.0691 89.5194C30.3019 89.4225 30.5516 89.3726 30.8037 89.3726C31.0559 89.3726 31.3055 89.4225 31.5383 89.5194C31.7711 89.6162 31.9825 89.7582 32.1602 89.937L43.2578 101.033L41.2226 103.068L30.8066 92.6538L20.3906 103.07Z" fill="#2962FF"/>
</g>
<g opacity="0.4" clip-path="url(#clip7_282_1678)">
<path d="M20.3906 86.4298L18.3554 84.3927L29.4473 73.297C29.625 73.1182 29.8363 72.9762 30.0691 72.8794C30.3019 72.7825 30.5516 72.7326 30.8037 72.7326C31.0559 72.7326 31.3055 72.7825 31.5383 72.8794C31.7711 72.9762 31.9825 73.1182 32.1602 73.297L43.2578 84.3927L41.2226 86.4279L30.8066 76.0138L20.3906 86.4298Z" fill="#2962FF"/>
</g>
<g opacity="0.6" clip-path="url(#clip8_282_1678)">
<path d="M20.3906 69.7898L18.3554 67.7527L29.4473 56.657C29.625 56.4782 29.8363 56.3362 30.0691 56.2394C30.3019 56.1425 30.5516 56.0926 30.8037 56.0926C31.0559 56.0926 31.3055 56.1425 31.5383 56.2394C31.7711 56.3362 31.9825 56.4782 32.1602 56.657L43.2578 67.7527L41.2226 69.7879L30.8066 59.3738L20.3906 69.7898Z" fill="#2962FF"/>
</g>
<g opacity="0.8" clip-path="url(#clip9_282_1678)">
<path d="M20.3906 53.1497L18.3554 51.1126L29.4473 40.0169C29.625 39.8381 29.8363 39.6961 30.0691 39.5993C30.3019 39.5024 30.5516 39.4525 30.8037 39.4525C31.0559 39.4525 31.3055 39.5024 31.5383 39.5993C31.7711 39.6961 31.9825 39.8381 32.1602 40.0169L43.2578 51.1126L41.2226 53.1478L30.8066 42.7337L20.3906 53.1497Z" fill="#2962FF"/>
</g>
<g clip-path="url(#clip10_282_1678)">
<path d="M20.3906 36.5096L18.3554 34.4725L29.4473 23.3768C29.625 23.198 29.8363 23.056 30.0691 22.9592C30.3019 22.8623 30.5516 22.8124 30.8037 22.8124C31.0559 22.8124 31.3055 22.8623 31.5383 22.9592C31.7711 23.056 31.9825 23.198 32.1602 23.3768L43.2578 34.4725L41.2226 36.5077L30.8066 26.0936L20.3906 36.5096Z" fill="#2962FF"/>
</g>
</g>
<g opacity="0.3">
<g opacity="0.01" clip-path="url(#clip11_282_1678)">
<path d="M515.016 390.064L512.98 388.027L524.072 376.931C524.25 376.752 524.461 376.61 524.694 376.513C524.927 376.416 525.177 376.367 525.429 376.367C525.681 376.367 525.931 376.416 526.163 376.513C526.396 376.61 526.607 376.752 526.785 376.931L537.883 388.027L535.848 390.062L525.432 379.648L515.016 390.064Z" fill="#2962FF"/>
</g>
<g opacity="0.02" clip-path="url(#clip12_282_1678)">
<path d="M515.016 373.424L512.98 371.387L524.072 360.291C524.25 360.112 524.461 359.97 524.694 359.873C524.927 359.776 525.177 359.727 525.429 359.727C525.681 359.727 525.931 359.776 526.163 359.873C526.396 359.97 526.607 360.112 526.785 360.291L537.883 371.387L535.848 373.422L525.432 363.008L515.016 373.424Z" fill="#2962FF"/>
</g>
<g opacity="0.05" clip-path="url(#clip13_282_1678)">
<path d="M515.016 356.784L512.98 354.747L524.072 343.651C524.25 343.472 524.461 343.33 524.694 343.233C524.927 343.136 525.177 343.087 525.429 343.087C525.681 343.087 525.931 343.136 526.163 343.233C526.396 343.33 526.607 343.472 526.785 343.651L537.883 354.747L535.848 356.782L525.432 346.368L515.016 356.784Z" fill="#2962FF"/>
</g>
<g opacity="0.1" clip-path="url(#clip14_282_1678)">
<path d="M515.016 340.144L512.98 338.107L524.072 327.011C524.25 326.832 524.461 326.69 524.694 326.593C524.927 326.496 525.177 326.447 525.429 326.447C525.681 326.447 525.931 326.496 526.163 326.593C526.396 326.69 526.607 326.832 526.785 327.011L537.883 338.107L535.848 340.142L525.432 329.728L515.016 340.144Z" fill="#2962FF"/>
</g>
<g opacity="0.2" clip-path="url(#clip15_282_1678)">
<path d="M515.016 323.504L512.98 321.467L524.072 310.371C524.25 310.192 524.461 310.05 524.694 309.953C524.927 309.856 525.177 309.807 525.429 309.807C525.681 309.807 525.931 309.856 526.163 309.953C526.396 310.05 526.607 310.192 526.785 310.371L537.883 321.467L535.848 323.502L525.432 313.088L515.016 323.504Z" fill="#2962FF"/>
</g>
<g opacity="0.4" clip-path="url(#clip16_282_1678)">
<path d="M515.016 306.864L512.98 304.827L524.072 293.731C524.25 293.552 524.461 293.41 524.694 293.313C524.927 293.216 525.177 293.167 525.429 293.167C525.681 293.167 525.931 293.216 526.163 293.313C526.396 293.41 526.607 293.552 526.785 293.731L537.883 304.827L535.848 306.862L525.432 296.448L515.016 306.864Z" fill="#2962FF"/>
</g>
<g opacity="0.6" clip-path="url(#clip17_282_1678)">
<path d="M515.016 290.224L512.98 288.187L524.072 277.091C524.25 276.912 524.461 276.77 524.694 276.673C524.927 276.576 525.177 276.527 525.429 276.527C525.681 276.527 525.931 276.576 526.163 276.673C526.396 276.77 526.607 276.912 526.785 277.091L537.883 288.187L535.848 290.222L525.432 279.808L515.016 290.224Z" fill="#2962FF"/>
</g>
<g opacity="0.8" clip-path="url(#clip18_282_1678)">
<path d="M515.016 273.584L512.98 271.547L524.072 260.451C524.25 260.272 524.461 260.13 524.694 260.033C524.927 259.936 525.177 259.886 525.429 259.886C525.681 259.886 525.931 259.936 526.163 260.033C526.396 260.13 526.607 260.272 526.785 260.451L537.883 271.547L535.848 273.582L525.432 263.168L515.016 273.584Z" fill="#2962FF"/>
</g>
<g clip-path="url(#clip19_282_1678)">
<path d="M515.016 256.944L512.98 254.906L524.072 243.811C524.25 243.632 524.461 243.49 524.694 243.393C524.927 243.296 525.177 243.246 525.429 243.246C525.681 243.246 525.931 243.296 526.163 243.393C526.396 243.49 526.607 243.632 526.785 243.811L537.883 254.906L535.848 256.942L525.432 246.528L515.016 256.944Z" fill="#2962FF"/>
</g>
</g>
<g opacity="0.7">
<g opacity="0.01" clip-path="url(#clip20_282_1678)">
<path d="M60.0156 400.611L57.9804 398.574L69.0723 387.478C69.25 387.299 69.4613 387.157 69.6941 387.06C69.9269 386.964 70.1766 386.914 70.4287 386.914C70.6809 386.914 70.9305 386.964 71.1633 387.06C71.3961 387.157 71.6075 387.299 71.7852 387.478L82.8828 398.574L80.8476 400.609L70.4316 390.195L60.0156 400.611Z" fill="#2962FF"/>
</g>
<g opacity="0.02" clip-path="url(#clip21_282_1678)">
<path d="M60.0156 383.971L57.9804 381.934L69.0723 370.838C69.25 370.659 69.4613 370.517 69.6941 370.42C69.9269 370.324 70.1766 370.274 70.4287 370.274C70.6809 370.274 70.9305 370.324 71.1633 370.42C71.3961 370.517 71.6075 370.659 71.7852 370.838L82.8828 381.934L80.8476 383.969L70.4316 373.555L60.0156 383.971Z" fill="#2962FF"/>
</g>
<g opacity="0.05" clip-path="url(#clip22_282_1678)">
<path d="M60.0156 367.331L57.9804 365.294L69.0723 354.198C69.25 354.019 69.4613 353.877 69.6941 353.78C69.9269 353.684 70.1766 353.634 70.4287 353.634C70.6809 353.634 70.9305 353.684 71.1633 353.78C71.3961 353.877 71.6075 354.019 71.7852 354.198L82.8828 365.294L80.8476 367.329L70.4316 356.915L60.0156 367.331Z" fill="#2962FF"/>
</g>
<g opacity="0.1" clip-path="url(#clip23_282_1678)">
<path d="M60.0156 350.691L57.9804 348.654L69.0723 337.558C69.25 337.379 69.4613 337.237 69.6941 337.14C69.9269 337.044 70.1766 336.994 70.4287 336.994C70.6809 336.994 70.9305 337.044 71.1633 337.14C71.3961 337.237 71.6075 337.379 71.7852 337.558L82.8828 348.654L80.8476 350.689L70.4316 340.275L60.0156 350.691Z" fill="#2962FF"/>
</g>
<g opacity="0.2" clip-path="url(#clip24_282_1678)">
<path d="M60.0156 334.051L57.9804 332.014L69.0723 320.918C69.25 320.739 69.4613 320.597 69.6941 320.5C69.9269 320.404 70.1766 320.354 70.4287 320.354C70.6809 320.354 70.9305 320.404 71.1633 320.5C71.3961 320.597 71.6075 320.739 71.7852 320.918L82.8828 332.014L80.8476 334.049L70.4316 323.635L60.0156 334.051Z" fill="#2962FF"/>
</g>
<g opacity="0.4" clip-path="url(#clip25_282_1678)">
<path d="M60.0156 317.411L57.9804 315.374L69.0723 304.278C69.25 304.099 69.4613 303.957 69.6941 303.86C69.9269 303.764 70.1766 303.714 70.4287 303.714C70.6809 303.714 70.9305 303.764 71.1633 303.86C71.3961 303.957 71.6075 304.099 71.7852 304.278L82.8828 315.374L80.8476 317.409L70.4316 306.995L60.0156 317.411Z" fill="#2962FF"/>
</g>
<g opacity="0.6" clip-path="url(#clip26_282_1678)">
<path d="M60.0156 300.771L57.9804 298.734L69.0723 287.638C69.25 287.459 69.4613 287.317 69.6941 287.22C69.9269 287.124 70.1766 287.074 70.4287 287.074C70.6809 287.074 70.9305 287.124 71.1633 287.22C71.3961 287.317 71.6075 287.459 71.7852 287.638L82.8828 298.734L80.8476 300.769L70.4316 290.355L60.0156 300.771Z" fill="#2962FF"/>
</g>
<g opacity="0.8" clip-path="url(#clip27_282_1678)">
<path d="M60.0156 284.131L57.9804 282.094L69.0723 270.998C69.25 270.819 69.4613 270.677 69.6941 270.58C69.9269 270.483 70.1766 270.434 70.4287 270.434C70.6809 270.434 70.9305 270.483 71.1633 270.58C71.3961 270.677 71.6075 270.819 71.7852 270.998L82.8828 282.094L80.8476 284.129L70.4316 273.715L60.0156 284.131Z" fill="#2962FF"/>
</g>
<g clip-path="url(#clip28_282_1678)">
<path d="M60.0156 267.491L57.9804 265.454L69.0723 254.358C69.25 254.179 69.4613 254.037 69.6941 253.94C69.9269 253.843 70.1766 253.794 70.4287 253.794C70.6809 253.794 70.9305 253.843 71.1633 253.94C71.3961 254.037 71.6075 254.179 71.7852 254.358L82.8828 265.454L80.8476 267.489L70.4316 257.075L60.0156 267.491Z" fill="#2962FF"/>
</g>
</g>
<g opacity="0.7">
<g opacity="0.01" clip-path="url(#clip29_282_1678)">
<path d="M550.391 175.782L548.355 173.745L559.447 162.649C559.625 162.471 559.836 162.329 560.069 162.232C560.302 162.135 560.552 162.085 560.804 162.085C561.056 162.085 561.306 162.135 561.538 162.232C561.771 162.329 561.982 162.471 562.16 162.649L573.258 173.745L571.223 175.78L560.807 165.366L550.391 175.782Z" fill="#2962FF"/>
</g>
<g opacity="0.02" clip-path="url(#clip30_282_1678)">
<path d="M550.391 159.142L548.355 157.105L559.447 146.009C559.625 145.831 559.836 145.689 560.069 145.592C560.302 145.495 560.552 145.445 560.804 145.445C561.056 145.445 561.306 145.495 561.538 145.592C561.771 145.689 561.982 145.831 562.16 146.009L573.258 157.105L571.223 159.14L560.807 148.726L550.391 159.142Z" fill="#2962FF"/>
</g>
<g opacity="0.05" clip-path="url(#clip31_282_1678)">
<path d="M550.391 142.502L548.355 140.465L559.447 129.369C559.625 129.191 559.836 129.049 560.069 128.952C560.302 128.855 560.552 128.805 560.804 128.805C561.056 128.805 561.306 128.855 561.538 128.952C561.771 129.049 561.982 129.191 562.16 129.369L573.258 140.465L571.223 142.5L560.807 132.086L550.391 142.502Z" fill="#2962FF"/>
</g>
<g opacity="0.1" clip-path="url(#clip32_282_1678)">
<path d="M550.391 125.862L548.355 123.825L559.447 112.729C559.625 112.551 559.836 112.409 560.069 112.312C560.302 112.215 560.552 112.165 560.804 112.165C561.056 112.165 561.306 112.215 561.538 112.312C561.771 112.409 561.982 112.551 562.16 112.729L573.258 123.825L571.223 125.86L560.807 115.446L550.391 125.862Z" fill="#2962FF"/>
</g>
<g opacity="0.2" clip-path="url(#clip33_282_1678)">
<path d="M550.391 109.222L548.355 107.185L559.447 96.0894C559.625 95.9106 559.836 95.7686 560.069 95.6718C560.302 95.5749 560.552 95.525 560.804 95.525C561.056 95.525 561.306 95.5749 561.538 95.6718C561.771 95.7686 561.982 95.9106 562.16 96.0894L573.258 107.185L571.223 109.22L560.807 98.8062L550.391 109.222Z" fill="#2962FF"/>
</g>
<g opacity="0.4" clip-path="url(#clip34_282_1678)">
<path d="M550.391 92.5822L548.355 90.5451L559.447 79.4494C559.625 79.2706 559.836 79.1286 560.069 79.0318C560.302 78.9349 560.552 78.885 560.804 78.885C561.056 78.885 561.306 78.9349 561.538 79.0318C561.771 79.1286 561.982 79.2706 562.16 79.4494L573.258 90.5451L571.223 92.5803L560.807 82.1662L550.391 92.5822Z" fill="#2962FF"/>
</g>
<g opacity="0.6" clip-path="url(#clip35_282_1678)">
<path d="M550.391 75.9422L548.355 73.9051L559.447 62.8094C559.625 62.6306 559.836 62.4886 560.069 62.3918C560.302 62.2949 560.552 62.245 560.804 62.245C561.056 62.245 561.306 62.2949 561.538 62.3918C561.771 62.4886 561.982 62.6306 562.16 62.8094L573.258 73.9051L571.223 75.9403L560.807 65.5262L550.391 75.9422Z" fill="#2962FF"/>
</g>
<g opacity="0.8" clip-path="url(#clip36_282_1678)">
<path d="M550.391 59.3021L548.355 57.265L559.447 46.1693C559.625 45.9905 559.836 45.8485 560.069 45.7517C560.302 45.6548 560.552 45.6049 560.804 45.6049C561.056 45.6049 561.306 45.6548 561.538 45.7517C561.771 45.8485 561.982 45.9905 562.16 46.1693L573.258 57.265L571.223 59.3002L560.807 48.8861L550.391 59.3021Z" fill="#2962FF"/>
</g>
<g clip-path="url(#clip37_282_1678)">
<path d="M550.391 42.662L548.355 40.6249L559.447 29.5292C559.625 29.3504 559.836 29.2084 560.069 29.1116C560.302 29.0147 560.552 28.9648 560.804 28.9648C561.056 28.9648 561.306 29.0147 561.538 29.1116C561.771 29.2084 561.982 29.3504 562.16 29.5292L573.258 40.6249L571.223 42.6601L560.807 32.246L550.391 42.662Z" fill="#2962FF"/>
</g>
</g>
<defs>
<filter id="filter0_f_282_1678" x="405.97" y="57.0315" width="3.89648" height="3.89651" filterUnits="userSpaceOnUse" color-interpolation-filters="sRGB">
<feFlood flood-opacity="0" result="BackgroundImageFix"/>
<feBlend mode="normal" in="SourceGraphic" in2="BackgroundImageFix" result="shape"/>
<feGaussianBlur stdDeviation="0.571043" result="effect1_foregroundBlur_282_1678"/>
</filter>
<filter id="filter1_f_282_1678" x="409.425" y="31.6578" width="3.89648" height="3.89651" filterUnits="userSpaceOnUse" color-interpolation-filters="sRGB">
<feFlood flood-opacity="0" result="BackgroundImageFix"/>
<feBlend mode="normal" in="SourceGraphic" in2="BackgroundImageFix" result="shape"/>
<feGaussianBlur stdDeviation="0.571043" result="effect1_foregroundBlur_282_1678"/>
</filter>
<filter id="filter2_f_282_1678" x="413.942" y="22.6147" width="3.75268" height="3.7526" filterUnits="userSpaceOnUse" color-interpolation-filters="sRGB">
<feFlood flood-opacity="0" result="BackgroundImageFix"/>
<feBlend mode="normal" in="SourceGraphic" in2="BackgroundImageFix" result="shape"/>
<feGaussianBlur stdDeviation="0.571043" result="effect1_foregroundBlur_282_1678"/>
</filter>
<filter id="filter3_f_282_1678" x="378.859" y="34.9439" width="3.65941" height="3.65942" filterUnits="userSpaceOnUse" color-interpolation-filters="sRGB">
<feFlood flood-opacity="0" result="BackgroundImageFix"/>
<feBlend mode="normal" in="SourceGraphic" in2="BackgroundImageFix" result="shape"/>
<feGaussianBlur stdDeviation="0.571043" result="effect1_foregroundBlur_282_1678"/>
</filter>
<filter id="filter4_f_282_1678" x="390.629" y="51.2075" width="3.89648" height="3.89651" filterUnits="userSpaceOnUse" color-interpolation-filters="sRGB">
<feFlood flood-opacity="0" result="BackgroundImageFix"/>
<feBlend mode="normal" in="SourceGraphic" in2="BackgroundImageFix" result="shape"/>
<feGaussianBlur stdDeviation="0.571043" result="effect1_foregroundBlur_282_1678"/>
</filter>
<filter id="filter5_f_282_1678" x="392.933" y="34.2916" width="3.89648" height="3.89651" filterUnits="userSpaceOnUse" color-interpolation-filters="sRGB">
<feFlood flood-opacity="0" result="BackgroundImageFix"/>
<feBlend mode="normal" in="SourceGraphic" in2="BackgroundImageFix" result="shape"/>
<feGaussianBlur stdDeviation="0.571043" result="effect1_foregroundBlur_282_1678"/>
</filter>
<filter id="filter6_f_282_1678" x="389.703" y="20.8635" width="3.65941" height="3.65941" filterUnits="userSpaceOnUse" color-interpolation-filters="sRGB">
<feFlood flood-opacity="0" result="BackgroundImageFix"/>
<feBlend mode="normal" in="SourceGraphic" in2="BackgroundImageFix" result="shape"/>
<feGaussianBlur stdDeviation="0.571043" result="effect1_foregroundBlur_282_1678"/>
</filter>
<filter id="filter7_f_282_1678" x="371.485" y="40.7812" width="3.65941" height="3.65942" filterUnits="userSpaceOnUse" color-interpolation-filters="sRGB">
<feFlood flood-opacity="0" result="BackgroundImageFix"/>
<feBlend mode="normal" in="SourceGraphic" in2="BackgroundImageFix" result="shape"/>
<feGaussianBlur stdDeviation="0.571043" result="effect1_foregroundBlur_282_1678"/>
</filter>
<filter id="filter8_f_282_1678" x="382.095" y="38.78" width="3.65941" height="3.65942" filterUnits="userSpaceOnUse" color-interpolation-filters="sRGB">
<feFlood flood-opacity="0" result="BackgroundImageFix"/>
<feBlend mode="normal" in="SourceGraphic" in2="BackgroundImageFix" result="shape"/>
<feGaussianBlur stdDeviation="0.571043" result="effect1_foregroundBlur_282_1678"/>
</filter>
<filter id="filter9_f_282_1678" x="401.163" y="37.9303" width="3.65941" height="3.65942" filterUnits="userSpaceOnUse" color-interpolation-filters="sRGB">
<feFlood flood-opacity="0" result="BackgroundImageFix"/>
<feBlend mode="normal" in="SourceGraphic" in2="BackgroundImageFix" result="shape"/>
<feGaussianBlur stdDeviation="0.571043" result="effect1_foregroundBlur_282_1678"/>
</filter>
<filter id="filter10_f_282_1678" x="401.012" y="51.6933" width="3.65941" height="3.65942" filterUnits="userSpaceOnUse" color-interpolation-filters="sRGB">
<feFlood flood-opacity="0" result="BackgroundImageFix"/>
<feBlend mode="normal" in="SourceGraphic" in2="BackgroundImageFix" result="shape"/>
<feGaussianBlur stdDeviation="0.571043" result="effect1_foregroundBlur_282_1678"/>
</filter>
<filter id="filter11_f_282_1678" x="397.161" y="16.71" width="3.65941" height="3.65941" filterUnits="userSpaceOnUse" color-interpolation-filters="sRGB">
<feFlood flood-opacity="0" result="BackgroundImageFix"/>
<feBlend mode="normal" in="SourceGraphic" in2="BackgroundImageFix" result="shape"/>
<feGaussianBlur stdDeviation="0.571043" result="effect1_foregroundBlur_282_1678"/>
</filter>
<filter id="filter12_f_282_1678" x="100.382" y="56.178" width="3.89648" height="3.89651" filterUnits="userSpaceOnUse" color-interpolation-filters="sRGB">
<feFlood flood-opacity="0" result="BackgroundImageFix"/>
<feBlend mode="normal" in="SourceGraphic" in2="BackgroundImageFix" result="shape"/>
<feGaussianBlur stdDeviation="0.571043" result="effect1_foregroundBlur_282_1678"/>
</filter>
<filter id="filter13_f_282_1678" x="103.837" y="30.8042" width="3.89648" height="3.89651" filterUnits="userSpaceOnUse" color-interpolation-filters="sRGB">
<feFlood flood-opacity="0" result="BackgroundImageFix"/>
<feBlend mode="normal" in="SourceGraphic" in2="BackgroundImageFix" result="shape"/>
<feGaussianBlur stdDeviation="0.571043" result="effect1_foregroundBlur_282_1678"/>
</filter>
<filter id="filter14_f_282_1678" x="108.354" y="21.7611" width="3.75268" height="3.7526" filterUnits="userSpaceOnUse" color-interpolation-filters="sRGB">
<feFlood flood-opacity="0" result="BackgroundImageFix"/>
<feBlend mode="normal" in="SourceGraphic" in2="BackgroundImageFix" result="shape"/>
<feGaussianBlur stdDeviation="0.571043" result="effect1_foregroundBlur_282_1678"/>
</filter>
<filter id="filter15_f_282_1678" x="85.0413" y="50.3539" width="3.89648" height="3.89651" filterUnits="userSpaceOnUse" color-interpolation-filters="sRGB">
<feFlood flood-opacity="0" result="BackgroundImageFix"/>
<feBlend mode="normal" in="SourceGraphic" in2="BackgroundImageFix" result="shape"/>
<feGaussianBlur stdDeviation="0.571043" result="effect1_foregroundBlur_282_1678"/>
</filter>
<filter id="filter16_f_282_1678" x="87.3442" y="33.438" width="3.89648" height="3.89651" filterUnits="userSpaceOnUse" color-interpolation-filters="sRGB">
<feFlood flood-opacity="0" result="BackgroundImageFix"/>
<feBlend mode="normal" in="SourceGraphic" in2="BackgroundImageFix" result="shape"/>
<feGaussianBlur stdDeviation="0.571043" result="effect1_foregroundBlur_282_1678"/>
</filter>
<filter id="filter17_f_282_1678" x="84.1152" y="20.0099" width="3.65941" height="3.65941" filterUnits="userSpaceOnUse" color-interpolation-filters="sRGB">
<feFlood flood-opacity="0" result="BackgroundImageFix"/>
<feBlend mode="normal" in="SourceGraphic" in2="BackgroundImageFix" result="shape"/>
<feGaussianBlur stdDeviation="0.571043" result="effect1_foregroundBlur_282_1678"/>
</filter>
<filter id="filter18_f_282_1678" x="76.5071" y="37.9264" width="3.65941" height="3.65942" filterUnits="userSpaceOnUse" color-interpolation-filters="sRGB">
<feFlood flood-opacity="0" result="BackgroundImageFix"/>
<feBlend mode="normal" in="SourceGraphic" in2="BackgroundImageFix" result="shape"/>
<feGaussianBlur stdDeviation="0.571043" result="effect1_foregroundBlur_282_1678"/>
</filter>
<filter id="filter19_f_282_1678" x="95.5752" y="37.0767" width="3.65941" height="3.65942" filterUnits="userSpaceOnUse" color-interpolation-filters="sRGB">
<feFlood flood-opacity="0" result="BackgroundImageFix"/>
<feBlend mode="normal" in="SourceGraphic" in2="BackgroundImageFix" result="shape"/>
<feGaussianBlur stdDeviation="0.571043" result="effect1_foregroundBlur_282_1678"/>
</filter>
<filter id="filter20_f_282_1678" x="95.4243" y="50.8397" width="3.65941" height="3.65942" filterUnits="userSpaceOnUse" color-interpolation-filters="sRGB">
<feFlood flood-opacity="0" result="BackgroundImageFix"/>
<feBlend mode="normal" in="SourceGraphic" in2="BackgroundImageFix" result="shape"/>
<feGaussianBlur stdDeviation="0.571043" result="effect1_foregroundBlur_282_1678"/>
</filter>
<filter id="filter21_f_282_1678" x="91.5728" y="15.8564" width="3.65941" height="3.65941" filterUnits="userSpaceOnUse" color-interpolation-filters="sRGB">
<feFlood flood-opacity="0" result="BackgroundImageFix"/>
<feBlend mode="normal" in="SourceGraphic" in2="BackgroundImageFix" result="shape"/>
<feGaussianBlur stdDeviation="0.571043" result="effect1_foregroundBlur_282_1678"/>
</filter>
<filter id="filter22_b_282_1678" x="90.4238" y="161.589" width="106.5" height="87" filterUnits="userSpaceOnUse" color-interpolation-filters="sRGB">
<feFlood flood-opacity="0" result="BackgroundImageFix"/>
<feGaussianBlur in="BackgroundImageFix" stdDeviation="1"/>
<feComposite in2="SourceAlpha" operator="in" result="effect1_backgroundBlur_282_1678"/>
<feBlend mode="normal" in="SourceGraphic" in2="effect1_backgroundBlur_282_1678" result="shape"/>
</filter>
<filter id="filter23_b_282_1678" x="196.924" y="161.589" width="106.5" height="87" filterUnits="userSpaceOnUse" color-interpolation-filters="sRGB">
<feFlood flood-opacity="0" result="BackgroundImageFix"/>
<feGaussianBlur in="BackgroundImageFix" stdDeviation="1"/>
<feComposite in2="SourceAlpha" operator="in" result="effect1_backgroundBlur_282_1678"/>
<feBlend mode="normal" in="SourceGraphic" in2="effect1_backgroundBlur_282_1678" result="shape"/>
</filter>
<filter id="filter24_b_282_1678" x="303.424" y="161.589" width="106.5" height="87" filterUnits="userSpaceOnUse" color-interpolation-filters="sRGB">
<feFlood flood-opacity="0" result="BackgroundImageFix"/>
<feGaussianBlur in="BackgroundImageFix" stdDeviation="1"/>
<feComposite in2="SourceAlpha" operator="in" result="effect1_backgroundBlur_282_1678"/>
<feBlend mode="normal" in="SourceGraphic" in2="effect1_backgroundBlur_282_1678" result="shape"/>
</filter>
<filter id="filter25_b_282_1678" x="409.924" y="161.589" width="106.5" height="87" filterUnits="userSpaceOnUse" color-interpolation-filters="sRGB">
<feFlood flood-opacity="0" result="BackgroundImageFix"/>
<feGaussianBlur in="BackgroundImageFix" stdDeviation="1"/>
<feComposite in2="SourceAlpha" operator="in" result="effect1_backgroundBlur_282_1678"/>
<feBlend mode="normal" in="SourceGraphic" in2="effect1_backgroundBlur_282_1678" result="shape"/>
</filter>
<filter id="filter26_b_282_1678" x="90.4238" y="248.589" width="106.667" height="87" filterUnits="userSpaceOnUse" color-interpolation-filters="sRGB">
<feFlood flood-opacity="0" result="BackgroundImageFix"/>
<feGaussianBlur in="BackgroundImageFix" stdDeviation="1"/>
<feComposite in2="SourceAlpha" operator="in" result="effect1_backgroundBlur_282_1678"/>
<feBlend mode="normal" in="SourceGraphic" in2="effect1_backgroundBlur_282_1678" result="shape"/>
</filter>
<filter id="filter27_b_282_1678" x="197.091" y="248.589" width="106.667" height="87" filterUnits="userSpaceOnUse" color-interpolation-filters="sRGB">
<feFlood flood-opacity="0" result="BackgroundImageFix"/>
<feGaussianBlur in="BackgroundImageFix" stdDeviation="1"/>
<feComposite in2="SourceAlpha" operator="in" result="effect1_backgroundBlur_282_1678"/>
<feBlend mode="normal" in="SourceGraphic" in2="effect1_backgroundBlur_282_1678" result="shape"/>
</filter>
<filter id="filter28_b_282_1678" x="303.757" y="248.589" width="106.667" height="87" filterUnits="userSpaceOnUse" color-interpolation-filters="sRGB">
<feFlood flood-opacity="0" result="BackgroundImageFix"/>
<feGaussianBlur in="BackgroundImageFix" stdDeviation="1"/>
<feComposite in2="SourceAlpha" operator="in" result="effect1_backgroundBlur_282_1678"/>
<feBlend mode="normal" in="SourceGraphic" in2="effect1_backgroundBlur_282_1678" result="shape"/>
</filter>
<filter id="filter29_b_282_1678" x="90.4238" y="335.589" width="106.667" height="87" filterUnits="userSpaceOnUse" color-interpolation-filters="sRGB">
<feFlood flood-opacity="0" result="BackgroundImageFix"/>
<feGaussianBlur in="BackgroundImageFix" stdDeviation="1"/>
<feComposite in2="SourceAlpha" operator="in" result="effect1_backgroundBlur_282_1678"/>
<feBlend mode="normal" in="SourceGraphic" in2="effect1_backgroundBlur_282_1678" result="shape"/>
</filter>
<filter id="filter30_b_282_1678" x="197.091" y="335.589" width="106.667" height="87" filterUnits="userSpaceOnUse" color-interpolation-filters="sRGB">
<feFlood flood-opacity="0" result="BackgroundImageFix"/>
<feGaussianBlur in="BackgroundImageFix" stdDeviation="1"/>
<feComposite in2="SourceAlpha" operator="in" result="effect1_backgroundBlur_282_1678"/>
<feBlend mode="normal" in="SourceGraphic" in2="effect1_backgroundBlur_282_1678" result="shape"/>
</filter>
<filter id="filter31_b_282_1678" x="303.757" y="335.589" width="106.667" height="87" filterUnits="userSpaceOnUse" color-interpolation-filters="sRGB">
<feFlood flood-opacity="0" result="BackgroundImageFix"/>
<feGaussianBlur in="BackgroundImageFix" stdDeviation="1"/>
<feComposite in2="SourceAlpha" operator="in" result="effect1_backgroundBlur_282_1678"/>
<feBlend mode="normal" in="SourceGraphic" in2="effect1_backgroundBlur_282_1678" result="shape"/>
</filter>
<filter id="filter32_b_282_1678" x="410.424" y="248.589" width="106.667" height="174" filterUnits="userSpaceOnUse" color-interpolation-filters="sRGB">
<feFlood flood-opacity="0" result="BackgroundImageFix"/>
<feGaussianBlur in="BackgroundImageFix" stdDeviation="1"/>
<feComposite in2="SourceAlpha" operator="in" result="effect1_backgroundBlur_282_1678"/>
<feBlend mode="normal" in="SourceGraphic" in2="effect1_backgroundBlur_282_1678" result="shape"/>
</filter>
<linearGradient id="paint0_linear_282_1678" x1="303.257" y1="19.5059" x2="303.257" y2="411.506" gradientUnits="userSpaceOnUse">
<stop stop-color="white"/>
<stop offset="1" stop-color="white" stop-opacity="0"/>
</linearGradient>
<linearGradient id="paint1_linear_282_1678" x1="143.757" y1="337.589" x2="143.757" y2="420.589" gradientUnits="userSpaceOnUse">
<stop stop-color="#F3F3F5"/>
<stop offset="1" stop-color="#F3F3F5" stop-opacity="0"/>
</linearGradient>
<linearGradient id="paint2_linear_282_1678" x1="250.424" y1="337.589" x2="250.424" y2="420.589" gradientUnits="userSpaceOnUse">
<stop stop-color="#F3F3F5"/>
<stop offset="1" stop-color="#F3F3F5" stop-opacity="0"/>
</linearGradient>
<linearGradient id="paint3_linear_282_1678" x1="357.09" y1="337.589" x2="357.09" y2="420.589" gradientUnits="userSpaceOnUse">
<stop stop-color="#F3F3F5"/>
<stop offset="1" stop-color="#F3F3F5" stop-opacity="0"/>
</linearGradient>
<linearGradient id="paint4_linear_282_1678" x1="463.757" y1="250.589" x2="463.757" y2="420.589" gradientUnits="userSpaceOnUse">
<stop offset="0.52446" stop-color="#F3F3F5"/>
<stop offset="1" stop-color="#F3F3F5" stop-opacity="0"/>
</linearGradient>
<linearGradient id="paint5_linear_282_1678" x1="303.257" y1="19.5059" x2="303.257" y2="411.506" gradientUnits="userSpaceOnUse">
<stop stop-color="#D5DEE8"/>
<stop offset="1" stop-color="#D5DEE8" stop-opacity="0"/>
</linearGradient>
<clipPath id="clip0_282_1678">
<rect x="77.7571" y="19.5059" width="451" height="392" rx="10.2432" fill="white"/>
</clipPath>
<clipPath id="clip1_282_1678">
<rect x="92.4238" y="37.0887" width="422" height="118" rx="6" fill="white"/>
</clipPath>
<clipPath id="clip2_282_1678">
<rect width="23.04" height="46.08" fill="white" transform="translate(7.75708 174.337) rotate(-90)"/>
</clipPath>
<clipPath id="clip3_282_1678">
<rect width="23.04" height="46.08" fill="white" transform="translate(7.75708 157.697) rotate(-90)"/>
</clipPath>
<clipPath id="clip4_282_1678">
<rect width="23.04" height="46.08" fill="white" transform="translate(7.75708 141.057) rotate(-90)"/>
</clipPath>
<clipPath id="clip5_282_1678">
<rect width="23.04" height="46.08" fill="white" transform="translate(7.75708 124.417) rotate(-90)"/>
</clipPath>
<clipPath id="clip6_282_1678">
<rect width="23.04" height="46.08" fill="white" transform="translate(7.75708 107.777) rotate(-90)"/>
</clipPath>
<clipPath id="clip7_282_1678">
<rect width="23.04" height="46.08" fill="white" transform="translate(7.75708 91.1371) rotate(-90)"/>
</clipPath>
<clipPath id="clip8_282_1678">
<rect width="23.04" height="46.08" fill="white" transform="translate(7.75708 74.4971) rotate(-90)"/>
</clipPath>
<clipPath id="clip9_282_1678">
<rect width="23.04" height="46.08" fill="white" transform="translate(7.75708 57.8571) rotate(-90)"/>
</clipPath>
<clipPath id="clip10_282_1678">
<rect width="23.04" height="46.08" fill="white" transform="translate(7.75708 41.2171) rotate(-90)"/>
</clipPath>
<clipPath id="clip11_282_1678">
<rect width="23.04" height="46.08" fill="white" transform="translate(502.382 394.771) rotate(-90)"/>
</clipPath>
<clipPath id="clip12_282_1678">
<rect width="23.04" height="46.08" fill="white" transform="translate(502.382 378.131) rotate(-90)"/>
</clipPath>
<clipPath id="clip13_282_1678">
<rect width="23.04" height="46.08" fill="white" transform="translate(502.382 361.491) rotate(-90)"/>
</clipPath>
<clipPath id="clip14_282_1678">
<rect width="23.04" height="46.08" fill="white" transform="translate(502.382 344.851) rotate(-90)"/>
</clipPath>
<clipPath id="clip15_282_1678">
<rect width="23.04" height="46.08" fill="white" transform="translate(502.382 328.211) rotate(-90)"/>
</clipPath>
<clipPath id="clip16_282_1678">
<rect width="23.04" height="46.08" fill="white" transform="translate(502.382 311.571) rotate(-90)"/>
</clipPath>
<clipPath id="clip17_282_1678">
<rect width="23.04" height="46.08" fill="white" transform="translate(502.382 294.931) rotate(-90)"/>
</clipPath>
<clipPath id="clip18_282_1678">
<rect width="23.04" height="46.08" fill="white" transform="translate(502.382 278.291) rotate(-90)"/>
</clipPath>
<clipPath id="clip19_282_1678">
<rect width="23.04" height="46.08" fill="white" transform="translate(502.382 261.651) rotate(-90)"/>
</clipPath>
<clipPath id="clip20_282_1678">
<rect width="23.04" height="46.08" fill="white" transform="translate(47.3821 405.318) rotate(-90)"/>
</clipPath>
<clipPath id="clip21_282_1678">
<rect width="23.04" height="46.08" fill="white" transform="translate(47.3821 388.678) rotate(-90)"/>
</clipPath>
<clipPath id="clip22_282_1678">
<rect width="23.04" height="46.08" fill="white" transform="translate(47.3821 372.038) rotate(-90)"/>
</clipPath>
<clipPath id="clip23_282_1678">
<rect width="23.04" height="46.08" fill="white" transform="translate(47.3821 355.398) rotate(-90)"/>
</clipPath>
<clipPath id="clip24_282_1678">
<rect width="23.04" height="46.08" fill="white" transform="translate(47.3821 338.758) rotate(-90)"/>
</clipPath>
<clipPath id="clip25_282_1678">
<rect width="23.04" height="46.08" fill="white" transform="translate(47.3821 322.118) rotate(-90)"/>
</clipPath>
<clipPath id="clip26_282_1678">
<rect width="23.04" height="46.08" fill="white" transform="translate(47.3821 305.478) rotate(-90)"/>
</clipPath>
<clipPath id="clip27_282_1678">
<rect width="23.04" height="46.08" fill="white" transform="translate(47.3821 288.838) rotate(-90)"/>
</clipPath>
<clipPath id="clip28_282_1678">
<rect width="23.04" height="46.08" fill="white" transform="translate(47.3821 272.198) rotate(-90)"/>
</clipPath>
<clipPath id="clip29_282_1678">
<rect width="23.04" height="46.08" fill="white" transform="translate(537.757 180.49) rotate(-90)"/>
</clipPath>
<clipPath id="clip30_282_1678">
<rect width="23.04" height="46.08" fill="white" transform="translate(537.757 163.85) rotate(-90)"/>
</clipPath>
<clipPath id="clip31_282_1678">
<rect width="23.04" height="46.08" fill="white" transform="translate(537.757 147.21) rotate(-90)"/>
</clipPath>
<clipPath id="clip32_282_1678">
<rect width="23.04" height="46.08" fill="white" transform="translate(537.757 130.57) rotate(-90)"/>
</clipPath>
<clipPath id="clip33_282_1678">
<rect width="23.04" height="46.08" fill="white" transform="translate(537.757 113.93) rotate(-90)"/>
</clipPath>
<clipPath id="clip34_282_1678">
<rect width="23.04" height="46.08" fill="white" transform="translate(537.757 97.2895) rotate(-90)"/>
</clipPath>
<clipPath id="clip35_282_1678">
<rect width="23.04" height="46.08" fill="white" transform="translate(537.757 80.6495) rotate(-90)"/>
</clipPath>
<clipPath id="clip36_282_1678">
<rect width="23.04" height="46.08" fill="white" transform="translate(537.757 64.0095) rotate(-90)"/>
</clipPath>
<clipPath id="clip37_282_1678">
<rect width="23.04" height="46.08" fill="white" transform="translate(537.757 47.3695) rotate(-90)"/>
</clipPath>
</defs>
</svg>
