<svg width="590" height="431" viewBox="0 0 590 431" fill="none" xmlns="http://www.w3.org/2000/svg">
<rect x="233.492" y="135.536" width="142" height="142" rx="71" fill="#E2E7ED"/>
<rect x="233.492" y="135.536" width="142" height="142" rx="71" stroke="url(#paint0_linear_282_871)" stroke-width="2"/>
<g clip-path="url(#clip0_282_871)" filter="url(#filter0_f_282_871)">
<path d="M320.376 176.391H288.501C280.735 176.391 274.439 182.686 274.439 190.453V222.328C274.439 230.095 280.735 236.391 288.501 236.391H320.376C328.143 236.391 334.439 230.095 334.439 222.328V190.453C334.439 182.686 328.143 176.391 320.376 176.391Z" fill="url(#paint1_radial_282_871)"/>
<path d="M320.376 176.391H288.501C280.735 176.391 274.439 182.686 274.439 190.453V222.328C274.439 230.095 280.735 236.391 288.501 236.391H320.376C328.143 236.391 334.439 230.095 334.439 222.328V190.453C334.439 182.686 328.143 176.391 320.376 176.391Z" fill="url(#paint2_radial_282_871)"/>
<path d="M304.441 182.953C298.076 182.953 297.277 182.981 294.777 183.095C292.282 183.209 290.579 183.604 289.089 184.183C287.547 184.782 286.239 185.583 284.937 186.886C283.633 188.189 282.832 189.497 282.231 191.038C281.65 192.528 281.255 194.232 281.143 196.726C281.031 199.226 281.001 200.025 281.001 206.391C281.001 212.756 281.03 213.553 281.143 216.052C281.258 218.548 281.653 220.251 282.232 221.741C282.831 223.283 283.632 224.59 284.935 225.893C286.237 227.197 287.545 227.999 289.086 228.598C290.577 229.178 292.28 229.573 294.775 229.687C297.275 229.801 298.073 229.828 304.438 229.828C310.804 229.828 311.601 229.801 314.1 229.687C316.596 229.573 318.301 229.178 319.792 228.598C321.333 227.999 322.639 227.197 323.941 225.893C325.245 224.59 326.045 223.283 326.646 221.742C327.222 220.251 327.618 218.547 327.735 216.053C327.847 213.553 327.876 212.756 327.876 206.391C327.876 200.025 327.847 199.227 327.735 196.727C327.618 194.231 327.222 192.528 326.646 191.038C326.045 189.497 325.245 188.189 323.941 186.886C322.637 185.582 321.333 184.782 319.791 184.184C318.296 183.604 316.592 183.209 314.097 183.095C311.597 182.981 310.801 182.953 304.434 182.953H304.441ZM302.338 187.177C302.963 187.176 303.659 187.177 304.441 187.177C310.699 187.177 311.441 187.199 313.912 187.311C316.197 187.416 317.437 187.798 318.264 188.119C319.357 188.543 320.137 189.051 320.957 189.872C321.777 190.692 322.285 191.473 322.711 192.567C323.032 193.392 323.414 194.632 323.518 196.918C323.63 199.388 323.655 200.13 323.655 206.385C323.655 212.64 323.63 213.383 323.518 215.853C323.413 218.138 323.032 219.379 322.711 220.204C322.286 221.298 321.777 222.077 320.957 222.896C320.137 223.717 319.358 224.224 318.264 224.649C317.438 224.972 316.197 225.352 313.912 225.457C311.441 225.569 310.699 225.594 304.441 225.594C298.183 225.594 297.441 225.569 294.97 225.457C292.685 225.351 291.445 224.97 290.618 224.649C289.525 224.224 288.743 223.716 287.923 222.896C287.102 222.076 286.595 221.296 286.169 220.202C285.848 219.377 285.466 218.136 285.362 215.851C285.25 213.381 285.227 212.638 285.227 206.379C285.227 200.121 285.25 199.382 285.362 196.912C285.466 194.627 285.848 193.386 286.169 192.56C286.594 191.466 287.102 190.685 287.923 189.865C288.744 189.044 289.525 188.537 290.618 188.111C291.445 187.789 292.685 187.408 294.97 187.303C297.133 187.205 297.97 187.176 302.338 187.171V187.177ZM316.952 191.068C315.399 191.068 314.14 192.327 314.14 193.88C314.14 195.433 315.399 196.692 316.952 196.692C318.505 196.692 319.765 195.433 319.765 193.88C319.765 192.327 318.505 191.067 316.952 191.067V191.068ZM304.441 194.354C297.794 194.354 292.405 199.744 292.405 206.391C292.405 213.038 297.794 218.424 304.441 218.424C311.088 218.424 316.476 213.038 316.476 206.391C316.476 199.744 311.088 194.354 304.441 194.354H304.441ZM304.441 198.578C308.756 198.578 312.254 202.076 312.254 206.391C312.254 210.705 308.756 214.203 304.441 214.203C300.126 214.203 296.629 210.705 296.629 206.391C296.629 202.076 300.126 198.578 304.441 198.578Z" fill="white"/>
</g>
<g clip-path="url(#clip1_282_871)">
<path d="M320.376 176.391H288.501C280.735 176.391 274.439 182.686 274.439 190.453V222.328C274.439 230.095 280.735 236.391 288.501 236.391H320.376C328.143 236.391 334.439 230.095 334.439 222.328V190.453C334.439 182.686 328.143 176.391 320.376 176.391Z" fill="url(#paint3_radial_282_871)"/>
<path d="M320.376 176.391H288.501C280.735 176.391 274.439 182.686 274.439 190.453V222.328C274.439 230.095 280.735 236.391 288.501 236.391H320.376C328.143 236.391 334.439 230.095 334.439 222.328V190.453C334.439 182.686 328.143 176.391 320.376 176.391Z" fill="url(#paint4_radial_282_871)"/>
<path d="M304.441 182.953C298.076 182.953 297.277 182.981 294.777 183.095C292.282 183.209 290.579 183.604 289.089 184.183C287.547 184.782 286.239 185.583 284.937 186.886C283.633 188.189 282.832 189.497 282.231 191.038C281.65 192.528 281.255 194.232 281.143 196.726C281.031 199.226 281.001 200.025 281.001 206.391C281.001 212.756 281.03 213.553 281.143 216.052C281.258 218.548 281.653 220.251 282.232 221.741C282.831 223.283 283.632 224.59 284.935 225.893C286.237 227.197 287.545 227.999 289.086 228.598C290.577 229.178 292.28 229.573 294.775 229.687C297.275 229.801 298.073 229.828 304.438 229.828C310.804 229.828 311.601 229.801 314.1 229.687C316.596 229.573 318.301 229.178 319.792 228.598C321.333 227.999 322.639 227.197 323.941 225.893C325.245 224.59 326.045 223.283 326.646 221.742C327.222 220.251 327.618 218.547 327.735 216.053C327.847 213.553 327.876 212.756 327.876 206.391C327.876 200.025 327.847 199.227 327.735 196.727C327.618 194.231 327.222 192.528 326.646 191.038C326.045 189.497 325.245 188.189 323.941 186.886C322.637 185.582 321.333 184.782 319.791 184.184C318.296 183.604 316.592 183.209 314.097 183.095C311.597 182.981 310.801 182.953 304.434 182.953H304.441ZM302.338 187.177C302.963 187.176 303.659 187.177 304.441 187.177C310.699 187.177 311.441 187.199 313.912 187.311C316.197 187.416 317.437 187.798 318.264 188.119C319.357 188.543 320.137 189.051 320.957 189.872C321.777 190.692 322.285 191.473 322.711 192.567C323.032 193.392 323.414 194.632 323.518 196.918C323.63 199.388 323.655 200.13 323.655 206.385C323.655 212.64 323.63 213.383 323.518 215.853C323.413 218.138 323.032 219.379 322.711 220.204C322.286 221.298 321.777 222.077 320.957 222.896C320.137 223.717 319.358 224.224 318.264 224.649C317.438 224.972 316.197 225.352 313.912 225.457C311.441 225.569 310.699 225.594 304.441 225.594C298.183 225.594 297.441 225.569 294.97 225.457C292.685 225.351 291.445 224.97 290.618 224.649C289.525 224.224 288.743 223.716 287.923 222.896C287.102 222.076 286.595 221.296 286.169 220.202C285.848 219.377 285.466 218.136 285.362 215.851C285.25 213.381 285.227 212.638 285.227 206.379C285.227 200.121 285.25 199.382 285.362 196.912C285.466 194.627 285.848 193.386 286.169 192.56C286.594 191.466 287.102 190.685 287.923 189.865C288.744 189.044 289.525 188.537 290.618 188.111C291.445 187.789 292.685 187.408 294.97 187.303C297.133 187.205 297.97 187.176 302.338 187.171V187.177ZM316.952 191.068C315.399 191.068 314.14 192.327 314.14 193.88C314.14 195.433 315.399 196.692 316.952 196.692C318.505 196.692 319.765 195.433 319.765 193.88C319.765 192.327 318.505 191.067 316.952 191.067V191.068ZM304.441 194.354C297.794 194.354 292.405 199.744 292.405 206.391C292.405 213.038 297.794 218.424 304.441 218.424C311.088 218.424 316.476 213.038 316.476 206.391C316.476 199.744 311.088 194.354 304.441 194.354H304.441ZM304.441 198.578C308.756 198.578 312.254 202.076 312.254 206.391C312.254 210.705 308.756 214.203 304.441 214.203C300.126 214.203 296.629 210.705 296.629 206.391C296.629 202.076 300.126 198.578 304.441 198.578Z" fill="white"/>
</g>
<g clip-path="url(#clip2_282_871)">
<rect x="460.992" y="284.536" width="53" height="53" rx="26.5" fill="#E2E7ED"/>
<g clip-path="url(#clip3_282_871)" filter="url(#filter1_f_282_871)">
<path d="M495.1 297.497C494.642 297.072 494.08 296.775 493.472 296.634C492.863 296.493 492.228 296.515 491.631 296.696C489.44 297.355 481.906 302.063 481.906 302.063C481.906 302.063 474.381 306.786 472.828 308.466C472.403 308.924 472.106 309.486 471.966 310.094C471.825 310.703 471.846 311.338 472.028 311.935C473.54 315.615 476.487 320.821 479.284 323.513C479.741 323.938 480.303 324.235 480.911 324.376C481.52 324.516 482.155 324.495 482.752 324.314C484.943 323.655 492.477 318.947 492.477 318.947C492.477 318.947 500.011 314.239 501.564 312.559C501.989 312.101 502.287 311.54 502.427 310.931C502.568 310.323 502.546 309.688 502.365 309.09C500.881 305.386 497.9 300.206 495.1 297.497Z" fill="#FF0000"/>
<path d="M487.048 315.628L491.036 308.103L482.524 308.388L487.048 315.628Z" fill="white"/>
</g>
<g clip-path="url(#clip4_282_871)">
<path d="M495.1 297.497C494.642 297.072 494.08 296.775 493.472 296.634C492.863 296.493 492.228 296.515 491.631 296.696C489.44 297.355 481.906 302.063 481.906 302.063C481.906 302.063 474.381 306.786 472.828 308.466C472.403 308.924 472.106 309.486 471.966 310.094C471.825 310.703 471.846 311.338 472.028 311.935C473.54 315.615 476.487 320.821 479.284 323.513C479.741 323.938 480.303 324.235 480.911 324.376C481.52 324.516 482.155 324.495 482.752 324.314C484.943 323.655 492.477 318.947 492.477 318.947C492.477 318.947 500.011 314.239 501.564 312.559C501.989 312.101 502.287 311.54 502.427 310.931C502.568 310.323 502.546 309.688 502.365 309.09C500.881 305.386 497.9 300.206 495.1 297.497Z" fill="#FF0000"/>
<path d="M487.048 315.628L491.036 308.103L482.524 308.388L487.048 315.628Z" fill="white"/>
</g>
</g>
<rect x="459.992" y="283.536" width="55" height="55" rx="27.5" stroke="url(#paint5_linear_282_871)" stroke-width="2"/>
<rect x="73.9922" y="295.536" width="88" height="88" rx="44" fill="#E2E7ED"/>
<rect x="73.9922" y="295.536" width="88" height="88" rx="44" stroke="url(#paint6_linear_282_871)" stroke-width="2"/>
<g clip-path="url(#clip5_282_871)" filter="url(#filter2_f_282_871)">
<path d="M117.353 321.429L102.631 329.929C99.0437 332 97.8147 336.587 99.8857 340.174L108.386 354.897C110.457 358.484 115.044 359.713 118.631 357.642L133.353 349.142C136.941 347.071 138.17 342.484 136.099 338.897L127.599 324.174C125.527 320.587 120.941 319.358 117.353 321.429Z" fill="white"/>
<path d="M117.353 321.429L102.631 329.929C99.0437 332 97.8147 336.587 99.8857 340.174L108.386 354.897C110.457 358.484 115.044 359.713 118.631 357.642L133.353 349.142C136.941 347.071 138.17 342.484 136.099 338.897L127.599 324.174C125.527 320.587 120.941 319.358 117.353 321.429Z" fill="#1D9BF0"/>
<path d="M123.453 331.102C123.564 331.266 123.664 331.438 123.764 331.612C126.814 336.894 126.31 345.308 118.956 349.554L118.954 349.55C116.784 350.808 114.297 351.414 111.792 351.296C112.13 351.152 112.458 350.988 112.777 350.804C114.578 349.766 115.978 348.153 116.752 346.223C115.908 346.689 114.941 346.88 113.984 346.769C113.027 346.657 112.128 346.25 111.414 345.603C112.08 345.373 112.684 344.993 113.179 344.493C111.097 345.192 108.809 344.329 107.71 342.425L107.681 342.375C108.416 342.363 109.137 342.176 109.784 341.828C107.35 341.668 105.459 339.644 105.465 337.204C107.181 337.86 109.017 338.147 110.852 338.047C112.687 337.947 114.48 337.462 116.115 336.624C115.563 336.033 115.175 335.308 114.991 334.52C114.807 333.733 114.833 332.911 115.067 332.137C115.803 329.693 118.38 328.309 120.823 329.044C121.616 328.351 122.285 327.527 122.801 326.608C123.037 327.706 122.866 328.852 122.32 329.834C123.059 329.283 123.71 328.624 124.253 327.879C124.18 328.992 123.909 330.083 123.453 331.102Z" fill="white"/>
</g>
<g clip-path="url(#clip6_282_871)">
<path d="M117.353 321.429L102.631 329.929C99.0437 332 97.8147 336.587 99.8857 340.174L108.386 354.897C110.457 358.484 115.044 359.713 118.631 357.642L133.353 349.142C136.941 347.071 138.17 342.484 136.099 338.897L127.599 324.174C125.527 320.587 120.941 319.358 117.353 321.429Z" fill="white"/>
<path d="M117.353 321.429L102.631 329.929C99.0437 332 97.8147 336.587 99.8857 340.174L108.386 354.897C110.457 358.484 115.044 359.713 118.631 357.642L133.353 349.142C136.941 347.071 138.17 342.484 136.099 338.897L127.599 324.174C125.527 320.587 120.941 319.358 117.353 321.429Z" fill="#1D9BF0"/>
<path d="M123.453 331.101C123.564 331.266 123.664 331.438 123.764 331.612C126.814 336.894 126.31 345.308 118.956 349.554L118.954 349.55C116.784 350.808 114.297 351.414 111.792 351.296C112.13 351.151 112.458 350.988 112.777 350.804C114.578 349.766 115.978 348.153 116.752 346.223C115.908 346.689 114.941 346.88 113.984 346.769C113.027 346.657 112.128 346.25 111.414 345.603C112.08 345.373 112.684 344.993 113.179 344.493C111.097 345.192 108.809 344.328 107.71 342.425L107.681 342.375C108.416 342.363 109.137 342.176 109.784 341.828C107.35 341.668 105.459 339.643 105.465 337.204C107.181 337.86 109.017 338.147 110.852 338.047C112.687 337.947 114.48 337.462 116.115 336.624C115.563 336.033 115.175 335.308 114.991 334.52C114.807 333.733 114.833 332.911 115.067 332.136C115.803 329.693 118.38 328.309 120.823 329.044C121.616 328.351 122.285 327.527 122.801 326.608C123.037 327.706 122.866 328.852 122.32 329.834C123.059 329.283 123.71 328.624 124.253 327.879C124.18 328.992 123.909 330.083 123.453 331.101Z" fill="white"/>
</g>
<g clip-path="url(#clip7_282_871)">
<rect x="95.9922" y="111.536" width="53" height="53" rx="26.5" fill="#E2E7ED"/>
<g clip-path="url(#clip8_282_871)" filter="url(#filter3_f_282_871)">
<path d="M124.039 123.981L113.227 130.737C110.592 132.384 109.791 135.854 111.437 138.488L118.194 149.301C119.84 151.936 123.31 152.737 125.945 151.09L136.757 144.334C139.392 142.688 140.193 139.217 138.547 136.583L131.79 125.77C130.144 123.136 126.674 122.335 124.039 123.981Z" fill="white"/>
<path d="M124.039 123.981L113.227 130.737C110.592 132.384 109.791 135.854 111.437 138.488L118.194 149.301C119.84 151.936 123.31 152.737 125.945 151.09L136.757 144.334C139.392 142.688 140.193 139.217 138.547 136.583L131.79 125.77C130.144 123.136 126.674 122.335 124.039 123.981Z" fill="#0A66C2"/>
<path d="M133.957 141.848L136.284 140.394C136.368 140.342 136.428 140.258 136.451 140.161C136.473 140.064 136.456 139.962 136.403 139.878L133.332 134.96C131.726 132.39 129.938 130.761 126.935 132.638C125.767 133.309 125.058 134.57 125.091 135.915C125.092 135.922 125.09 135.928 125.086 135.934C125.082 135.939 125.076 135.943 125.07 135.945C125.064 135.947 125.057 135.946 125.051 135.944C125.045 135.942 125.04 135.938 125.036 135.932L124.436 134.972C124.383 134.887 124.299 134.827 124.202 134.805C124.105 134.782 124.003 134.8 123.919 134.852L121.711 136.232C121.626 136.285 121.566 136.369 121.544 136.466C121.522 136.563 121.539 136.665 121.591 136.749L127.157 145.655C127.209 145.739 127.293 145.799 127.39 145.822C127.487 145.844 127.589 145.827 127.673 145.774L130 144.32C130.085 144.268 130.145 144.184 130.167 144.087C130.189 143.99 130.172 143.888 130.12 143.804L127.369 139.401C126.591 138.156 126.074 136.803 127.617 135.839C129.138 134.888 130.048 136.3 130.739 137.407L133.44 141.729C133.493 141.813 133.577 141.873 133.674 141.896C133.771 141.918 133.873 141.901 133.957 141.848ZM114.44 136.571C115.03 137.514 116.291 137.805 117.234 137.216C118.177 136.626 118.468 135.365 117.879 134.422C117.289 133.479 116.028 133.188 115.085 133.777C114.142 134.366 113.851 135.628 114.44 136.571ZM122.846 148.791L125.176 147.336C125.26 147.283 125.32 147.199 125.342 147.102C125.365 147.005 125.348 146.903 125.295 146.819L119.73 137.912C119.677 137.828 119.593 137.768 119.496 137.746C119.399 137.723 119.297 137.74 119.213 137.793L116.883 139.249C116.799 139.302 116.739 139.386 116.716 139.483C116.694 139.58 116.711 139.681 116.764 139.766L122.329 148.672C122.382 148.757 122.466 148.816 122.563 148.839C122.66 148.861 122.761 148.844 122.846 148.791Z" fill="white"/>
</g>
<g clip-path="url(#clip9_282_871)">
<path d="M124.039 123.981L113.227 130.737C110.592 132.383 109.791 135.854 111.437 138.488L118.194 149.301C119.84 151.935 123.31 152.737 125.945 151.09L136.757 144.334C139.392 142.688 140.193 139.217 138.547 136.583L131.79 125.77C130.144 123.136 126.674 122.335 124.039 123.981Z" fill="white"/>
<path d="M124.039 123.981L113.227 130.737C110.592 132.383 109.791 135.854 111.437 138.488L118.194 149.301C119.84 151.935 123.31 152.737 125.945 151.09L136.757 144.334C139.392 142.688 140.193 139.217 138.547 136.583L131.79 125.77C130.144 123.136 126.674 122.335 124.039 123.981Z" fill="#0A66C2"/>
<path d="M133.956 141.848L136.283 140.394C136.367 140.341 136.427 140.257 136.45 140.161C136.472 140.064 136.455 139.962 136.402 139.878L133.331 134.96C131.726 132.39 129.937 130.761 126.934 132.638C125.766 133.308 125.057 134.57 125.09 135.915C125.091 135.922 125.089 135.928 125.085 135.934C125.081 135.939 125.075 135.943 125.069 135.945C125.063 135.947 125.056 135.946 125.05 135.944C125.044 135.942 125.039 135.938 125.035 135.932L124.435 134.971C124.382 134.887 124.298 134.827 124.201 134.805C124.104 134.782 124.002 134.799 123.918 134.852L121.71 136.232C121.625 136.285 121.565 136.369 121.543 136.466C121.521 136.563 121.538 136.664 121.59 136.749L127.156 145.655C127.208 145.739 127.292 145.799 127.389 145.822C127.486 145.844 127.588 145.827 127.672 145.774L129.999 144.32C130.084 144.267 130.144 144.183 130.166 144.087C130.188 143.99 130.171 143.888 130.119 143.803L127.368 139.401C126.59 138.156 126.073 136.803 127.616 135.839C129.137 134.888 130.047 136.3 130.738 137.407L133.439 141.729C133.492 141.813 133.576 141.873 133.673 141.896C133.77 141.918 133.872 141.901 133.956 141.848ZM114.439 136.571C115.029 137.514 116.29 137.805 117.233 137.216C118.176 136.626 118.467 135.365 117.878 134.422C117.288 133.479 116.027 133.187 115.084 133.777C114.141 134.366 113.85 135.628 114.439 136.571ZM122.845 148.791L125.175 147.335C125.259 147.283 125.319 147.199 125.341 147.102C125.364 147.005 125.347 146.903 125.294 146.819L119.729 137.912C119.676 137.828 119.592 137.768 119.495 137.745C119.398 137.723 119.296 137.74 119.212 137.793L116.882 139.249C116.798 139.302 116.738 139.386 116.715 139.482C116.693 139.579 116.71 139.681 116.763 139.766L122.328 148.672C122.381 148.756 122.465 148.816 122.562 148.839C122.659 148.861 122.76 148.844 122.845 148.791Z" fill="white"/>
</g>
</g>
<rect x="94.9922" y="110.536" width="55" height="55" rx="27.5" stroke="url(#paint7_linear_282_871)" stroke-width="2"/>
<rect x="417.992" y="47.5356" width="88" height="88" rx="44" fill="#E2E7ED"/>
<rect x="417.992" y="47.5356" width="88" height="88" rx="44" stroke="url(#paint8_linear_282_871)" stroke-width="2"/>
<g clip-path="url(#clip10_282_871)" filter="url(#filter4_f_282_871)">
<path d="M475.849 99.5357C480.267 91.8831 477.645 82.0976 469.992 77.6793C462.34 73.2611 452.554 75.8831 448.136 83.5357C444.143 90.4518 445.9 99.1099 451.924 103.974L457.515 94.2911L453.996 92.2598L456.309 88.2545L459.827 90.2857L461.59 87.233C463.595 83.7602 466.771 83.0364 469.936 84.8637C471.452 85.739 472.881 86.9251 472.881 86.9251L470.913 90.3351L469.165 89.3263C467.444 88.3325 466.291 89.0907 465.658 90.1866L464.157 92.7857L468 95.0045L465.073 98.6552L461.845 96.7911L456.254 106.474C463.479 109.259 471.855 106.452 475.849 99.5357Z" fill="#1877F2"/>
<path d="M465.074 98.6552L468 95.0045L464.157 92.7857L465.658 90.1866C466.291 89.0906 467.444 88.3325 469.166 89.3263L470.913 90.3351L472.882 86.9251C472.882 86.9251 471.452 85.739 469.936 84.8637C466.771 83.0364 463.595 83.7602 461.59 87.233L459.827 90.2857L456.309 88.2545L453.997 92.2598L457.515 94.2911L451.924 103.974C452.576 104.5 453.267 104.974 453.992 105.392C454.717 105.811 455.474 106.173 456.255 106.474L461.845 96.7911L465.074 98.6552Z" fill="white"/>
</g>
<g clip-path="url(#clip11_282_871)">
<path d="M475.85 99.5356C480.268 91.883 477.646 82.0974 469.993 77.6792C462.34 73.2609 452.555 75.883 448.137 83.5356C444.144 90.4517 445.901 99.1097 451.925 103.974L457.516 94.291L453.997 92.2597L456.31 88.2544L459.828 90.2856L461.591 87.2329C463.596 83.7601 466.772 83.0362 469.937 84.8636C471.453 85.7389 472.882 86.925 472.882 86.925L470.914 90.335L469.166 89.3262C467.445 88.3324 466.292 89.0906 465.659 90.1864L464.158 92.7856L468.001 95.0044L465.074 98.655L461.846 96.791L456.255 106.474C463.48 109.259 471.856 106.452 475.85 99.5356Z" fill="#1877F2"/>
<path d="M465.075 98.655L468.002 95.0043L464.159 92.7855L465.66 90.1864C466.292 89.0904 467.446 88.3323 469.167 89.3262L470.914 90.3349L472.883 86.9249C472.883 86.9249 471.454 85.7388 469.937 84.8635C466.772 83.0362 463.596 83.76 461.591 87.2328L459.829 90.2855L456.311 88.2543L453.998 92.2597L457.516 94.2909L451.926 103.974C452.577 104.499 453.269 104.974 453.994 105.392C454.719 105.811 455.475 106.172 456.256 106.474L461.846 96.7909L465.075 98.655Z" fill="white"/>
</g>
<defs>
<filter id="filter0_f_282_871" x="262.439" y="164.391" width="84" height="84" filterUnits="userSpaceOnUse" color-interpolation-filters="sRGB">
<feFlood flood-opacity="0" result="BackgroundImageFix"/>
<feBlend mode="normal" in="SourceGraphic" in2="BackgroundImageFix" result="shape"/>
<feGaussianBlur stdDeviation="6" result="effect1_foregroundBlur_282_871"/>
</filter>
<filter id="filter1_f_282_871" x="457.854" y="282.517" width="58.7256" height="56.0372" filterUnits="userSpaceOnUse" color-interpolation-filters="sRGB">
<feFlood flood-opacity="0" result="BackgroundImageFix"/>
<feBlend mode="normal" in="SourceGraphic" in2="BackgroundImageFix" result="shape"/>
<feGaussianBlur stdDeviation="6" result="effect1_foregroundBlur_282_871"/>
</filter>
<filter id="filter2_f_282_871" x="84.1357" y="305.679" width="67.7129" height="67.7128" filterUnits="userSpaceOnUse" color-interpolation-filters="sRGB">
<feFlood flood-opacity="0" result="BackgroundImageFix"/>
<feBlend mode="normal" in="SourceGraphic" in2="BackgroundImageFix" result="shape"/>
<feGaussianBlur stdDeviation="6" result="effect1_foregroundBlur_282_871"/>
</filter>
<filter id="filter3_f_282_871" x="96.4565" y="109" width="57.0713" height="57.0712" filterUnits="userSpaceOnUse" color-interpolation-filters="sRGB">
<feFlood flood-opacity="0" result="BackgroundImageFix"/>
<feBlend mode="normal" in="SourceGraphic" in2="BackgroundImageFix" result="shape"/>
<feGaussianBlur stdDeviation="6" result="effect1_foregroundBlur_282_871"/>
</filter>
<filter id="filter4_f_282_871" x="428.136" y="57.6793" width="67.7129" height="67.7128" filterUnits="userSpaceOnUse" color-interpolation-filters="sRGB">
<feFlood flood-opacity="0" result="BackgroundImageFix"/>
<feBlend mode="normal" in="SourceGraphic" in2="BackgroundImageFix" result="shape"/>
<feGaussianBlur stdDeviation="6" result="effect1_foregroundBlur_282_871"/>
</filter>
<linearGradient id="paint0_linear_282_871" x1="263.492" y1="145.536" x2="340.492" y2="270.536" gradientUnits="userSpaceOnUse">
<stop stop-color="#D5DEE8"/>
<stop offset="0.29229" stop-color="#D5DEE8" stop-opacity="0.1"/>
</linearGradient>
<radialGradient id="paint1_radial_282_871" cx="0" cy="0" r="1" gradientUnits="userSpaceOnUse" gradientTransform="translate(290.376 241.012) rotate(-90) scale(59.4645 55.3066)">
<stop stop-color="#FFDD55"/>
<stop offset="0.1" stop-color="#FFDD55"/>
<stop offset="0.5" stop-color="#FF543E"/>
<stop offset="1" stop-color="#C837AB"/>
</radialGradient>
<radialGradient id="paint2_radial_282_871" cx="0" cy="0" r="1" gradientUnits="userSpaceOnUse" gradientTransform="translate(264.389 180.713) rotate(78.681) scale(26.5809 109.567)">
<stop stop-color="#3771C8"/>
<stop offset="0.128" stop-color="#3771C8"/>
<stop offset="1" stop-color="#6600FF" stop-opacity="0"/>
</radialGradient>
<radialGradient id="paint3_radial_282_871" cx="0" cy="0" r="1" gradientUnits="userSpaceOnUse" gradientTransform="translate(290.376 241.012) rotate(-90) scale(59.4645 55.3066)">
<stop stop-color="#FFDD55"/>
<stop offset="0.1" stop-color="#FFDD55"/>
<stop offset="0.5" stop-color="#FF543E"/>
<stop offset="1" stop-color="#C837AB"/>
</radialGradient>
<radialGradient id="paint4_radial_282_871" cx="0" cy="0" r="1" gradientUnits="userSpaceOnUse" gradientTransform="translate(264.389 180.713) rotate(78.681) scale(26.5809 109.567)">
<stop stop-color="#3771C8"/>
<stop offset="0.128" stop-color="#3771C8"/>
<stop offset="1" stop-color="#6600FF" stop-opacity="0"/>
</radialGradient>
<linearGradient id="paint5_linear_282_871" x1="471.971" y1="287.943" x2="501.121" y2="335.264" gradientUnits="userSpaceOnUse">
<stop stop-color="#D5DEE8"/>
<stop offset="0.29229" stop-color="#D5DEE8" stop-opacity="0.1"/>
</linearGradient>
<linearGradient id="paint6_linear_282_871" x1="92.8065" y1="302.064" x2="140.106" y2="378.85" gradientUnits="userSpaceOnUse">
<stop stop-color="#D5DEE8"/>
<stop offset="0.29229" stop-color="#D5DEE8" stop-opacity="0.1"/>
</linearGradient>
<linearGradient id="paint7_linear_282_871" x1="106.971" y1="114.943" x2="136.121" y2="162.264" gradientUnits="userSpaceOnUse">
<stop stop-color="#D5DEE8"/>
<stop offset="0.29229" stop-color="#D5DEE8" stop-opacity="0.1"/>
</linearGradient>
<linearGradient id="paint8_linear_282_871" x1="436.806" y1="54.0642" x2="484.106" y2="130.85" gradientUnits="userSpaceOnUse">
<stop stop-color="#D5DEE8"/>
<stop offset="0.29229" stop-color="#D5DEE8" stop-opacity="0.1"/>
</linearGradient>
<clipPath id="clip0_282_871">
<rect width="60" height="60" fill="white" transform="translate(274.439 176.391)"/>
</clipPath>
<clipPath id="clip1_282_871">
<rect width="60" height="60" fill="white" transform="translate(274.439 176.391)"/>
</clipPath>
<clipPath id="clip2_282_871">
<rect x="460.992" y="284.536" width="53" height="53" rx="26.5" fill="white"/>
</clipPath>
<clipPath id="clip3_282_871">
<rect width="28.45" height="20" fill="white" transform="translate(469.854 309.593) rotate(-32)"/>
</clipPath>
<clipPath id="clip4_282_871">
<rect width="28.45" height="20" fill="white" transform="translate(469.854 309.593) rotate(-32)"/>
</clipPath>
<clipPath id="clip5_282_871">
<rect width="32" height="32" fill="white" transform="translate(96.1357 333.679) rotate(-30)"/>
</clipPath>
<clipPath id="clip6_282_871">
<rect width="32" height="32" fill="white" transform="translate(96.1357 333.679) rotate(-30)"/>
</clipPath>
<clipPath id="clip7_282_871">
<rect x="95.9922" y="111.536" width="53" height="53" rx="26.5" fill="white"/>
</clipPath>
<clipPath id="clip8_282_871">
<rect width="24" height="24" fill="white" transform="translate(108.457 133.718) rotate(-32)"/>
</clipPath>
<clipPath id="clip9_282_871">
<rect width="24" height="24" fill="white" transform="translate(108.457 133.718) rotate(-32)"/>
</clipPath>
<clipPath id="clip10_282_871">
<rect width="32" height="32" fill="white" transform="translate(456.136 69.6793) rotate(30)"/>
</clipPath>
<clipPath id="clip11_282_871">
<rect width="32" height="32" fill="white" transform="translate(456.137 69.6792) rotate(30)"/>
</clipPath>
</defs>
</svg>
