<svg width="455" height="342" viewBox="0 0 455 342" fill="none" xmlns="http://www.w3.org/2000/svg">
<g clip-path="url(#clip0_179_657)">
<path d="M340.391 48.4462C348.401 38.3965 340.852 24.0004 327.537 24.0004H224.277C221.481 23.9802 218.726 24.6738 216.279 26.0145C213.831 27.3552 211.772 29.2979 210.3 31.6559L132.163 160.61C125.998 170.767 133.747 183.439 146.124 183.439H198.846L149.184 306.431C142.003 321.986 161.407 336.214 174.445 324.96L376 135.798H270.695L340.391 48.4462Z" fill="#2962FF" stroke="#2962FF" stroke-opacity="0.32" stroke-width="24" stroke-linecap="round" stroke-linejoin="round"/>
<path d="M-130 268.709C-130 268.709 79 268.709 207.5 268.709C230.5 268.709 326.5 163.709 338 169.209" stroke="url(#paint0_linear_179_657)"/>
<path d="M183.5 268.709H-127.5" stroke="url(#paint1_linear_179_657)" stroke-width="2"/>
<g filter="url(#filter0_b_179_657)">
<rect width="48" height="48" rx="24" transform="matrix(1 0 0 -1 18 293)" fill="#2962FF" fill-opacity="0.5"/>
<rect x="0.5" y="-0.5" width="47" height="47" rx="23.5" transform="matrix(1 0 0 -1 18 292)" stroke="#2962FF" stroke-opacity="0.3"/>
<g clip-path="url(#clip1_179_657)">
<rect x="25.9531" y="265.071" width="24" height="24" rx="12" transform="rotate(-32 25.9531 265.071)" fill="#2962FF"/>
<g clip-path="url(#clip2_179_657)">
<path d="M38.5362 266.207C38.256 265.006 39.6044 264.122 40.586 264.801L40.6764 264.87L41.9664 265.919C42.2622 266.16 42.6061 266.334 42.975 266.431C43.344 266.527 43.7293 266.543 44.105 266.478L44.2563 266.447L45.8753 266.069C47.0759 265.789 47.9601 267.137 47.2817 268.119L47.2124 268.209L46.1633 269.499C45.9225 269.795 45.7479 270.139 45.6514 270.508C45.5548 270.877 45.5386 271.262 45.6037 271.638L45.6342 271.789L46.0126 273.408C46.2927 274.609 44.9444 275.493 43.9637 274.814L43.8721 274.746L42.5827 273.696C42.2869 273.456 41.943 273.281 41.574 273.184C41.205 273.088 40.8196 273.072 40.4438 273.137L40.2931 273.167L38.6741 273.545C37.4729 273.826 36.5887 272.478 37.268 271.496L37.3366 271.405L38.3861 270.115C38.6267 269.82 38.8012 269.476 38.8976 269.107C38.994 268.738 39.0102 268.353 38.9451 267.977L38.9146 267.826L38.5362 266.207ZM42.9112 260.762C43.017 260.696 43.1392 260.661 43.2639 260.661C43.3886 260.661 43.5109 260.696 43.6168 260.762L43.6852 260.811L44.2456 261.267L44.9499 261.102C45.0784 261.072 45.2129 261.081 45.3365 261.127C45.4601 261.173 45.5672 261.255 45.6442 261.363C45.7211 261.47 45.7645 261.598 45.7688 261.729C45.7731 261.861 45.7382 261.992 45.6684 262.104L45.6186 262.172L45.1622 262.733L45.3271 263.437C45.3573 263.566 45.3486 263.7 45.3022 263.824C45.2558 263.947 45.1737 264.054 45.0664 264.131C44.9592 264.208 44.8315 264.251 44.6995 264.256C44.5676 264.26 44.4374 264.225 44.3254 264.155L44.2569 264.106L43.6966 263.649L42.9923 263.814C42.8638 263.845 42.7292 263.836 42.6056 263.79C42.482 263.743 42.3749 263.661 42.298 263.554C42.221 263.447 42.1776 263.319 42.1733 263.187C42.169 263.055 42.204 262.925 42.2738 262.813L42.3235 262.744L42.7799 262.184L42.615 261.48C42.5833 261.344 42.5949 261.202 42.648 261.073C42.7011 260.945 42.7932 260.836 42.9112 260.762Z" fill="white"/>
</g>
</g>
</g>
<path d="M401 71.5C401 71.5 192 71.5 63.5 71.5C40.5 71.5 -55.5 176.5 -67 171" stroke="url(#paint2_linear_179_657)"/>
<path d="M401 71.5C401 71.5 192 71.5 63.5 71.5C53.8553 71.5 31.3741 89.9634 7.66992 111" stroke="url(#paint3_linear_179_657)" stroke-width="2"/>
<g filter="url(#filter1_b_179_657)">
<rect width="48" height="48" rx="24" transform="matrix(1 0 0 -1 96 95)" fill="#2962FF" fill-opacity="0.5"/>
<rect x="0.5" y="-0.5" width="47" height="47" rx="23.5" transform="matrix(1 0 0 -1 96 94)" stroke="#2962FF" stroke-opacity="0.3"/>
<g clip-path="url(#clip3_179_657)">
<rect x="103.953" y="67.0712" width="24" height="24" rx="12" transform="rotate(-32 103.953 67.0712)" fill="#2962FF"/>
<g clip-path="url(#clip4_179_657)">
<path d="M116.536 68.2066C116.256 67.006 117.604 66.1218 118.586 66.8007L118.676 66.87L119.966 67.9192C120.262 68.1598 120.606 68.3343 120.975 68.4307C121.344 68.5271 121.729 68.5433 122.105 68.4782L122.256 68.4473L123.875 68.0693C125.076 67.7891 125.96 69.1375 125.282 70.1187L125.212 70.2092L124.163 71.4992C123.922 71.7949 123.748 72.1389 123.651 72.5079C123.555 72.8769 123.539 73.2623 123.604 73.6381L123.634 73.7888L124.013 75.4084C124.293 76.609 122.944 77.4932 121.964 76.8144L121.872 76.7459L120.583 75.6964C120.287 75.4556 119.943 75.281 119.574 75.1845C119.205 75.0879 118.82 75.0717 118.444 75.1368L118.293 75.1673L116.674 75.5453C115.473 75.8258 114.589 74.4775 115.268 73.4964L115.337 73.4049L116.386 72.1154C116.627 71.8197 116.801 71.4757 116.898 71.1068C116.994 70.7379 117.01 70.3526 116.945 69.9769L116.915 69.8262L116.536 68.2066ZM120.911 62.7622C121.017 62.6961 121.139 62.661 121.264 62.6609C121.389 62.6608 121.511 62.6957 121.617 62.7616L121.685 62.8108L122.246 63.2672L122.95 63.1023C123.078 63.072 123.213 63.0806 123.337 63.127C123.46 63.1733 123.567 63.2553 123.644 63.3626C123.721 63.4698 123.764 63.5975 123.769 63.7294C123.773 63.8614 123.738 63.9916 123.668 64.1037L123.619 64.1725L123.162 64.7328L123.327 65.4371C123.357 65.5656 123.349 65.7002 123.302 65.8238C123.256 65.9473 123.174 66.0543 123.066 66.1312C122.959 66.2081 122.831 66.2514 122.7 66.2557C122.568 66.2599 122.437 66.2249 122.325 66.1551L122.257 66.1059L121.697 65.6495L120.992 65.8144C120.864 65.8446 120.729 65.836 120.606 65.7897C120.482 65.7433 120.375 65.6613 120.298 65.5541C120.221 65.4468 120.178 65.3191 120.173 65.1872C120.169 65.0553 120.204 64.925 120.274 64.813L120.324 64.7442L120.78 64.1838L120.615 63.4795C120.583 63.344 120.595 63.202 120.648 63.0733C120.701 62.9447 120.793 62.8359 120.911 62.7622Z" fill="white"/>
</g>
</g>
</g>
<path d="M684 282.709C684 282.709 475 282.709 346.5 282.709C323.5 282.709 227.5 177.709 216 183.209" stroke="url(#paint4_linear_179_657)"/>
<path d="M684 282.709C684 282.709 475 282.709 346.5 282.709C336.855 282.709 314.374 264.245 290.67 243.209" stroke="url(#paint5_linear_179_657)" stroke-width="2"/>
<g filter="url(#filter2_b_179_657)">
<rect width="48" height="48" rx="24" transform="matrix(1 0 0 -1 379 307)" fill="#2962FF" fill-opacity="0.5"/>
<rect x="0.5" y="-0.5" width="47" height="47" rx="23.5" transform="matrix(1 0 0 -1 379 306)" stroke="#2962FF" stroke-opacity="0.3"/>
<g clip-path="url(#clip5_179_657)">
<rect x="386.953" y="279.071" width="24" height="24" rx="12" transform="rotate(-32 386.953 279.071)" fill="#2962FF"/>
<g clip-path="url(#clip6_179_657)">
<path d="M399.536 280.207C399.256 279.006 400.604 278.122 401.586 278.801L401.676 278.87L402.966 279.919C403.262 280.16 403.606 280.334 403.975 280.431C404.344 280.527 404.729 280.543 405.105 280.478L405.256 280.447L406.875 280.069C408.076 279.789 408.96 281.137 408.282 282.119L408.212 282.209L407.163 283.499C406.922 283.795 406.748 284.139 406.651 284.508C406.555 284.877 406.539 285.262 406.604 285.638L406.634 285.789L407.013 287.408C407.293 288.609 405.944 289.493 404.964 288.814L404.872 288.746L403.583 287.696C403.287 287.456 402.943 287.281 402.574 287.184C402.205 287.088 401.82 287.072 401.444 287.137L401.293 287.167L399.674 287.545C398.473 287.826 397.589 286.478 398.268 285.496L398.337 285.405L399.386 284.115C399.627 283.82 399.801 283.476 399.898 283.107C399.994 282.738 400.01 282.353 399.945 281.977L399.915 281.826L399.536 280.207ZM403.911 274.762C404.017 274.696 404.139 274.661 404.264 274.661C404.389 274.661 404.511 274.696 404.617 274.762L404.685 274.811L405.246 275.267L405.95 275.102C406.078 275.072 406.213 275.081 406.337 275.127C406.46 275.173 406.567 275.255 406.644 275.363C406.721 275.47 406.764 275.598 406.769 275.729C406.773 275.861 406.738 275.992 406.668 276.104L406.619 276.172L406.162 276.733L406.327 277.437C406.357 277.566 406.349 277.7 406.302 277.824C406.256 277.947 406.174 278.054 406.066 278.131C405.959 278.208 405.831 278.251 405.7 278.256C405.568 278.26 405.437 278.225 405.325 278.155L405.257 278.106L404.697 277.649L403.992 277.814C403.864 277.845 403.729 277.836 403.606 277.79C403.482 277.743 403.375 277.661 403.298 277.554C403.221 277.447 403.178 277.319 403.173 277.187C403.169 277.055 403.204 276.925 403.274 276.813L403.324 276.744L403.78 276.184L403.615 275.48C403.583 275.344 403.595 275.202 403.648 275.073C403.701 274.945 403.793 274.836 403.911 274.762Z" fill="white"/>
</g>
</g>
</g>
<path d="M598 69.2912C598 69.2912 389 69.2912 260.5 69.2912C237.5 69.2912 141.5 174.291 130 168.791" stroke="url(#paint6_linear_179_657)"/>
<path d="M284.5 69.2913H595.5" stroke="url(#paint7_linear_179_657)" stroke-width="2"/>
<g filter="url(#filter3_b_179_657)">
<rect width="48" height="48" rx="24" transform="matrix(1 0 0 -1 402 92.7913)" fill="#2962FF" fill-opacity="0.5"/>
<rect x="0.5" y="-0.5" width="47" height="47" rx="23.5" transform="matrix(1 0 0 -1 402 91.7913)" stroke="#2962FF" stroke-opacity="0.3"/>
<g clip-path="url(#clip7_179_657)">
<rect x="409.953" y="64.8624" width="24" height="24" rx="12" transform="rotate(-32 409.953 64.8624)" fill="#2962FF"/>
<g clip-path="url(#clip8_179_657)">
<path d="M422.536 65.9979C422.256 64.7972 423.604 63.913 424.586 64.592L424.676 64.6613L425.966 65.7104C426.262 65.9511 426.606 66.1255 426.975 66.222C427.344 66.3184 427.729 66.3346 428.105 66.2695L428.256 66.2386L429.875 65.8605C431.076 65.5804 431.96 66.9287 431.282 67.91L431.212 68.0005L430.163 69.2904C429.922 69.5862 429.748 69.9302 429.651 70.2992C429.555 70.6681 429.539 71.0535 429.604 71.4293L429.634 71.5801L430.013 73.1996C430.293 74.4003 428.944 75.2845 427.964 74.6057L427.872 74.5371L426.583 73.4876C426.287 73.2468 425.943 73.0723 425.574 72.9757C425.205 72.8792 424.82 72.8629 424.444 72.928L424.293 72.9585L422.674 73.3366C421.473 73.6171 420.589 72.2688 421.268 71.2877L421.337 71.1961L422.386 69.9067C422.627 69.6109 422.801 69.267 422.898 68.8981C422.994 68.5292 423.01 68.1439 422.945 67.7682L422.915 67.6174L422.536 65.9979ZM426.911 60.5535C427.017 60.4874 427.139 60.4523 427.264 60.4522C427.389 60.4521 427.511 60.487 427.617 60.5529L427.685 60.602L428.246 61.0585L428.95 60.8935C429.078 60.8633 429.213 60.8719 429.337 60.9182C429.46 60.9646 429.567 61.0466 429.644 61.1538C429.721 61.2611 429.764 61.3888 429.769 61.5207C429.773 61.6526 429.738 61.7829 429.668 61.8949L429.619 61.9638L429.162 62.5241L429.327 63.2284C429.357 63.3569 429.349 63.4914 429.302 63.615C429.256 63.7386 429.174 63.8456 429.066 63.9225C428.959 63.9994 428.831 64.0427 428.7 64.0469C428.568 64.0512 428.437 64.0162 428.325 63.9463L428.257 63.8971L427.697 63.4407L426.992 63.6057C426.864 63.6359 426.729 63.6273 426.606 63.5809C426.482 63.5346 426.375 63.4526 426.298 63.3453C426.221 63.2381 426.178 63.1104 426.173 62.9785C426.169 62.8465 426.204 62.7163 426.274 62.6042L426.324 62.5354L426.78 61.9751L426.615 61.2708C426.583 61.1353 426.595 60.9932 426.648 60.8646C426.701 60.736 426.793 60.6272 426.911 60.5535Z" fill="white"/>
</g>
</g>
</g>
</g>
<defs>
<filter id="filter0_b_179_657" x="6" y="233" width="72" height="72" filterUnits="userSpaceOnUse" color-interpolation-filters="sRGB">
<feFlood flood-opacity="0" result="BackgroundImageFix"/>
<feGaussianBlur in="BackgroundImageFix" stdDeviation="6"/>
<feComposite in2="SourceAlpha" operator="in" result="effect1_backgroundBlur_179_657"/>
<feBlend mode="normal" in="SourceGraphic" in2="effect1_backgroundBlur_179_657" result="shape"/>
</filter>
<filter id="filter1_b_179_657" x="84" y="35" width="72" height="72" filterUnits="userSpaceOnUse" color-interpolation-filters="sRGB">
<feFlood flood-opacity="0" result="BackgroundImageFix"/>
<feGaussianBlur in="BackgroundImageFix" stdDeviation="6"/>
<feComposite in2="SourceAlpha" operator="in" result="effect1_backgroundBlur_179_657"/>
<feBlend mode="normal" in="SourceGraphic" in2="effect1_backgroundBlur_179_657" result="shape"/>
</filter>
<filter id="filter2_b_179_657" x="367" y="247" width="72" height="72" filterUnits="userSpaceOnUse" color-interpolation-filters="sRGB">
<feFlood flood-opacity="0" result="BackgroundImageFix"/>
<feGaussianBlur in="BackgroundImageFix" stdDeviation="6"/>
<feComposite in2="SourceAlpha" operator="in" result="effect1_backgroundBlur_179_657"/>
<feBlend mode="normal" in="SourceGraphic" in2="effect1_backgroundBlur_179_657" result="shape"/>
</filter>
<filter id="filter3_b_179_657" x="390" y="32.7913" width="72" height="72" filterUnits="userSpaceOnUse" color-interpolation-filters="sRGB">
<feFlood flood-opacity="0" result="BackgroundImageFix"/>
<feGaussianBlur in="BackgroundImageFix" stdDeviation="6"/>
<feComposite in2="SourceAlpha" operator="in" result="effect1_backgroundBlur_179_657"/>
<feBlend mode="normal" in="SourceGraphic" in2="effect1_backgroundBlur_179_657" result="shape"/>
</filter>
<linearGradient id="paint0_linear_179_657" x1="-130" y1="269.209" x2="349" y2="180.209" gradientUnits="userSpaceOnUse">
<stop offset="0.724134" stop-color="#2962FF" stop-opacity="0.3"/>
<stop offset="1" stop-color="#2962FF" stop-opacity="0.05"/>
</linearGradient>
<linearGradient id="paint1_linear_179_657" x1="-126.58" y1="268.715" x2="-126.198" y2="280.086" gradientUnits="userSpaceOnUse">
<stop offset="0.616734" stop-color="#2962FF" stop-opacity="0"/>
<stop offset="0.847155" stop-color="#2962FF"/>
</linearGradient>
<linearGradient id="paint2_linear_179_657" x1="401" y1="71" x2="-78" y2="160" gradientUnits="userSpaceOnUse">
<stop offset="0.724134" stop-color="#2962FF" stop-opacity="0.3"/>
<stop offset="1" stop-color="#2962FF" stop-opacity="0.05"/>
</linearGradient>
<linearGradient id="paint3_linear_179_657" x1="18" y1="103" x2="122.737" y2="48.4255" gradientUnits="userSpaceOnUse">
<stop stop-color="#2962FF"/>
<stop offset="1" stop-color="#2962FF" stop-opacity="0"/>
</linearGradient>
<linearGradient id="paint4_linear_179_657" x1="684" y1="283.209" x2="205" y2="194.209" gradientUnits="userSpaceOnUse">
<stop offset="0.724134" stop-color="#2962FF" stop-opacity="0.3"/>
<stop offset="1" stop-color="#2962FF" stop-opacity="0.05"/>
</linearGradient>
<linearGradient id="paint5_linear_179_657" x1="301" y1="251.209" x2="405.737" y2="305.783" gradientUnits="userSpaceOnUse">
<stop stop-color="#2962FF"/>
<stop offset="1" stop-color="#2962FF" stop-opacity="0"/>
</linearGradient>
<linearGradient id="paint6_linear_179_657" x1="598" y1="68.7913" x2="119" y2="157.791" gradientUnits="userSpaceOnUse">
<stop offset="0.724134" stop-color="#2962FF" stop-opacity="0.3"/>
<stop offset="1" stop-color="#2962FF" stop-opacity="0.05"/>
</linearGradient>
<linearGradient id="paint7_linear_179_657" x1="594.58" y1="69.2848" x2="594.198" y2="57.9143" gradientUnits="userSpaceOnUse">
<stop offset="0.616734" stop-color="#2962FF" stop-opacity="0"/>
<stop offset="0.847155" stop-color="#2962FF"/>
</linearGradient>
<clipPath id="clip0_179_657">
<rect width="455" height="342" fill="white"/>
</clipPath>
<clipPath id="clip1_179_657">
<rect x="25.9531" y="265.071" width="24" height="24" rx="12" transform="rotate(-32 25.9531 265.071)" fill="white"/>
</clipPath>
<clipPath id="clip2_179_657">
<rect width="16" height="16" fill="white" transform="translate(31.4648 266.344) rotate(-32)"/>
</clipPath>
<clipPath id="clip3_179_657">
<rect x="103.953" y="67.0712" width="24" height="24" rx="12" transform="rotate(-32 103.953 67.0712)" fill="white"/>
</clipPath>
<clipPath id="clip4_179_657">
<rect width="16" height="16" fill="white" transform="translate(109.465 68.3437) rotate(-32)"/>
</clipPath>
<clipPath id="clip5_179_657">
<rect x="386.953" y="279.071" width="24" height="24" rx="12" transform="rotate(-32 386.953 279.071)" fill="white"/>
</clipPath>
<clipPath id="clip6_179_657">
<rect width="16" height="16" fill="white" transform="translate(392.465 280.344) rotate(-32)"/>
</clipPath>
<clipPath id="clip7_179_657">
<rect x="409.953" y="64.8624" width="24" height="24" rx="12" transform="rotate(-32 409.953 64.8624)" fill="white"/>
</clipPath>
<clipPath id="clip8_179_657">
<rect width="16" height="16" fill="white" transform="translate(415.465 66.1349) rotate(-32)"/>
</clipPath>
</defs>
</svg>
