<svg width="590" height="431" viewBox="0 0 590 431" fill="none" xmlns="http://www.w3.org/2000/svg">
<g clip-path="url(#clip0_282_1416)">
<rect x="34.4922" y="3.21045" width="521" height="424" rx="12" fill="white"/>
<g opacity="0.6" filter="url(#filter0_f_282_1416)">
<rect x="503.653" y="181.932" width="1.33797" height="1.33797" rx="0.668985" transform="rotate(138.383 503.653 181.932)" fill="white"/>
</g>
<g opacity="0.6" filter="url(#filter1_f_282_1416)">
<rect x="507.701" y="152.207" width="1.33797" height="1.33797" rx="0.668985" transform="rotate(138.383 507.701 152.207)" fill="white"/>
</g>
<g opacity="0.6" filter="url(#filter2_f_282_1416)">
<rect x="512.357" y="142.333" width="1.33797" height="1.33797" rx="0.668985" transform="rotate(-159.61 512.357 142.333)" fill="white"/>
</g>
<g opacity="0.6" filter="url(#filter3_f_282_1416)">
<rect width="1.33797" height="1.33797" rx="0.668985" transform="matrix(0.231267 -0.97289 -0.97289 -0.231267 471.304 156.667)" fill="white"/>
</g>
<g opacity="0.3" filter="url(#filter4_f_282_1416)">
<rect x="485.681" y="175.109" width="1.33797" height="1.33797" rx="0.668985" transform="rotate(138.383 485.681 175.109)" fill="white"/>
</g>
<g opacity="0.3" filter="url(#filter5_f_282_1416)">
<rect x="488.379" y="155.292" width="1.33797" height="1.33797" rx="0.668985" transform="rotate(138.383 488.379 155.292)" fill="white"/>
</g>
<g opacity="0.3" filter="url(#filter6_f_282_1416)">
<rect x="491.182" y="130.179" width="1.33797" height="1.33797" rx="0.668985" transform="rotate(-159.61 491.182 130.179)" fill="white"/>
</g>
<g opacity="0.3" filter="url(#filter7_f_282_1416)">
<rect width="1.33797" height="1.33797" rx="0.668985" transform="matrix(0.231267 -0.97289 -0.97289 -0.231267 472.92 132.666)" fill="white"/>
</g>
<g opacity="0.3" filter="url(#filter8_f_282_1416)">
<rect width="1.33797" height="1.33797" rx="0.668985" transform="matrix(0.231267 -0.97289 -0.97289 -0.231267 484.009 140.172)" fill="white"/>
</g>
<g opacity="0.3" filter="url(#filter9_f_282_1416)">
<rect width="1.33797" height="1.33797" rx="0.668985" transform="matrix(0.231267 -0.97289 -0.97289 -0.231267 462.666 163.506)" fill="white"/>
</g>
<g opacity="0.3" filter="url(#filter10_f_282_1416)">
<rect width="1.33797" height="1.33797" rx="0.668985" transform="matrix(0.231267 -0.97289 -0.97289 -0.231267 475.096 161.161)" fill="white"/>
</g>
<g opacity="0.3" filter="url(#filter11_f_282_1416)">
<rect width="1.33797" height="1.33797" rx="0.668985" transform="matrix(0.231267 -0.97289 -0.97289 -0.231267 497.434 160.166)" fill="white"/>
</g>
<g opacity="0.3" filter="url(#filter12_f_282_1416)">
<rect width="1.33797" height="1.33797" rx="0.668985" transform="matrix(0.231267 -0.97289 -0.97289 -0.231267 497.257 176.289)" fill="white"/>
</g>
<g opacity="0.3" filter="url(#filter13_f_282_1416)">
<rect width="1.33797" height="1.33797" rx="0.668985" transform="matrix(0.231267 -0.97289 -0.97289 -0.231267 492.745 135.306)" fill="white"/>
</g>
<g opacity="0.6" filter="url(#filter14_f_282_1416)">
<rect width="1.33797" height="1.33797" rx="0.668985" transform="matrix(0.231267 -0.97289 -0.97289 -0.231267 541.304 266.667)" fill="white"/>
</g>
<g opacity="0.3" filter="url(#filter15_f_282_1416)">
<rect x="555.681" y="285.109" width="1.33797" height="1.33797" rx="0.668985" transform="rotate(138.383 555.681 285.109)" fill="white"/>
</g>
<g opacity="0.3" filter="url(#filter16_f_282_1416)">
<rect x="558.379" y="265.292" width="1.33797" height="1.33797" rx="0.668985" transform="rotate(138.383 558.379 265.292)" fill="white"/>
</g>
<g opacity="0.3" filter="url(#filter17_f_282_1416)">
<rect width="1.33797" height="1.33797" rx="0.668985" transform="matrix(0.231267 -0.97289 -0.97289 -0.231267 542.92 242.666)" fill="white"/>
</g>
<g opacity="0.3" filter="url(#filter18_f_282_1416)">
<rect width="1.33797" height="1.33797" rx="0.668985" transform="matrix(0.231267 -0.97289 -0.97289 -0.231267 554.009 250.172)" fill="white"/>
</g>
<g opacity="0.3" filter="url(#filter19_f_282_1416)">
<rect width="1.33797" height="1.33797" rx="0.668985" transform="matrix(0.231267 -0.97289 -0.97289 -0.231267 532.666 273.506)" fill="white"/>
</g>
<g opacity="0.3" filter="url(#filter20_f_282_1416)">
<rect width="1.33797" height="1.33797" rx="0.668985" transform="matrix(0.231267 -0.97289 -0.97289 -0.231267 545.096 271.161)" fill="white"/>
</g>
<g opacity="0.6" filter="url(#filter21_f_282_1416)">
<rect x="420.653" y="71.9324" width="1.33797" height="1.33797" rx="0.668985" transform="rotate(138.383 420.653 71.9324)" fill="white"/>
</g>
<g opacity="0.6" filter="url(#filter22_f_282_1416)">
<rect x="424.701" y="42.2067" width="1.33797" height="1.33797" rx="0.668985" transform="rotate(138.383 424.701 42.2067)" fill="white"/>
</g>
<g opacity="0.6" filter="url(#filter23_f_282_1416)">
<rect x="429.357" y="32.3326" width="1.33797" height="1.33797" rx="0.668985" transform="rotate(-159.61 429.357 32.3326)" fill="white"/>
</g>
<g opacity="0.6" filter="url(#filter24_f_282_1416)">
<rect width="1.33797" height="1.33797" rx="0.668985" transform="matrix(0.231267 -0.97289 -0.97289 -0.231267 388.304 46.6673)" fill="white"/>
</g>
<g opacity="0.3" filter="url(#filter25_f_282_1416)">
<rect x="402.681" y="65.1095" width="1.33797" height="1.33797" rx="0.668985" transform="rotate(138.383 402.681 65.1095)" fill="white"/>
</g>
<g opacity="0.3" filter="url(#filter26_f_282_1416)">
<rect x="405.379" y="45.2923" width="1.33797" height="1.33797" rx="0.668985" transform="rotate(138.383 405.379 45.2923)" fill="white"/>
</g>
<g opacity="0.3" filter="url(#filter27_f_282_1416)">
<rect x="408.182" y="20.1791" width="1.33797" height="1.33797" rx="0.668985" transform="rotate(-159.61 408.182 20.1791)" fill="white"/>
</g>
<g opacity="0.3" filter="url(#filter28_f_282_1416)">
<rect width="1.33797" height="1.33797" rx="0.668985" transform="matrix(0.231267 -0.97289 -0.97289 -0.231267 389.92 22.6659)" fill="white"/>
</g>
<g opacity="0.3" filter="url(#filter29_f_282_1416)">
<rect width="1.33797" height="1.33797" rx="0.668985" transform="matrix(0.231267 -0.97289 -0.97289 -0.231267 401.009 30.1719)" fill="white"/>
</g>
<g opacity="0.3" filter="url(#filter30_f_282_1416)">
<rect width="1.33797" height="1.33797" rx="0.668985" transform="matrix(0.231267 -0.97289 -0.97289 -0.231267 379.666 53.5058)" fill="white"/>
</g>
<g opacity="0.3" filter="url(#filter31_f_282_1416)">
<rect width="1.33797" height="1.33797" rx="0.668985" transform="matrix(0.231267 -0.97289 -0.97289 -0.231267 392.096 51.1613)" fill="white"/>
</g>
<g opacity="0.3" filter="url(#filter32_f_282_1416)">
<rect width="1.33797" height="1.33797" rx="0.668985" transform="matrix(0.231267 -0.97289 -0.97289 -0.231267 414.434 50.1659)" fill="white"/>
</g>
<g opacity="0.3" filter="url(#filter33_f_282_1416)">
<rect width="1.33797" height="1.33797" rx="0.668985" transform="matrix(0.231267 -0.97289 -0.97289 -0.231267 414.257 66.2895)" fill="white"/>
</g>
<g opacity="0.3" filter="url(#filter34_f_282_1416)">
<rect width="1.33797" height="1.33797" rx="0.668985" transform="matrix(0.231267 -0.97289 -0.97289 -0.231267 409.745 25.306)" fill="white"/>
</g>
<g opacity="0.6" filter="url(#filter35_f_282_1416)">
<rect x="420.725" y="308.932" width="1.33797" height="1.33797" rx="0.668985" transform="rotate(138.383 420.725 308.932)" fill="white"/>
</g>
<g opacity="0.6" filter="url(#filter36_f_282_1416)">
<rect x="424.772" y="279.207" width="1.33797" height="1.33797" rx="0.668985" transform="rotate(138.383 424.772 279.207)" fill="white"/>
</g>
<g opacity="0.6" filter="url(#filter37_f_282_1416)">
<rect x="429.429" y="269.333" width="1.33797" height="1.33797" rx="0.668985" transform="rotate(-159.61 429.429 269.333)" fill="white"/>
</g>
<g opacity="0.6" filter="url(#filter38_f_282_1416)">
<rect width="1.33797" height="1.33797" rx="0.668985" transform="matrix(0.231267 -0.97289 -0.97289 -0.231267 388.375 283.667)" fill="white"/>
</g>
<g opacity="0.3" filter="url(#filter39_f_282_1416)">
<rect x="402.752" y="302.109" width="1.33797" height="1.33797" rx="0.668985" transform="rotate(138.383 402.752 302.109)" fill="white"/>
</g>
<g opacity="0.3" filter="url(#filter40_f_282_1416)">
<rect x="405.45" y="282.292" width="1.33797" height="1.33797" rx="0.668985" transform="rotate(138.383 405.45 282.292)" fill="white"/>
</g>
<g opacity="0.3" filter="url(#filter41_f_282_1416)">
<rect x="408.253" y="257.179" width="1.33797" height="1.33797" rx="0.668985" transform="rotate(-159.61 408.253 257.179)" fill="white"/>
</g>
<g opacity="0.3" filter="url(#filter42_f_282_1416)">
<rect width="1.33797" height="1.33797" rx="0.668985" transform="matrix(0.231267 -0.97289 -0.97289 -0.231267 389.992 259.666)" fill="white"/>
</g>
<g opacity="0.3" filter="url(#filter43_f_282_1416)">
<rect width="1.33797" height="1.33797" rx="0.668985" transform="matrix(0.231267 -0.97289 -0.97289 -0.231267 401.08 267.172)" fill="white"/>
</g>
<g opacity="0.3" filter="url(#filter44_f_282_1416)">
<rect width="1.33797" height="1.33797" rx="0.668985" transform="matrix(0.231267 -0.97289 -0.97289 -0.231267 379.737 290.506)" fill="white"/>
</g>
<g opacity="0.3" filter="url(#filter45_f_282_1416)">
<rect width="1.33797" height="1.33797" rx="0.668985" transform="matrix(0.231267 -0.97289 -0.97289 -0.231267 392.167 288.161)" fill="white"/>
</g>
<g opacity="0.3" filter="url(#filter46_f_282_1416)">
<rect width="1.33797" height="1.33797" rx="0.668985" transform="matrix(0.231267 -0.97289 -0.97289 -0.231267 414.505 287.166)" fill="white"/>
</g>
<g opacity="0.3" filter="url(#filter47_f_282_1416)">
<rect width="1.33797" height="1.33797" rx="0.668985" transform="matrix(0.231267 -0.97289 -0.97289 -0.231267 414.329 303.289)" fill="white"/>
</g>
<g opacity="0.3" filter="url(#filter48_f_282_1416)">
<rect width="1.33797" height="1.33797" rx="0.668985" transform="matrix(0.231267 -0.97289 -0.97289 -0.231267 409.816 262.306)" fill="white"/>
</g>
<path d="M523.492 35.2104L507.492 51.2104M507.492 35.2104L523.492 51.2104" stroke="#1E1E1E" stroke-width="2.66667" stroke-linecap="round" stroke-linejoin="round"/>
<g clip-path="url(#clip1_282_1416)">
<rect x="-104.508" y="3.21045" width="529" height="557" rx="6" fill="url(#paint0_linear_282_1416)"/>
<path d="M-438.508 438.454C-438.508 438.454 -352.337 442.681 -299.529 429.689C-257.561 419.365 -239.017 397.897 -196.861 388.372C-138.675 375.224 -102.63 399.94 -44.1097 388.372C-7.2495 381.085 9.82964 361.23 47.2905 358.322C59.4778 357.376 66.6306 360.842 78.592 358.322C102.231 353.342 106.339 331.218 128.674 322.012C140.846 316.995 149.039 318.224 161.228 313.248C199.961 297.435 196.033 248.042 236.351 236.873C263.276 229.413 307.718 241.881 307.718 241.881" stroke="url(#paint1_linear_282_1416)" stroke-width="2.50412"/>
<g filter="url(#filter49_b_282_1416)">
<rect x="297.702" y="234.367" width="20.0329" height="20.0329" rx="10.0165" fill="#2962FF"/>
</g>
<g filter="url(#filter50_f_282_1416)">
<rect x="297.702" y="234.367" width="20.0329" height="20.0329" rx="10.0165" fill="#2962FF"/>
</g>
<path d="M-407.207 443.46C-407.207 443.46 -299.635 341.102 -213.138 309.49C-142.15 283.547 -93.5522 304.995 -21.5728 281.945C51.9506 258.4 81.7392 218.464 153.715 190.545C206.505 170.068 292.694 149.227 292.694 149.227" stroke="url(#paint2_linear_282_1416)" stroke-width="2.50412"/>
<g filter="url(#filter51_b_282_1416)">
<rect x="287.686" y="139.21" width="20.0329" height="20.0329" rx="10.0165" fill="#11A008"/>
</g>
<g filter="url(#filter52_f_282_1416)">
<rect x="287.686" y="139.21" width="20.0329" height="20.0329" rx="10.0165" fill="#11A008"/>
</g>
<path d="M-379.257 506.263L-320.464 444.814L-287.941 416.58L-262.922 394.99L-231.65 371.739L-194.122 355.131L-170.355 348.488L-149.09 345.166L-94.0496 343.506L-66.5296 340.184L-40.2605 333.541L-12.7405 321.915L16.0304 306.968L34.794 293.682V258.71L66.9922 236.71L110.992 210.21L164.492 185.71L230.992 165.21L307.492 144.21V521.21H-380.508L-379.257 506.263Z" fill="url(#paint3_linear_282_1416)"/>
</g>
<path d="M510.101 45.0304C511.072 44.2704 512.492 44.9634 512.492 46.1964V71.1204C512.492 72.6584 510.526 73.3004 509.618 72.0584L503.393 63.5354C503.207 63.2813 502.964 63.0746 502.684 62.9321C502.403 62.7897 502.093 62.7154 501.778 62.7154H492.088C490.576 62.7154 489.918 60.8034 491.11 59.8714L510.101 45.0304Z" fill="#0D0E11"/>
<path d="M510.409 45.4242L510.409 45.4244L491.418 60.2653C490.6 60.9051 491.053 62.2154 492.088 62.2154H501.778C501.778 62.2154 501.778 62.2154 501.778 62.2154C502.172 62.2154 502.559 62.3082 502.91 62.4863C503.261 62.6644 503.565 62.9228 503.797 63.2404L503.797 63.2405L510.022 71.7634C510.645 72.6151 511.992 72.1746 511.992 71.1204V46.1964C511.992 45.3795 511.052 44.9215 510.409 45.4242ZM509.618 72.0584L503.393 63.5354L509.618 72.0584Z" stroke="white" stroke-opacity="0.8"/>
<path d="M517.333 322.693C517.855 321.576 516.86 320.348 515.659 320.626L491.373 326.232C489.875 326.578 489.692 328.638 491.106 329.244L500.811 333.392C501.1 333.516 501.356 333.706 501.558 333.947C501.76 334.189 501.902 334.474 501.973 334.781L504.153 344.223C504.493 345.696 506.504 345.907 507.144 344.536L517.333 322.693Z" fill="#0D0E11"/>
<path d="M516.88 322.481L516.879 322.482L506.691 344.324C506.252 345.266 504.873 345.119 504.64 344.11L502.46 334.669C502.46 334.669 502.46 334.669 502.46 334.669C502.372 334.285 502.194 333.928 501.942 333.626C501.689 333.325 501.369 333.087 501.007 332.932L501.007 332.932L491.303 328.784C490.333 328.369 490.459 326.957 491.486 326.72L515.771 321.113C516.567 320.929 517.225 321.743 516.88 322.481ZM491.106 329.244L500.811 333.392L491.106 329.244Z" stroke="white" stroke-opacity="0.8"/>
</g>
<rect x="35.4922" y="4.21045" width="519" height="422" rx="11" stroke="#D5DEE8" stroke-width="2"/>
<defs>
<filter id="filter0_f_282_1416" x="500.427" y="179.594" width="4.56461" height="4.56482" filterUnits="userSpaceOnUse" color-interpolation-filters="sRGB">
<feFlood flood-opacity="0" result="BackgroundImageFix"/>
<feBlend mode="normal" in="SourceGraphic" in2="BackgroundImageFix" result="shape"/>
<feGaussianBlur stdDeviation="0.668985" result="effect1_foregroundBlur_282_1416"/>
</filter>
<filter id="filter1_f_282_1416" x="504.474" y="149.868" width="4.56461" height="4.56482" filterUnits="userSpaceOnUse" color-interpolation-filters="sRGB">
<feFlood flood-opacity="0" result="BackgroundImageFix"/>
<feBlend mode="normal" in="SourceGraphic" in2="BackgroundImageFix" result="shape"/>
<feGaussianBlur stdDeviation="0.668985" result="effect1_foregroundBlur_282_1416"/>
</filter>
<filter id="filter2_f_282_1416" x="509.766" y="139.274" width="4.39615" height="4.39623" filterUnits="userSpaceOnUse" color-interpolation-filters="sRGB">
<feFlood flood-opacity="0" result="BackgroundImageFix"/>
<feBlend mode="normal" in="SourceGraphic" in2="BackgroundImageFix" result="shape"/>
<feGaussianBlur stdDeviation="0.668985" result="effect1_foregroundBlur_282_1416"/>
</filter>
<filter id="filter3_f_282_1416" x="468.664" y="153.718" width="4.28727" height="4.28707" filterUnits="userSpaceOnUse" color-interpolation-filters="sRGB">
<feFlood flood-opacity="0" result="BackgroundImageFix"/>
<feBlend mode="normal" in="SourceGraphic" in2="BackgroundImageFix" result="shape"/>
<feGaussianBlur stdDeviation="0.668985" result="effect1_foregroundBlur_282_1416"/>
</filter>
<filter id="filter4_f_282_1416" x="482.454" y="172.771" width="4.56461" height="4.56482" filterUnits="userSpaceOnUse" color-interpolation-filters="sRGB">
<feFlood flood-opacity="0" result="BackgroundImageFix"/>
<feBlend mode="normal" in="SourceGraphic" in2="BackgroundImageFix" result="shape"/>
<feGaussianBlur stdDeviation="0.668985" result="effect1_foregroundBlur_282_1416"/>
</filter>
<filter id="filter5_f_282_1416" x="485.152" y="152.954" width="4.56461" height="4.56482" filterUnits="userSpaceOnUse" color-interpolation-filters="sRGB">
<feFlood flood-opacity="0" result="BackgroundImageFix"/>
<feBlend mode="normal" in="SourceGraphic" in2="BackgroundImageFix" result="shape"/>
<feGaussianBlur stdDeviation="0.668985" result="effect1_foregroundBlur_282_1416"/>
</filter>
<filter id="filter6_f_282_1416" x="488.59" y="127.121" width="4.39615" height="4.39623" filterUnits="userSpaceOnUse" color-interpolation-filters="sRGB">
<feFlood flood-opacity="0" result="BackgroundImageFix"/>
<feBlend mode="normal" in="SourceGraphic" in2="BackgroundImageFix" result="shape"/>
<feGaussianBlur stdDeviation="0.668985" result="effect1_foregroundBlur_282_1416"/>
</filter>
<filter id="filter7_f_282_1416" x="470.281" y="129.717" width="4.28727" height="4.28707" filterUnits="userSpaceOnUse" color-interpolation-filters="sRGB">
<feFlood flood-opacity="0" result="BackgroundImageFix"/>
<feBlend mode="normal" in="SourceGraphic" in2="BackgroundImageFix" result="shape"/>
<feGaussianBlur stdDeviation="0.668985" result="effect1_foregroundBlur_282_1416"/>
</filter>
<filter id="filter8_f_282_1416" x="481.369" y="137.223" width="4.28727" height="4.28707" filterUnits="userSpaceOnUse" color-interpolation-filters="sRGB">
<feFlood flood-opacity="0" result="BackgroundImageFix"/>
<feBlend mode="normal" in="SourceGraphic" in2="BackgroundImageFix" result="shape"/>
<feGaussianBlur stdDeviation="0.668985" result="effect1_foregroundBlur_282_1416"/>
</filter>
<filter id="filter9_f_282_1416" x="460.026" y="160.557" width="4.28727" height="4.28707" filterUnits="userSpaceOnUse" color-interpolation-filters="sRGB">
<feFlood flood-opacity="0" result="BackgroundImageFix"/>
<feBlend mode="normal" in="SourceGraphic" in2="BackgroundImageFix" result="shape"/>
<feGaussianBlur stdDeviation="0.668985" result="effect1_foregroundBlur_282_1416"/>
</filter>
<filter id="filter10_f_282_1416" x="472.456" y="158.212" width="4.28727" height="4.28707" filterUnits="userSpaceOnUse" color-interpolation-filters="sRGB">
<feFlood flood-opacity="0" result="BackgroundImageFix"/>
<feBlend mode="normal" in="SourceGraphic" in2="BackgroundImageFix" result="shape"/>
<feGaussianBlur stdDeviation="0.668985" result="effect1_foregroundBlur_282_1416"/>
</filter>
<filter id="filter11_f_282_1416" x="494.794" y="157.217" width="4.28727" height="4.28707" filterUnits="userSpaceOnUse" color-interpolation-filters="sRGB">
<feFlood flood-opacity="0" result="BackgroundImageFix"/>
<feBlend mode="normal" in="SourceGraphic" in2="BackgroundImageFix" result="shape"/>
<feGaussianBlur stdDeviation="0.668985" result="effect1_foregroundBlur_282_1416"/>
</filter>
<filter id="filter12_f_282_1416" x="494.618" y="173.34" width="4.28727" height="4.28707" filterUnits="userSpaceOnUse" color-interpolation-filters="sRGB">
<feFlood flood-opacity="0" result="BackgroundImageFix"/>
<feBlend mode="normal" in="SourceGraphic" in2="BackgroundImageFix" result="shape"/>
<feGaussianBlur stdDeviation="0.668985" result="effect1_foregroundBlur_282_1416"/>
</filter>
<filter id="filter13_f_282_1416" x="490.105" y="132.357" width="4.28727" height="4.28707" filterUnits="userSpaceOnUse" color-interpolation-filters="sRGB">
<feFlood flood-opacity="0" result="BackgroundImageFix"/>
<feBlend mode="normal" in="SourceGraphic" in2="BackgroundImageFix" result="shape"/>
<feGaussianBlur stdDeviation="0.668985" result="effect1_foregroundBlur_282_1416"/>
</filter>
<filter id="filter14_f_282_1416" x="538.664" y="263.718" width="4.28727" height="4.28707" filterUnits="userSpaceOnUse" color-interpolation-filters="sRGB">
<feFlood flood-opacity="0" result="BackgroundImageFix"/>
<feBlend mode="normal" in="SourceGraphic" in2="BackgroundImageFix" result="shape"/>
<feGaussianBlur stdDeviation="0.668985" result="effect1_foregroundBlur_282_1416"/>
</filter>
<filter id="filter15_f_282_1416" x="552.454" y="282.771" width="4.56461" height="4.56482" filterUnits="userSpaceOnUse" color-interpolation-filters="sRGB">
<feFlood flood-opacity="0" result="BackgroundImageFix"/>
<feBlend mode="normal" in="SourceGraphic" in2="BackgroundImageFix" result="shape"/>
<feGaussianBlur stdDeviation="0.668985" result="effect1_foregroundBlur_282_1416"/>
</filter>
<filter id="filter16_f_282_1416" x="555.152" y="262.954" width="4.56461" height="4.56482" filterUnits="userSpaceOnUse" color-interpolation-filters="sRGB">
<feFlood flood-opacity="0" result="BackgroundImageFix"/>
<feBlend mode="normal" in="SourceGraphic" in2="BackgroundImageFix" result="shape"/>
<feGaussianBlur stdDeviation="0.668985" result="effect1_foregroundBlur_282_1416"/>
</filter>
<filter id="filter17_f_282_1416" x="540.281" y="239.717" width="4.28727" height="4.28707" filterUnits="userSpaceOnUse" color-interpolation-filters="sRGB">
<feFlood flood-opacity="0" result="BackgroundImageFix"/>
<feBlend mode="normal" in="SourceGraphic" in2="BackgroundImageFix" result="shape"/>
<feGaussianBlur stdDeviation="0.668985" result="effect1_foregroundBlur_282_1416"/>
</filter>
<filter id="filter18_f_282_1416" x="551.369" y="247.223" width="4.28727" height="4.28707" filterUnits="userSpaceOnUse" color-interpolation-filters="sRGB">
<feFlood flood-opacity="0" result="BackgroundImageFix"/>
<feBlend mode="normal" in="SourceGraphic" in2="BackgroundImageFix" result="shape"/>
<feGaussianBlur stdDeviation="0.668985" result="effect1_foregroundBlur_282_1416"/>
</filter>
<filter id="filter19_f_282_1416" x="530.026" y="270.557" width="4.28727" height="4.28707" filterUnits="userSpaceOnUse" color-interpolation-filters="sRGB">
<feFlood flood-opacity="0" result="BackgroundImageFix"/>
<feBlend mode="normal" in="SourceGraphic" in2="BackgroundImageFix" result="shape"/>
<feGaussianBlur stdDeviation="0.668985" result="effect1_foregroundBlur_282_1416"/>
</filter>
<filter id="filter20_f_282_1416" x="542.456" y="268.212" width="4.28727" height="4.28707" filterUnits="userSpaceOnUse" color-interpolation-filters="sRGB">
<feFlood flood-opacity="0" result="BackgroundImageFix"/>
<feBlend mode="normal" in="SourceGraphic" in2="BackgroundImageFix" result="shape"/>
<feGaussianBlur stdDeviation="0.668985" result="effect1_foregroundBlur_282_1416"/>
</filter>
<filter id="filter21_f_282_1416" x="417.427" y="69.5942" width="4.56461" height="4.56481" filterUnits="userSpaceOnUse" color-interpolation-filters="sRGB">
<feFlood flood-opacity="0" result="BackgroundImageFix"/>
<feBlend mode="normal" in="SourceGraphic" in2="BackgroundImageFix" result="shape"/>
<feGaussianBlur stdDeviation="0.668985" result="effect1_foregroundBlur_282_1416"/>
</filter>
<filter id="filter22_f_282_1416" x="421.474" y="39.8685" width="4.56461" height="4.56481" filterUnits="userSpaceOnUse" color-interpolation-filters="sRGB">
<feFlood flood-opacity="0" result="BackgroundImageFix"/>
<feBlend mode="normal" in="SourceGraphic" in2="BackgroundImageFix" result="shape"/>
<feGaussianBlur stdDeviation="0.668985" result="effect1_foregroundBlur_282_1416"/>
</filter>
<filter id="filter23_f_282_1416" x="426.766" y="29.2743" width="4.39615" height="4.39623" filterUnits="userSpaceOnUse" color-interpolation-filters="sRGB">
<feFlood flood-opacity="0" result="BackgroundImageFix"/>
<feBlend mode="normal" in="SourceGraphic" in2="BackgroundImageFix" result="shape"/>
<feGaussianBlur stdDeviation="0.668985" result="effect1_foregroundBlur_282_1416"/>
</filter>
<filter id="filter24_f_282_1416" x="385.664" y="43.7182" width="4.28727" height="4.28707" filterUnits="userSpaceOnUse" color-interpolation-filters="sRGB">
<feFlood flood-opacity="0" result="BackgroundImageFix"/>
<feBlend mode="normal" in="SourceGraphic" in2="BackgroundImageFix" result="shape"/>
<feGaussianBlur stdDeviation="0.668985" result="effect1_foregroundBlur_282_1416"/>
</filter>
<filter id="filter25_f_282_1416" x="399.454" y="62.7712" width="4.56461" height="4.56481" filterUnits="userSpaceOnUse" color-interpolation-filters="sRGB">
<feFlood flood-opacity="0" result="BackgroundImageFix"/>
<feBlend mode="normal" in="SourceGraphic" in2="BackgroundImageFix" result="shape"/>
<feGaussianBlur stdDeviation="0.668985" result="effect1_foregroundBlur_282_1416"/>
</filter>
<filter id="filter26_f_282_1416" x="402.152" y="42.9541" width="4.56461" height="4.56481" filterUnits="userSpaceOnUse" color-interpolation-filters="sRGB">
<feFlood flood-opacity="0" result="BackgroundImageFix"/>
<feBlend mode="normal" in="SourceGraphic" in2="BackgroundImageFix" result="shape"/>
<feGaussianBlur stdDeviation="0.668985" result="effect1_foregroundBlur_282_1416"/>
</filter>
<filter id="filter27_f_282_1416" x="405.59" y="17.1209" width="4.39615" height="4.39623" filterUnits="userSpaceOnUse" color-interpolation-filters="sRGB">
<feFlood flood-opacity="0" result="BackgroundImageFix"/>
<feBlend mode="normal" in="SourceGraphic" in2="BackgroundImageFix" result="shape"/>
<feGaussianBlur stdDeviation="0.668985" result="effect1_foregroundBlur_282_1416"/>
</filter>
<filter id="filter28_f_282_1416" x="387.281" y="19.7168" width="4.28727" height="4.28707" filterUnits="userSpaceOnUse" color-interpolation-filters="sRGB">
<feFlood flood-opacity="0" result="BackgroundImageFix"/>
<feBlend mode="normal" in="SourceGraphic" in2="BackgroundImageFix" result="shape"/>
<feGaussianBlur stdDeviation="0.668985" result="effect1_foregroundBlur_282_1416"/>
</filter>
<filter id="filter29_f_282_1416" x="398.369" y="27.2228" width="4.28727" height="4.28707" filterUnits="userSpaceOnUse" color-interpolation-filters="sRGB">
<feFlood flood-opacity="0" result="BackgroundImageFix"/>
<feBlend mode="normal" in="SourceGraphic" in2="BackgroundImageFix" result="shape"/>
<feGaussianBlur stdDeviation="0.668985" result="effect1_foregroundBlur_282_1416"/>
</filter>
<filter id="filter30_f_282_1416" x="377.026" y="50.5567" width="4.28727" height="4.28707" filterUnits="userSpaceOnUse" color-interpolation-filters="sRGB">
<feFlood flood-opacity="0" result="BackgroundImageFix"/>
<feBlend mode="normal" in="SourceGraphic" in2="BackgroundImageFix" result="shape"/>
<feGaussianBlur stdDeviation="0.668985" result="effect1_foregroundBlur_282_1416"/>
</filter>
<filter id="filter31_f_282_1416" x="389.456" y="48.2122" width="4.28727" height="4.28707" filterUnits="userSpaceOnUse" color-interpolation-filters="sRGB">
<feFlood flood-opacity="0" result="BackgroundImageFix"/>
<feBlend mode="normal" in="SourceGraphic" in2="BackgroundImageFix" result="shape"/>
<feGaussianBlur stdDeviation="0.668985" result="effect1_foregroundBlur_282_1416"/>
</filter>
<filter id="filter32_f_282_1416" x="411.794" y="47.2168" width="4.28727" height="4.28707" filterUnits="userSpaceOnUse" color-interpolation-filters="sRGB">
<feFlood flood-opacity="0" result="BackgroundImageFix"/>
<feBlend mode="normal" in="SourceGraphic" in2="BackgroundImageFix" result="shape"/>
<feGaussianBlur stdDeviation="0.668985" result="effect1_foregroundBlur_282_1416"/>
</filter>
<filter id="filter33_f_282_1416" x="411.618" y="63.3404" width="4.28727" height="4.28707" filterUnits="userSpaceOnUse" color-interpolation-filters="sRGB">
<feFlood flood-opacity="0" result="BackgroundImageFix"/>
<feBlend mode="normal" in="SourceGraphic" in2="BackgroundImageFix" result="shape"/>
<feGaussianBlur stdDeviation="0.668985" result="effect1_foregroundBlur_282_1416"/>
</filter>
<filter id="filter34_f_282_1416" x="407.105" y="22.3569" width="4.28727" height="4.28707" filterUnits="userSpaceOnUse" color-interpolation-filters="sRGB">
<feFlood flood-opacity="0" result="BackgroundImageFix"/>
<feBlend mode="normal" in="SourceGraphic" in2="BackgroundImageFix" result="shape"/>
<feGaussianBlur stdDeviation="0.668985" result="effect1_foregroundBlur_282_1416"/>
</filter>
<filter id="filter35_f_282_1416" x="417.498" y="306.594" width="4.56461" height="4.56482" filterUnits="userSpaceOnUse" color-interpolation-filters="sRGB">
<feFlood flood-opacity="0" result="BackgroundImageFix"/>
<feBlend mode="normal" in="SourceGraphic" in2="BackgroundImageFix" result="shape"/>
<feGaussianBlur stdDeviation="0.668985" result="effect1_foregroundBlur_282_1416"/>
</filter>
<filter id="filter36_f_282_1416" x="421.545" y="276.868" width="4.56461" height="4.56482" filterUnits="userSpaceOnUse" color-interpolation-filters="sRGB">
<feFlood flood-opacity="0" result="BackgroundImageFix"/>
<feBlend mode="normal" in="SourceGraphic" in2="BackgroundImageFix" result="shape"/>
<feGaussianBlur stdDeviation="0.668985" result="effect1_foregroundBlur_282_1416"/>
</filter>
<filter id="filter37_f_282_1416" x="426.837" y="266.274" width="4.39615" height="4.39623" filterUnits="userSpaceOnUse" color-interpolation-filters="sRGB">
<feFlood flood-opacity="0" result="BackgroundImageFix"/>
<feBlend mode="normal" in="SourceGraphic" in2="BackgroundImageFix" result="shape"/>
<feGaussianBlur stdDeviation="0.668985" result="effect1_foregroundBlur_282_1416"/>
</filter>
<filter id="filter38_f_282_1416" x="385.736" y="280.718" width="4.28727" height="4.28707" filterUnits="userSpaceOnUse" color-interpolation-filters="sRGB">
<feFlood flood-opacity="0" result="BackgroundImageFix"/>
<feBlend mode="normal" in="SourceGraphic" in2="BackgroundImageFix" result="shape"/>
<feGaussianBlur stdDeviation="0.668985" result="effect1_foregroundBlur_282_1416"/>
</filter>
<filter id="filter39_f_282_1416" x="399.525" y="299.771" width="4.56461" height="4.56482" filterUnits="userSpaceOnUse" color-interpolation-filters="sRGB">
<feFlood flood-opacity="0" result="BackgroundImageFix"/>
<feBlend mode="normal" in="SourceGraphic" in2="BackgroundImageFix" result="shape"/>
<feGaussianBlur stdDeviation="0.668985" result="effect1_foregroundBlur_282_1416"/>
</filter>
<filter id="filter40_f_282_1416" x="402.224" y="279.954" width="4.56461" height="4.56482" filterUnits="userSpaceOnUse" color-interpolation-filters="sRGB">
<feFlood flood-opacity="0" result="BackgroundImageFix"/>
<feBlend mode="normal" in="SourceGraphic" in2="BackgroundImageFix" result="shape"/>
<feGaussianBlur stdDeviation="0.668985" result="effect1_foregroundBlur_282_1416"/>
</filter>
<filter id="filter41_f_282_1416" x="405.662" y="254.121" width="4.39615" height="4.39623" filterUnits="userSpaceOnUse" color-interpolation-filters="sRGB">
<feFlood flood-opacity="0" result="BackgroundImageFix"/>
<feBlend mode="normal" in="SourceGraphic" in2="BackgroundImageFix" result="shape"/>
<feGaussianBlur stdDeviation="0.668985" result="effect1_foregroundBlur_282_1416"/>
</filter>
<filter id="filter42_f_282_1416" x="387.352" y="256.717" width="4.28727" height="4.28707" filterUnits="userSpaceOnUse" color-interpolation-filters="sRGB">
<feFlood flood-opacity="0" result="BackgroundImageFix"/>
<feBlend mode="normal" in="SourceGraphic" in2="BackgroundImageFix" result="shape"/>
<feGaussianBlur stdDeviation="0.668985" result="effect1_foregroundBlur_282_1416"/>
</filter>
<filter id="filter43_f_282_1416" x="398.44" y="264.223" width="4.28727" height="4.28707" filterUnits="userSpaceOnUse" color-interpolation-filters="sRGB">
<feFlood flood-opacity="0" result="BackgroundImageFix"/>
<feBlend mode="normal" in="SourceGraphic" in2="BackgroundImageFix" result="shape"/>
<feGaussianBlur stdDeviation="0.668985" result="effect1_foregroundBlur_282_1416"/>
</filter>
<filter id="filter44_f_282_1416" x="377.098" y="287.557" width="4.28727" height="4.28707" filterUnits="userSpaceOnUse" color-interpolation-filters="sRGB">
<feFlood flood-opacity="0" result="BackgroundImageFix"/>
<feBlend mode="normal" in="SourceGraphic" in2="BackgroundImageFix" result="shape"/>
<feGaussianBlur stdDeviation="0.668985" result="effect1_foregroundBlur_282_1416"/>
</filter>
<filter id="filter45_f_282_1416" x="389.527" y="285.212" width="4.28727" height="4.28707" filterUnits="userSpaceOnUse" color-interpolation-filters="sRGB">
<feFlood flood-opacity="0" result="BackgroundImageFix"/>
<feBlend mode="normal" in="SourceGraphic" in2="BackgroundImageFix" result="shape"/>
<feGaussianBlur stdDeviation="0.668985" result="effect1_foregroundBlur_282_1416"/>
</filter>
<filter id="filter46_f_282_1416" x="411.866" y="284.217" width="4.28727" height="4.28707" filterUnits="userSpaceOnUse" color-interpolation-filters="sRGB">
<feFlood flood-opacity="0" result="BackgroundImageFix"/>
<feBlend mode="normal" in="SourceGraphic" in2="BackgroundImageFix" result="shape"/>
<feGaussianBlur stdDeviation="0.668985" result="effect1_foregroundBlur_282_1416"/>
</filter>
<filter id="filter47_f_282_1416" x="411.689" y="300.34" width="4.28727" height="4.28707" filterUnits="userSpaceOnUse" color-interpolation-filters="sRGB">
<feFlood flood-opacity="0" result="BackgroundImageFix"/>
<feBlend mode="normal" in="SourceGraphic" in2="BackgroundImageFix" result="shape"/>
<feGaussianBlur stdDeviation="0.668985" result="effect1_foregroundBlur_282_1416"/>
</filter>
<filter id="filter48_f_282_1416" x="407.177" y="259.357" width="4.28727" height="4.28707" filterUnits="userSpaceOnUse" color-interpolation-filters="sRGB">
<feFlood flood-opacity="0" result="BackgroundImageFix"/>
<feBlend mode="normal" in="SourceGraphic" in2="BackgroundImageFix" result="shape"/>
<feGaussianBlur stdDeviation="0.668985" result="effect1_foregroundBlur_282_1416"/>
</filter>
<filter id="filter49_b_282_1416" x="287.686" y="224.35" width="40.0656" height="40.0658" filterUnits="userSpaceOnUse" color-interpolation-filters="sRGB">
<feFlood flood-opacity="0" result="BackgroundImageFix"/>
<feGaussianBlur in="BackgroundImageFix" stdDeviation="5.00823"/>
<feComposite in2="SourceAlpha" operator="in" result="effect1_backgroundBlur_282_1416"/>
<feBlend mode="normal" in="SourceGraphic" in2="effect1_backgroundBlur_282_1416" result="shape"/>
</filter>
<filter id="filter50_f_282_1416" x="267.653" y="204.317" width="80.1315" height="80.1317" filterUnits="userSpaceOnUse" color-interpolation-filters="sRGB">
<feFlood flood-opacity="0" result="BackgroundImageFix"/>
<feBlend mode="normal" in="SourceGraphic" in2="BackgroundImageFix" result="shape"/>
<feGaussianBlur stdDeviation="15.0247" result="effect1_foregroundBlur_282_1416"/>
</filter>
<filter id="filter51_b_282_1416" x="277.669" y="129.194" width="40.0656" height="40.0658" filterUnits="userSpaceOnUse" color-interpolation-filters="sRGB">
<feFlood flood-opacity="0" result="BackgroundImageFix"/>
<feGaussianBlur in="BackgroundImageFix" stdDeviation="5.00823"/>
<feComposite in2="SourceAlpha" operator="in" result="effect1_backgroundBlur_282_1416"/>
<feBlend mode="normal" in="SourceGraphic" in2="effect1_backgroundBlur_282_1416" result="shape"/>
</filter>
<filter id="filter52_f_282_1416" x="257.636" y="109.161" width="80.1315" height="80.1317" filterUnits="userSpaceOnUse" color-interpolation-filters="sRGB">
<feFlood flood-opacity="0" result="BackgroundImageFix"/>
<feBlend mode="normal" in="SourceGraphic" in2="BackgroundImageFix" result="shape"/>
<feGaussianBlur stdDeviation="15.0247" result="effect1_foregroundBlur_282_1416"/>
</filter>
<linearGradient id="paint0_linear_282_1416" x1="159.992" y1="3.21045" x2="159.992" y2="560.21" gradientUnits="userSpaceOnUse">
<stop offset="0.369547" stop-color="#F3F3F5"/>
<stop offset="1" stop-color="#F3F3F5" stop-opacity="0"/>
</linearGradient>
<linearGradient id="paint1_linear_282_1416" x1="258.082" y1="236.871" x2="-353.449" y2="585.383" gradientUnits="userSpaceOnUse">
<stop stop-color="#2962FF"/>
<stop offset="1" stop-color="#2962FF" stop-opacity="0"/>
</linearGradient>
<linearGradient id="paint2_linear_282_1416" x1="315.231" y1="149.227" x2="-405.954" y2="442.208" gradientUnits="userSpaceOnUse">
<stop stop-color="#11A008"/>
<stop offset="1" stop-color="#11A008" stop-opacity="0"/>
</linearGradient>
<linearGradient id="paint3_linear_282_1416" x1="209.921" y1="260.466" x2="328.265" y2="623.379" gradientUnits="userSpaceOnUse">
<stop stop-color="#11A008" stop-opacity="0.12"/>
<stop offset="0.297984" stop-color="#2962FF" stop-opacity="0.04"/>
</linearGradient>
<clipPath id="clip0_282_1416">
<rect x="34.4922" y="3.21045" width="521" height="424" rx="12" fill="white"/>
</clipPath>
<clipPath id="clip1_282_1416">
<rect x="-104.508" y="3.21045" width="529" height="557" rx="6" fill="white"/>
</clipPath>
</defs>
</svg>
