<svg width="591" height="431" viewBox="0 0 591 431" fill="none" xmlns="http://www.w3.org/2000/svg">
<g clip-path="url(#clip0_282_769)">
<path d="M436.435 85.8906C444.41 75.8611 436.894 61.4942 423.638 61.4942H320.833C318.05 61.474 315.308 62.1662 312.871 63.5042C310.434 64.8422 308.384 66.781 306.919 69.1342L229.127 197.828C222.988 207.964 230.703 220.611 243.026 220.611H295.515L246.072 343.354C238.923 358.877 258.241 373.077 271.222 361.845L471.887 173.066H367.046L436.435 85.8906Z" fill="#2962FF" stroke="#2962FF" stroke-opacity="0.32" stroke-width="24" stroke-linecap="round" stroke-linejoin="round"/>
<path d="M-104.009 344.633C-104.009 344.633 104.991 344.633 233.491 344.633C256.491 344.633 352.491 239.633 363.991 245.133" stroke="url(#paint0_linear_282_769)"/>
<path d="M209.491 344.633H-101.509" stroke="url(#paint1_linear_282_769)" stroke-width="2"/>
<g filter="url(#filter0_b_282_769)">
<rect width="48" height="48" rx="24" transform="matrix(1 0 0 -1 43.9915 368.924)" fill="#2962FF" fill-opacity="0.5"/>
<rect x="0.5" y="-0.5" width="47" height="47" rx="23.5" transform="matrix(1 0 0 -1 43.9915 367.924)" stroke="#2962FF" stroke-opacity="0.3"/>
<g clip-path="url(#clip1_282_769)">
<rect x="51.9441" y="340.995" width="24" height="24" rx="12" transform="rotate(-32 51.9441 340.995)" fill="#2962FF"/>
<g clip-path="url(#clip2_282_769)">
<path d="M64.5284 342.13C64.2482 340.93 65.5965 340.046 66.5782 340.725L66.6686 340.794L67.9586 341.843C68.2544 342.084 68.5983 342.258 68.9672 342.355C69.3361 342.451 69.7214 342.467 70.0971 342.402L70.2484 342.371L71.8675 341.993C73.0681 341.713 73.9523 343.061 73.2739 344.043L73.2046 344.133L72.1554 345.423C71.9146 345.719 71.7401 346.063 71.6435 346.432C71.547 346.801 71.5307 347.186 71.5959 347.562L71.6264 347.713L72.0048 349.332C72.2849 350.533 70.9366 351.417 69.9559 350.738L69.8643 350.67L68.5749 349.62C68.2791 349.379 67.9351 349.205 67.5662 349.108C67.1972 349.012 66.8118 348.996 66.436 349.061L66.2853 349.091L64.6663 349.469C63.465 349.75 62.5808 348.401 63.2602 347.42L63.3287 347.329L64.3783 346.039C64.6189 345.744 64.7933 345.4 64.8898 345.031C64.9862 344.662 65.0024 344.277 64.9373 343.901L64.9068 343.75L64.5284 342.13ZM68.9034 336.686C69.0092 336.62 69.1314 336.585 69.2561 336.585C69.3808 336.585 69.5031 336.62 69.609 336.685L69.6774 336.735L70.2378 337.191L70.942 337.026C71.0705 336.996 71.2051 337.005 71.3287 337.051C71.4523 337.097 71.5594 337.179 71.6363 337.286C71.7133 337.394 71.7567 337.521 71.761 337.653C71.7653 337.785 71.7303 337.916 71.6606 338.028L71.6108 338.096L71.1544 338.657L71.3193 339.361C71.3495 339.49 71.3408 339.624 71.2944 339.748C71.248 339.871 71.1659 339.978 71.0586 340.055C70.9513 340.132 70.8236 340.175 70.6917 340.18C70.5598 340.184 70.4296 340.149 70.3176 340.079L70.2491 340.03L69.6887 339.573L68.9845 339.738C68.856 339.769 68.7214 339.76 68.5978 339.714C68.4742 339.667 68.3671 339.585 68.2902 339.478C68.2132 339.371 68.1698 339.243 68.1655 339.111C68.1612 338.979 68.1962 338.849 68.266 338.737L68.3157 338.668L68.7721 338.108L68.6072 337.403C68.5755 337.268 68.587 337.126 68.6402 336.997C68.6933 336.869 68.7853 336.76 68.9034 336.686Z" fill="white"/>
</g>
</g>
</g>
<path d="M465.991 119.633C465.991 119.633 256.991 119.633 128.491 119.633C118.847 119.633 96.3655 138.096 72.6614 159.133" stroke="url(#paint2_linear_282_769)" stroke-width="2"/>
<g filter="url(#filter1_b_282_769)">
<rect width="48" height="48" rx="24" transform="matrix(1 0 0 -1 160.991 143.133)" fill="#2962FF" fill-opacity="0.5"/>
<rect x="0.5" y="-0.5" width="47" height="47" rx="23.5" transform="matrix(1 0 0 -1 160.991 142.133)" stroke="#2962FF" stroke-opacity="0.3"/>
<g clip-path="url(#clip3_282_769)">
<rect x="168.944" y="115.204" width="24" height="24" rx="12" transform="rotate(-32 168.944 115.204)" fill="#2962FF"/>
<g clip-path="url(#clip4_282_769)">
<path d="M181.528 116.339C181.248 115.139 182.597 114.254 183.578 114.933L183.669 115.003L184.959 116.052C185.254 116.292 185.598 116.467 185.967 116.563C186.336 116.66 186.721 116.676 187.097 116.611L187.248 116.58L188.867 116.202C190.068 115.922 190.952 117.27 190.274 118.251L190.205 118.342L189.155 119.632C188.915 119.928 188.74 120.272 188.644 120.641C188.547 121.01 188.531 121.395 188.596 121.771L188.626 121.921L189.005 123.541C189.285 124.742 187.937 125.626 186.956 124.947L186.864 124.879L185.575 123.829C185.279 123.588 184.935 123.414 184.566 123.317C184.197 123.221 183.812 123.204 183.436 123.269L183.285 123.3L181.666 123.678C180.465 123.958 179.581 122.61 180.26 121.629L180.329 121.537L181.378 120.248C181.619 119.952 181.793 119.608 181.89 119.239C181.986 118.871 182.002 118.485 181.937 118.11L181.907 117.959L181.528 116.339ZM185.903 110.895C186.009 110.829 186.131 110.794 186.256 110.794C186.381 110.793 186.503 110.828 186.609 110.894L186.677 110.943L187.238 111.4L187.942 111.235C188.071 111.205 188.205 111.213 188.329 111.26C188.452 111.306 188.559 111.388 188.636 111.495C188.713 111.602 188.757 111.73 188.761 111.862C188.765 111.994 188.73 112.124 188.661 112.236L188.611 112.305L188.154 112.865L188.319 113.57C188.349 113.698 188.341 113.833 188.294 113.956C188.248 114.08 188.166 114.187 188.059 114.264C187.951 114.341 187.824 114.384 187.692 114.388C187.56 114.393 187.43 114.358 187.318 114.288L187.249 114.239L186.689 113.782L185.984 113.947C185.856 113.977 185.721 113.969 185.598 113.922C185.474 113.876 185.367 113.794 185.29 113.687C185.213 113.579 185.17 113.452 185.166 113.32C185.161 113.188 185.196 113.058 185.266 112.946L185.316 112.877L185.772 112.316L185.607 111.612C185.576 111.477 185.587 111.335 185.64 111.206C185.693 111.077 185.785 110.969 185.903 110.895Z" fill="white"/>
</g>
</g>
</g>
<path d="M806.991 344.633C806.991 344.633 597.991 344.633 469.491 344.633C459.846 344.633 437.365 326.169 413.661 305.133" stroke="url(#paint3_linear_282_769)" stroke-width="2"/>
<g filter="url(#filter2_b_282_769)">
<rect width="48" height="48" rx="24" transform="matrix(1 0 0 -1 501.991 368.924)" fill="#2962FF" fill-opacity="0.5"/>
<rect x="0.5" y="-0.5" width="47" height="47" rx="23.5" transform="matrix(1 0 0 -1 501.991 367.924)" stroke="#2962FF" stroke-opacity="0.3"/>
<g clip-path="url(#clip5_282_769)">
<rect x="509.944" y="340.995" width="24" height="24" rx="12" transform="rotate(-32 509.944 340.995)" fill="#2962FF"/>
<g clip-path="url(#clip6_282_769)">
<path d="M522.528 342.13C522.248 340.93 523.597 340.046 524.578 340.725L524.669 340.794L525.959 341.843C526.254 342.084 526.598 342.258 526.967 342.355C527.336 342.451 527.721 342.467 528.097 342.402L528.248 342.371L529.867 341.993C531.068 341.713 531.952 343.061 531.274 344.043L531.205 344.133L530.155 345.423C529.915 345.719 529.74 346.063 529.644 346.432C529.547 346.801 529.531 347.186 529.596 347.562L529.626 347.713L530.005 349.332C530.285 350.533 528.937 351.417 527.956 350.738L527.864 350.67L526.575 349.62C526.279 349.379 525.935 349.205 525.566 349.108C525.197 349.012 524.812 348.996 524.436 349.061L524.285 349.091L522.666 349.469C521.465 349.75 520.581 348.401 521.26 347.42L521.329 347.329L522.378 346.039C522.619 345.744 522.793 345.4 522.89 345.031C522.986 344.662 523.002 344.277 522.937 343.901L522.907 343.75L522.528 342.13ZM526.903 336.686C527.009 336.62 527.131 336.585 527.256 336.585C527.381 336.585 527.503 336.62 527.609 336.685L527.677 336.735L528.238 337.191L528.942 337.026C529.071 336.996 529.205 337.005 529.329 337.051C529.452 337.097 529.559 337.179 529.636 337.286C529.713 337.394 529.757 337.521 529.761 337.653C529.765 337.785 529.73 337.916 529.661 338.028L529.611 338.096L529.154 338.657L529.319 339.361C529.349 339.49 529.341 339.624 529.294 339.748C529.248 339.871 529.166 339.978 529.059 340.055C528.951 340.132 528.824 340.175 528.692 340.18C528.56 340.184 528.43 340.149 528.318 340.079L528.249 340.03L527.689 339.573L526.984 339.738C526.856 339.769 526.721 339.76 526.598 339.714C526.474 339.667 526.367 339.585 526.29 339.478C526.213 339.371 526.17 339.243 526.166 339.111C526.161 338.979 526.196 338.849 526.266 338.737L526.316 338.668L526.772 338.108L526.607 337.403C526.576 337.268 526.587 337.126 526.64 336.997C526.693 336.869 526.785 336.76 526.903 336.686Z" fill="white"/>
</g>
</g>
</g>
</g>
<defs>
<filter id="filter0_b_282_769" x="31.9915" y="308.924" width="72" height="72" filterUnits="userSpaceOnUse" color-interpolation-filters="sRGB">
<feFlood flood-opacity="0" result="BackgroundImageFix"/>
<feGaussianBlur in="BackgroundImageFix" stdDeviation="6"/>
<feComposite in2="SourceAlpha" operator="in" result="effect1_backgroundBlur_282_769"/>
<feBlend mode="normal" in="SourceGraphic" in2="effect1_backgroundBlur_282_769" result="shape"/>
</filter>
<filter id="filter1_b_282_769" x="148.991" y="83.1327" width="72" height="72" filterUnits="userSpaceOnUse" color-interpolation-filters="sRGB">
<feFlood flood-opacity="0" result="BackgroundImageFix"/>
<feGaussianBlur in="BackgroundImageFix" stdDeviation="6"/>
<feComposite in2="SourceAlpha" operator="in" result="effect1_backgroundBlur_282_769"/>
<feBlend mode="normal" in="SourceGraphic" in2="effect1_backgroundBlur_282_769" result="shape"/>
</filter>
<filter id="filter2_b_282_769" x="489.991" y="308.924" width="72" height="72" filterUnits="userSpaceOnUse" color-interpolation-filters="sRGB">
<feFlood flood-opacity="0" result="BackgroundImageFix"/>
<feGaussianBlur in="BackgroundImageFix" stdDeviation="6"/>
<feComposite in2="SourceAlpha" operator="in" result="effect1_backgroundBlur_282_769"/>
<feBlend mode="normal" in="SourceGraphic" in2="effect1_backgroundBlur_282_769" result="shape"/>
</filter>
<linearGradient id="paint0_linear_282_769" x1="-104.009" y1="345.133" x2="374.991" y2="256.133" gradientUnits="userSpaceOnUse">
<stop offset="0.724134" stop-color="#2962FF" stop-opacity="0.3"/>
<stop offset="1" stop-color="#2962FF" stop-opacity="0.05"/>
</linearGradient>
<linearGradient id="paint1_linear_282_769" x1="-100.588" y1="344.639" x2="-100.206" y2="356.01" gradientUnits="userSpaceOnUse">
<stop offset="0.616734" stop-color="#2962FF" stop-opacity="0"/>
<stop offset="0.847155" stop-color="#2962FF"/>
</linearGradient>
<linearGradient id="paint2_linear_282_769" x1="82.9914" y1="151.133" x2="187.729" y2="96.5582" gradientUnits="userSpaceOnUse">
<stop stop-color="#2962FF"/>
<stop offset="1" stop-color="#2962FF" stop-opacity="0"/>
</linearGradient>
<linearGradient id="paint3_linear_282_769" x1="423.991" y1="313.133" x2="528.728" y2="367.707" gradientUnits="userSpaceOnUse">
<stop stop-color="#2962FF"/>
<stop offset="1" stop-color="#2962FF" stop-opacity="0"/>
</linearGradient>
<clipPath id="clip0_282_769">
<rect width="590" height="430" fill="white" transform="translate(0.797119 0.208862)"/>
</clipPath>
<clipPath id="clip1_282_769">
<rect x="51.9441" y="340.995" width="24" height="24" rx="12" transform="rotate(-32 51.9441 340.995)" fill="white"/>
</clipPath>
<clipPath id="clip2_282_769">
<rect width="16" height="16" fill="white" transform="translate(57.4561 342.268) rotate(-32)"/>
</clipPath>
<clipPath id="clip3_282_769">
<rect x="168.944" y="115.204" width="24" height="24" rx="12" transform="rotate(-32 168.944 115.204)" fill="white"/>
</clipPath>
<clipPath id="clip4_282_769">
<rect width="16" height="16" fill="white" transform="translate(174.456 116.476) rotate(-32)"/>
</clipPath>
<clipPath id="clip5_282_769">
<rect x="509.944" y="340.995" width="24" height="24" rx="12" transform="rotate(-32 509.944 340.995)" fill="white"/>
</clipPath>
<clipPath id="clip6_282_769">
<rect width="16" height="16" fill="white" transform="translate(515.456 342.268) rotate(-32)"/>
</clipPath>
</defs>
</svg>
